G04*
G04 #@! TF.GenerationSoftware,Altium Limited,Altium Designer,18.1.6 (161)*
G04*
G04 Layer_Color=255*
%FSTAX24Y24*%
%MOIN*%
G70*
G01*
G75*
%ADD21R,0.0500X0.0550*%
%ADD22R,0.0550X0.0500*%
%ADD23O,0.0400X0.0600*%
%ADD24O,0.0600X0.0400*%
%ADD28R,0.0945X0.0394*%
%ADD29R,0.0945X0.1299*%
%ADD78O,0.0750X0.0480*%
%ADD91R,0.0750X0.0650*%
%ADD92O,0.0750X0.0650*%
%ADD93C,0.0512*%
%ADD94O,0.0650X0.0900*%
%ADD95R,0.0650X0.0900*%
%ADD96C,0.1380*%
%ADD97C,0.0650*%
%ADD98R,0.0650X0.0650*%
%ADD99O,0.0650X0.0750*%
%ADD100O,0.0650X0.0850*%
%ADD101R,0.0650X0.0850*%
%ADD102R,0.0650X0.0750*%
%ADD103C,0.0800*%
%ADD104R,0.0800X0.0800*%
%ADD105C,0.0240*%
%ADD106C,0.0570*%
%ADD107O,0.0860X0.0600*%
%ADD108C,0.0886*%
%ADD109R,0.0886X0.0886*%
%ADD110R,0.0827X0.0827*%
%ADD111C,0.0827*%
%ADD112R,0.0827X0.0827*%
%ADD115O,0.0800X0.0600*%
%ADD116R,0.0520X0.0220*%
%ADD117R,0.0220X0.0520*%
%ADD118R,0.1000X0.0256*%
%ADD119R,0.0210X0.0670*%
%ADD120R,0.0210X0.0710*%
%ADD121R,0.0600X0.0210*%
D21*
X01962Y048D02*
D03*
X01872D02*
D03*
X04151Y03273D02*
D03*
X04061D02*
D03*
X03627Y02733D02*
D03*
X03537D02*
D03*
X04013Y03488D02*
D03*
X04103D02*
D03*
X048705Y034145D02*
D03*
X047805D02*
D03*
X01872Y04D02*
D03*
X01962D02*
D03*
X01872Y04104D02*
D03*
X01962D02*
D03*
X03773Y03432D02*
D03*
X03683D02*
D03*
X028221Y02896D02*
D03*
X027321D02*
D03*
X028221Y02817D02*
D03*
X027321D02*
D03*
X028221Y02736D02*
D03*
X027321D02*
D03*
X0252D02*
D03*
X0261D02*
D03*
X0252Y02817D02*
D03*
X0261D02*
D03*
X0252Y02896D02*
D03*
X0261D02*
D03*
X047355Y03296D02*
D03*
X048255D02*
D03*
X0433Y03654D02*
D03*
X0424D02*
D03*
X0433Y03808D02*
D03*
X0424D02*
D03*
X0433Y037295D02*
D03*
X0424D02*
D03*
X03714Y04296D02*
D03*
X03624D02*
D03*
X01842Y044487D02*
D03*
X01932D02*
D03*
D22*
X0256Y03328D02*
D03*
Y03418D02*
D03*
X0476Y03928D02*
D03*
Y03838D02*
D03*
X04872Y0406D02*
D03*
Y0415D02*
D03*
X036475Y03824D02*
D03*
Y03734D02*
D03*
Y03902D02*
D03*
Y03992D02*
D03*
X04576Y0375D02*
D03*
Y0366D02*
D03*
X04816Y03752D02*
D03*
Y03662D02*
D03*
X048305Y042475D02*
D03*
Y043375D02*
D03*
X04752Y04248D02*
D03*
Y04338D02*
D03*
X042417Y034189D02*
D03*
Y033289D02*
D03*
X04478Y034095D02*
D03*
Y033195D02*
D03*
X04051Y022865D02*
D03*
Y023765D02*
D03*
D23*
X045625Y03906D02*
D03*
X045025D02*
D03*
X044425D02*
D03*
X04384D02*
D03*
X04324D02*
D03*
X04265D02*
D03*
X04206D02*
D03*
X04147D02*
D03*
D24*
X04625Y03964D02*
D03*
Y04021D02*
D03*
Y04081D02*
D03*
Y04141D02*
D03*
Y042D02*
D03*
Y042595D02*
D03*
Y04317D02*
D03*
Y04376D02*
D03*
Y04436D02*
D03*
Y04493D02*
D03*
Y04553D02*
D03*
Y04613D02*
D03*
Y04672D02*
D03*
X04079Y03964D02*
D03*
Y04021D02*
D03*
Y04081D02*
D03*
Y04141D02*
D03*
Y042D02*
D03*
Y042595D02*
D03*
Y04317D02*
D03*
Y04376D02*
D03*
Y04436D02*
D03*
Y04493D02*
D03*
Y04553D02*
D03*
Y04613D02*
D03*
Y04672D02*
D03*
D28*
X014778Y049066D02*
D03*
Y04816D02*
D03*
Y047254D02*
D03*
X015098Y039754D02*
D03*
Y04066D02*
D03*
Y041566D02*
D03*
X014858Y0436D02*
D03*
Y044505D02*
D03*
Y045411D02*
D03*
D29*
X017062Y04816D02*
D03*
X017382Y04066D02*
D03*
X017142Y044505D02*
D03*
D78*
X048733Y047881D02*
D03*
Y045125D02*
D03*
D91*
X03952Y02403D02*
D03*
X02184Y02704D02*
D03*
X040545Y047265D02*
D03*
X03864Y04013D02*
D03*
X03931Y03648D02*
D03*
Y03339D02*
D03*
X013259Y0485D02*
D03*
X037292Y03812D02*
D03*
X0188Y02716D02*
D03*
X0125Y02712D02*
D03*
X0108Y0272D02*
D03*
X0156Y02712D02*
D03*
X01416Y02716D02*
D03*
X01728D02*
D03*
X02032Y02712D02*
D03*
D92*
X03952Y02504D02*
D03*
Y02602D02*
D03*
X02184Y02805D02*
D03*
Y02903D02*
D03*
X040545Y048275D02*
D03*
Y049255D02*
D03*
X03864Y03912D02*
D03*
Y03814D02*
D03*
X03931Y03547D02*
D03*
Y0344D02*
D03*
X013259Y04951D02*
D03*
X037292Y03913D02*
D03*
Y04011D02*
D03*
X0188Y02915D02*
D03*
Y02817D02*
D03*
X0125Y02911D02*
D03*
Y02813D02*
D03*
X0108Y02919D02*
D03*
Y02821D02*
D03*
X0156Y02911D02*
D03*
Y02813D02*
D03*
X01416Y02915D02*
D03*
Y02817D02*
D03*
X01728Y02915D02*
D03*
Y02817D02*
D03*
X02032Y02911D02*
D03*
Y02813D02*
D03*
D93*
X02804Y02663D02*
D03*
X02904D02*
D03*
X03004D02*
D03*
Y02963D02*
D03*
X02904D02*
D03*
X02804D02*
D03*
X02364D02*
D03*
X02464D02*
D03*
X02564D02*
D03*
Y02663D02*
D03*
X02464D02*
D03*
X02364D02*
D03*
D94*
X0327Y0412D02*
D03*
X0307D02*
D03*
X0287D02*
D03*
X0277D02*
D03*
X0267D02*
D03*
X0297D02*
D03*
X0317D02*
D03*
X0337D02*
D03*
X0347D02*
D03*
X0316Y03984D02*
D03*
X0326D02*
D03*
X0336D02*
D03*
X0306D02*
D03*
D95*
X0257Y0412D02*
D03*
X0346Y03984D02*
D03*
D96*
X04848Y04888D02*
D03*
Y02352D02*
D03*
X01112Y04888D02*
D03*
Y02352D02*
D03*
D97*
X02298Y031402D02*
D03*
X02398D02*
D03*
X02498D02*
D03*
X02598D02*
D03*
X02998D02*
D03*
X02898D02*
D03*
X02798D02*
D03*
X02898Y036402D02*
D03*
X02798D02*
D03*
X02298D02*
D03*
X02398D02*
D03*
X02498D02*
D03*
X02598D02*
D03*
X02698Y031402D02*
D03*
Y036402D02*
D03*
X01842Y036402D02*
D03*
Y031402D02*
D03*
X01742Y036402D02*
D03*
X01642D02*
D03*
X01542D02*
D03*
X01442D02*
D03*
X01942D02*
D03*
X02042D02*
D03*
X01942Y031402D02*
D03*
X02042D02*
D03*
X02142D02*
D03*
X01742D02*
D03*
X01642D02*
D03*
X01542D02*
D03*
X01442D02*
D03*
D98*
X02998Y036402D02*
D03*
X02142Y036402D02*
D03*
D99*
X026331Y0397D02*
D03*
X027341D02*
D03*
X028321D02*
D03*
X029331D02*
D03*
X027321Y03768D02*
D03*
X026341D02*
D03*
X0146Y0383D02*
D03*
X01827Y03816D02*
D03*
X02353Y037663D02*
D03*
X02451D02*
D03*
X03774Y0476D02*
D03*
X03676D02*
D03*
X036375Y04904D02*
D03*
X037385D02*
D03*
X038365D02*
D03*
X039375D02*
D03*
X01987Y04896D02*
D03*
D100*
X04268Y03504D02*
D03*
X04368D02*
D03*
X04468D02*
D03*
X04568D02*
D03*
X04668D02*
D03*
X04768D02*
D03*
X04824Y02632D02*
D03*
X04624D02*
D03*
X04524D02*
D03*
X04424D02*
D03*
X04724D02*
D03*
X047001Y0236D02*
D03*
X045951D02*
D03*
X044931D02*
D03*
X043901D02*
D03*
X042851D02*
D03*
X041801D02*
D03*
D101*
X04324Y02632D02*
D03*
D102*
X028331Y03768D02*
D03*
X01359Y0383D02*
D03*
X01928Y03816D02*
D03*
X02252Y037663D02*
D03*
X03875Y0476D02*
D03*
X02088Y04896D02*
D03*
D103*
X03808Y041773D02*
D03*
D104*
Y04456D02*
D03*
D105*
X048868Y047881D02*
D03*
X048598D02*
D03*
X048868Y045125D02*
D03*
X048598D02*
D03*
D106*
X04767Y047488D02*
D03*
Y045519D02*
D03*
D107*
X0338Y0286D02*
D03*
Y0296D02*
D03*
Y0306D02*
D03*
Y0316D02*
D03*
X0348D02*
D03*
Y0306D02*
D03*
Y0296D02*
D03*
Y0286D02*
D03*
D108*
X011811Y034252D02*
D03*
Y03622D02*
D03*
D109*
Y032283D02*
D03*
D110*
X013339Y04291D02*
D03*
X013259Y04699D02*
D03*
D111*
X013339Y04141D02*
D03*
X013259Y04549D02*
D03*
X034542Y025579D02*
D03*
X036042D02*
D03*
X037542D02*
D03*
X02789D02*
D03*
X02939D02*
D03*
X03089D02*
D03*
X02125D02*
D03*
X02275D02*
D03*
X02425D02*
D03*
X01453D02*
D03*
X01603D02*
D03*
X01753D02*
D03*
D112*
X033042D02*
D03*
X02639D02*
D03*
X01975D02*
D03*
X01303D02*
D03*
D115*
X04224Y02792D02*
D03*
Y02892D02*
D03*
Y02992D02*
D03*
Y03092D02*
D03*
Y03192D02*
D03*
D116*
X047439Y0368D02*
D03*
X046733Y037175D02*
D03*
Y036425D02*
D03*
X048094Y041D02*
D03*
X047388Y041375D02*
D03*
Y040625D02*
D03*
X048999Y038835D02*
D03*
X048293Y03921D02*
D03*
Y03846D02*
D03*
X037224Y04432D02*
D03*
X036518Y044695D02*
D03*
Y043945D02*
D03*
D117*
X038135Y035259D02*
D03*
X03851Y035965D02*
D03*
X03776D02*
D03*
X04355Y033869D02*
D03*
X043175Y033163D02*
D03*
X043925D02*
D03*
D118*
X026969Y048442D02*
D03*
Y048049D02*
D03*
Y047655D02*
D03*
Y047261D02*
D03*
Y046867D02*
D03*
Y046474D02*
D03*
Y04608D02*
D03*
Y045686D02*
D03*
Y045293D02*
D03*
Y044899D02*
D03*
Y044505D02*
D03*
Y044111D02*
D03*
Y043718D02*
D03*
Y043324D02*
D03*
Y04293D02*
D03*
Y042537D02*
D03*
Y042143D02*
D03*
X0345Y048442D02*
D03*
Y048049D02*
D03*
Y047655D02*
D03*
Y047261D02*
D03*
Y046867D02*
D03*
Y046474D02*
D03*
Y04608D02*
D03*
Y045686D02*
D03*
Y045293D02*
D03*
Y044899D02*
D03*
Y044505D02*
D03*
Y044111D02*
D03*
Y043718D02*
D03*
Y043324D02*
D03*
Y04293D02*
D03*
Y042537D02*
D03*
Y042143D02*
D03*
D119*
X026274Y032886D02*
D03*
X026774D02*
D03*
X027274D02*
D03*
X027774D02*
D03*
X028274D02*
D03*
X028774D02*
D03*
X029274D02*
D03*
Y034936D02*
D03*
X028774D02*
D03*
X028274D02*
D03*
X027774D02*
D03*
X027274D02*
D03*
X026774D02*
D03*
X026274D02*
D03*
D120*
X03575Y03188D02*
D03*
X03625D02*
D03*
X03675D02*
D03*
X03725D02*
D03*
X03775D02*
D03*
X03825D02*
D03*
X03875D02*
D03*
X03925D02*
D03*
X03975D02*
D03*
X04025D02*
D03*
Y02812D02*
D03*
X03975D02*
D03*
X03925D02*
D03*
X03875D02*
D03*
X03825D02*
D03*
X03775D02*
D03*
X03725D02*
D03*
X03675D02*
D03*
X03625D02*
D03*
X03575D02*
D03*
D121*
X041467Y034189D02*
D03*
Y033815D02*
D03*
Y033441D02*
D03*
X040373Y034189D02*
D03*
Y033441D02*
D03*
M02*
