G04*
G04 #@! TF.GenerationSoftware,Altium Limited,Altium Designer,18.1.6 (161)*
G04*
G04 Layer_Color=16711935*
%FSTAX24Y24*%
%MOIN*%
G70*
G01*
G75*
%ADD46R,0.0630X0.0580*%
%ADD47R,0.0580X0.0630*%
%ADD48O,0.0480X0.0680*%
%ADD49O,0.0680X0.0480*%
%ADD53R,0.1025X0.0474*%
%ADD54R,0.1025X0.1379*%
%ADD64O,0.0750X0.0480*%
%ADD65C,0.0650*%
%ADD66C,0.0320*%
%ADD67R,0.0830X0.0730*%
%ADD68O,0.0830X0.0730*%
%ADD69C,0.0592*%
%ADD70O,0.0730X0.0980*%
%ADD71R,0.0730X0.0980*%
%ADD72C,0.1460*%
%ADD73C,0.0730*%
%ADD74R,0.0730X0.0730*%
%ADD75O,0.0730X0.0830*%
%ADD76O,0.0730X0.0930*%
%ADD77R,0.0730X0.0930*%
%ADD78R,0.0730X0.0830*%
%ADD79C,0.0880*%
%ADD80R,0.0880X0.0880*%
%ADD81O,0.0940X0.0680*%
%ADD82C,0.0966*%
%ADD83R,0.0966X0.0966*%
%ADD84R,0.0907X0.0907*%
%ADD85C,0.0907*%
%ADD86R,0.0907X0.0907*%
%ADD87C,0.0395*%
%ADD119R,0.0210X0.0670*%
%ADD120R,0.0210X0.0710*%
%ADD122O,0.0880X0.0680*%
%ADD123R,0.0600X0.0300*%
%ADD124R,0.0300X0.0600*%
%ADD125R,0.1080X0.0336*%
%ADD126R,0.0680X0.0290*%
D46*
X0256Y03328D02*
D03*
Y03418D02*
D03*
X0476Y03928D02*
D03*
Y03838D02*
D03*
X04872Y0406D02*
D03*
Y0415D02*
D03*
X036475Y03824D02*
D03*
Y03734D02*
D03*
Y03902D02*
D03*
Y03992D02*
D03*
X04576Y0375D02*
D03*
Y0366D02*
D03*
X04816Y03752D02*
D03*
Y03662D02*
D03*
X048305Y042475D02*
D03*
Y043375D02*
D03*
X04752Y04248D02*
D03*
Y04338D02*
D03*
X042417Y034189D02*
D03*
Y033289D02*
D03*
X04478Y034095D02*
D03*
Y033195D02*
D03*
X04051Y022865D02*
D03*
Y023765D02*
D03*
D47*
X01962Y048D02*
D03*
X01872D02*
D03*
X04151Y03273D02*
D03*
X04061D02*
D03*
X03627Y02733D02*
D03*
X03537D02*
D03*
X04013Y03488D02*
D03*
X04103D02*
D03*
X048705Y034145D02*
D03*
X047805D02*
D03*
X01872Y04D02*
D03*
X01962D02*
D03*
X01872Y04104D02*
D03*
X01962D02*
D03*
X03773Y03432D02*
D03*
X03683D02*
D03*
X028221Y02896D02*
D03*
X027321D02*
D03*
X028221Y02817D02*
D03*
X027321D02*
D03*
X028221Y02736D02*
D03*
X027321D02*
D03*
X0252D02*
D03*
X0261D02*
D03*
X0252Y02817D02*
D03*
X0261D02*
D03*
X0252Y02896D02*
D03*
X0261D02*
D03*
X047355Y03296D02*
D03*
X048255D02*
D03*
X0433Y03654D02*
D03*
X0424D02*
D03*
X0433Y03808D02*
D03*
X0424D02*
D03*
X0433Y037295D02*
D03*
X0424D02*
D03*
X03714Y04296D02*
D03*
X03624D02*
D03*
X01842Y044487D02*
D03*
X01932D02*
D03*
D48*
X045625Y03906D02*
D03*
X045025D02*
D03*
X044425D02*
D03*
X04384D02*
D03*
X04324D02*
D03*
X04265D02*
D03*
X04206D02*
D03*
X04147D02*
D03*
D49*
X04625Y03964D02*
D03*
Y04021D02*
D03*
Y04081D02*
D03*
Y04141D02*
D03*
Y042D02*
D03*
Y042595D02*
D03*
Y04317D02*
D03*
Y04376D02*
D03*
Y04436D02*
D03*
Y04493D02*
D03*
Y04553D02*
D03*
Y04613D02*
D03*
Y04672D02*
D03*
X04079Y03964D02*
D03*
Y04021D02*
D03*
Y04081D02*
D03*
Y04141D02*
D03*
Y042D02*
D03*
Y042595D02*
D03*
Y04317D02*
D03*
Y04376D02*
D03*
Y04436D02*
D03*
Y04493D02*
D03*
Y04553D02*
D03*
Y04613D02*
D03*
Y04672D02*
D03*
D53*
X014778Y049066D02*
D03*
Y04816D02*
D03*
Y047254D02*
D03*
X015098Y039754D02*
D03*
Y04066D02*
D03*
Y041566D02*
D03*
X014858Y0436D02*
D03*
Y044505D02*
D03*
Y045411D02*
D03*
D54*
X017062Y04816D02*
D03*
X017382Y04066D02*
D03*
X017142Y044505D02*
D03*
D64*
X048733Y045125D02*
D03*
Y047881D02*
D03*
D65*
X04767Y045519D02*
D03*
Y047488D02*
D03*
D66*
X048598Y045125D02*
D03*
X048868D02*
D03*
X048598Y047881D02*
D03*
X048868D02*
D03*
D67*
X03952Y02403D02*
D03*
X02184Y02704D02*
D03*
X040545Y047265D02*
D03*
X03864Y04013D02*
D03*
X03931Y03648D02*
D03*
Y03339D02*
D03*
X013259Y0485D02*
D03*
X037292Y03812D02*
D03*
X0188Y02716D02*
D03*
X0125Y02712D02*
D03*
X0108Y0272D02*
D03*
X0156Y02712D02*
D03*
X01416Y02716D02*
D03*
X01728D02*
D03*
X02032Y02712D02*
D03*
D68*
X03952Y02504D02*
D03*
Y02602D02*
D03*
X02184Y02805D02*
D03*
Y02903D02*
D03*
X040545Y048275D02*
D03*
Y049255D02*
D03*
X03864Y03912D02*
D03*
Y03814D02*
D03*
X03931Y03547D02*
D03*
Y0344D02*
D03*
X013259Y04951D02*
D03*
X037292Y03913D02*
D03*
Y04011D02*
D03*
X0188Y02915D02*
D03*
Y02817D02*
D03*
X0125Y02911D02*
D03*
Y02813D02*
D03*
X0108Y02919D02*
D03*
Y02821D02*
D03*
X0156Y02911D02*
D03*
Y02813D02*
D03*
X01416Y02915D02*
D03*
Y02817D02*
D03*
X01728Y02915D02*
D03*
Y02817D02*
D03*
X02032Y02911D02*
D03*
Y02813D02*
D03*
D69*
X02804Y02663D02*
D03*
X02904D02*
D03*
X03004D02*
D03*
Y02963D02*
D03*
X02904D02*
D03*
X02804D02*
D03*
X02364D02*
D03*
X02464D02*
D03*
X02564D02*
D03*
Y02663D02*
D03*
X02464D02*
D03*
X02364D02*
D03*
D70*
X0327Y0412D02*
D03*
X0307D02*
D03*
X0287D02*
D03*
X0277D02*
D03*
X0267D02*
D03*
X0297D02*
D03*
X0317D02*
D03*
X0337D02*
D03*
X0347D02*
D03*
X0316Y03984D02*
D03*
X0326D02*
D03*
X0336D02*
D03*
X0306D02*
D03*
D71*
X0257Y0412D02*
D03*
X0346Y03984D02*
D03*
D72*
X04848Y04888D02*
D03*
Y02352D02*
D03*
X01112Y04888D02*
D03*
Y02352D02*
D03*
D73*
X02298Y031402D02*
D03*
X02398D02*
D03*
X02498D02*
D03*
X02598D02*
D03*
X02998D02*
D03*
X02898D02*
D03*
X02798D02*
D03*
X02898Y036402D02*
D03*
X02798D02*
D03*
X02298D02*
D03*
X02398D02*
D03*
X02498D02*
D03*
X02598D02*
D03*
X02698Y031402D02*
D03*
Y036402D02*
D03*
X01842Y036402D02*
D03*
Y031402D02*
D03*
X01742Y036402D02*
D03*
X01642D02*
D03*
X01542D02*
D03*
X01442D02*
D03*
X01942D02*
D03*
X02042D02*
D03*
X01942Y031402D02*
D03*
X02042D02*
D03*
X02142D02*
D03*
X01742D02*
D03*
X01642D02*
D03*
X01542D02*
D03*
X01442D02*
D03*
D74*
X02998Y036402D02*
D03*
X02142Y036402D02*
D03*
D75*
X026331Y0397D02*
D03*
X027341D02*
D03*
X028321D02*
D03*
X029331D02*
D03*
X027321Y03768D02*
D03*
X026341D02*
D03*
X0146Y0383D02*
D03*
X01827Y03816D02*
D03*
X02353Y037663D02*
D03*
X02451D02*
D03*
X03774Y0476D02*
D03*
X03676D02*
D03*
X036375Y04904D02*
D03*
X037385D02*
D03*
X038365D02*
D03*
X039375D02*
D03*
X01987Y04896D02*
D03*
D76*
X04268Y03504D02*
D03*
X04368D02*
D03*
X04468D02*
D03*
X04568D02*
D03*
X04668D02*
D03*
X04768D02*
D03*
X04824Y02632D02*
D03*
X04624D02*
D03*
X04524D02*
D03*
X04424D02*
D03*
X04724D02*
D03*
X047001Y0236D02*
D03*
X045951D02*
D03*
X044931D02*
D03*
X043901D02*
D03*
X042851D02*
D03*
X041801D02*
D03*
D77*
X04324Y02632D02*
D03*
D78*
X028331Y03768D02*
D03*
X01359Y0383D02*
D03*
X01928Y03816D02*
D03*
X02252Y037663D02*
D03*
X03875Y0476D02*
D03*
X02088Y04896D02*
D03*
D79*
X03808Y041773D02*
D03*
D80*
Y04456D02*
D03*
D81*
X0338Y0286D02*
D03*
Y0296D02*
D03*
Y0306D02*
D03*
Y0316D02*
D03*
X0348D02*
D03*
Y0306D02*
D03*
Y0296D02*
D03*
Y0286D02*
D03*
D82*
X011811Y034252D02*
D03*
Y03622D02*
D03*
D83*
Y032283D02*
D03*
D84*
X013339Y04291D02*
D03*
X013259Y04699D02*
D03*
D85*
X013339Y04141D02*
D03*
X013259Y04549D02*
D03*
X034542Y025579D02*
D03*
X036042D02*
D03*
X037542D02*
D03*
X02789D02*
D03*
X02939D02*
D03*
X03089D02*
D03*
X02125D02*
D03*
X02275D02*
D03*
X02425D02*
D03*
X01453D02*
D03*
X01603D02*
D03*
X01753D02*
D03*
D86*
X033042D02*
D03*
X02639D02*
D03*
X01975D02*
D03*
X01303D02*
D03*
D87*
X04824Y04197D02*
D03*
X049115Y04208D02*
D03*
X049078Y037585D02*
D03*
X014075Y0424D02*
D03*
X048255Y03354D02*
D03*
X039428Y046115D02*
D03*
X04156Y038237D02*
D03*
X012248Y040293D02*
D03*
X013414D02*
D03*
X04479Y048882D02*
D03*
X04576Y047965D02*
D03*
X043075Y047255D02*
D03*
X04301Y048905D02*
D03*
X01358Y035245D02*
D03*
X01499Y033605D02*
D03*
X012725Y0336D02*
D03*
X02129Y03759D02*
D03*
X022459Y03451D02*
D03*
X037009Y02392D02*
D03*
X0383Y026425D02*
D03*
X036365D02*
D03*
X035775Y026795D02*
D03*
X02969Y0342D02*
D03*
X030365Y033925D02*
D03*
X028485Y034235D02*
D03*
X027761Y03381D02*
D03*
X026975Y033705D02*
D03*
X03181Y03394D02*
D03*
X024355Y04121D02*
D03*
X02129Y04089D02*
D03*
Y041515D02*
D03*
X033825Y03517D02*
D03*
X035Y038135D02*
D03*
X044515Y04672D02*
D03*
X02928Y037945D02*
D03*
X025672Y038415D02*
D03*
X02671D02*
D03*
X024835Y038715D02*
D03*
X02992Y03856D02*
D03*
X03207Y03787D02*
D03*
X031818Y038183D02*
D03*
X031485Y03846D02*
D03*
X03432Y03712D02*
D03*
X030792Y037852D02*
D03*
X0304Y038035D02*
D03*
X03224Y039275D02*
D03*
X03278Y033843D02*
D03*
X032625Y03326D02*
D03*
X03399Y03316D02*
D03*
X03387Y033775D02*
D03*
X034416Y032796D02*
D03*
X03481Y03305D02*
D03*
X033465Y032775D02*
D03*
X03273Y036025D02*
D03*
X034645Y03574D02*
D03*
X03487Y034085D02*
D03*
X035295Y04062D02*
D03*
X035255Y04325D02*
D03*
X035605Y044145D02*
D03*
X04578Y045875D02*
D03*
X04533Y04458D02*
D03*
X026253Y044505D02*
D03*
X040015Y040235D02*
D03*
X04154Y036545D02*
D03*
X04086Y03664D02*
D03*
X039725Y037685D02*
D03*
X03263Y03676D02*
D03*
X032535Y03721D02*
D03*
X033915Y036364D02*
D03*
X025135Y03367D02*
D03*
X024113Y032454D02*
D03*
Y035483D02*
D03*
X024562Y03277D02*
D03*
X024572Y0352D02*
D03*
X040605Y031204D02*
D03*
X041015Y031863D02*
D03*
X04128Y030465D02*
D03*
X04755Y04844D02*
D03*
X037348Y035157D02*
D03*
X036135Y036025D02*
D03*
X03949Y038605D02*
D03*
X03635Y03664D02*
D03*
X03769Y036929D02*
D03*
X035255Y04502D02*
D03*
X03522Y04616D02*
D03*
X03261Y032765D02*
D03*
X030135Y03218D02*
D03*
X03252D02*
D03*
X024585Y044555D02*
D03*
X03616Y0424D02*
D03*
X026665Y04904D02*
D03*
X029635Y04448D02*
D03*
X031587Y03488D02*
D03*
X02592Y0348D02*
D03*
X02624Y03216D02*
D03*
X02647Y02963D02*
D03*
X02073Y04152D02*
D03*
X029795Y04248D02*
D03*
X028824Y044136D02*
D03*
X02824Y04216D02*
D03*
X0292D02*
D03*
X03608Y04504D02*
D03*
X03864Y04116D02*
D03*
X0288Y03904D02*
D03*
X02944Y0388D02*
D03*
X02624Y047677D02*
D03*
X02848Y03576D02*
D03*
X02632D02*
D03*
X02552D02*
D03*
X02266Y0469D02*
D03*
X02272Y048948D02*
D03*
X0232Y0412D02*
D03*
X03352Y03712D02*
D03*
X032168Y027942D02*
D03*
X03216Y03144D02*
D03*
X030637Y03552D02*
D03*
X031413Y036455D02*
D03*
X031302Y037018D02*
D03*
X03024Y035065D02*
D03*
X035708Y04951D02*
D03*
X04468Y04384D02*
D03*
X040143Y037377D02*
D03*
X048599Y04408D02*
D03*
X038083Y04088D02*
D03*
X03696Y04208D02*
D03*
X03656Y04216D02*
D03*
X042Y035551D02*
D03*
X03688Y03544D02*
D03*
X04008Y035551D02*
D03*
X04072Y038274D02*
D03*
X0404Y036498D02*
D03*
X029418Y03678D02*
D03*
X02928Y0356D02*
D03*
X03089Y037051D02*
D03*
X03176Y027243D02*
D03*
X037708Y026292D02*
D03*
X03472Y03686D02*
D03*
X04672Y04232D02*
D03*
X04816Y044257D02*
D03*
X047388Y04176D02*
D03*
X047426Y037893D02*
D03*
X04724Y03752D02*
D03*
X04696Y038046D02*
D03*
X04632D02*
D03*
X04576Y03808D02*
D03*
X0448Y03744D02*
D03*
X03832Y03392D02*
D03*
X043937Y03744D02*
D03*
X04712Y046922D02*
D03*
Y04624D02*
D03*
X03676Y03272D02*
D03*
X0337Y04488D02*
D03*
X0317Y04616D02*
D03*
X0352Y04568D02*
D03*
X02888Y04584D02*
D03*
X02856Y04549D02*
D03*
X0364Y04665D02*
D03*
X037438Y04504D02*
D03*
X036106Y045489D02*
D03*
X01952Y03D02*
D03*
X02163Y03054D02*
D03*
X01827Y02456D02*
D03*
X02298Y03054D02*
D03*
X0168Y03056D02*
D03*
X011579Y028939D02*
D03*
X03672Y0236D02*
D03*
X03872Y02752D02*
D03*
X039227Y02728D02*
D03*
X0444Y0304D02*
D03*
X04504Y0312D02*
D03*
X022492Y028341D02*
D03*
X02104Y02784D02*
D03*
X01312Y027942D02*
D03*
X011579Y02816D02*
D03*
X03848Y04336D02*
D03*
D119*
X026274Y032886D02*
D03*
X026774D02*
D03*
X027274D02*
D03*
X027774D02*
D03*
X028274D02*
D03*
X028774D02*
D03*
X029274D02*
D03*
Y034936D02*
D03*
X028774D02*
D03*
X028274D02*
D03*
X027774D02*
D03*
X027274D02*
D03*
X026774D02*
D03*
X026274D02*
D03*
D120*
X03575Y03188D02*
D03*
X03625D02*
D03*
X03675D02*
D03*
X03725D02*
D03*
X03775D02*
D03*
X03825D02*
D03*
X03875D02*
D03*
X03925D02*
D03*
X03975D02*
D03*
X04025D02*
D03*
Y02812D02*
D03*
X03975D02*
D03*
X03925D02*
D03*
X03875D02*
D03*
X03825D02*
D03*
X03775D02*
D03*
X03725D02*
D03*
X03675D02*
D03*
X03625D02*
D03*
X03575D02*
D03*
D122*
X04224Y02792D02*
D03*
Y02892D02*
D03*
Y02992D02*
D03*
Y03092D02*
D03*
Y03192D02*
D03*
D123*
X047439Y0368D02*
D03*
X046733Y037175D02*
D03*
Y036425D02*
D03*
X048094Y041D02*
D03*
X047388Y041375D02*
D03*
Y040625D02*
D03*
X048999Y038835D02*
D03*
X048293Y03921D02*
D03*
Y03846D02*
D03*
X037224Y04432D02*
D03*
X036518Y044695D02*
D03*
Y043945D02*
D03*
D124*
X038135Y035259D02*
D03*
X03851Y035965D02*
D03*
X03776D02*
D03*
X04355Y033869D02*
D03*
X043175Y033163D02*
D03*
X043925D02*
D03*
D125*
X026969Y048442D02*
D03*
Y048049D02*
D03*
Y047655D02*
D03*
Y047261D02*
D03*
Y046867D02*
D03*
Y046474D02*
D03*
Y04608D02*
D03*
Y045686D02*
D03*
Y045293D02*
D03*
Y044899D02*
D03*
Y044505D02*
D03*
Y044111D02*
D03*
Y043718D02*
D03*
Y043324D02*
D03*
Y04293D02*
D03*
Y042537D02*
D03*
Y042143D02*
D03*
X0345Y048442D02*
D03*
Y048049D02*
D03*
Y047655D02*
D03*
Y047261D02*
D03*
Y046867D02*
D03*
Y046474D02*
D03*
Y04608D02*
D03*
Y045686D02*
D03*
Y045293D02*
D03*
Y044899D02*
D03*
Y044505D02*
D03*
Y044111D02*
D03*
Y043718D02*
D03*
Y043324D02*
D03*
Y04293D02*
D03*
Y042537D02*
D03*
Y042143D02*
D03*
D126*
X041467Y034189D02*
D03*
Y033815D02*
D03*
Y033441D02*
D03*
X040373Y034189D02*
D03*
Y033441D02*
D03*
M02*
