G04*
G04 #@! TF.GenerationSoftware,Altium Limited,Altium Designer,18.1.6 (161)*
G04*
G04 Layer_Physical_Order=1*
G04 Layer_Color=255*
%FSTAX24Y24*%
%MOIN*%
G70*
G01*
G75*
%ADD10C,0.0200*%
%ADD12C,0.0080*%
%ADD18C,0.0100*%
%ADD21R,0.0530X0.0160*%
%ADD22R,0.0750X0.0590*%
%ADD23R,0.0550X0.0500*%
%ADD24R,0.0500X0.0550*%
%ADD25O,0.0400X0.0600*%
%ADD26O,0.0600X0.0400*%
%ADD27O,0.0850X0.0650*%
%ADD28R,0.0850X0.0650*%
%ADD29R,0.1240X0.0630*%
%ADD30R,0.0945X0.0394*%
%ADD31R,0.0945X0.1299*%
%ADD32R,0.0472X0.0433*%
%ADD33R,0.0433X0.0472*%
%ADD34R,0.0380X0.0080*%
%ADD35R,0.0080X0.0380*%
%ADD36R,0.0787X0.0787*%
%ADD37R,0.0500X0.0870*%
%ADD38R,0.0110X0.0580*%
%ADD39R,0.0580X0.0110*%
%ADD40R,0.0787X0.0591*%
%ADD41R,0.0591X0.0787*%
%ADD42R,0.1540X0.0390*%
%ADD43R,0.4510X0.4110*%
%ADD57R,0.1000X0.1000*%
%ADD64O,0.0750X0.0480*%
%ADD88C,0.0150*%
%ADD89C,0.0120*%
%ADD90C,0.0140*%
%ADD91C,0.0570*%
%ADD92C,0.0240*%
%ADD93R,0.0750X0.0650*%
%ADD94O,0.0750X0.0650*%
%ADD95C,0.0512*%
%ADD96O,0.0650X0.0900*%
%ADD97R,0.0650X0.0900*%
%ADD98C,0.1380*%
%ADD99C,0.0650*%
%ADD100R,0.0650X0.0650*%
%ADD101O,0.0650X0.0750*%
%ADD102O,0.0650X0.0850*%
%ADD103R,0.0650X0.0850*%
%ADD104R,0.0650X0.0750*%
%ADD105C,0.0800*%
%ADD106R,0.0800X0.0800*%
%ADD107O,0.0860X0.0600*%
%ADD108C,0.0886*%
%ADD109R,0.0886X0.0886*%
%ADD110R,0.0827X0.0827*%
%ADD111C,0.0827*%
%ADD112R,0.0827X0.0827*%
%ADD113C,0.0315*%
%ADD114C,0.0240*%
G36*
X049273Y049092D02*
X049223Y049084D01*
X049195Y049176D01*
X049123Y04931D01*
X049027Y049427D01*
X04891Y049523D01*
X048776Y049595D01*
X048631Y049639D01*
X04848Y049654D01*
X048329Y049639D01*
X048184Y049595D01*
X04805Y049523D01*
X047933Y049427D01*
X047837Y04931D01*
X047765Y049176D01*
X047721Y049031D01*
X047706Y04888D01*
X047721Y048729D01*
X047765Y048584D01*
X047837Y04845D01*
X047933Y048333D01*
X04805Y048237D01*
X048184Y048165D01*
X048318Y048124D01*
X048334Y048094D01*
X048339Y04807D01*
X048319Y048043D01*
X048286Y047965D01*
X048275Y047881D01*
X048277Y047872D01*
Y047421D01*
X048283Y04739D01*
X0483Y047364D01*
X048327Y047346D01*
X048358Y04734D01*
X049108D01*
X049139Y047346D01*
X049166Y047364D01*
X049184Y04739D01*
X04919Y047421D01*
Y047872D01*
X049191Y047881D01*
X04918Y047965D01*
X049148Y048043D01*
X049096Y04811D01*
X04903Y048161D01*
X048952Y048193D01*
X048936Y048195D01*
X048932Y0482D01*
X048923Y048247D01*
X049027Y048333D01*
X049123Y04845D01*
X049195Y048584D01*
X049223Y048676D01*
X049273Y048668D01*
Y044275D01*
X049223Y04426D01*
X049217Y044269D01*
X048871Y044614D01*
X048871Y044614D01*
X048729Y044757D01*
X048748Y044803D01*
X048868D01*
X048952Y044814D01*
X04903Y044846D01*
X049096Y044897D01*
X049148Y044964D01*
X04918Y045042D01*
X049191Y045125D01*
X04919Y045135D01*
Y045585D01*
X049184Y045617D01*
X049166Y045643D01*
X049139Y045661D01*
X049108Y045667D01*
X048358D01*
X048327Y045661D01*
X0483Y045643D01*
X048283Y045617D01*
X048277Y045585D01*
Y045135D01*
X048275Y045125D01*
X048286Y045042D01*
X048319Y044964D01*
X048339Y044938D01*
X048314Y044888D01*
X047845D01*
X047627Y045106D01*
X04765Y045154D01*
X04767Y045151D01*
X047765Y045164D01*
X047854Y0452D01*
X04793Y045259D01*
X047989Y045335D01*
X048026Y045424D01*
X048038Y045519D01*
X048026Y045614D01*
X047989Y045703D01*
X04793Y045779D01*
X047924Y045784D01*
X04794Y045832D01*
X048025D01*
Y046088D01*
Y046343D01*
Y046599D01*
Y046919D01*
X047364D01*
X047362Y046922D01*
X047344Y047014D01*
X047291Y047093D01*
X047213Y047145D01*
X04712Y047164D01*
X047027Y047145D01*
X046949Y047093D01*
X04692Y047049D01*
X0457D01*
Y047182D01*
X045726Y047199D01*
X045882Y047355D01*
X045916Y047406D01*
X045928Y047467D01*
Y047792D01*
X045931Y047794D01*
X045984Y047872D01*
X046002Y047965D01*
X045984Y048058D01*
X045931Y048136D01*
X045853Y048189D01*
X04576Y048207D01*
X045667Y048189D01*
X045589Y048136D01*
X045536Y048058D01*
X045518Y047965D01*
X045536Y047872D01*
X045589Y047794D01*
X045612Y047778D01*
Y047532D01*
X045548Y047469D01*
X04543D01*
X04537Y047457D01*
X045331Y047431D01*
X045226D01*
Y047536D01*
X045252Y047575D01*
X045264Y047635D01*
Y048566D01*
X045252Y048627D01*
X045217Y048678D01*
X045029Y048866D01*
X045032Y048882D01*
X045014Y048975D01*
X044967Y049044D01*
X044984Y049094D01*
X04517D01*
Y049237D01*
X04538D01*
Y048995D01*
X04604D01*
Y049705D01*
X04538D01*
Y049503D01*
X04517D01*
Y049726D01*
X044577D01*
Y049094D01*
X044596D01*
X044613Y049044D01*
X044566Y048975D01*
X044548Y048882D01*
X044566Y048789D01*
X044619Y048711D01*
X044697Y048658D01*
X04479Y04864D01*
X044806Y048643D01*
X044948Y048501D01*
Y047905D01*
X044439D01*
X044412Y047946D01*
X044164Y048193D01*
Y049094D01*
X044343D01*
Y049726D01*
X04375D01*
Y049094D01*
X043899D01*
Y048139D01*
X043909Y048088D01*
X043938Y048045D01*
X044032Y047951D01*
X044012Y047905D01*
X043804D01*
Y047431D01*
X04333D01*
Y047391D01*
X04328Y047376D01*
X043246Y047426D01*
X043168Y047479D01*
X043075Y047497D01*
X042982Y047479D01*
X04294Y04745D01*
X04289Y047477D01*
Y0476D01*
X04218D01*
Y047438D01*
X04207D01*
Y04761D01*
X04136D01*
Y047273D01*
X041046Y04696D01*
X041Y046979D01*
Y04767D01*
X04009D01*
Y04686D01*
X040881D01*
X0409Y046814D01*
X04036Y046273D01*
X039608D01*
X0396Y046286D01*
X039521Y046339D01*
X039428Y046357D01*
X039336Y046339D01*
X039257Y046286D01*
X039205Y046208D01*
X039186Y046115D01*
X039205Y046022D01*
X039257Y045944D01*
X039336Y045891D01*
X039428Y045873D01*
X039521Y045891D01*
X0396Y045944D01*
X039608Y045957D01*
X04109D01*
X041392Y045655D01*
Y045254D01*
X041392Y045254D01*
X041392Y045254D01*
X041402Y038417D01*
X041389Y038408D01*
X041336Y03833D01*
X041318Y038237D01*
X041336Y038144D01*
X041389Y038066D01*
X041467Y038013D01*
X04156Y037995D01*
X041653Y038013D01*
X041715Y038055D01*
X041773Y038046D01*
X041775Y03804D01*
X04182Y037982D01*
X041879Y037937D01*
X041947Y037909D01*
X04202Y037899D01*
X04222D01*
X042293Y037909D01*
X042361Y037937D01*
X04242Y037982D01*
X042465Y03804D01*
X042493Y038108D01*
X042502Y038182D01*
X042493Y038255D01*
X042465Y038323D01*
X04242Y038381D01*
X042361Y038426D01*
X042293Y038454D01*
X04222Y038464D01*
X04202D01*
X041947Y038454D01*
X041879Y038426D01*
X04182Y038381D01*
X041808Y038366D01*
X041758Y038368D01*
X041731Y038408D01*
X041718Y038417D01*
X041717Y03885D01*
X041767Y03886D01*
X041775Y03884D01*
X04182Y038782D01*
X041879Y038737D01*
X041947Y038709D01*
X04202Y038699D01*
X04222D01*
X042293Y038709D01*
X042361Y038737D01*
X04242Y038782D01*
X042465Y03884D01*
X042493Y038908D01*
X042502Y038982D01*
X042493Y039055D01*
X042465Y039123D01*
X04242Y039181D01*
X042361Y039226D01*
X042293Y039254D01*
X04222Y039264D01*
X04202D01*
X041947Y039254D01*
X041879Y039226D01*
X04182Y039181D01*
X041775Y039123D01*
X041767Y039102D01*
X041717Y039112D01*
X041716Y039653D01*
X041766Y039663D01*
X041775Y03964D01*
X04182Y039582D01*
X041879Y039537D01*
X041947Y039509D01*
X04202Y039499D01*
X04222D01*
X042293Y039509D01*
X042361Y039537D01*
X04242Y039582D01*
X042465Y03964D01*
X042493Y039708D01*
X042502Y039782D01*
X042493Y039855D01*
X042465Y039923D01*
X04242Y039981D01*
X042361Y040026D01*
X042293Y040054D01*
X04222Y040064D01*
X04202D01*
X041947Y040054D01*
X041879Y040026D01*
X04182Y039981D01*
X041775Y039923D01*
X041766Y039899D01*
X041716Y039909D01*
X041715Y040456D01*
X041765Y040466D01*
X041775Y04044D01*
X04182Y040382D01*
X041879Y040337D01*
X041947Y040309D01*
X04202Y040299D01*
X04222D01*
X042293Y040309D01*
X042361Y040337D01*
X04242Y040382D01*
X042465Y04044D01*
X042493Y040508D01*
X042502Y040582D01*
X042493Y040655D01*
X042465Y040723D01*
X04242Y040781D01*
X042361Y040826D01*
X042293Y040854D01*
X04222Y040864D01*
X04202D01*
X041947Y040854D01*
X041879Y040826D01*
X04182Y040781D01*
X041775Y040723D01*
X041765Y040697D01*
X041715Y040706D01*
X041714Y041259D01*
X041764Y041269D01*
X041775Y04124D01*
X04182Y041182D01*
X041879Y041137D01*
X041947Y041109D01*
X04202Y041099D01*
X04222D01*
X042293Y041109D01*
X042361Y041137D01*
X04242Y041182D01*
X042465Y04124D01*
X042493Y041308D01*
X042502Y041382D01*
X042493Y041455D01*
X042465Y041523D01*
X04242Y041581D01*
X042361Y041626D01*
X042293Y041654D01*
X04222Y041664D01*
X04202D01*
X041947Y041654D01*
X041879Y041626D01*
X04182Y041581D01*
X041775Y041523D01*
X041763Y041494D01*
X041713Y041504D01*
X041713Y042061D01*
X041763Y042071D01*
X041775Y04204D01*
X04182Y041982D01*
X041879Y041937D01*
X041947Y041909D01*
X04202Y041899D01*
X04222D01*
X042293Y041909D01*
X042361Y041937D01*
X04242Y041982D01*
X042465Y04204D01*
X042493Y042108D01*
X042502Y042182D01*
X042493Y042255D01*
X042465Y042323D01*
X04242Y042381D01*
X042361Y042426D01*
X042293Y042454D01*
X04222Y042464D01*
X04202D01*
X041947Y042454D01*
X041879Y042426D01*
X04182Y042381D01*
X041775Y042323D01*
X041762Y042291D01*
X041712Y042301D01*
X041708Y045254D01*
Y045273D01*
X041754Y045292D01*
X041831Y045216D01*
X04182Y04519D01*
X04182D01*
Y04416D01*
X041988D01*
X041992Y04385D01*
X041998Y04382D01*
X042004Y043791D01*
X042005Y04379D01*
X042005Y043789D01*
X042022Y043765D01*
X042038Y04374D01*
X042438Y04334D01*
Y043182D01*
X042447Y043108D01*
X042475Y04304D01*
X04252Y042982D01*
X042579Y042937D01*
X042647Y042909D01*
X04272Y042899D01*
X042793Y042909D01*
X042861Y042937D01*
X04292Y042982D01*
X042965Y04304D01*
X042993Y043108D01*
X043002Y043182D01*
Y043382D01*
X042993Y043455D01*
X042965Y043523D01*
X04292Y043581D01*
X042861Y043626D01*
X042793Y043654D01*
X04272Y043664D01*
X042647Y043654D01*
X042593Y043632D01*
X042307Y043918D01*
X042305Y044124D01*
X04234Y04416D01*
X04248D01*
Y04519D01*
X042286D01*
X042286Y04519D01*
X042252Y045242D01*
X041704Y04579D01*
X041678Y045807D01*
X041662Y045832D01*
X041267Y046227D01*
X041215Y046261D01*
X041155Y046273D01*
X041145Y046271D01*
X041135Y046273D01*
X040872D01*
X040853Y046319D01*
X041483Y04695D01*
X04207D01*
Y047122D01*
X04218D01*
Y04694D01*
X04289D01*
Y047033D01*
X04294Y04706D01*
X042982Y047031D01*
X043075Y047013D01*
X043168Y047031D01*
X043246Y047084D01*
X04328Y047134D01*
X04333Y047119D01*
Y046797D01*
Y046403D01*
Y046009D01*
X043804D01*
Y045535D01*
X044196D01*
Y045342D01*
X044205Y045295D01*
X044232Y045255D01*
X044407Y04508D01*
X044388Y045033D01*
X044179D01*
Y044086D01*
X044522D01*
Y04402D01*
X044509Y044011D01*
X044456Y043933D01*
X044438Y04384D01*
X044456Y043747D01*
X044509Y043669D01*
X044587Y043616D01*
X04468Y043598D01*
X044773Y043616D01*
X044851Y043669D01*
X044904Y043747D01*
X044922Y04384D01*
X044904Y043933D01*
X044851Y044011D01*
X044838Y04402D01*
Y044086D01*
X045126D01*
Y044375D01*
X045176Y044397D01*
X045237Y044356D01*
X04533Y044338D01*
X045423Y044356D01*
X045501Y044409D01*
X04551Y044422D01*
X045754D01*
Y044086D01*
X046701D01*
Y044805D01*
X046747Y044824D01*
X047078Y044493D01*
Y043173D01*
X047031Y043153D01*
X047002Y043179D01*
X047002Y043182D01*
Y043382D01*
X046993Y043455D01*
X046965Y043523D01*
X04692Y043581D01*
X046861Y043626D01*
X046793Y043654D01*
X04672Y043664D01*
X046647Y043654D01*
X046579Y043626D01*
X04652Y043581D01*
X046475Y043523D01*
X046447Y043455D01*
X046438Y043382D01*
Y043182D01*
X046447Y043108D01*
X046475Y04304D01*
X04652Y042982D01*
X046579Y042937D01*
X046647Y042909D01*
X04672Y042899D01*
X046793Y042909D01*
X046861Y042937D01*
X046878Y04295D01*
X046918Y042911D01*
Y042534D01*
X046868Y042507D01*
X046813Y042544D01*
X04672Y042562D01*
X046627Y042544D01*
X046549Y042491D01*
X046496Y042413D01*
X046478Y04232D01*
X046494Y042238D01*
X045647Y041391D01*
X045613Y04134D01*
X045601Y041279D01*
Y03888D01*
X045602Y038876D01*
Y03826D01*
X045589Y038251D01*
X045536Y038173D01*
X045518Y03808D01*
X045536Y037987D01*
X045589Y037909D01*
X045617Y03789D01*
X045602Y03784D01*
X039907D01*
X039896Y037856D01*
X039818Y037909D01*
X039725Y037927D01*
X039633Y037909D01*
X039554Y037856D01*
X039501Y037778D01*
X039483Y037685D01*
X039501Y037593D01*
X039554Y037514D01*
X039633Y037461D01*
X039725Y037443D01*
X039818Y037461D01*
X039884Y037505D01*
X03992Y037469D01*
X039901Y037377D01*
X03992Y037284D01*
X039972Y037205D01*
X04Y037187D01*
Y036977D01*
X039954Y036957D01*
X039618Y037293D01*
X039579Y03732D01*
X039532Y037329D01*
X035935D01*
X035888Y03732D01*
X035849Y037293D01*
X03562Y037064D01*
X03489D01*
Y037064D01*
X034863Y03705D01*
X034813Y037084D01*
X03472Y037102D01*
X034627Y037084D01*
X034603Y037067D01*
X034558Y037097D01*
X034562Y03712D01*
X034544Y037213D01*
X034491Y037291D01*
X034413Y037344D01*
X03432Y037362D01*
X034227Y037344D01*
X034158Y037297D01*
X034156D01*
X03397Y037484D01*
X033989Y03753D01*
X034818D01*
Y037911D01*
X034868Y037938D01*
X034907Y037911D01*
X035Y037893D01*
X035093Y037911D01*
X035161Y037957D01*
X035211Y037942D01*
Y037805D01*
X035772D01*
X035791Y037759D01*
X035521Y037489D01*
X03526D01*
X035201Y037477D01*
X035172Y037458D01*
X03489D01*
Y037188D01*
X035236D01*
X03526Y037183D01*
X035566D01*
X035591Y037178D01*
X035652Y03719D01*
X035703Y037224D01*
X036284Y037805D01*
X03673D01*
Y037962D01*
X036837D01*
Y037715D01*
X037747D01*
Y037962D01*
X038225D01*
X038236Y037936D01*
X038301Y037851D01*
X038386Y037786D01*
X038484Y037745D01*
X03859Y037732D01*
X03869D01*
X038796Y037745D01*
X038894Y037786D01*
X038979Y037851D01*
X039044Y037936D01*
X039085Y038034D01*
X039098Y03814D01*
X039085Y038246D01*
X039044Y038344D01*
X038979Y038429D01*
X038894Y038494D01*
X038796Y038535D01*
X03869Y038548D01*
X03859D01*
X038484Y038535D01*
X038386Y038494D01*
X038301Y038429D01*
X038236Y038344D01*
X038209Y038278D01*
X037747D01*
Y038525D01*
X036837D01*
Y038278D01*
X03673D01*
Y038465D01*
X03602D01*
Y038278D01*
X035921D01*
Y038465D01*
X035211D01*
Y038335D01*
X035198Y038326D01*
X035161Y038313D01*
X035093Y038359D01*
X035Y038377D01*
X034907Y038359D01*
X034855Y038324D01*
X034805Y03835D01*
Y038448D01*
X034796Y038494D01*
X034769Y038534D01*
X033888Y039415D01*
X033889Y039426D01*
X033954Y039511D01*
X033995Y039609D01*
X034008Y039715D01*
Y039965D01*
X033995Y040071D01*
X033954Y040169D01*
X033889Y040254D01*
X033804Y040319D01*
X033706Y04036D01*
X0336Y040373D01*
X033494Y04036D01*
X033396Y040319D01*
X033311Y040254D01*
X033246Y040169D01*
X033205Y040071D01*
X033192Y039965D01*
Y039715D01*
X033205Y039609D01*
X033246Y039511D01*
X033299Y039442D01*
X033277Y039392D01*
X033221D01*
X032996Y039617D01*
X033008Y039715D01*
Y039965D01*
X032995Y040071D01*
X032954Y040169D01*
X032889Y040254D01*
X032804Y040319D01*
X032706Y04036D01*
X0326Y040373D01*
X032494Y04036D01*
X032396Y040319D01*
X032311Y040254D01*
X032246Y040169D01*
X032205Y040071D01*
X032192Y039965D01*
Y039715D01*
X032205Y039609D01*
X032224Y039565D01*
X032193Y039508D01*
X032147Y039499D01*
X032069Y039446D01*
X032016Y039368D01*
X031998Y039275D01*
X032002Y039254D01*
X031956Y03923D01*
X031843Y039343D01*
X031846Y039393D01*
X031889Y039426D01*
X031954Y039511D01*
X031995Y039609D01*
X032008Y039715D01*
Y039965D01*
X031995Y040071D01*
X031954Y040169D01*
X031889Y040254D01*
X031804Y040319D01*
X031706Y04036D01*
X0316Y040373D01*
X031494Y04036D01*
X031396Y040319D01*
X031311Y040254D01*
X031246Y040169D01*
X031205Y040071D01*
X031192Y039965D01*
Y039715D01*
X031205Y039609D01*
X031246Y039511D01*
X031311Y039426D01*
X031396Y039361D01*
X031494Y03932D01*
X031523Y039317D01*
X031901Y038939D01*
X031882Y038893D01*
X03012D01*
X030069Y038882D01*
X030026Y038854D01*
X029966Y038793D01*
X02992Y038802D01*
X029827Y038784D01*
X029749Y038731D01*
X029696Y038653D01*
X029678Y03856D01*
X029668Y038548D01*
X02958D01*
X029564Y038598D01*
X029611Y038629D01*
X029664Y038707D01*
X029682Y0388D01*
X029664Y038893D01*
X029611Y038971D01*
X029533Y039024D01*
X02944Y039042D01*
X029347Y039024D01*
X029269Y038971D01*
X029216Y038893D01*
X029215Y038885D01*
X029035D01*
X029011Y038929D01*
X029024Y038947D01*
X029042Y03904D01*
X029024Y039133D01*
X028971Y039211D01*
X028922Y039244D01*
Y039447D01*
X028972Y039457D01*
X028977Y039446D01*
X029042Y039361D01*
X029126Y039296D01*
X029225Y039255D01*
X029331Y039242D01*
X029436Y039255D01*
X029535Y039296D01*
X02962Y039361D01*
X029684Y039446D01*
X029725Y039544D01*
X029739Y03965D01*
Y03975D01*
X029725Y039856D01*
X029684Y039954D01*
X02962Y040039D01*
X029535Y040104D01*
X029436Y040145D01*
X029331Y040158D01*
X029225Y040145D01*
X029126Y040104D01*
X029042Y040039D01*
X028977Y039954D01*
X028972Y039943D01*
X028922Y039953D01*
Y040735D01*
X028989Y040786D01*
X029054Y040871D01*
X029095Y040969D01*
X029108Y041075D01*
Y041325D01*
X029095Y041431D01*
X029054Y041529D01*
X028989Y041614D01*
X028965Y041632D01*
X028982Y041682D01*
X029418D01*
X029435Y041632D01*
X029411Y041614D01*
X029346Y041529D01*
X029305Y041431D01*
X029292Y041325D01*
Y041075D01*
X029305Y040969D01*
X029346Y040871D01*
X029411Y040786D01*
X029496Y040721D01*
X029594Y04068D01*
X0297Y040667D01*
X029806Y04068D01*
X029904Y040721D01*
X029989Y040786D01*
X030054Y040871D01*
X030095Y040969D01*
X030108Y041075D01*
Y041325D01*
X030095Y041431D01*
X030054Y041529D01*
X029989Y041614D01*
X029965Y041632D01*
X029982Y041682D01*
X030418D01*
X030435Y041632D01*
X030411Y041614D01*
X030346Y041529D01*
X030305Y041431D01*
X030292Y041325D01*
Y041075D01*
X030305Y040969D01*
X030346Y040871D01*
X030411Y040786D01*
X030496Y040721D01*
X030594Y04068D01*
X0307Y040667D01*
X030806Y04068D01*
X030904Y040721D01*
X030989Y040786D01*
X031054Y040871D01*
X031095Y040969D01*
X031108Y041075D01*
Y041325D01*
X031095Y041431D01*
X031054Y041529D01*
X030989Y041614D01*
X030965Y041632D01*
X030982Y041682D01*
X031418D01*
X031435Y041632D01*
X031411Y041614D01*
X031346Y041529D01*
X031305Y041431D01*
X031292Y041325D01*
Y041075D01*
X031305Y040969D01*
X031346Y040871D01*
X031411Y040786D01*
X031496Y040721D01*
X031594Y04068D01*
X0317Y040667D01*
X031806Y04068D01*
X031904Y040721D01*
X031989Y040786D01*
X032054Y040871D01*
X032095Y040969D01*
X032108Y041075D01*
Y041325D01*
X032095Y041431D01*
X032054Y041529D01*
X031989Y041614D01*
X031965Y041632D01*
X031982Y041682D01*
X032418D01*
X032435Y041632D01*
X032411Y041614D01*
X032346Y041529D01*
X032305Y041431D01*
X032292Y041325D01*
Y041075D01*
X032305Y040969D01*
X032346Y040871D01*
X032411Y040786D01*
X032496Y040721D01*
X032594Y04068D01*
X0327Y040667D01*
X032806Y04068D01*
X032904Y040721D01*
X032989Y040786D01*
X033054Y040871D01*
X033095Y040969D01*
X033108Y041075D01*
Y041325D01*
X033095Y041431D01*
X033054Y041529D01*
X032989Y041614D01*
X032965Y041632D01*
X032982Y041682D01*
X033418D01*
X033435Y041632D01*
X033411Y041614D01*
X033346Y041529D01*
X033305Y041431D01*
X033292Y041325D01*
Y041075D01*
X033305Y040969D01*
X033346Y040871D01*
X033411Y040786D01*
X033496Y040721D01*
X033594Y04068D01*
X0337Y040667D01*
X033806Y04068D01*
X033904Y040721D01*
X033989Y040786D01*
X034054Y040871D01*
X034095Y040969D01*
X034108Y041075D01*
Y041325D01*
X034095Y041431D01*
X034054Y041529D01*
X033989Y041614D01*
X033965Y041632D01*
X033982Y041682D01*
X034418D01*
X034435Y041632D01*
X034411Y041614D01*
X034346Y041529D01*
X034305Y041431D01*
X034292Y041325D01*
Y041075D01*
X034305Y040969D01*
X034346Y040871D01*
X034411Y040786D01*
X034496Y040721D01*
X034594Y04068D01*
X0347Y040667D01*
X034806Y04068D01*
X034904Y040721D01*
X034989Y040786D01*
X035054Y040871D01*
X035095Y040969D01*
X035108Y041075D01*
Y041325D01*
X035095Y041431D01*
X035054Y041529D01*
X034989Y041614D01*
X034965Y041632D01*
X034982Y041682D01*
X035395D01*
X036299Y040777D01*
X03629Y040742D01*
X03628Y040727D01*
X035509D01*
X035466Y040791D01*
X035388Y040844D01*
X035295Y040862D01*
X035202Y040844D01*
X035124Y040791D01*
X035071Y040713D01*
X035053Y04062D01*
X035071Y040527D01*
X035124Y040449D01*
X035202Y040396D01*
X035295Y040378D01*
X035388Y040396D01*
X035466Y040449D01*
X035489Y040483D01*
X037956D01*
X037968Y04048D01*
X038198D01*
X03821Y040483D01*
X039114D01*
X039383Y040214D01*
Y038819D01*
X039319Y038776D01*
X039266Y038698D01*
X039248Y038605D01*
X039266Y038512D01*
X039319Y038434D01*
X039397Y038381D01*
X03949Y038363D01*
X039583Y038381D01*
X039661Y038434D01*
X039714Y038512D01*
X039732Y038605D01*
X039714Y038698D01*
X039661Y038776D01*
X039627Y038799D01*
Y040265D01*
X039618Y040312D01*
X039592Y040352D01*
X039252Y040692D01*
X039212Y040718D01*
X039165Y040727D01*
X03832D01*
X038296Y040771D01*
X038307Y040787D01*
X038325Y04088D01*
X038307Y040973D01*
X038254Y041051D01*
X038176Y041104D01*
X038083Y041122D01*
X03799Y041104D01*
X037912Y041051D01*
X037903Y041038D01*
X036485D01*
X035572Y041952D01*
X03552Y041986D01*
X03546Y041998D01*
X02943D01*
X029407Y042042D01*
X029424Y042067D01*
X029442Y04216D01*
X029424Y042253D01*
X029371Y042331D01*
X029333Y042357D01*
Y046486D01*
X029322Y046536D01*
X029294Y046579D01*
X029261Y046612D01*
Y04711D01*
X028551D01*
Y04645D01*
X029048D01*
X029067Y046431D01*
Y046061D01*
X029017Y046034D01*
X028973Y046064D01*
X02888Y046082D01*
X028787Y046064D01*
X028709Y046011D01*
X028683Y045973D01*
X028417D01*
X028113Y046277D01*
Y046487D01*
X028335D01*
Y047147D01*
X027625D01*
Y046487D01*
X027847D01*
Y046222D01*
X027858Y046171D01*
X027886Y046128D01*
X028268Y045746D01*
X028311Y045718D01*
X028362Y045707D01*
X028369D01*
X028383Y045661D01*
X028354Y045623D01*
X02765D01*
X027273Y046D01*
Y04649D01*
X027495D01*
Y04715D01*
X026785D01*
Y04649D01*
X027007D01*
Y045945D01*
X027018Y045894D01*
X027046Y045851D01*
X027501Y045396D01*
X027544Y045368D01*
X027595Y045357D01*
X028363D01*
X028389Y045319D01*
X028467Y045266D01*
X02856Y045248D01*
X028653Y045266D01*
X028731Y045319D01*
X028784Y045397D01*
X028802Y04549D01*
X028787Y045565D01*
X028816Y045603D01*
X028826Y045609D01*
X02888Y045598D01*
X028973Y045616D01*
X029017Y045646D01*
X029067Y04562D01*
Y044289D01*
X029017Y044274D01*
X028995Y044307D01*
X028917Y044359D01*
X028824Y044378D01*
X028732Y044359D01*
X028653Y044307D01*
X028601Y044228D01*
X028582Y044136D01*
X028601Y044043D01*
X028653Y043965D01*
X028666Y043956D01*
Y043636D01*
X028068Y043038D01*
X027895D01*
Y04321D01*
X027185D01*
Y043038D01*
X025995D01*
Y04321D01*
X025285D01*
Y042748D01*
X025015Y042478D01*
X023885D01*
X023655Y042709D01*
Y04317D01*
X022945D01*
Y042709D01*
X022755Y042518D01*
X021785D01*
X021478Y042825D01*
Y0475D01*
X021466Y04756D01*
X021432Y047612D01*
X021058Y047985D01*
Y048505D01*
X021285D01*
Y049415D01*
X020475D01*
Y048505D01*
X020742D01*
Y04792D01*
X020754Y04786D01*
X020788Y047808D01*
X021162Y047435D01*
Y04276D01*
X021174Y0427D01*
X021208Y042648D01*
X021558Y042298D01*
X021538Y042248D01*
X020705D01*
X020645Y042236D01*
X020593Y042202D01*
X019266Y040875D01*
X01922Y040894D01*
Y04097D01*
X01851D01*
Y040798D01*
X018099D01*
Y040917D01*
X016994D01*
Y040798D01*
X015816D01*
Y041337D01*
X015816Y04137D01*
X015858Y041387D01*
X016994D01*
Y041269D01*
X018099D01*
Y041822D01*
X016994D01*
Y041704D01*
X014649D01*
X014589Y041692D01*
X014538Y041657D01*
X013415Y040535D01*
X013414Y040535D01*
X013322Y040516D01*
X013243Y040464D01*
X013191Y040385D01*
X013172Y040293D01*
X013191Y0402D01*
X013243Y040122D01*
X013322Y040069D01*
X013414Y040051D01*
X013507Y040069D01*
X013586Y040122D01*
X013638Y0402D01*
X013656Y040293D01*
X01365Y040323D01*
X014661Y041334D01*
X014711Y041313D01*
Y03991D01*
X015816D01*
Y040482D01*
X016994D01*
Y040363D01*
X018099D01*
Y040482D01*
X01851D01*
Y04031D01*
X01922D01*
Y040482D01*
X019255D01*
X019315Y040494D01*
X019367Y040528D01*
X020456Y041618D01*
X020502Y041593D01*
X020488Y04152D01*
X020506Y041427D01*
X020559Y041349D01*
X020572Y04134D01*
Y04103D01*
X020562Y04098D01*
X020574Y04092D01*
X020608Y040868D01*
X021036Y040441D01*
X021087Y040407D01*
X021147Y040394D01*
X021493D01*
Y04019D01*
X022441D01*
Y04094D01*
X022125D01*
Y041013D01*
X022794Y041682D01*
X025295D01*
Y04161D01*
X025283Y041565D01*
X024573D01*
Y041402D01*
X024541Y041388D01*
X024523Y041384D01*
X024448Y041434D01*
X024355Y041452D01*
X024262Y041434D01*
X024184Y041381D01*
X024175Y041368D01*
X023373D01*
X023371Y041371D01*
X023293Y041424D01*
X0232Y041442D01*
X023107Y041424D01*
X023029Y041371D01*
X022976Y041293D01*
X022958Y0412D01*
X022976Y041107D01*
X023029Y041029D01*
X023107Y040976D01*
X0232Y040958D01*
X023293Y040976D01*
X023371Y041029D01*
X023387Y041052D01*
X024175D01*
X024184Y041039D01*
X024216Y041017D01*
X024226Y04095D01*
X024218Y04094D01*
X023619D01*
Y04019D01*
X023967D01*
Y040013D01*
X023589Y039635D01*
X023092D01*
Y039413D01*
X02299D01*
Y039635D01*
X02233D01*
Y038925D01*
X02299D01*
Y039147D01*
X023092D01*
Y038925D01*
X023303D01*
X023328Y038887D01*
X023571Y038644D01*
X023586Y038621D01*
X023586Y038621D01*
X023586Y038621D01*
X023603Y03861D01*
X023602Y038589D01*
X023588Y03856D01*
X021168D01*
X021118Y03855D01*
X021075Y038521D01*
X019747Y037194D01*
X014421D01*
X014371Y037184D01*
X014328Y037155D01*
X011936Y034763D01*
X011811Y034779D01*
X011675Y034761D01*
X011547Y034709D01*
X011438Y034625D01*
X011354Y034516D01*
X011302Y034388D01*
X011284Y034252D01*
X011302Y034115D01*
X011354Y033988D01*
X011438Y033879D01*
X011547Y033795D01*
X011675Y033743D01*
X011811Y033725D01*
X011948Y033743D01*
X012075Y033795D01*
X012184Y033879D01*
X012268Y033988D01*
X01232Y034115D01*
X012338Y034252D01*
X01232Y034388D01*
X012268Y034516D01*
X012184Y034625D01*
X012183Y034636D01*
X013969Y036422D01*
X014013Y036394D01*
X014026Y036296D01*
X014066Y036197D01*
X014131Y036113D01*
X014216Y036048D01*
X014314Y036007D01*
X01442Y035993D01*
X014526Y036007D01*
X014624Y036048D01*
X014709Y036113D01*
X014774Y036197D01*
X014814Y036296D01*
X014828Y036402D01*
X014814Y036507D01*
X014774Y036606D01*
X014709Y03669D01*
X014624Y036755D01*
X014526Y036796D01*
X014427Y036809D01*
X0144Y036852D01*
X014476Y036929D01*
X019802D01*
X019853Y036939D01*
X019896Y036968D01*
X021223Y038295D01*
X025467D01*
X025501Y038244D01*
X025579Y038191D01*
X025672Y038173D01*
X025765Y038191D01*
X025843Y038244D01*
X025896Y038322D01*
X025914Y038415D01*
X025896Y038508D01*
X025843Y038586D01*
X025765Y038639D01*
X025672Y038657D01*
X025579Y038639D01*
X025501Y038586D01*
X025483Y03856D01*
X02507D01*
X025047Y038604D01*
X025059Y038622D01*
X025077Y038715D01*
X025059Y038808D01*
X025006Y038886D01*
X024928Y038939D01*
X024835Y038957D01*
X024742Y038939D01*
X024664Y038886D01*
X024638Y038848D01*
X023745D01*
X023719Y03888D01*
X023739Y038925D01*
X023752D01*
Y039423D01*
X024194Y039865D01*
X024222Y039908D01*
X024233Y039958D01*
Y04019D01*
X024567D01*
Y040857D01*
X024573Y040905D01*
X024617Y040905D01*
X025283D01*
X025295Y04086D01*
Y04067D01*
X026105D01*
Y041682D01*
X027418D01*
X027435Y041632D01*
X027411Y041614D01*
X027346Y041529D01*
X027305Y041431D01*
X027292Y041325D01*
Y041075D01*
X027305Y040969D01*
X027346Y040871D01*
X027411Y040786D01*
X027496Y040721D01*
X027594Y04068D01*
X027663Y040671D01*
Y040073D01*
X027613Y040051D01*
X027545Y040104D01*
X027446Y040145D01*
X027341Y040158D01*
X027235Y040145D01*
X027136Y040104D01*
X027052Y040039D01*
X026987Y039954D01*
X026946Y039856D01*
X026932Y03975D01*
Y03965D01*
X026946Y039544D01*
X026987Y039446D01*
X027052Y039361D01*
X027136Y039296D01*
X027235Y039255D01*
X027341Y039242D01*
X027446Y039255D01*
X027545Y039296D01*
X027613Y039349D01*
X027663Y039327D01*
Y039094D01*
X027673Y039048D01*
X027699Y039008D01*
X028031Y038676D01*
X028071Y038649D01*
X028117Y03864D01*
X029261D01*
X029269Y038629D01*
X029316Y038598D01*
X0293Y038548D01*
X026907D01*
X026881Y038586D01*
X026803Y038639D01*
X02671Y038657D01*
X026617Y038639D01*
X026539Y038586D01*
X026486Y038508D01*
X026468Y038415D01*
X026486Y038322D01*
X026539Y038244D01*
X026617Y038191D01*
X02671Y038173D01*
X026803Y038191D01*
X026881Y038244D01*
X026907Y038282D01*
X029775D01*
X029826Y038293D01*
X029869Y038321D01*
X029874Y038327D01*
X02992Y038318D01*
X030013Y038336D01*
X030091Y038389D01*
X030144Y038467D01*
X030162Y03856D01*
X030157Y038585D01*
X030194Y038627D01*
X031258D01*
X031282Y038583D01*
X031261Y038553D01*
X031243Y03846D01*
X031261Y038367D01*
X031314Y038289D01*
X031392Y038236D01*
X031485Y038218D01*
X031533Y038227D01*
X031576Y038185D01*
X031575Y038183D01*
X031594Y03809D01*
X031646Y038011D01*
X031725Y037959D01*
X031818Y03794D01*
X031838Y03792D01*
X031828Y03787D01*
X031846Y037777D01*
X031899Y037699D01*
X031977Y037646D01*
X03207Y037628D01*
X032163Y037646D01*
X032241Y037699D01*
X032253Y037717D01*
X032382D01*
Y03753D01*
X032652D01*
Y038198D01*
X032758D01*
X032776Y03818D01*
Y03753D01*
X032944D01*
X032965Y03748D01*
X032817Y037332D01*
X032739D01*
X032706Y037381D01*
X032628Y037434D01*
X032535Y037452D01*
X032442Y037434D01*
X032364Y037381D01*
X03236Y037376D01*
X03231Y037391D01*
Y037458D01*
X031755D01*
X031638Y037575D01*
X031599Y037601D01*
X031552Y037611D01*
X030948D01*
X030933Y037661D01*
X030964Y037681D01*
X031016Y03776D01*
X031034Y037852D01*
X031016Y037945D01*
X030964Y038024D01*
X030885Y038076D01*
X030792Y038094D01*
X0307Y038076D01*
X030679Y038063D01*
X030633Y038082D01*
X030624Y038128D01*
X030572Y038206D01*
X030493Y038259D01*
X0304Y038277D01*
X030308Y038259D01*
X030229Y038206D01*
X030197Y038157D01*
X02939D01*
X029373Y038169D01*
X02928Y038187D01*
X029187Y038169D01*
X029109Y038116D01*
X029056Y038038D01*
X029038Y037945D01*
X029056Y037852D01*
X029069Y037834D01*
X029045Y03779D01*
X028736D01*
Y038135D01*
X027926D01*
Y037313D01*
X027879Y037294D01*
X027696Y037478D01*
X027715Y037524D01*
X027729Y03763D01*
Y03773D01*
X027715Y037836D01*
X027674Y037934D01*
X02761Y038019D01*
X027525Y038084D01*
X027426Y038125D01*
X027321Y038138D01*
X027215Y038125D01*
X027116Y038084D01*
X027032Y038019D01*
X026967Y037934D01*
X026926Y037836D01*
X026912Y03773D01*
Y03763D01*
X026926Y037524D01*
X026967Y037426D01*
X027032Y037341D01*
X027116Y037276D01*
X027215Y037235D01*
X027321Y037222D01*
X027426Y037235D01*
X027525Y037276D01*
X02754Y037288D01*
X027797Y037031D01*
X027836Y037005D01*
X027883Y036995D01*
X028638D01*
X028685Y037005D01*
X028725Y037031D01*
X029059Y037366D01*
X029754D01*
X029773Y03732D01*
X029466Y037012D01*
X029418Y037022D01*
X029325Y037004D01*
X029246Y036951D01*
X029194Y036873D01*
X029182Y03681D01*
X029129Y036778D01*
X029086Y036796D01*
X02898Y03681D01*
X028874Y036796D01*
X028776Y036755D01*
X028691Y03669D01*
X028626Y036606D01*
X028586Y036507D01*
X028572Y036402D01*
X028586Y036296D01*
X028626Y036197D01*
X028685Y036121D01*
X028553Y035988D01*
X02848Y036002D01*
X028387Y035984D01*
X028309Y035931D01*
X028256Y035853D01*
X028238Y03576D01*
X028256Y035667D01*
X028309Y035589D01*
X028387Y035536D01*
X02848Y035518D01*
X028573Y035536D01*
X028651Y035589D01*
X028704Y035667D01*
X028722Y03576D01*
X028714Y035803D01*
X028913Y036002D01*
X02898Y035993D01*
X029086Y036007D01*
X029184Y036048D01*
X029269Y036113D01*
X029334Y036197D01*
X029374Y036296D01*
X029388Y036402D01*
X029376Y036495D01*
X029409Y03654D01*
X029418Y036538D01*
X02951Y036556D01*
X029531Y03657D01*
X029575Y036547D01*
Y035997D01*
X030156D01*
X030175Y035951D01*
X029947Y035722D01*
X029484D01*
X029451Y035771D01*
X029373Y035824D01*
X02928Y035842D01*
X029187Y035824D01*
X029109Y035771D01*
X029056Y035693D01*
X029038Y0356D01*
X029056Y035507D01*
X029109Y035429D01*
X029187Y035376D01*
X02928Y035358D01*
X029373Y035376D01*
X029451Y035429D01*
X029484Y035478D01*
X029998D01*
X030045Y035487D01*
X030084Y035513D01*
X03059Y036019D01*
X03157D01*
Y03587D01*
X0309D01*
X030853Y035861D01*
X030813Y035834D01*
X030724Y035745D01*
X030637Y035762D01*
X030545Y035744D01*
X030466Y035691D01*
X030414Y035613D01*
X030395Y03552D01*
X030414Y035427D01*
X030466Y035349D01*
X030545Y035296D01*
X030628Y03528D01*
X030653Y035234D01*
X030607Y035188D01*
X030444D01*
X030411Y035237D01*
X030333Y035289D01*
X03024Y035308D01*
X030147Y035289D01*
X030069Y035237D01*
X030016Y035158D01*
X029998Y035065D01*
X030016Y034973D01*
X030028Y034955D01*
X030005Y034911D01*
X029455D01*
Y03511D01*
X028745D01*
Y034911D01*
X026131D01*
X026091Y034971D01*
X026013Y035024D01*
X025993Y035028D01*
X025998Y035078D01*
X027723D01*
X027769Y035087D01*
X027809Y035113D01*
X028067Y035371D01*
X028093Y03541D01*
X028102Y035457D01*
Y036014D01*
X028184Y036048D01*
X028269Y036113D01*
X028334Y036197D01*
X028374Y036296D01*
X028388Y036402D01*
X028374Y036507D01*
X028334Y036606D01*
X028269Y03669D01*
X028184Y036755D01*
X028086Y036796D01*
X02798Y03681D01*
X027874Y036796D01*
X027776Y036755D01*
X027691Y03669D01*
X027626Y036606D01*
X027586Y036507D01*
X027572Y036402D01*
X027586Y036296D01*
X027626Y036197D01*
X027691Y036113D01*
X027776Y036048D01*
X027858Y036014D01*
Y035508D01*
X027672Y035322D01*
X026821D01*
X026815Y035331D01*
X026824Y035396D01*
X027067Y035639D01*
X027093Y035678D01*
X027102Y035725D01*
Y036014D01*
X027184Y036048D01*
X027269Y036113D01*
X027334Y036197D01*
X027374Y036296D01*
X027388Y036402D01*
X027374Y036507D01*
X027334Y036606D01*
X027269Y03669D01*
X027184Y036755D01*
X027086Y036796D01*
X02698Y03681D01*
X026874Y036796D01*
X026776Y036755D01*
X026691Y03669D01*
X026626Y036606D01*
X026586Y036507D01*
X026572Y036402D01*
X026586Y036296D01*
X026626Y036197D01*
X026691Y036113D01*
X026776Y036048D01*
X026858Y036014D01*
Y035776D01*
X026687Y035605D01*
X026555D01*
X026531Y035649D01*
X026544Y035667D01*
X026562Y03576D01*
X026544Y035853D01*
X026491Y035931D01*
X026413Y035984D01*
X02632Y036002D01*
X026227Y035984D01*
X026149Y035931D01*
X026116Y035882D01*
X025724D01*
X025691Y035931D01*
X025613Y035984D01*
X02552Y036002D01*
X025427Y035984D01*
X025349Y035931D01*
X025296Y035853D01*
X025278Y03576D01*
X025296Y035667D01*
X025309Y035649D01*
X025285Y035605D01*
X024316D01*
X024284Y035654D01*
X024205Y035706D01*
X024113Y035725D01*
X02402Y035706D01*
X023941Y035654D01*
X023889Y035575D01*
X02387Y035483D01*
X023889Y03539D01*
X023941Y035311D01*
X02402Y035259D01*
X024113Y03524D01*
X024205Y035259D01*
X024284Y035311D01*
X024298Y035333D01*
X024314Y035332D01*
X024325Y035319D01*
X024346Y03528D01*
X02433Y0352D01*
X024348Y035107D01*
X024378Y035063D01*
X024351Y035013D01*
X02276D01*
X022042Y03573D01*
Y03696D01*
X022033Y037007D01*
X022007Y037047D01*
X021521Y037532D01*
X021532Y03759D01*
X021514Y037683D01*
X021461Y037761D01*
X021383Y037814D01*
X02129Y037832D01*
X021197Y037814D01*
X021119Y037761D01*
X021066Y037683D01*
X021048Y03759D01*
X021066Y037497D01*
X021119Y037419D01*
X021197Y037366D01*
X02129Y037348D01*
X021348Y037359D01*
X021798Y036909D01*
Y036806D01*
X021015D01*
Y035997D01*
X021298D01*
Y035953D01*
X021307Y035907D01*
X021333Y035867D01*
X022413Y034788D01*
X022398Y03474D01*
X022366Y034734D01*
X022288Y034681D01*
X022235Y034603D01*
X022217Y03451D01*
X022235Y034417D01*
X022275Y034357D01*
Y034235D01*
X021695D01*
Y033445D01*
X022317D01*
X022329Y033426D01*
X022761Y032995D01*
X02282Y032955D01*
X02289Y032941D01*
X024338D01*
X024361Y032897D01*
X024338Y032863D01*
X02432Y03277D01*
X024338Y032677D01*
X024364Y032639D01*
X024339Y032588D01*
X02431Y032587D01*
X024284Y032625D01*
X024205Y032678D01*
X024113Y032696D01*
X02402Y032678D01*
X023941Y032625D01*
X023889Y032547D01*
X02387Y032454D01*
X023889Y032361D01*
X023941Y032283D01*
X02402Y03223D01*
X024113Y032212D01*
X024205Y03223D01*
X024284Y032283D01*
X02431Y032323D01*
X02601D01*
X026034Y032279D01*
X026016Y032253D01*
X025998Y03216D01*
X026016Y032067D01*
X026069Y031989D01*
X026147Y031936D01*
X02624Y031918D01*
X026256Y031921D01*
X026302Y031875D01*
Y031725D01*
X026252Y031703D01*
X026184Y031755D01*
X026086Y031796D01*
X02598Y03181D01*
X025874Y031796D01*
X025776Y031755D01*
X025691Y03169D01*
X025626Y031606D01*
X025586Y031507D01*
X025572Y031402D01*
X025573Y031392D01*
X025394Y031213D01*
X025352Y031242D01*
X025374Y031296D01*
X025388Y031402D01*
X025374Y031507D01*
X025334Y031606D01*
X025269Y03169D01*
X025184Y031755D01*
X025086Y031796D01*
X02498Y03181D01*
X024874Y031796D01*
X024776Y031755D01*
X024691Y03169D01*
X024626Y031606D01*
X024586Y031507D01*
X024572Y031402D01*
X024586Y031296D01*
X024626Y031197D01*
X024691Y031113D01*
X024776Y031048D01*
X024874Y031007D01*
X02498Y030993D01*
X025086Y031007D01*
X02514Y03103D01*
X025168Y030987D01*
X024904Y030723D01*
X023133D01*
X023073Y030763D01*
X02298Y030782D01*
X022887Y030763D01*
X022809Y030711D01*
X022756Y030632D01*
X022738Y03054D01*
X022756Y030447D01*
X022783Y030407D01*
X022744Y030375D01*
X022442Y030677D01*
Y031935D01*
X022433Y031982D01*
X022407Y032022D01*
X020542Y033886D01*
Y036014D01*
X020624Y036048D01*
X020709Y036113D01*
X020774Y036197D01*
X020814Y036296D01*
X020828Y036402D01*
X020814Y036507D01*
X020774Y036606D01*
X020709Y03669D01*
X020624Y036755D01*
X020526Y036796D01*
X02042Y03681D01*
X020314Y036796D01*
X020216Y036755D01*
X020131Y03669D01*
X020066Y036606D01*
X020026Y036507D01*
X020012Y036402D01*
X020026Y036296D01*
X020066Y036197D01*
X020131Y036113D01*
X020216Y036048D01*
X020298Y036014D01*
Y03397D01*
X020251Y03395D01*
X019542Y034659D01*
Y036014D01*
X019624Y036048D01*
X019709Y036113D01*
X019774Y036197D01*
X019814Y036296D01*
X019828Y036402D01*
X019814Y036507D01*
X019774Y036606D01*
X019709Y03669D01*
X019624Y036755D01*
X019526Y036796D01*
X01942Y03681D01*
X019314Y036796D01*
X019216Y036755D01*
X019131Y03669D01*
X019066Y036606D01*
X019026Y036507D01*
X019012Y036402D01*
X019026Y036296D01*
X019066Y036197D01*
X019131Y036113D01*
X019216Y036048D01*
X019298Y036014D01*
Y034743D01*
X019251Y034724D01*
X018542Y035433D01*
Y036014D01*
X018624Y036048D01*
X018709Y036113D01*
X018774Y036197D01*
X018814Y036296D01*
X018828Y036402D01*
X018814Y036507D01*
X018774Y036606D01*
X018709Y03669D01*
X018624Y036755D01*
X018526Y036796D01*
X01842Y03681D01*
X018314Y036796D01*
X018216Y036755D01*
X018131Y03669D01*
X018066Y036606D01*
X018026Y036507D01*
X018012Y036402D01*
X018026Y036296D01*
X018066Y036197D01*
X018131Y036113D01*
X018216Y036048D01*
X018298Y036014D01*
Y035383D01*
X018307Y035336D01*
X018333Y035296D01*
X021878Y031752D01*
Y03141D01*
X021828Y031406D01*
X021823Y031444D01*
X021814Y031507D01*
X021774Y031606D01*
X021709Y03169D01*
X021624Y031755D01*
X021526Y031796D01*
X02142Y03181D01*
X021314Y031796D01*
X021294Y031787D01*
X020651Y03243D01*
X020592Y03247D01*
X020522Y032484D01*
X018846D01*
X018268Y033061D01*
Y033525D01*
X018785D01*
Y034315D01*
X018268D01*
Y034554D01*
X018254Y034625D01*
X018214Y034684D01*
X017524Y035375D01*
X017464Y035415D01*
X017394Y035429D01*
X013733D01*
X013673Y035469D01*
X01358Y035487D01*
X013487Y035469D01*
X013409Y035416D01*
X013356Y035338D01*
X013338Y035245D01*
X013356Y035152D01*
X013409Y035074D01*
X013487Y035021D01*
X01358Y035003D01*
X013673Y035021D01*
X013733Y035061D01*
X017318D01*
X017901Y034478D01*
Y034315D01*
X017384D01*
Y033525D01*
X017901D01*
Y032985D01*
X017915Y032915D01*
X017955Y032856D01*
X01864Y03217D01*
X0187Y03213D01*
X01877Y032116D01*
X020446D01*
X021034Y031528D01*
X021026Y031507D01*
X021012Y031402D01*
X021026Y031296D01*
X021066Y031197D01*
X021131Y031113D01*
X021216Y031048D01*
X021314Y031007D01*
X02142Y030993D01*
X021526Y031007D01*
X021624Y031048D01*
X021709Y031113D01*
X021774Y031197D01*
X021814Y031296D01*
X021823Y031359D01*
X021828Y031397D01*
X021878Y031393D01*
Y030687D01*
X021828Y030671D01*
X021801Y030711D01*
X021723Y030763D01*
X02163Y030782D01*
X021537Y030763D01*
X021477Y030723D01*
X02062D01*
X02055Y030709D01*
X02049Y03067D01*
X019806Y029986D01*
X01976Y03001D01*
X019744Y030093D01*
X019691Y030171D01*
X019613Y030224D01*
X01953Y03024D01*
X019506Y030286D01*
X01955Y03033D01*
X01959Y03039D01*
X019604Y03046D01*
Y031039D01*
X019624Y031048D01*
X019709Y031113D01*
X019774Y031197D01*
X019814Y031296D01*
X019828Y031402D01*
X019814Y031507D01*
X019774Y031606D01*
X019709Y03169D01*
X019624Y031755D01*
X019526Y031796D01*
X01942Y03181D01*
X019314Y031796D01*
X019216Y031755D01*
X019131Y03169D01*
X019066Y031606D01*
X019026Y031507D01*
X019012Y031402D01*
X019026Y031296D01*
X019066Y031197D01*
X019131Y031113D01*
X019216Y031048D01*
X019236Y031039D01*
Y030536D01*
X018644Y029944D01*
X018114D01*
X018093Y029994D01*
X01855Y03045D01*
X01859Y03051D01*
X018604Y03058D01*
Y031039D01*
X018624Y031048D01*
X018709Y031113D01*
X018774Y031197D01*
X018814Y031296D01*
X018828Y031402D01*
X018814Y031507D01*
X018774Y031606D01*
X018709Y03169D01*
X018624Y031755D01*
X018526Y031796D01*
X01842Y03181D01*
X018314Y031796D01*
X018216Y031755D01*
X018131Y03169D01*
X018066Y031606D01*
X018026Y031507D01*
X018012Y031402D01*
X018026Y031296D01*
X018066Y031197D01*
X018131Y031113D01*
X018216Y031048D01*
X018236Y031039D01*
Y030656D01*
X017844Y030264D01*
X0156D01*
X01553Y03025D01*
X01547Y03021D01*
X014812Y029551D01*
X014772Y029492D01*
X014758Y029422D01*
Y028018D01*
X014305Y027565D01*
X013736D01*
X013705Y027565D01*
X013686Y027607D01*
Y028005D01*
X013736Y028015D01*
X013756Y027966D01*
X013821Y027881D01*
X013906Y027816D01*
X014004Y027775D01*
X01411Y027762D01*
X01421D01*
X014316Y027775D01*
X014414Y027816D01*
X014499Y027881D01*
X014564Y027966D01*
X014605Y028064D01*
X014619Y02817D01*
X014605Y028276D01*
X014564Y028374D01*
X014499Y028459D01*
X014414Y028524D01*
X014316Y028565D01*
X01421Y028578D01*
X01411D01*
X014004Y028565D01*
X013906Y028524D01*
X013821Y028459D01*
X013756Y028374D01*
X013715Y028276D01*
X013701Y02817D01*
X013705Y02814D01*
X013657Y028122D01*
X01365Y028133D01*
X012892Y028891D01*
X012904Y028906D01*
X012945Y029004D01*
X012959Y02911D01*
X012945Y029216D01*
X012904Y029314D01*
X012839Y029399D01*
X012754Y029464D01*
X012656Y029505D01*
X01255Y029518D01*
X01245D01*
X012344Y029505D01*
X012246Y029464D01*
X012161Y029399D01*
X012096Y029314D01*
X012055Y029216D01*
X012041Y02911D01*
X012055Y029004D01*
X012096Y028906D01*
X012161Y028821D01*
X012246Y028756D01*
X012344Y028715D01*
X01245Y028702D01*
X01255D01*
X012656Y028715D01*
X012702Y028735D01*
X013223Y028214D01*
X013198Y028168D01*
X01312Y028184D01*
X013027Y028165D01*
X013006Y028151D01*
X012953Y028175D01*
X012945Y028236D01*
X012904Y028334D01*
X012839Y028419D01*
X012754Y028484D01*
X012656Y028525D01*
X01255Y028538D01*
X01245D01*
X012344Y028525D01*
X012246Y028484D01*
X012161Y028419D01*
X012096Y028334D01*
X012076Y028286D01*
X012027Y028277D01*
X01164Y028664D01*
X011655Y028712D01*
X011671Y028715D01*
X01175Y028767D01*
X011802Y028846D01*
X011821Y028939D01*
X011802Y029031D01*
X011762Y029091D01*
Y029663D01*
X012476Y030376D01*
X016647D01*
X016707Y030336D01*
X0168Y030318D01*
X016893Y030336D01*
X016971Y030389D01*
X017024Y030467D01*
X017042Y03056D01*
X017024Y030653D01*
X016971Y030731D01*
X016893Y030784D01*
X0168Y030802D01*
X016707Y030784D01*
X016647Y030744D01*
X0124D01*
X01233Y03073D01*
X01227Y03069D01*
X011449Y029868D01*
X011409Y029809D01*
X011395Y029739D01*
Y029091D01*
X011355Y029031D01*
X011352Y029015D01*
X011304Y029D01*
X011237Y029067D01*
X011245Y029084D01*
X011258Y02919D01*
X011245Y029296D01*
X011204Y029394D01*
X011139Y029479D01*
X011054Y029544D01*
X010956Y029585D01*
X01085Y029598D01*
X01075D01*
X010644Y029585D01*
X010546Y029544D01*
X010461Y029479D01*
X010396Y029394D01*
X010355Y029296D01*
X010342Y02919D01*
X010355Y029084D01*
X010396Y028986D01*
X010461Y028901D01*
X010546Y028836D01*
X010644Y028795D01*
X01075Y028782D01*
X01085D01*
X010956Y028795D01*
X011054Y028836D01*
X011092Y028866D01*
X011202Y028756D01*
X011215Y028737D01*
X011377Y028575D01*
X011396Y028562D01*
X011522Y028436D01*
X011508Y028388D01*
X011486Y028384D01*
X011407Y028331D01*
X011355Y028253D01*
X011336Y02816D01*
X011355Y028067D01*
X011395Y028007D01*
Y027655D01*
X011301Y027561D01*
X011255Y02758D01*
Y027605D01*
X010345D01*
Y026795D01*
X011255D01*
Y027027D01*
X01127Y02703D01*
X01133Y02707D01*
X011708Y027449D01*
X011748Y027508D01*
X011762Y027579D01*
Y028007D01*
X0118Y028064D01*
X011806Y028068D01*
X011855Y028081D01*
X011878Y028063D01*
Y02464D01*
X011887Y024593D01*
X011913Y024553D01*
X012953Y023513D01*
X012993Y023487D01*
X01304Y023478D01*
X036516D01*
X036549Y023429D01*
X036627Y023376D01*
X03672Y023358D01*
X036813Y023376D01*
X036891Y023429D01*
X036944Y023507D01*
X036962Y0236D01*
X036953Y023647D01*
X036988Y023682D01*
X037009Y023678D01*
X037101Y023696D01*
X03718Y023749D01*
X037232Y023827D01*
X037251Y02392D01*
X037232Y024013D01*
X037196Y024068D01*
X037222Y024118D01*
X03792D01*
X037967Y024127D01*
X038007Y024153D01*
X038387Y024533D01*
X038413Y024573D01*
X038422Y02462D01*
Y026221D01*
X038471Y026254D01*
X038524Y026332D01*
X038542Y026425D01*
X038524Y026518D01*
X038477Y026588D01*
X038493Y026635D01*
X038533Y026639D01*
X038722Y02645D01*
Y02568D01*
X038734Y02562D01*
X038768Y025568D01*
X039109Y025227D01*
X039075Y025146D01*
X039062Y02504D01*
X039075Y024934D01*
X039116Y024836D01*
X039181Y024751D01*
X039266Y024686D01*
X039364Y024645D01*
X03947Y024632D01*
X03957D01*
X039676Y024645D01*
X039774Y024686D01*
X039859Y024751D01*
X039924Y024836D01*
X039965Y024934D01*
X039978Y02504D01*
X039965Y025146D01*
X039924Y025244D01*
X039859Y025329D01*
X039774Y025394D01*
X039676Y025435D01*
X03957Y025448D01*
X03947D01*
X039364Y025435D01*
X039353Y02543D01*
X039038Y025745D01*
Y026516D01*
X039026Y026576D01*
X038992Y026628D01*
X038708Y026912D01*
X038656Y026946D01*
X038596Y026958D01*
X035952D01*
X035946Y026966D01*
X035868Y027019D01*
X035775Y027037D01*
X035682Y027019D01*
X035604Y026966D01*
X035551Y026888D01*
X035533Y026795D01*
X035551Y026702D01*
X035604Y026624D01*
X035682Y026571D01*
X035775Y026553D01*
X035868Y026571D01*
X035946Y026624D01*
X035958Y026642D01*
X036179D01*
X036191Y026592D01*
X036141Y026518D01*
X036123Y026425D01*
X036141Y026332D01*
X036194Y026254D01*
X036272Y026201D01*
X036365Y026183D01*
X036458Y026201D01*
X036536Y026254D01*
X036569Y026303D01*
X036644D01*
X036758Y026189D01*
Y025018D01*
X036522Y024782D01*
X028133D01*
X028012Y024903D01*
Y025097D01*
X028019Y025098D01*
X028139Y025148D01*
X028242Y025227D01*
X028321Y02533D01*
X028371Y02545D01*
X028388Y025579D01*
X028371Y025707D01*
X028321Y025827D01*
X028242Y02593D01*
X028139Y02601D01*
X028019Y026059D01*
X02789Y026076D01*
X027761Y026059D01*
X027641Y02601D01*
X027538Y02593D01*
X027459Y025827D01*
X027409Y025707D01*
X027392Y025579D01*
X027409Y02545D01*
X027459Y02533D01*
X027538Y025227D01*
X027641Y025148D01*
X027761Y025098D01*
X027768Y025097D01*
Y024852D01*
X027777Y024805D01*
X027804Y024766D01*
X027921Y024649D01*
X027901Y024602D01*
X018504D01*
X018494Y024653D01*
X018441Y024731D01*
X018363Y024784D01*
X01827Y024802D01*
X018177Y024784D01*
X018099Y024731D01*
X018046Y024653D01*
X018028Y02456D01*
X018046Y024467D01*
X018083Y024412D01*
X018056Y024362D01*
X017251D01*
X016762Y024851D01*
Y028459D01*
X017078Y028775D01*
X017124Y028755D01*
X01723Y028742D01*
X01733D01*
X017436Y028755D01*
X017534Y028796D01*
X017619Y028861D01*
X017684Y028946D01*
X017725Y029044D01*
X017738Y02915D01*
X017725Y029256D01*
X017684Y029354D01*
X017619Y029439D01*
X017534Y029504D01*
X017479Y029526D01*
X017489Y029576D01*
X018591D01*
X018601Y029526D01*
X018546Y029504D01*
X018461Y029439D01*
X018396Y029354D01*
X018355Y029256D01*
X018341Y02915D01*
X018355Y029044D01*
X018396Y028946D01*
X018461Y028861D01*
X018546Y028796D01*
X018644Y028755D01*
X01875Y028742D01*
X01885D01*
X018956Y028755D01*
X019054Y028796D01*
X019139Y028861D01*
X019204Y028946D01*
X019245Y029044D01*
X019259Y02915D01*
X019245Y029256D01*
X019204Y029354D01*
X019192Y029369D01*
X019291Y029468D01*
X019337Y029443D01*
X019336Y02944D01*
Y027836D01*
X019065Y027565D01*
X018345D01*
Y026755D01*
X019255D01*
Y027235D01*
X01965Y02763D01*
X01969Y02769D01*
X019704Y02776D01*
Y029364D01*
X020696Y030356D01*
X021477D01*
X021537Y030316D01*
X02163Y030298D01*
X021723Y030316D01*
X021801Y030369D01*
X021828Y030408D01*
X021878Y030393D01*
Y03032D01*
X021887Y030273D01*
X021913Y030233D01*
X022603Y029543D01*
X022643Y029517D01*
X02269Y029508D01*
X023327D01*
X023347Y029461D01*
X0234Y02939D01*
X023471Y029337D01*
X023552Y029303D01*
X02364Y029291D01*
X023728Y029303D01*
X023809Y029337D01*
X02388Y02939D01*
X023933Y029461D01*
X023967Y029542D01*
X023979Y02963D01*
X023967Y029718D01*
X023933Y029799D01*
X023907Y029834D01*
X023932Y029884D01*
X024213D01*
X024332Y029765D01*
X024313Y029718D01*
X024301Y02963D01*
X024313Y029542D01*
X024347Y029461D01*
X0244Y02939D01*
X024471Y029337D01*
X024552Y029303D01*
X02464Y029291D01*
X024728Y029303D01*
X024809Y029337D01*
X02488Y02939D01*
X024933Y029461D01*
X024967Y029542D01*
X024979Y02963D01*
X024967Y029718D01*
X024933Y029799D01*
X02488Y02987D01*
X024809Y029923D01*
X024728Y029957D01*
X02464Y029969D01*
X024552Y029957D01*
X024505Y029938D01*
X024446Y029997D01*
X024465Y030044D01*
X025472D01*
X025518Y029998D01*
Y029943D01*
X025471Y029923D01*
X0254Y02987D01*
X025347Y029799D01*
X025313Y029718D01*
X025301Y02963D01*
X025313Y029542D01*
X025347Y029461D01*
X0254Y02939D01*
X025471Y029337D01*
X025552Y029303D01*
X02564Y029291D01*
X025728Y029303D01*
X025809Y029337D01*
X02588Y02939D01*
X025933Y029461D01*
X025967Y029542D01*
X025979Y02963D01*
X025967Y029718D01*
X025933Y029799D01*
X02588Y02987D01*
X025809Y029923D01*
X025762Y029943D01*
Y030048D01*
X025753Y030095D01*
X025727Y030135D01*
X025609Y030252D01*
X025569Y030279D01*
X025523Y030288D01*
X023157D01*
X023135Y030338D01*
X023151Y030356D01*
X02498D01*
X02505Y03037D01*
X02511Y03041D01*
X02576Y03106D01*
X025776Y031048D01*
X025874Y031007D01*
X02598Y030993D01*
X026086Y031007D01*
X026184Y031048D01*
X026252Y0311D01*
X026302Y031078D01*
Y029803D01*
X026298Y029801D01*
X026246Y029723D01*
X026227Y02963D01*
X026246Y029537D01*
X026298Y029459D01*
X026377Y029406D01*
X02647Y029388D01*
X026562Y029406D01*
X026641Y029459D01*
X026693Y029537D01*
X026712Y02963D01*
X026693Y029723D01*
X026641Y029801D01*
X026618Y029817D01*
Y031126D01*
X026668Y031143D01*
X026691Y031113D01*
X026776Y031048D01*
X026874Y031007D01*
X02698Y030993D01*
X027086Y031007D01*
X027184Y031048D01*
X027269Y031113D01*
X027286Y031135D01*
X027336Y031119D01*
Y030427D01*
X027345Y03038D01*
X027372Y03034D01*
X027803Y029909D01*
X0278Y02987D01*
X027747Y029799D01*
X027713Y029718D01*
X027701Y02963D01*
X027713Y029542D01*
X027747Y029461D01*
X0278Y02939D01*
X027871Y029337D01*
X027952Y029303D01*
X02804Y029291D01*
X028128Y029303D01*
X028209Y029337D01*
X02828Y02939D01*
X028333Y029461D01*
X028367Y029542D01*
X028379Y02963D01*
X028367Y029718D01*
X028333Y029799D01*
X02828Y02987D01*
X028209Y029923D01*
X028128Y029957D01*
X028085Y029963D01*
X028065Y029993D01*
X027581Y030477D01*
Y031178D01*
X027611Y031191D01*
X027631Y031192D01*
X027691Y031113D01*
X027776Y031048D01*
X027874Y031007D01*
X02798Y030993D01*
X028086Y031007D01*
X028184Y031048D01*
X028252Y0311D01*
X028302Y031079D01*
Y030615D01*
X028312Y030568D01*
X028338Y030529D01*
X028884Y029983D01*
X028872Y029924D01*
X028871Y029923D01*
X0288Y02987D01*
X028747Y029799D01*
X028713Y029718D01*
X028701Y02963D01*
X028713Y029542D01*
X028747Y029461D01*
X0288Y02939D01*
X028871Y029337D01*
X028952Y029303D01*
X02904Y029291D01*
X029128Y029303D01*
X029209Y029337D01*
X02928Y02939D01*
X029333Y029461D01*
X029367Y029542D01*
X029379Y02963D01*
X029367Y029718D01*
X029333Y029799D01*
X02928Y02987D01*
X029209Y029923D01*
X029162Y029943D01*
Y03D01*
X029153Y030047D01*
X029127Y030087D01*
X028547Y030666D01*
Y031586D01*
X028538Y031633D01*
X028511Y031672D01*
X028463Y03172D01*
X028483Y031766D01*
X029274D01*
X02958Y031461D01*
X029572Y031402D01*
X029586Y031296D01*
X029626Y031197D01*
X029691Y031113D01*
X029776Y031048D01*
X029874Y031007D01*
X02998Y030993D01*
X030086Y031007D01*
X030184Y031048D01*
X030269Y031113D01*
X030334Y031197D01*
X030374Y031296D01*
X030388Y031402D01*
X030374Y031507D01*
X030334Y031606D01*
X030281Y031674D01*
X030303Y031724D01*
X032114D01*
X032119Y031674D01*
X032067Y031664D01*
X031989Y031611D01*
X031936Y031533D01*
X031918Y03144D01*
X031936Y031347D01*
X031989Y031269D01*
X032038Y031236D01*
Y02814D01*
X031996Y028113D01*
X031944Y028034D01*
X031925Y027942D01*
X031944Y027849D01*
X031996Y02777D01*
X032075Y027718D01*
X032168Y027699D01*
X03226Y027718D01*
X032339Y02777D01*
X032391Y027849D01*
X03241Y027942D01*
X032391Y028034D01*
X032339Y028113D01*
X032282Y028151D01*
Y031236D01*
X032331Y031269D01*
X032384Y031347D01*
X032402Y03144D01*
X032384Y031533D01*
X032331Y031611D01*
X032253Y031664D01*
X032201Y031674D01*
X032206Y031724D01*
X032503D01*
X033109Y031118D01*
Y028035D01*
X033118Y027988D01*
X033145Y027949D01*
X03366Y027433D01*
X033688Y027415D01*
X033674Y027365D01*
X031964D01*
X031931Y027414D01*
X031853Y027466D01*
X03176Y027485D01*
X031667Y027466D01*
X031589Y027414D01*
X031536Y027335D01*
X031518Y027243D01*
X031536Y02715D01*
X031589Y027071D01*
X031667Y027019D01*
X03176Y027D01*
X031853Y027019D01*
X031931Y027071D01*
X031964Y02712D01*
X039048D01*
X039056Y027109D01*
X039134Y027056D01*
X039227Y027038D01*
X039319Y027056D01*
X039398Y027109D01*
X03945Y027187D01*
X039469Y02728D01*
X03945Y027373D01*
X039398Y027451D01*
X039319Y027504D01*
X039227Y027522D01*
X039134Y027504D01*
X039056Y027451D01*
X039003Y027373D01*
X039001Y027365D01*
X038955D01*
X038931Y027409D01*
X038944Y027427D01*
X038962Y02752D01*
X038944Y027613D01*
X038891Y027691D01*
X038813Y027744D01*
X03872Y027762D01*
X038627Y027744D01*
X038549Y027691D01*
X038516Y027642D01*
X033797D01*
X033353Y028086D01*
Y028314D01*
X033368Y028319D01*
X033403Y028326D01*
X033478Y028268D01*
X033571Y02823D01*
X03367Y028217D01*
X03393D01*
X034029Y02823D01*
X034122Y028268D01*
X034201Y028329D01*
X034262Y028408D01*
X034275Y02844D01*
X034325D01*
X034338Y028408D01*
X034399Y028329D01*
X034478Y028268D01*
X034571Y02823D01*
X03467Y028217D01*
X03493D01*
X035029Y02823D01*
X035122Y028268D01*
X035201Y028329D01*
X035262Y028408D01*
X0353Y028501D01*
X035313Y0286D01*
X0353Y028699D01*
X035262Y028792D01*
X035201Y028871D01*
X035122Y028932D01*
X035029Y02897D01*
X03493Y028983D01*
X03467D01*
X034571Y02897D01*
X034478Y028932D01*
X034399Y028871D01*
X034338Y028792D01*
X034325Y02876D01*
X034275D01*
X034262Y028792D01*
X034201Y028871D01*
X034122Y028932D01*
X034029Y02897D01*
X03393Y028983D01*
X03367D01*
X033571Y02897D01*
X033478Y028932D01*
X033403Y028874D01*
X033368Y028881D01*
X033353Y028886D01*
Y029313D01*
X033368Y029319D01*
X033403Y029326D01*
X033478Y029268D01*
X033571Y02923D01*
X03367Y029217D01*
X03393D01*
X034029Y02923D01*
X034122Y029268D01*
X034201Y029329D01*
X034262Y029408D01*
X034275Y02944D01*
X034325D01*
X034338Y029408D01*
X034399Y029329D01*
X034478Y029268D01*
X034571Y02923D01*
X03467Y029217D01*
X03493D01*
X035029Y02923D01*
X035122Y029268D01*
X035201Y029329D01*
X035262Y029408D01*
X0353Y029501D01*
X035313Y0296D01*
X0353Y029699D01*
X035262Y029792D01*
X035201Y029871D01*
X035122Y029932D01*
X035029Y02997D01*
X03493Y029983D01*
X03467D01*
X034571Y02997D01*
X034478Y029932D01*
X034399Y029871D01*
X034338Y029792D01*
X034325Y02976D01*
X034275D01*
X034262Y029792D01*
X034201Y029871D01*
X034122Y029932D01*
X034029Y02997D01*
X03393Y029983D01*
X03367D01*
X033571Y02997D01*
X033478Y029932D01*
X033403Y029874D01*
X033368Y029881D01*
X033353Y029887D01*
Y030313D01*
X033368Y030319D01*
X033403Y030326D01*
X033478Y030268D01*
X033571Y03023D01*
X03367Y030217D01*
X03393D01*
X034029Y03023D01*
X034122Y030268D01*
X034201Y030329D01*
X034262Y030408D01*
X034275Y03044D01*
X034325D01*
X034338Y030408D01*
X034399Y030329D01*
X034478Y030268D01*
X034571Y03023D01*
X03467Y030217D01*
X03493D01*
X035029Y03023D01*
X035122Y030268D01*
X035201Y030329D01*
X035262Y030408D01*
X0353Y030501D01*
X035313Y0306D01*
X0353Y030699D01*
X035262Y030792D01*
X035201Y030871D01*
X035122Y030932D01*
X035029Y03097D01*
X03493Y030983D01*
X03467D01*
X034571Y03097D01*
X034478Y030932D01*
X034399Y030871D01*
X034338Y030792D01*
X034325Y03076D01*
X034275D01*
X034262Y030792D01*
X034201Y030871D01*
X034122Y030932D01*
X034029Y03097D01*
X03393Y030983D01*
X03367D01*
X033571Y03097D01*
X033478Y030932D01*
X033403Y030874D01*
X033368Y030881D01*
X033353Y030886D01*
Y031169D01*
X033344Y031216D01*
X033318Y031255D01*
X032651Y031922D01*
X032649Y031964D01*
X032654Y031984D01*
X032691Y032009D01*
X032744Y032087D01*
X032762Y03218D01*
X032744Y032273D01*
X032691Y032351D01*
X032613Y032404D01*
X03252Y032422D01*
X032427Y032404D01*
X032349Y032351D01*
X032316Y032302D01*
X030339D01*
X030306Y032351D01*
X030228Y032404D01*
X030135Y032422D01*
X030042Y032404D01*
X029964Y032351D01*
X029911Y032273D01*
X029893Y03218D01*
X029911Y032087D01*
X029957Y032019D01*
X029941Y031969D01*
X029815D01*
X029528Y032257D01*
X029488Y032283D01*
X029441Y032292D01*
X028514D01*
X028212Y032594D01*
X028223Y032649D01*
X028226Y032651D01*
X028268Y032643D01*
X032406D01*
X032439Y032594D01*
X032517Y032541D01*
X03261Y032523D01*
X032703Y032541D01*
X032781Y032594D01*
X032834Y032672D01*
X032852Y032765D01*
X032834Y032858D01*
X032781Y032936D01*
X03271Y032984D01*
X032709Y033014D01*
X032715Y033036D01*
X032718Y033036D01*
X032796Y033089D01*
X032849Y033167D01*
X032867Y03326D01*
X032849Y033353D01*
X032796Y033431D01*
X032718Y033484D01*
X032625Y033502D01*
X032532Y033484D01*
X032454Y033431D01*
X032421Y033382D01*
X028362D01*
X027992Y033752D01*
X028003Y03381D01*
X027985Y033903D01*
X027932Y033981D01*
X027854Y034034D01*
X027761Y034052D01*
X027669Y034034D01*
X02759Y033981D01*
X027538Y033903D01*
X027519Y03381D01*
X027532Y033745D01*
X027486Y03372D01*
X027414Y033792D01*
X027375Y033818D01*
X027328Y033827D01*
X027179D01*
X027146Y033876D01*
X027068Y033929D01*
X026975Y033947D01*
X026882Y033929D01*
X026804Y033876D01*
X026751Y033798D01*
X026733Y033705D01*
X026751Y033612D01*
X026804Y033534D01*
X026809Y03353D01*
X026795Y033482D01*
X026144D01*
X02556Y034066D01*
X025579Y034113D01*
X028281D01*
X028314Y034064D01*
X028392Y034011D01*
X028485Y033993D01*
X028578Y034011D01*
X028656Y034064D01*
X028709Y034142D01*
X028727Y034235D01*
X028709Y034328D01*
X028656Y034406D01*
X028578Y034459D01*
X028485Y034477D01*
X028392Y034459D01*
X028314Y034406D01*
X028281Y034357D01*
X025495D01*
X024875Y034977D01*
X024836Y035004D01*
X024827Y035005D01*
X024803Y035061D01*
X024814Y035078D01*
X025842D01*
X025847Y035028D01*
X025827Y035024D01*
X025749Y034971D01*
X025696Y034893D01*
X025678Y0348D01*
X025696Y034707D01*
X025749Y034629D01*
X025827Y034576D01*
X02592Y034558D01*
X026013Y034576D01*
X026041Y034595D01*
X028745D01*
Y03445D01*
X029455D01*
Y034595D01*
X03146D01*
X03152Y034607D01*
X031571Y034641D01*
X031587Y034638D01*
X031679Y034656D01*
X031758Y034709D01*
X03181Y034787D01*
X031829Y03488D01*
X031812Y034965D01*
X031826Y034993D01*
X031842Y035015D01*
X032199D01*
X032218Y034968D01*
X031574Y034325D01*
X029892D01*
X029861Y034371D01*
X029783Y034424D01*
X02969Y034442D01*
X029597Y034424D01*
X029519Y034371D01*
X029466Y034293D01*
X029448Y0342D01*
X029466Y034107D01*
X029519Y034029D01*
X029597Y033976D01*
X02969Y033958D01*
X029783Y033976D01*
X029861Y034029D01*
X029896Y03408D01*
X03013D01*
X030154Y034036D01*
X030141Y034018D01*
X030123Y033925D01*
X030141Y033832D01*
X030194Y033754D01*
X030272Y033701D01*
X030365Y033683D01*
X030458Y033701D01*
X030536Y033754D01*
X030569Y033803D01*
X031616D01*
X031639Y033769D01*
X031717Y033716D01*
X03181Y033698D01*
X031903Y033716D01*
X031981Y033769D01*
X032034Y033847D01*
X032052Y03394D01*
X032034Y034033D01*
X031981Y034111D01*
X031903Y034164D01*
X031842Y034176D01*
X031826Y03423D01*
X032336Y03474D01*
X032382Y034721D01*
Y03421D01*
X032592D01*
Y033989D01*
X032556Y033936D01*
X032538Y033843D01*
X032556Y033751D01*
X032609Y033672D01*
X032687Y03362D01*
X03278Y033601D01*
X032873Y03362D01*
X032951Y033672D01*
X033004Y033751D01*
X033015Y033808D01*
X033065Y033803D01*
Y032543D01*
X033074Y032496D01*
X033101Y032456D01*
X033363Y032194D01*
X033403Y032168D01*
X033449Y032158D01*
X036321D01*
X036367Y032168D01*
X036407Y032194D01*
X036702Y032489D01*
X03676Y032478D01*
X036853Y032496D01*
X036931Y032549D01*
X036984Y032627D01*
X037002Y03272D01*
X036984Y032813D01*
X036931Y032891D01*
X036853Y032944D01*
X03676Y032962D01*
X036667Y032944D01*
X036589Y032891D01*
X036536Y032813D01*
X036518Y03272D01*
X036529Y032662D01*
X03627Y032403D01*
X0335D01*
X03341Y032493D01*
X033435Y032539D01*
X033465Y032533D01*
X033558Y032551D01*
X033636Y032604D01*
X033689Y032682D01*
X033707Y032775D01*
X033689Y032868D01*
X033636Y032946D01*
X033558Y032999D01*
X033545Y033001D01*
Y033312D01*
X033591Y033331D01*
X03375Y033172D01*
X033748Y03316D01*
X033766Y033067D01*
X033819Y032989D01*
X033897Y032936D01*
X03399Y032918D01*
X034083Y032936D01*
X034161Y032989D01*
X034214Y033067D01*
X034232Y03316D01*
X034214Y033253D01*
X034161Y033331D01*
X034083Y033384D01*
X03399Y033402D01*
X033897Y033384D01*
X03389Y033378D01*
X033762Y033506D01*
X03379Y033549D01*
X03387Y033533D01*
X033963Y033551D01*
X034041Y033604D01*
X034094Y033682D01*
X034112Y033775D01*
X034094Y033868D01*
X034041Y033946D01*
X033963Y033999D01*
X033932Y034005D01*
X033773Y034164D01*
X033792Y03421D01*
X033833D01*
Y03495D01*
X033808D01*
X033785Y034984D01*
X033693Y035077D01*
X033653Y035103D01*
X033606Y035112D01*
X032548D01*
X032528Y035159D01*
X032695Y035325D01*
X033889D01*
X03398Y035234D01*
Y035009D01*
X033962Y034983D01*
X033951Y034928D01*
X033951Y034928D01*
Y034589D01*
X033949Y03458D01*
X033957Y034541D01*
Y03421D01*
X034167D01*
Y034109D01*
X034176Y034062D01*
X034202Y034023D01*
X034293Y033932D01*
Y033D01*
X034245Y032967D01*
X034192Y032889D01*
X034174Y032796D01*
X034192Y032703D01*
X034245Y032625D01*
X034323Y032572D01*
X034416Y032554D01*
X034508Y032572D01*
X034587Y032625D01*
X034639Y032703D01*
X034658Y032796D01*
X034655Y032813D01*
X034696Y03284D01*
X034717Y032826D01*
X03481Y032808D01*
X034903Y032826D01*
X034981Y032879D01*
X035034Y032957D01*
X035052Y03305D01*
X035034Y033143D01*
X034981Y033221D01*
X034903Y033274D01*
X03481Y033292D01*
X034752Y033281D01*
X034714Y033319D01*
Y03385D01*
X034759Y033874D01*
X034777Y033861D01*
X03487Y033843D01*
X034963Y033861D01*
X035041Y033914D01*
X035094Y033992D01*
X035112Y034085D01*
X035094Y034178D01*
X035041Y034256D01*
X034963Y034309D01*
X03487Y034327D01*
X034856Y034324D01*
X034818Y034356D01*
Y03495D01*
X034271D01*
X034265Y034956D01*
X034265Y034957D01*
Y035293D01*
X034254Y035348D01*
X034223Y035394D01*
X034223Y035394D01*
X034049Y035568D01*
X034003Y035599D01*
X033948Y03561D01*
X033948Y03561D01*
X032636D01*
X032636Y03561D01*
X032581Y035599D01*
X032535Y035568D01*
X032535Y035568D01*
X032266Y0353D01*
X031732D01*
X031732Y0353D01*
X031693Y035292D01*
X03157D01*
Y035197D01*
X031486Y035113D01*
X031468Y035086D01*
X031415Y035051D01*
X031363Y034973D01*
X031351Y034911D01*
X030733D01*
X030718Y034961D01*
X030744Y034979D01*
X031194Y035429D01*
X03157D01*
Y035416D01*
X03231D01*
Y035835D01*
X032344Y035858D01*
X032454Y035968D01*
X032502Y035954D01*
X032506Y035932D01*
X032559Y035854D01*
X032637Y035801D01*
X03273Y035783D01*
X032823Y035801D01*
X032901Y035854D01*
X032939Y03591D01*
X03442D01*
X034444Y035866D01*
X034421Y035833D01*
X034403Y03574D01*
X034421Y035647D01*
X034474Y035569D01*
X034552Y035516D01*
X034645Y035498D01*
X034738Y035516D01*
X034816Y035569D01*
X03484Y035604D01*
X03489Y035589D01*
Y035416D01*
Y035022D01*
X03563D01*
Y035035D01*
X037144D01*
X037176Y034986D01*
X037255Y034934D01*
X037348Y034915D01*
X03744Y034934D01*
X037519Y034986D01*
X037571Y035065D01*
X03759Y035157D01*
X037571Y03525D01*
X037519Y035329D01*
X03744Y035381D01*
X037348Y035399D01*
X037255Y035381D01*
X037176Y035329D01*
X037156Y035298D01*
X037131Y035299D01*
X037104Y035347D01*
X037104Y03535D01*
X037122Y03544D01*
X037104Y035533D01*
X037091Y035551D01*
X037115Y035595D01*
X037577D01*
X038508Y034664D01*
Y03414D01*
X038458Y034114D01*
X038413Y034144D01*
X03832Y034162D01*
X038227Y034144D01*
X038149Y034091D01*
X038096Y034013D01*
X038078Y03392D01*
X038096Y033827D01*
X038149Y033749D01*
X038162Y03374D01*
Y033585D01*
X03792D01*
Y032875D01*
X038162D01*
Y032215D01*
X037705Y031758D01*
X035276D01*
X035262Y031792D01*
X035201Y031871D01*
X035122Y031932D01*
X035029Y03197D01*
X03493Y031983D01*
X03467D01*
X034571Y03197D01*
X034478Y031932D01*
X034399Y031871D01*
X034338Y031792D01*
X0343Y031699D01*
X034287Y0316D01*
X0343Y031501D01*
X034338Y031408D01*
X034399Y031329D01*
X034478Y031268D01*
X034571Y03123D01*
X03467Y031217D01*
X03493D01*
X035029Y03123D01*
X035122Y031268D01*
X035201Y031329D01*
X035262Y031408D01*
X035276Y031442D01*
X03777D01*
X03783Y031454D01*
X037882Y031488D01*
X038432Y032038D01*
X038466Y03209D01*
X038475Y032135D01*
X038518Y032148D01*
X038527Y032147D01*
X038543Y032122D01*
X039548Y031118D01*
X039588Y031091D01*
X039634Y031082D01*
X040401D01*
X040434Y031033D01*
X040512Y030981D01*
X040605Y030962D01*
X040698Y030981D01*
X040776Y031033D01*
X040829Y031112D01*
X04083Y031119D01*
X04088Y031114D01*
Y029882D01*
X040889Y029835D01*
X040916Y029795D01*
X041218Y029493D01*
X041258Y029467D01*
X041304Y029458D01*
X041645D01*
Y02925D01*
X042355D01*
Y029465D01*
X042612D01*
X042646Y029383D01*
X042711Y029299D01*
X042796Y029234D01*
X042832Y029219D01*
Y029169D01*
X042796Y029154D01*
X042711Y029089D01*
X042646Y029004D01*
X042617Y028933D01*
X042355D01*
Y02915D01*
X041645D01*
Y02849D01*
X042355D01*
Y028667D01*
X042617D01*
X042646Y028596D01*
X042711Y028511D01*
X042796Y028446D01*
X042894Y028405D01*
X043Y028392D01*
X0432D01*
X043306Y028405D01*
X043404Y028446D01*
X043489Y028511D01*
X043554Y028596D01*
X043583Y028667D01*
X043748D01*
X044107Y028308D01*
Y026803D01*
X044036Y026774D01*
X043951Y026709D01*
X043886Y026624D01*
X043845Y026526D01*
X043832Y02642D01*
Y02622D01*
X043845Y026114D01*
X043886Y026016D01*
X043951Y025931D01*
X044036Y025866D01*
X044134Y025825D01*
X04424Y025812D01*
X044346Y025825D01*
X044444Y025866D01*
X044529Y025931D01*
X044594Y026016D01*
X044635Y026114D01*
X044648Y02622D01*
Y02642D01*
X044635Y026526D01*
X044594Y026624D01*
X044529Y026709D01*
X044444Y026774D01*
X044373Y026803D01*
Y028363D01*
X044362Y028414D01*
X044334Y028457D01*
X043897Y028894D01*
X043854Y028922D01*
X043803Y028933D01*
X043583D01*
X043554Y029004D01*
X043489Y029089D01*
X043404Y029154D01*
X043368Y029169D01*
Y029219D01*
X043404Y029234D01*
X043489Y029299D01*
X043554Y029383D01*
X043588Y029465D01*
X044362D01*
X045118Y028709D01*
Y026808D01*
X045036Y026774D01*
X044951Y026709D01*
X044886Y026624D01*
X044845Y026526D01*
X044832Y02642D01*
Y02622D01*
X044845Y026114D01*
X044886Y026016D01*
X044951Y025931D01*
X045036Y025866D01*
X045134Y025825D01*
X04524Y025812D01*
X045346Y025825D01*
X045444Y025866D01*
X045529Y025931D01*
X045594Y026016D01*
X045635Y026114D01*
X045648Y02622D01*
Y02642D01*
X045635Y026526D01*
X045594Y026624D01*
X045529Y026709D01*
X045444Y026774D01*
X045362Y026808D01*
Y02876D01*
X045353Y028807D01*
X045327Y028847D01*
X044499Y029674D01*
X044459Y0297D01*
X044413Y02971D01*
X043588D01*
X043554Y029792D01*
X043489Y029876D01*
X043404Y029941D01*
X043368Y029956D01*
Y030006D01*
X043404Y030021D01*
X043489Y030086D01*
X043554Y030171D01*
X043594Y030267D01*
X044203D01*
X044229Y030229D01*
X044307Y030176D01*
X0444Y030158D01*
X044493Y030176D01*
X044571Y030229D01*
X044597Y030267D01*
X045385D01*
X046107Y029545D01*
Y026803D01*
X046036Y026774D01*
X045951Y026709D01*
X045886Y026624D01*
X045845Y026526D01*
X045831Y02642D01*
Y02622D01*
X045845Y026114D01*
X045886Y026016D01*
X045951Y025931D01*
X046036Y025866D01*
X046134Y025825D01*
X04624Y025812D01*
X046346Y025825D01*
X046444Y025866D01*
X046529Y025931D01*
X046594Y026016D01*
X046635Y026114D01*
X046649Y02622D01*
Y02642D01*
X046635Y026526D01*
X046594Y026624D01*
X046529Y026709D01*
X046444Y026774D01*
X046373Y026803D01*
Y0296D01*
X046362Y029651D01*
X046334Y029694D01*
X045534Y030494D01*
X045491Y030522D01*
X04544Y030533D01*
X044597D01*
X044571Y030571D01*
X044493Y030624D01*
X0444Y030642D01*
X044307Y030624D01*
X044229Y030571D01*
X044203Y030533D01*
X043573D01*
X043554Y030579D01*
X043489Y030664D01*
X043404Y030729D01*
X043368Y030744D01*
Y030793D01*
X043404Y030808D01*
X043489Y030873D01*
X043554Y030958D01*
X043595Y031056D01*
X043596Y031067D01*
X044843D01*
X044869Y031029D01*
X044947Y030976D01*
X04504Y030958D01*
X045133Y030976D01*
X045211Y031029D01*
X045237Y031067D01*
X046105D01*
X047107Y030065D01*
Y026803D01*
X047036Y026774D01*
X046951Y026709D01*
X046886Y026624D01*
X046845Y026526D01*
X046831Y02642D01*
Y02622D01*
X046845Y026114D01*
X046886Y026016D01*
X046951Y025931D01*
X047036Y025866D01*
X047134Y025825D01*
X04724Y025812D01*
X047346Y025825D01*
X047444Y025866D01*
X047529Y025931D01*
X047594Y026016D01*
X047635Y026114D01*
X047649Y02622D01*
Y02642D01*
X047635Y026526D01*
X047594Y026624D01*
X047529Y026709D01*
X047444Y026774D01*
X047373Y026803D01*
Y03012D01*
X047362Y030171D01*
X047334Y030214D01*
X046254Y031294D01*
X046211Y031322D01*
X04616Y031333D01*
X045237D01*
X045211Y031371D01*
X045133Y031424D01*
X04504Y031442D01*
X044947Y031424D01*
X044869Y031371D01*
X044843Y031333D01*
X043568D01*
X043554Y031366D01*
X043489Y031451D01*
X043432Y031495D01*
X043449Y031545D01*
X043605D01*
Y031817D01*
X047355D01*
X048107Y031065D01*
Y026803D01*
X048036Y026774D01*
X047951Y026709D01*
X047886Y026624D01*
X047845Y026526D01*
X047832Y02642D01*
Y02622D01*
X047845Y026114D01*
X047886Y026016D01*
X047951Y025931D01*
X048036Y025866D01*
X048134Y025825D01*
X04824Y025812D01*
X048346Y025825D01*
X048444Y025866D01*
X048529Y025931D01*
X048561Y025973D01*
X048611Y025956D01*
Y025654D01*
X048199Y025242D01*
X045283D01*
X045236Y025233D01*
X045196Y025207D01*
X044845Y024855D01*
X044818Y024815D01*
X044809Y024768D01*
Y024088D01*
X044727Y024054D01*
X044642Y023989D01*
X044577Y023904D01*
X044537Y023806D01*
X044523Y0237D01*
Y0235D01*
X044537Y023394D01*
X044577Y023296D01*
X044642Y023211D01*
X044727Y023146D01*
X044825Y023105D01*
X044931Y023092D01*
X045037Y023105D01*
X045135Y023146D01*
X04522Y023211D01*
X045285Y023296D01*
X045326Y023394D01*
X04534Y0235D01*
Y0237D01*
X045326Y023806D01*
X045285Y023904D01*
X04522Y023989D01*
X045135Y024054D01*
X045054Y024088D01*
Y024718D01*
X045333Y024998D01*
X046102D01*
X046121Y024951D01*
X045865Y024695D01*
X045838Y024656D01*
X045829Y024609D01*
Y024088D01*
X045747Y024054D01*
X045662Y023989D01*
X045597Y023904D01*
X045557Y023806D01*
X045543Y0237D01*
Y0235D01*
X045557Y023394D01*
X045597Y023296D01*
X045662Y023211D01*
X045747Y023146D01*
X045845Y023105D01*
X045951Y023092D01*
X046057Y023105D01*
X046155Y023146D01*
X04624Y023211D01*
X046305Y023296D01*
X046346Y023394D01*
X04636Y0235D01*
Y0237D01*
X046346Y023806D01*
X046305Y023904D01*
X04624Y023989D01*
X046155Y024054D01*
X046073Y024088D01*
Y024558D01*
X046353Y024838D01*
X048316D01*
X048363Y024847D01*
X048402Y024873D01*
X04898Y025451D01*
X049006Y02549D01*
X049015Y025537D01*
Y037316D01*
X049054Y037348D01*
X049078Y037343D01*
X04917Y037361D01*
X049223Y037396D01*
X049273Y03737D01*
Y023732D01*
X049223Y023724D01*
X049195Y023816D01*
X049123Y02395D01*
X049027Y024067D01*
X04891Y024163D01*
X048776Y024235D01*
X048631Y024279D01*
X04848Y024294D01*
X048329Y024279D01*
X048184Y024235D01*
X04805Y024163D01*
X047933Y024067D01*
X047837Y02395D01*
X047765Y023816D01*
X047721Y023671D01*
X047706Y02352D01*
X047721Y023369D01*
X047765Y023224D01*
X047837Y02309D01*
X047933Y022973D01*
X04805Y022877D01*
X048184Y022805D01*
X048329Y022761D01*
X04848Y022746D01*
X048631Y022761D01*
X048776Y022805D01*
X04891Y022877D01*
X049027Y022973D01*
X049123Y02309D01*
X049195Y023224D01*
X049223Y023316D01*
X049273Y023308D01*
Y022537D01*
X010097D01*
Y049903D01*
X012973D01*
X01299Y049853D01*
X01292Y049799D01*
X012855Y049714D01*
X012814Y049616D01*
X0128Y04951D01*
X012814Y049404D01*
X012848Y049323D01*
X012123Y048598D01*
X012089Y048547D01*
X012077Y048486D01*
X012089Y048426D01*
X01209Y048425D01*
Y040473D01*
X012077Y040464D01*
X012024Y040385D01*
X012006Y040293D01*
X012024Y0402D01*
X012077Y040122D01*
X012155Y040069D01*
X012248Y040051D01*
X01234Y040069D01*
X012406Y040113D01*
X012456Y040095D01*
Y03888D01*
X01247Y03881D01*
X01251Y03875D01*
X01309Y03817D01*
X01315Y03813D01*
X013185Y038123D01*
Y037845D01*
X013995D01*
Y038755D01*
X01399D01*
X013971Y038801D01*
X014091Y038921D01*
X018719D01*
X018979Y038661D01*
X01896Y038615D01*
X018875D01*
Y037705D01*
X019685D01*
Y038615D01*
X019464D01*
Y03862D01*
X01945Y03869D01*
X01941Y03875D01*
X018925Y039235D01*
X018865Y039275D01*
X018795Y039289D01*
X014015D01*
X013945Y039275D01*
X013885Y039235D01*
X01346Y03881D01*
X013424Y038755D01*
X013185D01*
Y03866D01*
X013139Y038641D01*
X012824Y038956D01*
Y042135D01*
X013105Y042417D01*
X013785D01*
X013833Y0424D01*
X013839Y042369D01*
X013851Y042307D01*
X013904Y042229D01*
X013982Y042176D01*
X014075Y042158D01*
X014168Y042176D01*
X014246Y042229D01*
X014255Y042242D01*
X01437D01*
Y042045D01*
X01503D01*
Y042755D01*
X014848D01*
Y042931D01*
X015118Y043201D01*
X01602D01*
Y043751D01*
X01432D01*
Y043201D01*
X014606D01*
X014625Y043155D01*
X014578Y043108D01*
X014544Y043057D01*
X014532Y042996D01*
Y042755D01*
X01437D01*
Y042558D01*
X014255D01*
X014246Y042571D01*
X014168Y042624D01*
X014075Y042642D01*
X013982Y042624D01*
X013904Y042571D01*
X013882Y042539D01*
X013832Y042554D01*
Y043403D01*
X013522D01*
Y044354D01*
X014115Y044947D01*
X014155Y045006D01*
X014169Y045076D01*
Y047944D01*
X01424Y048015D01*
X014722D01*
Y046685D01*
X0146D01*
Y045975D01*
X014722D01*
Y04583D01*
X01432D01*
Y04528D01*
X01602D01*
Y04583D01*
X015155D01*
X015089Y045896D01*
Y045975D01*
X01526D01*
Y046685D01*
X015089D01*
Y048015D01*
X015606D01*
Y048805D01*
X014205D01*
Y0485D01*
X013855Y04815D01*
X013815Y04809D01*
X013801Y04802D01*
Y047485D01*
X013752Y047483D01*
X013751Y047483D01*
X012765D01*
Y046497D01*
X013751D01*
X013752Y046497D01*
X013801Y046495D01*
Y045152D01*
X013209Y04456D01*
X013169Y0445D01*
X013155Y04443D01*
Y043403D01*
X012845D01*
Y042676D01*
X01251Y042341D01*
X01247Y042282D01*
X012456Y042211D01*
Y040551D01*
X012406Y040525D01*
X012406Y040525D01*
Y048434D01*
X012757Y048785D01*
X012804Y048766D01*
Y048095D01*
X013714D01*
Y048905D01*
X012942D01*
X012923Y048951D01*
X013092Y04912D01*
X013103Y049115D01*
X013209Y049102D01*
X013309D01*
X013414Y049115D01*
X013513Y049156D01*
X013597Y049221D01*
X013662Y049306D01*
X013703Y049404D01*
X013717Y04951D01*
X013703Y049616D01*
X013662Y049714D01*
X013597Y049799D01*
X013527Y049853D01*
X013544Y049903D01*
X032642D01*
X032661Y049856D01*
X032426Y049621D01*
X03241Y049598D01*
X032204D01*
Y049005D01*
X032836D01*
Y049598D01*
X032836D01*
X032819Y049639D01*
X032875Y049695D01*
X033641D01*
X03366Y049649D01*
X033609Y049598D01*
X033184D01*
Y049005D01*
X033816D01*
Y04943D01*
X033901Y049515D01*
X034135D01*
Y049005D01*
X034561D01*
X034744Y048821D01*
X034724Y048771D01*
X034135D01*
Y048178D01*
X034319D01*
Y048047D01*
X034097D01*
Y047387D01*
X034807D01*
Y048047D01*
X034584D01*
Y048178D01*
X034768D01*
Y048727D01*
X034818Y048747D01*
X035087Y048478D01*
Y046357D01*
X035049Y046331D01*
X034996Y046253D01*
X034978Y04616D01*
X034996Y046067D01*
X035049Y045989D01*
X035102Y045954D01*
X035104Y045936D01*
X035097Y045897D01*
X035029Y045851D01*
X034976Y045773D01*
X034958Y04568D01*
X034976Y045587D01*
X035029Y045509D01*
X035107Y045456D01*
X035148Y045448D01*
X035165Y045394D01*
X035161Y045391D01*
X035133Y045348D01*
X035122Y045297D01*
Y045217D01*
X035084Y045191D01*
X035031Y045113D01*
X035013Y04502D01*
X035031Y044927D01*
X035084Y044849D01*
X035162Y044796D01*
X035184Y044792D01*
X035199Y044744D01*
X034897Y044442D01*
X032231D01*
X030842Y045831D01*
Y04645D01*
X031067D01*
Y045805D01*
X031078Y045754D01*
X031106Y045711D01*
X032031Y044786D01*
X032074Y044758D01*
X032125Y044747D01*
X033503D01*
X033529Y044709D01*
X033607Y044656D01*
X0337Y044638D01*
X033793Y044656D01*
X033871Y044709D01*
X033924Y044787D01*
X033942Y04488D01*
X033924Y044973D01*
X033871Y045051D01*
X033793Y045104D01*
X0337Y045122D01*
X033607Y045104D01*
X033529Y045051D01*
X033503Y045013D01*
X03218D01*
X031333Y04586D01*
Y046487D01*
X031522D01*
Y046321D01*
X031476Y046253D01*
X031458Y04616D01*
X031476Y046067D01*
X031529Y045989D01*
X031607Y045936D01*
X0317Y045918D01*
X031793Y045936D01*
X031871Y045989D01*
X031924Y046067D01*
X031942Y04616D01*
X031924Y046253D01*
X031871Y046331D01*
X031838Y046353D01*
Y046487D01*
X032035D01*
Y046659D01*
X032165D01*
Y046487D01*
X032875D01*
Y046659D01*
X033145D01*
Y046487D01*
X033855D01*
Y046659D01*
X034097D01*
Y046487D01*
X034807D01*
Y047147D01*
X034097D01*
Y046975D01*
X033855D01*
Y047147D01*
X033145D01*
Y046975D01*
X032875D01*
Y047147D01*
X032165D01*
Y046975D01*
X032035D01*
Y047147D01*
X031333D01*
Y047387D01*
X032035D01*
Y048047D01*
X031813D01*
Y048162D01*
X031996D01*
Y048755D01*
X031408D01*
X031387Y048805D01*
X031571Y048989D01*
X031996D01*
Y049582D01*
X031364D01*
Y049157D01*
X031106Y048899D01*
X031078Y048856D01*
X031067Y048806D01*
Y0488D01*
X031036Y048763D01*
X030404D01*
Y04817D01*
X030587D01*
Y04801D01*
X030365D01*
Y04735D01*
X031067D01*
Y04711D01*
X030365D01*
Y04645D01*
X030598D01*
Y04578D01*
X030607Y045733D01*
X030633Y045693D01*
X031998Y044329D01*
X031979Y044282D01*
X031571D01*
X029962Y045891D01*
Y04645D01*
X030195D01*
Y04711D01*
X029485D01*
Y04645D01*
X029718D01*
Y04584D01*
X029727Y045793D01*
X029753Y045753D01*
X031433Y044073D01*
X031473Y044047D01*
X03152Y044038D01*
X0352D01*
X035247Y044047D01*
X035287Y044073D01*
X03532Y044107D01*
X035374Y04409D01*
X035381Y044052D01*
X035434Y043974D01*
X035447Y043965D01*
Y043467D01*
X035397Y043441D01*
X035348Y043474D01*
X035255Y043492D01*
X035162Y043474D01*
X035084Y043421D01*
X035051Y043372D01*
X030916D01*
X029866Y044422D01*
X029877Y04448D01*
X029859Y044573D01*
X029806Y044651D01*
X029728Y044704D01*
X029635Y044722D01*
X029542Y044704D01*
X029464Y044651D01*
X029411Y044573D01*
X029393Y04448D01*
X029411Y044387D01*
X029464Y044309D01*
X029542Y044256D01*
X029635Y044238D01*
X029693Y044249D01*
X030778Y043163D01*
X030818Y043137D01*
X030865Y043128D01*
X035051D01*
X035084Y043079D01*
X035162Y043026D01*
X035255Y043008D01*
X035348Y043026D01*
X035374Y043044D01*
X035426Y043019D01*
X035429Y042988D01*
X035085Y042643D01*
X029972D01*
X029966Y042651D01*
X029888Y042704D01*
X029795Y042722D01*
X029702Y042704D01*
X029624Y042651D01*
X029571Y042573D01*
X029553Y04248D01*
X029571Y042387D01*
X029624Y042309D01*
X029702Y042256D01*
X029795Y042238D01*
X029888Y042256D01*
X029966Y042309D01*
X029978Y042327D01*
X03515D01*
X03521Y042339D01*
X035262Y042373D01*
X035717Y042828D01*
X035751Y04288D01*
X035763Y04294D01*
Y043965D01*
X035776Y043974D01*
X035829Y044052D01*
X035847Y044145D01*
X035829Y044238D01*
X035776Y044316D01*
X035698Y044369D01*
X03566Y044376D01*
X035643Y04443D01*
X036022Y044809D01*
X03608Y044798D01*
X036173Y044816D01*
X036228Y044853D01*
X036278Y044826D01*
Y042691D01*
X036218Y042631D01*
X03616Y042642D01*
X036067Y042624D01*
X035989Y042571D01*
X035936Y042493D01*
X035918Y0424D01*
X035936Y042307D01*
X035989Y042229D01*
X036067Y042176D01*
X03616Y042158D01*
X036253Y042176D01*
X036273Y04219D01*
X036318Y04216D01*
X036336Y042067D01*
X036389Y041989D01*
X036467Y041936D01*
X03656Y041918D01*
X036653Y041936D01*
X036696Y041965D01*
X036734Y041986D01*
X03676Y041952D01*
X036789Y041909D01*
X036867Y041856D01*
X03696Y041838D01*
X037053Y041856D01*
X037131Y041909D01*
X037184Y041987D01*
X037202Y04208D01*
X037184Y042173D01*
X037131Y042251D01*
X037082Y042284D01*
Y044949D01*
X03715Y045016D01*
X037204Y045D01*
X037215Y044947D01*
X037267Y044869D01*
X037306Y044843D01*
Y043682D01*
X037316Y043631D01*
X037345Y043588D01*
X037666Y043266D01*
X037709Y043238D01*
X03776Y043227D01*
X038283D01*
X038309Y043189D01*
X038387Y043136D01*
X03848Y043118D01*
X038573Y043136D01*
X038651Y043189D01*
X038704Y043267D01*
X038722Y04336D01*
X038704Y043453D01*
X038651Y043531D01*
X038573Y043584D01*
X03848Y043602D01*
X038387Y043584D01*
X038309Y043531D01*
X038283Y043493D01*
X037815D01*
X037571Y043736D01*
Y044042D01*
X0376Y04408D01*
X03856D01*
Y04504D01*
X037681D01*
X037662Y045133D01*
X03761Y045211D01*
X037531Y045264D01*
X037479Y045274D01*
X037462Y045328D01*
X038807Y046673D01*
X038833Y046713D01*
X038842Y046759D01*
Y047145D01*
X039155D01*
Y048055D01*
X038345D01*
Y047145D01*
X038598D01*
Y04681D01*
X036873Y045086D01*
X036847Y045046D01*
X036838Y044999D01*
Y042284D01*
X036824Y042275D01*
X036786Y042254D01*
X03676Y042288D01*
X036731Y042331D01*
X036682Y042364D01*
Y045069D01*
X037827Y046213D01*
X037853Y046253D01*
X037862Y0463D01*
Y047162D01*
X037944Y047196D01*
X038029Y047261D01*
X038094Y047346D01*
X038135Y047444D01*
X038148Y04755D01*
Y04765D01*
X038135Y047756D01*
X038094Y047854D01*
X038029Y047939D01*
X037944Y048004D01*
X037846Y048045D01*
X03774Y048059D01*
X037634Y048045D01*
X037536Y048004D01*
X037451Y047939D01*
X037386Y047854D01*
X037345Y047756D01*
X037332Y04765D01*
Y04755D01*
X037345Y047444D01*
X037386Y047346D01*
X037451Y047261D01*
X037536Y047196D01*
X037618Y047162D01*
Y046351D01*
X036569Y045302D01*
X036522Y045321D01*
Y046446D01*
X036571Y046478D01*
X036624Y046557D01*
X036642Y04665D01*
X036624Y046742D01*
X036571Y046821D01*
X036493Y046873D01*
X0364Y046892D01*
X036307Y046873D01*
X036229Y046821D01*
X036176Y046742D01*
X036158Y04665D01*
X036176Y046557D01*
X036229Y046478D01*
X036278Y046446D01*
Y045721D01*
X036228Y045694D01*
X036199Y045713D01*
X036106Y045732D01*
X036014Y045713D01*
X035935Y045661D01*
X035883Y045582D01*
X035864Y045489D01*
X035877Y045423D01*
X035531Y045076D01*
X035483Y045091D01*
X035479Y045113D01*
X035426Y045191D01*
X035411Y045202D01*
X035406Y04526D01*
X035794Y045648D01*
X035822Y045691D01*
X035833Y045742D01*
Y048944D01*
X035822Y048995D01*
X035794Y049038D01*
X035584Y049247D01*
X035616Y049286D01*
X035708Y049268D01*
X035801Y049286D01*
X03588Y049339D01*
X035932Y049417D01*
X03595Y04951D01*
X035947Y049526D01*
X036084Y049662D01*
X040289D01*
X040298Y049612D01*
X040291Y049609D01*
X040206Y049544D01*
X040141Y049459D01*
X0401Y049361D01*
X040087Y049255D01*
X0401Y049149D01*
X040141Y049051D01*
X040206Y048966D01*
X040291Y048901D01*
X040389Y04886D01*
X040495Y048847D01*
X040595D01*
X040701Y04886D01*
X040799Y048901D01*
X040884Y048966D01*
X040949Y049051D01*
X04099Y049149D01*
X041003Y049255D01*
X04099Y049361D01*
X040949Y049459D01*
X040884Y049544D01*
X040799Y049609D01*
X040792Y049612D01*
X040801Y049662D01*
X04111D01*
X041475Y049296D01*
X041456Y04925D01*
X04135D01*
Y04859D01*
X04206D01*
Y048762D01*
X042135D01*
Y04858D01*
X042845D01*
Y048677D01*
X042889Y0487D01*
X042917Y048681D01*
X04301Y048663D01*
X043103Y048681D01*
X043181Y048734D01*
X043234Y048812D01*
X043252Y048905D01*
X043234Y048998D01*
X043181Y049076D01*
X043103Y049129D01*
X04301Y049147D01*
X042917Y049129D01*
X042889Y04911D01*
X042845Y049133D01*
Y04924D01*
X042135D01*
Y049078D01*
X04206D01*
Y04925D01*
X041863D01*
Y04929D01*
X041851Y04935D01*
X041817Y049402D01*
X041362Y049856D01*
X041381Y049903D01*
X049273D01*
Y049092D01*
D02*
G37*
G36*
X049108Y047421D02*
X048358D01*
Y047881D01*
X049108D01*
Y047421D01*
D02*
G37*
G36*
X04516Y046994D02*
Y0466D01*
X045376D01*
X045379Y046598D01*
X04543Y046587D01*
X046834D01*
X046957Y046463D01*
X046953Y046414D01*
X046949Y046411D01*
X046896Y046333D01*
X046878Y04624D01*
X046896Y046147D01*
X046939Y046083D01*
X046919Y046033D01*
X04596D01*
X045951Y046046D01*
X045873Y046099D01*
X04578Y046117D01*
X045739Y046109D01*
X0457Y046141D01*
Y046446D01*
X04516D01*
Y046075D01*
X04387D01*
Y046206D01*
Y0466D01*
Y046994D01*
Y047365D01*
X04516D01*
Y046994D01*
D02*
G37*
G36*
X049108Y045125D02*
X048358D01*
Y045585D01*
X049108D01*
Y045125D01*
D02*
G37*
G36*
X048061Y044038D02*
X048073Y044018D01*
X048386Y043706D01*
X048363Y043658D01*
X04832Y043664D01*
X048247Y043654D01*
X048179Y043626D01*
X04812Y043581D01*
X048075Y043523D01*
X048047Y043455D01*
X048038Y043382D01*
Y043182D01*
X048047Y043108D01*
X048075Y04304D01*
X04812Y042982D01*
X048179Y042937D01*
X048187Y042933D01*
Y042202D01*
X048147Y042194D01*
X048069Y042141D01*
X048016Y042063D01*
X048012Y042043D01*
X047962Y042048D01*
Y044043D01*
X048012Y04407D01*
X048061Y044038D01*
D02*
G37*
G36*
X047718Y044169D02*
Y043639D01*
X047673Y043617D01*
X047661Y043626D01*
X047593Y043654D01*
X04752Y043664D01*
X047447Y043654D01*
X047379Y043626D01*
X047367Y043617D01*
X047322Y043639D01*
Y044493D01*
X047372Y044514D01*
X047718Y044169D01*
D02*
G37*
G36*
X029067Y043982D02*
Y042357D01*
X029029Y042331D01*
X028976Y042253D01*
X028958Y04216D01*
X028976Y042067D01*
X028993Y042042D01*
X02897Y041998D01*
X02847D01*
X028447Y042042D01*
X028464Y042067D01*
X028482Y04216D01*
X028464Y042253D01*
X028411Y042331D01*
X028333Y042384D01*
X02824Y042402D01*
X028147Y042384D01*
X028069Y042331D01*
X028016Y042253D01*
X028015Y042248D01*
X025297D01*
X025278Y042294D01*
X025533Y04255D01*
X025995D01*
Y042722D01*
X027185D01*
Y04255D01*
X027895D01*
Y042722D01*
X028134D01*
X028194Y042734D01*
X028245Y042768D01*
X028936Y043459D01*
X02897Y04351D01*
X028982Y043571D01*
Y043956D01*
X028995Y043965D01*
X029017Y043997D01*
X029067Y043982D01*
D02*
G37*
G36*
X049273Y041847D02*
Y0378D01*
X049223Y037774D01*
X04917Y037809D01*
X049078Y037827D01*
X049029Y037818D01*
X04896Y037887D01*
Y041845D01*
X049004Y041869D01*
X049022Y041856D01*
X049115Y041838D01*
X049208Y041856D01*
X049229Y04187D01*
X049273Y041847D01*
D02*
G37*
G36*
X047379Y042937D02*
X047447Y042909D01*
X04752Y042899D01*
X047593Y042909D01*
X047661Y042937D01*
X047673Y042946D01*
X047718Y042924D01*
Y037458D01*
X047727Y037412D01*
X047753Y037372D01*
X048039Y037087D01*
X048038Y037078D01*
Y036878D01*
X048039Y03687D01*
X047836Y036667D01*
X047774D01*
X047749Y036717D01*
X047765Y036737D01*
X047793Y036805D01*
X047802Y036878D01*
Y037078D01*
X047793Y037152D01*
X047765Y03722D01*
X04772Y037278D01*
X047661Y037323D01*
X047593Y037351D01*
X04758Y037353D01*
X047471Y037462D01*
X047482Y03752D01*
X047464Y037613D01*
X047462Y037615D01*
X047481Y037661D01*
X047519Y037669D01*
X047597Y037721D01*
X04765Y0378D01*
X047668Y037893D01*
X04765Y037985D01*
X047597Y038064D01*
X047519Y038116D01*
X047426Y038135D01*
X047333Y038116D01*
X047255Y038064D01*
X047251Y038058D01*
X047198Y038068D01*
X047184Y038139D01*
X047131Y038217D01*
X047053Y03827D01*
X04696Y038288D01*
X046867Y03827D01*
X046789Y038217D01*
X046736Y038139D01*
X046718Y038046D01*
X046736Y037954D01*
X046742Y037945D01*
X046637Y03784D01*
X046522D01*
X046501Y03789D01*
X046544Y037954D01*
X046562Y038046D01*
X046544Y038139D01*
X046491Y038217D01*
X046442Y03825D01*
Y041226D01*
X047081Y041865D01*
X047113Y041861D01*
X047157Y041818D01*
X047146Y04176D01*
X047164Y041667D01*
X047217Y041589D01*
X047295Y041536D01*
X047388Y041518D01*
X047481Y041536D01*
X047559Y041589D01*
X047612Y041667D01*
X04763Y04176D01*
X047612Y041853D01*
X047559Y041931D01*
X047481Y041984D01*
X047388Y042002D01*
X047372Y041999D01*
X047322Y04204D01*
Y042924D01*
X047367Y042946D01*
X047379Y042937D01*
D02*
G37*
G36*
X022551Y041886D02*
X021855Y04119D01*
X021821Y041139D01*
X021809Y041078D01*
Y04094D01*
X021522D01*
X021514Y040983D01*
X021461Y041061D01*
X021412Y041094D01*
Y041311D01*
X021461Y041344D01*
X021514Y041422D01*
X021532Y041515D01*
X021514Y041608D01*
X021461Y041686D01*
X021383Y041739D01*
X02129Y041757D01*
X021197Y041739D01*
X021119Y041686D01*
X021066Y041608D01*
X021048Y041515D01*
X021066Y041422D01*
X021119Y041344D01*
X021168Y041311D01*
Y041094D01*
X021119Y041061D01*
X021066Y040983D01*
X021057Y040937D01*
X021003Y040921D01*
X020888Y041035D01*
Y04134D01*
X020901Y041349D01*
X020954Y041427D01*
X020972Y04152D01*
X020954Y041613D01*
X020901Y041691D01*
X020823Y041744D01*
X02073Y041762D01*
X020657Y041748D01*
X020632Y041794D01*
X02077Y041932D01*
X022532D01*
X022551Y041886D01*
D02*
G37*
G36*
X028435Y041632D02*
X028411Y041614D01*
X028346Y041529D01*
X028305Y041431D01*
X028292Y041325D01*
Y041075D01*
X028305Y040969D01*
X028346Y040871D01*
X028411Y040786D01*
X028496Y040721D01*
X028594Y04068D01*
X028678Y040669D01*
Y040032D01*
X028628Y040015D01*
X02861Y040039D01*
X028525Y040104D01*
X028426Y040145D01*
X028321Y040158D01*
X028215Y040145D01*
X028116Y040104D01*
X028032Y040039D01*
X027967Y039954D01*
X027958Y039933D01*
X027908Y039943D01*
Y040724D01*
X027989Y040786D01*
X028054Y040871D01*
X028095Y040969D01*
X028108Y041075D01*
Y041325D01*
X028095Y041431D01*
X028054Y041529D01*
X027989Y041614D01*
X027965Y041632D01*
X027982Y041682D01*
X028418D01*
X028435Y041632D01*
D02*
G37*
G36*
X027967Y039446D02*
X028032Y039361D01*
X028116Y039296D01*
X028215Y039255D01*
X028321Y039242D01*
X028426Y039255D01*
X028525Y039296D01*
X02861Y039361D01*
X028628Y039385D01*
X028678Y039368D01*
Y039244D01*
X028629Y039211D01*
X028576Y039133D01*
X028558Y03904D01*
X028576Y038947D01*
X028589Y038929D01*
X028565Y038885D01*
X028168D01*
X027908Y039145D01*
Y039457D01*
X027958Y039467D01*
X027967Y039446D01*
D02*
G37*
G36*
X046918Y042106D02*
Y042048D01*
X046233Y041363D01*
X046207Y041324D01*
X046198Y041277D01*
Y03825D01*
X046149Y038217D01*
X046096Y038139D01*
X046078Y038046D01*
X046096Y037954D01*
X046139Y03789D01*
X046118Y03784D01*
X045918D01*
X045903Y03789D01*
X045931Y037909D01*
X045984Y037987D01*
X046002Y03808D01*
X045984Y038173D01*
X045931Y038251D01*
X045918Y03826D01*
Y038879D01*
X045917Y038883D01*
Y041214D01*
X046797Y042093D01*
X046813Y042096D01*
X046868Y042133D01*
X046918Y042106D01*
D02*
G37*
G36*
X048016Y041877D02*
X048069Y041799D01*
X048147Y041746D01*
X04824Y041728D01*
X048333Y041746D01*
X048351Y041759D01*
X048395Y041735D01*
Y037514D01*
X048404Y037467D01*
X048431Y037427D01*
X048509Y03735D01*
X048476Y037312D01*
X048461Y037323D01*
X048393Y037351D01*
X04832Y037361D01*
X048247Y037351D01*
X048179Y037323D01*
X048162Y03731D01*
X047962Y037509D01*
Y041892D01*
X048012Y041897D01*
X048016Y041877D01*
D02*
G37*
G36*
X039634Y036931D02*
X039615Y036885D01*
X038855D01*
Y036075D01*
X039765D01*
Y036205D01*
X039815Y036219D01*
X039833Y036191D01*
X040224Y035801D01*
X040192Y035762D01*
X040173Y035775D01*
X04008Y035793D01*
X039987Y035775D01*
X039909Y035722D01*
X039856Y035644D01*
X039838Y035551D01*
X039856Y035458D01*
X039909Y03538D01*
X039987Y035327D01*
X04008Y035309D01*
X040173Y035327D01*
X040251Y03538D01*
X040284Y035429D01*
X041796D01*
X041829Y03538D01*
X041907Y035327D01*
X042Y035309D01*
X042093Y035327D01*
X042171Y03538D01*
X042224Y035458D01*
X042242Y035551D01*
X042224Y035644D01*
X042204Y035674D01*
X042227Y035718D01*
X045317D01*
X04549Y035545D01*
X045482Y035503D01*
X045472Y035491D01*
X045391Y035429D01*
X045326Y035344D01*
X045285Y035246D01*
X045272Y03514D01*
Y03494D01*
X045285Y034834D01*
X045326Y034736D01*
X045391Y034651D01*
X045476Y034586D01*
X045574Y034545D01*
X04568Y034532D01*
X045786Y034545D01*
X045884Y034586D01*
X045969Y034651D01*
X046034Y034736D01*
X046075Y034834D01*
X046089Y03494D01*
Y03514D01*
X046075Y035246D01*
X046034Y035344D01*
X045969Y035429D01*
X045884Y035494D01*
X045802Y035528D01*
X045793Y035574D01*
X045767Y035614D01*
X045549Y035831D01*
X045568Y035878D01*
X045669D01*
X04629Y035257D01*
X046285Y035246D01*
X046272Y03514D01*
Y03494D01*
X046285Y034834D01*
X046326Y034736D01*
X046391Y034651D01*
X046476Y034586D01*
X046574Y034545D01*
X04668Y034532D01*
X046786Y034545D01*
X046884Y034586D01*
X046969Y034651D01*
X047034Y034736D01*
X047075Y034834D01*
X047088Y03494D01*
Y03514D01*
X047075Y035246D01*
X047034Y035344D01*
X046969Y035429D01*
X046884Y035494D01*
X046786Y035535D01*
X04668Y035548D01*
X046574Y035535D01*
X046476Y035494D01*
X046432Y035461D01*
X045902Y035991D01*
X045921Y036038D01*
X047629D01*
X048133Y035534D01*
Y035188D01*
X048083Y035184D01*
X048075Y035246D01*
X048034Y035344D01*
X047969Y035429D01*
X047884Y035494D01*
X047786Y035535D01*
X04768Y035548D01*
X047574Y035535D01*
X047476Y035494D01*
X047391Y035429D01*
X047326Y035344D01*
X047285Y035246D01*
X047271Y03514D01*
Y03494D01*
X047285Y034834D01*
X047326Y034736D01*
X047391Y034651D01*
X047476Y034586D01*
X047574Y034545D01*
X04768Y034532D01*
X047786Y034545D01*
X047884Y034586D01*
X047969Y034651D01*
X048034Y034736D01*
X048075Y034834D01*
X048083Y034896D01*
X048133Y034892D01*
Y033744D01*
X048084Y033711D01*
X048031Y033633D01*
X048013Y03354D01*
X048031Y033447D01*
X048084Y033369D01*
X048162Y033316D01*
X048255Y033298D01*
X048348Y033316D01*
X048426Y033369D01*
X048479Y033447D01*
X048497Y03354D01*
X048479Y033633D01*
X048426Y033711D01*
X048377Y033744D01*
Y035585D01*
X048368Y035632D01*
X048342Y035672D01*
X047767Y036247D01*
X047727Y036273D01*
X04768Y036282D01*
X041664D01*
X041649Y036332D01*
X041711Y036374D01*
X041744Y036423D01*
X047887D01*
X047933Y036432D01*
X047973Y036458D01*
X048162Y036647D01*
X048179Y036634D01*
X048247Y036606D01*
X04832Y036596D01*
X048393Y036606D01*
X048461Y036634D01*
X04852Y036679D01*
X048561Y036732D01*
X048577Y036732D01*
X048611Y036718D01*
Y026684D01*
X048561Y026667D01*
X048529Y026709D01*
X048444Y026774D01*
X048373Y026803D01*
Y03112D01*
X048362Y031171D01*
X048334Y031214D01*
X047504Y032043D01*
X047461Y032072D01*
X04741Y032082D01*
X043605D01*
Y032355D01*
X043211D01*
X043194Y03238D01*
X04292Y032654D01*
X042877Y032682D01*
X042827Y032693D01*
X041415D01*
X041173Y032935D01*
Y033005D01*
X04137D01*
Y033715D01*
X04071D01*
Y033523D01*
X039765D01*
Y033795D01*
X038922D01*
Y034097D01*
X038954Y034108D01*
X038972Y03411D01*
X039056Y034046D01*
X039154Y034005D01*
X03926Y033992D01*
X03936D01*
X039466Y034005D01*
X039564Y034046D01*
X039649Y034111D01*
X039714Y034196D01*
X039755Y034294D01*
X039768Y0344D01*
X039755Y034506D01*
X039714Y034604D01*
X039649Y034689D01*
X039564Y034754D01*
X039466Y034795D01*
X03936Y034808D01*
X03926D01*
X039154Y034795D01*
X039056Y034754D01*
X038972Y03469D01*
X038954Y034692D01*
X038922Y034703D01*
Y034785D01*
X038913Y034832D01*
X038887Y034872D01*
X037334Y036425D01*
X037294Y036451D01*
X037247Y036461D01*
X036576D01*
X036549Y036511D01*
X036574Y036547D01*
X036592Y03664D01*
X036574Y036733D01*
X036554Y036763D01*
X036577Y036807D01*
X037486D01*
X037519Y036758D01*
X037597Y036705D01*
X03769Y036687D01*
X037783Y036705D01*
X037861Y036758D01*
X037914Y036836D01*
X037932Y036929D01*
X037914Y037022D01*
X037901Y03704D01*
X037925Y037084D01*
X039481D01*
X039634Y036931D01*
D02*
G37*
G36*
X044589Y037551D02*
X044576Y037533D01*
X044558Y03744D01*
X044576Y037347D01*
X044629Y037269D01*
X044707Y037216D01*
X0448Y037198D01*
X044813Y037201D01*
X044849Y037157D01*
X044847Y037152D01*
X044838Y037078D01*
Y036878D01*
X044847Y036805D01*
X044875Y036737D01*
X044891Y036717D01*
X044866Y036667D01*
X044574D01*
X044549Y036717D01*
X044565Y036737D01*
X044593Y036805D01*
X044602Y036878D01*
Y037078D01*
X044593Y037152D01*
X044565Y03722D01*
X04452Y037278D01*
X044461Y037323D01*
X044393Y037351D01*
X04432Y037361D01*
X044247Y037351D01*
X044208Y037335D01*
X044165Y037372D01*
X044179Y03744D01*
X044161Y037533D01*
X044148Y037551D01*
X044172Y037595D01*
X044565D01*
X044589Y037551D01*
D02*
G37*
G36*
X04145Y037555D02*
Y036845D01*
X04211D01*
Y037349D01*
X043176D01*
X043288Y037236D01*
X043275Y03722D01*
X043247Y037152D01*
X043238Y037078D01*
Y036878D01*
X043247Y036805D01*
X043275Y036737D01*
X043291Y036717D01*
X043266Y036667D01*
X041744D01*
X041711Y036716D01*
X041633Y036769D01*
X04154Y036787D01*
X041447Y036769D01*
X041369Y036716D01*
X041316Y036638D01*
X041298Y036545D01*
X041316Y036452D01*
X041369Y036374D01*
X041431Y036332D01*
X041416Y036282D01*
X040686D01*
X040599Y036369D01*
X040624Y036406D01*
X040642Y036498D01*
X040624Y036591D01*
X040571Y03667D01*
X040493Y036722D01*
X0404Y036741D01*
X040307Y036722D01*
X040289Y03671D01*
X040245Y036733D01*
Y037159D01*
X040315Y037205D01*
X040367Y037284D01*
X040385Y037377D01*
X040367Y037469D01*
X040316Y037545D01*
X040323Y037575D01*
X040329Y037595D01*
X041426D01*
X04145Y037555D01*
D02*
G37*
G36*
X030679Y037162D02*
X030666Y037143D01*
X030648Y037051D01*
X030666Y036958D01*
X030719Y036879D01*
X030797Y036827D01*
X03089Y036809D01*
X030937Y036818D01*
X031109Y036646D01*
X031149Y036619D01*
X031173Y036614D01*
X0312Y036564D01*
X031189Y036547D01*
X03117Y036455D01*
X031189Y036362D01*
X031221Y036314D01*
X031194Y036264D01*
X030539D01*
X030492Y036255D01*
X030453Y036228D01*
X030431Y036206D01*
X030385Y036225D01*
Y036806D01*
X02967D01*
X029656Y036856D01*
X030006Y037206D01*
X030655D01*
X030679Y037162D01*
D02*
G37*
G36*
X033191Y03729D02*
X033192Y037288D01*
X033218Y037249D01*
X033289Y037178D01*
X033278Y03712D01*
X033296Y037027D01*
X033349Y036949D01*
X033427Y036896D01*
X03352Y036878D01*
X033613Y036896D01*
X033691Y036949D01*
X033744Y037027D01*
X033748Y037049D01*
X033796Y037064D01*
X034103Y036756D01*
X034143Y036729D01*
X03419Y03672D01*
X034528D01*
X034549Y036689D01*
X034627Y036636D01*
X03472Y036618D01*
X034813Y036636D01*
X034846Y036659D01*
X03489Y036635D01*
Y036184D01*
X034854Y036155D01*
X034113D01*
X034094Y036205D01*
X034139Y036271D01*
X034157Y036364D01*
X034139Y036457D01*
X034086Y036535D01*
X034008Y036588D01*
X033915Y036606D01*
X033822Y036588D01*
X033744Y036535D01*
X033711Y036486D01*
X032735D01*
X032726Y036506D01*
X032723Y036536D01*
X032801Y036589D01*
X032854Y036667D01*
X032872Y03676D01*
X032854Y036853D01*
X032801Y036931D01*
X032723Y036984D01*
X032711Y036986D01*
X032701Y037035D01*
X032706Y037039D01*
X032739Y037088D01*
X032868D01*
X032915Y037097D01*
X032955Y037123D01*
X033137Y037306D01*
X033191Y03729D01*
D02*
G37*
G36*
X037526Y035886D02*
X037507Y03584D01*
X036357D01*
X03633Y03589D01*
X036359Y035933D01*
X036377Y036025D01*
X036359Y036118D01*
X036326Y036166D01*
X036353Y036216D01*
X037196D01*
X037526Y035886D01*
D02*
G37*
G36*
X025926Y033354D02*
X025907Y033308D01*
X022966D01*
X022876Y033399D01*
X022895Y033445D01*
X023096D01*
Y034235D01*
X022642D01*
Y034357D01*
X022683Y034417D01*
X022701Y03451D01*
X022691Y034558D01*
X022732Y034608D01*
X024672D01*
X025926Y033354D01*
D02*
G37*
G36*
X027761Y033568D02*
X027819Y033579D01*
X028225Y033173D01*
X028264Y033147D01*
X028311Y033138D01*
X032421D01*
X032454Y033089D01*
X032525Y033041D01*
X032526Y033011D01*
X03252Y032989D01*
X032517Y032989D01*
X032439Y032936D01*
X032406Y032887D01*
X028319D01*
X027671Y033535D01*
X027696Y033581D01*
X027761Y033568D01*
D02*
G37*
G36*
X027336Y031786D02*
Y031685D01*
X027286Y031668D01*
X027269Y03169D01*
X027184Y031755D01*
X027086Y031796D01*
X02698Y03181D01*
X026874Y031796D01*
X026776Y031755D01*
X026691Y03169D01*
X026668Y03166D01*
X026618Y031677D01*
Y03194D01*
X026606Y032001D01*
X026572Y032052D01*
X026479Y032144D01*
X026482Y03216D01*
X026464Y032253D01*
X026446Y032279D01*
X02647Y032323D01*
X0268D01*
X027336Y031786D01*
D02*
G37*
G36*
X02798Y031858D02*
X02796Y031807D01*
X027874Y031796D01*
X027776Y031755D01*
X027691Y03169D01*
X027631Y031611D01*
X027611Y031612D01*
X027581Y031625D01*
Y031837D01*
X027571Y031884D01*
X027545Y031923D01*
X026937Y032532D01*
X026897Y032558D01*
X02685Y032567D01*
X024782D01*
X024759Y032613D01*
X024781Y032648D01*
X02719D01*
X02798Y031858D01*
D02*
G37*
G36*
X039331Y031776D02*
X039371Y03175D01*
X039417Y03174D01*
X040811D01*
X040844Y031691D01*
X04088Y031667D01*
Y031295D01*
X04083Y03129D01*
X040829Y031297D01*
X040776Y031376D01*
X040698Y031428D01*
X040605Y031446D01*
X040512Y031428D01*
X040434Y031376D01*
X040401Y031327D01*
X039685D01*
X038769Y032243D01*
X038772Y032265D01*
X038825Y032282D01*
X039331Y031776D01*
D02*
G37*
G36*
X04071Y033005D02*
X040907D01*
Y03288D01*
X040918Y032829D01*
X040946Y032786D01*
X041266Y032466D01*
X041309Y032438D01*
X04136Y032427D01*
X04276D01*
X042778Y032405D01*
X042754Y032355D01*
X042595D01*
Y031545D01*
X042751D01*
X042768Y031495D01*
X042711Y031451D01*
X042646Y031366D01*
X042605Y031268D01*
X042592Y031162D01*
X042605Y031056D01*
X042646Y030958D01*
X042711Y030873D01*
X042796Y030808D01*
X042832Y030793D01*
Y030744D01*
X042796Y030729D01*
X042711Y030664D01*
X042646Y030579D01*
X042605Y030481D01*
X042592Y030375D01*
X042605Y030269D01*
X042646Y030171D01*
X042711Y030086D01*
X042796Y030021D01*
X042832Y030006D01*
Y029956D01*
X042796Y029941D01*
X042711Y029876D01*
X042646Y029792D01*
X042612Y02971D01*
X042355D01*
Y02991D01*
X041645D01*
Y029702D01*
X041355D01*
X041125Y029933D01*
Y03165D01*
X041186Y031691D01*
X041239Y03177D01*
X041257Y031863D01*
X041239Y031955D01*
X041186Y032034D01*
X041108Y032086D01*
X041015Y032105D01*
X040922Y032086D01*
X040844Y032034D01*
X040811Y031985D01*
X039468D01*
X038922Y032531D01*
Y032985D01*
X039765D01*
Y033257D01*
X04071D01*
Y033005D01*
D02*
G37*
G36*
X016647Y029846D02*
X01619Y02939D01*
X01615Y02933D01*
X016136Y02926D01*
Y027916D01*
X015745Y027525D01*
X015145D01*
Y026715D01*
X016055D01*
Y027315D01*
X01645Y02771D01*
X016468Y027737D01*
X016518Y027722D01*
Y025821D01*
X016468Y025811D01*
X016461Y025827D01*
X016382Y02593D01*
X016279Y02601D01*
X016159Y026059D01*
X01603Y026076D01*
X015901Y026059D01*
X015781Y02601D01*
X015678Y02593D01*
X015599Y025827D01*
X015549Y025707D01*
X015532Y025579D01*
X015549Y02545D01*
X015599Y02533D01*
X015678Y025227D01*
X015781Y025148D01*
X015901Y025098D01*
X01603Y025081D01*
X016159Y025098D01*
X016279Y025148D01*
X016382Y025227D01*
X016461Y02533D01*
X016468Y025346D01*
X016518Y025336D01*
Y0248D01*
X016527Y024753D01*
X016553Y024713D01*
X017113Y024153D01*
X017153Y024127D01*
X0172Y024118D01*
X036768D01*
X036796Y024068D01*
X03678Y024042D01*
X014691D01*
X013686Y025047D01*
Y026713D01*
X013705Y026755D01*
X013736Y026755D01*
X014615D01*
Y027355D01*
X015071Y027812D01*
X015111Y027871D01*
X015125Y027942D01*
Y027967D01*
X015175Y027977D01*
X015196Y027926D01*
X015261Y027841D01*
X015346Y027776D01*
X015444Y027735D01*
X01555Y027722D01*
X01565D01*
X015756Y027735D01*
X015854Y027776D01*
X015939Y027841D01*
X016004Y027926D01*
X016045Y028024D01*
X016058Y02813D01*
X016045Y028236D01*
X016004Y028334D01*
X015939Y028419D01*
X015854Y028484D01*
X015756Y028525D01*
X01565Y028538D01*
X01555D01*
X015444Y028525D01*
X015346Y028484D01*
X015261Y028419D01*
X015196Y028334D01*
X015175Y028283D01*
X015125Y028293D01*
Y029346D01*
X015676Y029896D01*
X016626D01*
X016647Y029846D01*
D02*
G37*
G36*
X038126Y026592D02*
X038076Y026518D01*
X038058Y026425D01*
X038076Y026332D01*
X038129Y026254D01*
X038178Y026221D01*
Y026066D01*
X038128Y026045D01*
X037938Y026235D01*
X03795Y026292D01*
X037931Y026385D01*
X037879Y026464D01*
X0378Y026516D01*
X037708Y026535D01*
X037615Y026516D01*
X037536Y026464D01*
X037484Y026385D01*
X037465Y026292D01*
X037484Y0262D01*
X037536Y026121D01*
X037615Y026069D01*
X037708Y02605D01*
X037765Y026062D01*
X037968Y025859D01*
Y024861D01*
X037709Y024602D01*
X036753D01*
X036734Y024649D01*
X036967Y024881D01*
X036993Y024921D01*
X037002Y024968D01*
Y02624D01*
X036993Y026287D01*
X036967Y026327D01*
X036782Y026512D01*
X036742Y026538D01*
X036695Y026547D01*
X036569D01*
X036539Y026592D01*
X036551Y026642D01*
X038114D01*
X038126Y026592D01*
D02*
G37*
G36*
X013441Y027996D02*
Y026072D01*
X012537D01*
Y025085D01*
X013441D01*
Y024997D01*
X01345Y02495D01*
X013477Y02491D01*
X014553Y023833D01*
X014593Y023807D01*
X01464Y023798D01*
X03648D01*
X036507Y023748D01*
X036491Y023722D01*
X013091D01*
X012122Y024691D01*
Y026715D01*
X012955D01*
Y027035D01*
X01325Y02733D01*
X01329Y02739D01*
X013304Y02746D01*
Y027789D01*
X013344Y027849D01*
X013362Y027942D01*
X013347Y02802D01*
X013392Y028045D01*
X013441Y027996D01*
D02*
G37*
%LPC*%
G36*
X02862Y049838D02*
X026432D01*
X026372Y049826D01*
X026321Y049792D01*
X025747Y049218D01*
X025533D01*
X025309Y049442D01*
X025258Y049476D01*
X025197Y049488D01*
X023495D01*
X023435Y049476D01*
X023384Y049442D01*
X02322Y049278D01*
X022935D01*
Y049144D01*
X022911Y049131D01*
X022885Y049124D01*
X022813Y049172D01*
X02272Y049191D01*
X022627Y049172D01*
X022549Y04912D01*
X022496Y049041D01*
X022478Y048948D01*
X02248Y048936D01*
X022437Y048897D01*
X021705D01*
Y047949D01*
X022455D01*
Y048301D01*
X022865D01*
X022935Y04823D01*
Y047719D01*
X023168D01*
Y047575D01*
X022905D01*
Y047318D01*
X022718Y047131D01*
X02266Y047142D01*
X022567Y047124D01*
X022489Y047071D01*
X022436Y046993D01*
X022418Y0469D01*
X022436Y046807D01*
X022489Y046729D01*
X022567Y046676D01*
X02266Y046658D01*
X022753Y046676D01*
X022831Y046729D01*
X022884Y046807D01*
X022902Y0469D01*
X02295Y046915D01*
X023615D01*
Y047575D01*
X023412D01*
Y047719D01*
X023645D01*
Y048379D01*
X023133D01*
X023002Y04851D01*
X022962Y048536D01*
X022916Y048545D01*
X022455D01*
Y048827D01*
X022505Y048842D01*
X022549Y048777D01*
X022627Y048725D01*
X02272Y048706D01*
X022813Y048725D01*
X022885Y048773D01*
X022911Y048766D01*
X022935Y048753D01*
Y048618D01*
X023645D01*
Y049172D01*
X025132D01*
X025285Y049019D01*
Y048558D01*
X025995D01*
Y049019D01*
X026498Y049522D01*
X028555D01*
X028589Y049487D01*
Y048989D01*
X029222D01*
Y049582D01*
X028941D01*
X028732Y049792D01*
X02868Y049826D01*
X02862Y049838D01*
D02*
G37*
G36*
X039375Y049499D02*
X039269Y049485D01*
X039171Y049444D01*
X039086Y049379D01*
X039021Y049294D01*
X03898Y049196D01*
X038967Y04909D01*
Y04899D01*
X03898Y048884D01*
X039021Y048786D01*
X039086Y048701D01*
X039171Y048636D01*
X039269Y048595D01*
X039375Y048582D01*
X039481Y048595D01*
X039579Y048636D01*
X039664Y048701D01*
X039729Y048786D01*
X03977Y048884D01*
X039783Y04899D01*
Y04909D01*
X03977Y049196D01*
X039729Y049294D01*
X039664Y049379D01*
X039579Y049444D01*
X039481Y049485D01*
X039375Y049499D01*
D02*
G37*
G36*
X038365D02*
X038259Y049485D01*
X038161Y049444D01*
X038076Y049379D01*
X038011Y049294D01*
X03797Y049196D01*
X037957Y04909D01*
Y04899D01*
X03797Y048884D01*
X038011Y048786D01*
X038076Y048701D01*
X038161Y048636D01*
X038259Y048595D01*
X038365Y048582D01*
X038471Y048595D01*
X038569Y048636D01*
X038654Y048701D01*
X038719Y048786D01*
X03876Y048884D01*
X038773Y04899D01*
Y04909D01*
X03876Y049196D01*
X038719Y049294D01*
X038654Y049379D01*
X038569Y049444D01*
X038471Y049485D01*
X038365Y049499D01*
D02*
G37*
G36*
X036375D02*
X036269Y049485D01*
X036171Y049444D01*
X036086Y049379D01*
X036021Y049294D01*
X03598Y049196D01*
X035967Y04909D01*
Y04899D01*
X03598Y048884D01*
X036021Y048786D01*
X036086Y048701D01*
X036171Y048636D01*
X036269Y048595D01*
X036375Y048582D01*
X036481Y048595D01*
X036579Y048636D01*
X036664Y048701D01*
X036729Y048786D01*
X03677Y048884D01*
X036783Y04899D01*
Y04909D01*
X03677Y049196D01*
X036729Y049294D01*
X036664Y049379D01*
X036579Y049444D01*
X036481Y049485D01*
X036375Y049499D01*
D02*
G37*
G36*
X01987Y049419D02*
X019764Y049405D01*
X019666Y049364D01*
X019581Y049299D01*
X019516Y049214D01*
X019475Y049116D01*
X019461Y04901D01*
Y04891D01*
X019475Y048804D01*
X019516Y048706D01*
X019581Y048621D01*
X019666Y048556D01*
X019764Y048515D01*
X01987Y048502D01*
X019976Y048515D01*
X020074Y048556D01*
X020159Y048621D01*
X020224Y048706D01*
X020265Y048804D01*
X020278Y04891D01*
Y04901D01*
X020265Y049116D01*
X020224Y049214D01*
X020159Y049299D01*
X020074Y049364D01*
X019976Y049405D01*
X01987Y049419D01*
D02*
G37*
G36*
X01112Y049654D02*
X010969Y049639D01*
X010824Y049595D01*
X01069Y049523D01*
X010573Y049427D01*
X010477Y04931D01*
X010405Y049176D01*
X010361Y049031D01*
X010346Y04888D01*
X010361Y048729D01*
X010405Y048584D01*
X010477Y04845D01*
X010573Y048333D01*
X01069Y048237D01*
X010824Y048165D01*
X010969Y048121D01*
X01112Y048106D01*
X011271Y048121D01*
X011416Y048165D01*
X01155Y048237D01*
X011667Y048333D01*
X011763Y04845D01*
X011835Y048584D01*
X011879Y048729D01*
X011894Y04888D01*
X011879Y049031D01*
X011835Y049176D01*
X011763Y04931D01*
X011667Y049427D01*
X01155Y049523D01*
X011416Y049595D01*
X011271Y049639D01*
X01112Y049654D01*
D02*
G37*
G36*
X040595Y048684D02*
X040495D01*
X040389Y04867D01*
X040291Y048629D01*
X040206Y048564D01*
X040141Y048479D01*
X0401Y048381D01*
X040087Y048275D01*
X0401Y048169D01*
X040141Y048071D01*
X040206Y047986D01*
X040291Y047921D01*
X040389Y04788D01*
X040495Y047867D01*
X040595D01*
X040701Y04788D01*
X040799Y047921D01*
X040884Y047986D01*
X040949Y048071D01*
X04099Y048169D01*
X041003Y048275D01*
X04099Y048381D01*
X040949Y048479D01*
X040884Y048564D01*
X040799Y048629D01*
X040701Y04867D01*
X040595Y048684D01*
D02*
G37*
G36*
X026665Y049282D02*
X026572Y049264D01*
X026494Y049211D01*
X026441Y049133D01*
X026423Y04904D01*
X026441Y048947D01*
X026494Y048869D01*
X026543Y048836D01*
Y048451D01*
X026202Y04811D01*
X025995D01*
Y048318D01*
X025285D01*
Y048063D01*
X025033Y047812D01*
X025007Y047772D01*
X024998Y047725D01*
Y04688D01*
X025007Y046833D01*
X025033Y046793D01*
X025295Y046532D01*
Y046463D01*
X024845D01*
Y046848D01*
X024095D01*
Y0459D01*
X024845D01*
Y046219D01*
X025295D01*
Y046011D01*
X026005D01*
Y046671D01*
X025502D01*
X025242Y046931D01*
Y04764D01*
X025285Y047658D01*
X025285Y047658D01*
Y047658D01*
X025285Y047658D01*
X025955D01*
X025995Y047658D01*
X02601Y047614D01*
X026016Y047584D01*
X026069Y047506D01*
X026107Y04748D01*
Y045244D01*
X025783Y044919D01*
X025285D01*
Y044259D01*
X025507D01*
Y04411D01*
X025285D01*
Y043913D01*
X025076D01*
X025025Y043902D01*
X024982Y043874D01*
X024756Y043648D01*
X024095D01*
Y0427D01*
X024845D01*
Y043362D01*
X025131Y043647D01*
X025285D01*
Y04345D01*
X025995D01*
Y04411D01*
X025773D01*
Y044259D01*
X025995D01*
Y044757D01*
X026334Y045096D01*
X026362Y045139D01*
X026373Y045189D01*
Y04748D01*
X026411Y047506D01*
X026464Y047584D01*
X026482Y047677D01*
X026464Y04777D01*
X026411Y047848D01*
X026379Y04787D01*
X026372Y047934D01*
X026752Y048313D01*
X026774Y048347D01*
X026799Y048347D01*
X026824Y048338D01*
Y048165D01*
X027007D01*
Y04805D01*
X026785D01*
Y04739D01*
X027495D01*
Y04805D01*
X027273D01*
Y048165D01*
X027456D01*
Y048758D01*
X026837D01*
X026825Y048758D01*
X026789Y048794D01*
X026791Y048839D01*
X026836Y048869D01*
X026889Y048947D01*
X026907Y04904D01*
X026889Y049133D01*
X026836Y049211D01*
X026758Y049264D01*
X026665Y049282D01*
D02*
G37*
G36*
X033816Y048771D02*
X033184D01*
Y048178D01*
X033367D01*
Y048047D01*
X033145D01*
Y047387D01*
X033855D01*
Y048047D01*
X033633D01*
Y048178D01*
X033816D01*
Y048771D01*
D02*
G37*
G36*
X032836D02*
X032204D01*
Y048178D01*
X032387D01*
Y048047D01*
X032165D01*
Y047387D01*
X032875D01*
Y048047D01*
X032653D01*
Y048178D01*
X032836D01*
Y048771D01*
D02*
G37*
G36*
X028296Y048755D02*
X027664D01*
Y048162D01*
X027847D01*
Y048047D01*
X027625D01*
Y047387D01*
X028335D01*
Y048047D01*
X028113D01*
Y048162D01*
X028296D01*
Y048755D01*
D02*
G37*
G36*
X030156D02*
X029524D01*
Y048162D01*
X029707D01*
Y04801D01*
X029485D01*
Y04735D01*
X030195D01*
Y04801D01*
X029973D01*
Y048162D01*
X030156D01*
Y048755D01*
D02*
G37*
G36*
X029222D02*
X028589D01*
Y048162D01*
X028773D01*
Y04801D01*
X028551D01*
Y04735D01*
X029261D01*
Y04801D01*
X029038D01*
Y048162D01*
X029222D01*
Y048755D01*
D02*
G37*
G36*
X04767Y047856D02*
X047575Y047843D01*
X047486Y047807D01*
X04741Y047748D01*
X047351Y047672D01*
X047315Y047583D01*
X047302Y047488D01*
X047315Y047392D01*
X047351Y047304D01*
X04741Y047227D01*
X047486Y047169D01*
X047575Y047132D01*
X04767Y04712D01*
X047765Y047132D01*
X047854Y047169D01*
X04793Y047227D01*
X047989Y047304D01*
X048026Y047392D01*
X048038Y047488D01*
X048026Y047583D01*
X047989Y047672D01*
X04793Y047748D01*
X047854Y047807D01*
X047765Y047843D01*
X04767Y047856D01*
D02*
G37*
G36*
X049188Y047272D02*
X048278D01*
Y046535D01*
X048278Y046522D01*
Y046485D01*
X048278Y046472D01*
Y045735D01*
X049188D01*
Y046472D01*
X049188Y046485D01*
Y046522D01*
X049188Y046535D01*
Y047272D01*
D02*
G37*
G36*
X023635Y044885D02*
X022925D01*
Y044225D01*
X023158D01*
Y04407D01*
X022945D01*
Y043828D01*
X022501Y043384D01*
X022455Y043404D01*
Y043651D01*
X021705D01*
Y042703D01*
X022455D01*
Y043055D01*
X022467D01*
X022514Y043064D01*
X022554Y04309D01*
X022899Y043436D01*
X022945Y043417D01*
Y04341D01*
X023655D01*
Y04407D01*
X023402D01*
Y044225D01*
X023635D01*
Y044433D01*
X024381D01*
X024414Y044384D01*
X024492Y044331D01*
X024585Y044313D01*
X024678Y044331D01*
X024756Y044384D01*
X024809Y044462D01*
X024827Y044555D01*
X024809Y044648D01*
X024756Y044726D01*
X024678Y044779D01*
X024585Y044797D01*
X024492Y044779D01*
X024414Y044726D01*
X024381Y044677D01*
X023635D01*
Y044885D01*
D02*
G37*
G36*
X04592Y043664D02*
X045847Y043654D01*
X045779Y043626D01*
X04572Y043581D01*
X045675Y043523D01*
X045647Y043455D01*
X045638Y043382D01*
Y043182D01*
X045647Y043108D01*
X045675Y04304D01*
X04572Y042982D01*
X045779Y042937D01*
X045847Y042909D01*
X04592Y042899D01*
X045993Y042909D01*
X046061Y042937D01*
X04612Y042982D01*
X046165Y04304D01*
X046193Y043108D01*
X046202Y043182D01*
Y043382D01*
X046193Y043455D01*
X046165Y043523D01*
X04612Y043581D01*
X046061Y043626D01*
X045993Y043654D01*
X04592Y043664D01*
D02*
G37*
G36*
X04512D02*
X045047Y043654D01*
X044979Y043626D01*
X04492Y043581D01*
X044875Y043523D01*
X044847Y043455D01*
X044838Y043382D01*
Y043182D01*
X044847Y043108D01*
X044875Y04304D01*
X04492Y042982D01*
X044979Y042937D01*
X045047Y042909D01*
X04512Y042899D01*
X045193Y042909D01*
X045261Y042937D01*
X04532Y042982D01*
X045365Y04304D01*
X045393Y043108D01*
X045402Y043182D01*
Y043382D01*
X045393Y043455D01*
X045365Y043523D01*
X04532Y043581D01*
X045261Y043626D01*
X045193Y043654D01*
X04512Y043664D01*
D02*
G37*
G36*
X04432D02*
X044247Y043654D01*
X044179Y043626D01*
X04412Y043581D01*
X044075Y043523D01*
X044047Y043455D01*
X044038Y043382D01*
Y043182D01*
X044047Y043108D01*
X044075Y04304D01*
X04412Y042982D01*
X044179Y042937D01*
X044247Y042909D01*
X04432Y042899D01*
X044393Y042909D01*
X044461Y042937D01*
X04452Y042982D01*
X044565Y04304D01*
X044593Y043108D01*
X044602Y043182D01*
Y043382D01*
X044593Y043455D01*
X044565Y043523D01*
X04452Y043581D01*
X044461Y043626D01*
X044393Y043654D01*
X04432Y043664D01*
D02*
G37*
G36*
X04352D02*
X043447Y043654D01*
X043379Y043626D01*
X04332Y043581D01*
X043275Y043523D01*
X043247Y043455D01*
X043238Y043382D01*
Y043182D01*
X043247Y043108D01*
X043275Y04304D01*
X04332Y042982D01*
X043379Y042937D01*
X043447Y042909D01*
X04352Y042899D01*
X043593Y042909D01*
X043661Y042937D01*
X04372Y042982D01*
X043765Y04304D01*
X043793Y043108D01*
X043802Y043182D01*
Y043382D01*
X043793Y043455D01*
X043765Y043523D01*
X04372Y043581D01*
X043661Y043626D01*
X043593Y043654D01*
X04352Y043664D01*
D02*
G37*
G36*
X03808Y042257D02*
X037955Y04224D01*
X037838Y042192D01*
X037738Y042115D01*
X037661Y042015D01*
X037612Y041898D01*
X037596Y041773D01*
X037612Y041647D01*
X037661Y041531D01*
X037738Y04143D01*
X037838Y041353D01*
X037955Y041305D01*
X03808Y041289D01*
X038205Y041305D01*
X038322Y041353D01*
X038422Y04143D01*
X038499Y041531D01*
X038548Y041647D01*
X038564Y041773D01*
X038548Y041898D01*
X038499Y042015D01*
X038422Y042115D01*
X038322Y042192D01*
X038205Y04224D01*
X03808Y042257D01*
D02*
G37*
G36*
X0306Y040373D02*
X030494Y04036D01*
X030396Y040319D01*
X030311Y040254D01*
X030246Y040169D01*
X030205Y040071D01*
X030192Y039965D01*
Y039715D01*
X030205Y039609D01*
X030246Y039511D01*
X030311Y039426D01*
X030396Y039361D01*
X030494Y03932D01*
X0306Y039307D01*
X030706Y03932D01*
X030804Y039361D01*
X030889Y039426D01*
X030954Y039511D01*
X030995Y039609D01*
X031008Y039715D01*
Y039965D01*
X030995Y040071D01*
X030954Y040169D01*
X030889Y040254D01*
X030804Y040319D01*
X030706Y04036D01*
X0306Y040373D01*
D02*
G37*
G36*
X037342Y039538D02*
X037242D01*
X037136Y039525D01*
X037038Y039484D01*
X036953Y039419D01*
X036888Y039334D01*
X036848Y039236D01*
X036834Y03913D01*
X036848Y039024D01*
X036888Y038926D01*
X036953Y038841D01*
X037038Y038776D01*
X037136Y038735D01*
X037242Y038722D01*
X037342D01*
X037448Y038735D01*
X037546Y038776D01*
X037631Y038841D01*
X037696Y038926D01*
X037737Y039024D01*
X037751Y03913D01*
X037737Y039236D01*
X037696Y039334D01*
X037631Y039419D01*
X037546Y039484D01*
X037448Y039525D01*
X037342Y039538D01*
D02*
G37*
G36*
X03869Y039528D02*
X03859D01*
X038484Y039515D01*
X038386Y039474D01*
X038301Y039409D01*
X038236Y039324D01*
X038195Y039226D01*
X038182Y03912D01*
X038195Y039014D01*
X038236Y038916D01*
X038301Y038831D01*
X038386Y038766D01*
X038484Y038725D01*
X03859Y038712D01*
X03869D01*
X038796Y038725D01*
X038894Y038766D01*
X038979Y038831D01*
X039044Y038916D01*
X039085Y039014D01*
X039098Y03912D01*
X039085Y039226D01*
X039044Y039324D01*
X038979Y039409D01*
X038894Y039474D01*
X038796Y039515D01*
X03869Y039528D01*
D02*
G37*
G36*
X03864Y041402D02*
X038547Y041383D01*
X038469Y041331D01*
X038416Y041252D01*
X038398Y04116D01*
X038416Y041067D01*
X038469Y040988D01*
X038547Y040936D01*
X03864Y040918D01*
X038733Y040936D01*
X038811Y040988D01*
X03882Y041002D01*
X03968D01*
X040562Y04012D01*
Y038454D01*
X040549Y038445D01*
X040496Y038367D01*
X040478Y038274D01*
X040496Y038181D01*
X040549Y038103D01*
X040627Y03805D01*
X04072Y038032D01*
X040813Y03805D01*
X040891Y038103D01*
X040944Y038181D01*
X040962Y038274D01*
X040944Y038367D01*
X040891Y038445D01*
X040878Y038454D01*
Y040185D01*
X040866Y040245D01*
X040832Y040297D01*
X039857Y041271D01*
X039806Y041306D01*
X039745Y041318D01*
X03882D01*
X038811Y041331D01*
X038733Y041383D01*
X03864Y041402D01*
D02*
G37*
G36*
X0146Y038758D02*
X014494Y038745D01*
X014396Y038704D01*
X014311Y038639D01*
X014246Y038554D01*
X014205Y038456D01*
X014191Y03835D01*
Y03825D01*
X014205Y038144D01*
X014246Y038046D01*
X014311Y037961D01*
X014396Y037896D01*
X014494Y037855D01*
X0146Y037842D01*
X014706Y037855D01*
X014804Y037896D01*
X014889Y037961D01*
X014954Y038046D01*
X014983Y038116D01*
X017861D01*
Y03811D01*
X017875Y038004D01*
X017916Y037906D01*
X017981Y037821D01*
X018066Y037756D01*
X018164Y037715D01*
X01827Y037702D01*
X018376Y037715D01*
X018474Y037756D01*
X018559Y037821D01*
X018624Y037906D01*
X018665Y038004D01*
X018678Y03811D01*
Y03821D01*
X018665Y038316D01*
X018624Y038414D01*
X018559Y038499D01*
X018474Y038564D01*
X018376Y038605D01*
X01827Y038618D01*
X018164Y038605D01*
X018066Y038564D01*
X017981Y038499D01*
X017969Y038484D01*
X014983D01*
X014954Y038554D01*
X014889Y038639D01*
X014804Y038704D01*
X014706Y038745D01*
X0146Y038758D01*
D02*
G37*
G36*
X022925Y038118D02*
X022115D01*
Y037208D01*
X022925D01*
Y038118D01*
D02*
G37*
G36*
X02353Y038121D02*
X023424Y038107D01*
X023326Y038066D01*
X023241Y038002D01*
X023176Y037917D01*
X023135Y037818D01*
X023122Y037713D01*
Y037613D01*
X023135Y037507D01*
X023176Y037408D01*
X023241Y037324D01*
X023326Y037259D01*
X023424Y037218D01*
X02353Y037204D01*
X023636Y037218D01*
X023734Y037259D01*
X023819Y037324D01*
X023884Y037408D01*
X023925Y037507D01*
X023938Y037613D01*
Y037713D01*
X023925Y037818D01*
X023884Y037917D01*
X023819Y038002D01*
X023734Y038066D01*
X023636Y038107D01*
X02353Y038121D01*
D02*
G37*
G36*
X01742Y03681D02*
X017314Y036796D01*
X017216Y036755D01*
X017131Y03669D01*
X017066Y036606D01*
X017047Y03656D01*
X016793D01*
X016774Y036606D01*
X016709Y03669D01*
X016624Y036755D01*
X016526Y036796D01*
X01642Y03681D01*
X016314Y036796D01*
X016216Y036755D01*
X016131Y03669D01*
X016066Y036606D01*
X016026Y036507D01*
X016012Y036402D01*
X016026Y036296D01*
X016066Y036197D01*
X016131Y036113D01*
X016216Y036048D01*
X016314Y036007D01*
X01642Y035993D01*
X016526Y036007D01*
X016624Y036048D01*
X016709Y036113D01*
X016774Y036197D01*
X016793Y036244D01*
X017047D01*
X017066Y036197D01*
X017131Y036113D01*
X017216Y036048D01*
X017314Y036007D01*
X01742Y035993D01*
X017526Y036007D01*
X017624Y036048D01*
X017709Y036113D01*
X017774Y036197D01*
X017814Y036296D01*
X017828Y036402D01*
X017814Y036507D01*
X017774Y036606D01*
X017709Y03669D01*
X017624Y036755D01*
X017526Y036796D01*
X01742Y03681D01*
D02*
G37*
G36*
X01542D02*
X015314Y036796D01*
X015216Y036755D01*
X015131Y03669D01*
X015066Y036606D01*
X015026Y036507D01*
X015012Y036402D01*
X015026Y036296D01*
X015066Y036197D01*
X015131Y036113D01*
X015216Y036048D01*
X015314Y036007D01*
X01542Y035993D01*
X015526Y036007D01*
X015624Y036048D01*
X015709Y036113D01*
X015774Y036197D01*
X015814Y036296D01*
X015828Y036402D01*
X015814Y036507D01*
X015774Y036606D01*
X015709Y03669D01*
X015624Y036755D01*
X015526Y036796D01*
X01542Y03681D01*
D02*
G37*
G36*
X02598Y03681D02*
X025874Y036796D01*
X025776Y036755D01*
X025691Y03669D01*
X025626Y036606D01*
X025586Y036507D01*
X025572Y036402D01*
X025586Y036296D01*
X025626Y036197D01*
X025691Y036113D01*
X025776Y036048D01*
X025874Y036007D01*
X02598Y035993D01*
X026086Y036007D01*
X026184Y036048D01*
X026269Y036113D01*
X026334Y036197D01*
X026374Y036296D01*
X026388Y036402D01*
X026374Y036507D01*
X026334Y036606D01*
X026269Y03669D01*
X026184Y036755D01*
X026086Y036796D01*
X02598Y03681D01*
D02*
G37*
G36*
X02498D02*
X024874Y036796D01*
X024776Y036755D01*
X024691Y03669D01*
X024626Y036606D01*
X024586Y036507D01*
X024572Y036402D01*
X024586Y036296D01*
X024626Y036197D01*
X024691Y036113D01*
X024776Y036048D01*
X024874Y036007D01*
X02498Y035993D01*
X025086Y036007D01*
X025184Y036048D01*
X025269Y036113D01*
X025334Y036197D01*
X025374Y036296D01*
X025388Y036402D01*
X025374Y036507D01*
X025334Y036606D01*
X025269Y03669D01*
X025184Y036755D01*
X025086Y036796D01*
X02498Y03681D01*
D02*
G37*
G36*
X02398D02*
X023874Y036796D01*
X023776Y036755D01*
X023691Y03669D01*
X023626Y036606D01*
X023586Y036507D01*
X023572Y036402D01*
X023586Y036296D01*
X023626Y036197D01*
X023691Y036113D01*
X023776Y036048D01*
X023874Y036007D01*
X02398Y035993D01*
X024086Y036007D01*
X024184Y036048D01*
X024269Y036113D01*
X024334Y036197D01*
X024374Y036296D01*
X024388Y036402D01*
X024374Y036507D01*
X024334Y036606D01*
X024269Y03669D01*
X024184Y036755D01*
X024086Y036796D01*
X02398Y03681D01*
D02*
G37*
G36*
X02298D02*
X022874Y036796D01*
X022776Y036755D01*
X022691Y03669D01*
X022626Y036606D01*
X022586Y036507D01*
X022572Y036402D01*
X022586Y036296D01*
X022626Y036197D01*
X022691Y036113D01*
X022776Y036048D01*
X022874Y036007D01*
X02298Y035993D01*
X023086Y036007D01*
X023184Y036048D01*
X023269Y036113D01*
X023334Y036197D01*
X023374Y036296D01*
X023388Y036402D01*
X023374Y036507D01*
X023334Y036606D01*
X023269Y03669D01*
X023184Y036755D01*
X023086Y036796D01*
X02298Y03681D01*
D02*
G37*
G36*
X01499Y033847D02*
X014897Y033829D01*
X014819Y033776D01*
X014783Y033722D01*
X012929D01*
X012896Y033771D01*
X012818Y033824D01*
X012725Y033842D01*
X012632Y033824D01*
X012554Y033771D01*
X012501Y033693D01*
X012483Y0336D01*
X012501Y033507D01*
X012554Y033429D01*
X012632Y033376D01*
X012725Y033358D01*
X012818Y033376D01*
X012896Y033429D01*
X012929Y033478D01*
X014789D01*
X014819Y033434D01*
X014897Y033381D01*
X01499Y033363D01*
X015083Y033381D01*
X015161Y033434D01*
X015214Y033512D01*
X015217Y033529D01*
X015233Y033553D01*
X015242Y0336D01*
X015233Y033647D01*
X01522Y033666D01*
X015214Y033698D01*
X015161Y033776D01*
X015083Y033829D01*
X01499Y033847D01*
D02*
G37*
G36*
X012334Y032806D02*
X011288D01*
Y031761D01*
X012334D01*
Y032806D01*
D02*
G37*
G36*
X01742Y03181D02*
X017314Y031796D01*
X017216Y031755D01*
X017131Y03169D01*
X017066Y031606D01*
X017026Y031507D01*
X017012Y031402D01*
X017026Y031296D01*
X017066Y031197D01*
X017131Y031113D01*
X017216Y031048D01*
X017314Y031007D01*
X01742Y030993D01*
X017526Y031007D01*
X017624Y031048D01*
X017709Y031113D01*
X017774Y031197D01*
X017814Y031296D01*
X017828Y031402D01*
X017814Y031507D01*
X017774Y031606D01*
X017709Y03169D01*
X017624Y031755D01*
X017526Y031796D01*
X01742Y03181D01*
D02*
G37*
G36*
X01642D02*
X016314Y031796D01*
X016216Y031755D01*
X016131Y03169D01*
X016066Y031606D01*
X016026Y031507D01*
X016012Y031402D01*
X016026Y031296D01*
X016066Y031197D01*
X016131Y031113D01*
X016216Y031048D01*
X016314Y031007D01*
X01642Y030993D01*
X016526Y031007D01*
X016624Y031048D01*
X016709Y031113D01*
X016774Y031197D01*
X016814Y031296D01*
X016828Y031402D01*
X016814Y031507D01*
X016774Y031606D01*
X016709Y03169D01*
X016624Y031755D01*
X016526Y031796D01*
X01642Y03181D01*
D02*
G37*
G36*
X01542D02*
X015314Y031796D01*
X015216Y031755D01*
X015131Y03169D01*
X015066Y031606D01*
X015026Y031507D01*
X015012Y031402D01*
X015026Y031296D01*
X015066Y031197D01*
X015131Y031113D01*
X015216Y031048D01*
X015314Y031007D01*
X01542Y030993D01*
X015526Y031007D01*
X015624Y031048D01*
X015709Y031113D01*
X015774Y031197D01*
X015814Y031296D01*
X015828Y031402D01*
X015814Y031507D01*
X015774Y031606D01*
X015709Y03169D01*
X015624Y031755D01*
X015526Y031796D01*
X01542Y03181D01*
D02*
G37*
G36*
X02398Y03181D02*
X023874Y031796D01*
X023776Y031755D01*
X023691Y03169D01*
X023626Y031606D01*
X023586Y031507D01*
X023572Y031402D01*
X023586Y031296D01*
X023626Y031197D01*
X023691Y031113D01*
X023776Y031048D01*
X023874Y031007D01*
X02398Y030993D01*
X024086Y031007D01*
X024184Y031048D01*
X024269Y031113D01*
X024334Y031197D01*
X024374Y031296D01*
X024388Y031402D01*
X024374Y031507D01*
X024334Y031606D01*
X024269Y03169D01*
X024184Y031755D01*
X024086Y031796D01*
X02398Y03181D01*
D02*
G37*
G36*
X03004Y029969D02*
X029952Y029957D01*
X029871Y029923D01*
X0298Y02987D01*
X029747Y029799D01*
X029713Y029718D01*
X029701Y02963D01*
X029713Y029542D01*
X029747Y029461D01*
X0298Y02939D01*
X029871Y029337D01*
X029952Y029303D01*
X03004Y029291D01*
X030128Y029303D01*
X030209Y029337D01*
X03028Y02939D01*
X030333Y029461D01*
X030367Y029542D01*
X030379Y02963D01*
X030367Y029718D01*
X030333Y029799D01*
X03028Y02987D01*
X030209Y029923D01*
X030128Y029957D01*
X03004Y029969D01*
D02*
G37*
G36*
X022492Y028584D02*
X0224Y028565D01*
X022321Y028513D01*
X022269Y028434D01*
X02225Y028341D01*
X022254Y028323D01*
X022207Y028302D01*
X022179Y028339D01*
X022094Y028404D01*
X021996Y028445D01*
X02189Y028458D01*
X02179D01*
X021684Y028445D01*
X021586Y028404D01*
X021501Y028339D01*
X021436Y028254D01*
X021395Y028156D01*
X021382Y02805D01*
X021395Y027944D01*
X021436Y027846D01*
X021501Y027761D01*
X021586Y027696D01*
X021684Y027655D01*
X02179Y027642D01*
X02189D01*
X021996Y027655D01*
X022094Y027696D01*
X022179Y027761D01*
X022244Y027846D01*
X022259Y027882D01*
X022309Y027873D01*
Y027489D01*
X022295Y027445D01*
X021385D01*
Y026635D01*
X022295D01*
Y026915D01*
X022622Y027243D01*
X022662Y027302D01*
X022676Y027373D01*
Y028189D01*
X022716Y028249D01*
X022735Y028341D01*
X022716Y028434D01*
X022664Y028513D01*
X022585Y028565D01*
X022492Y028584D01*
D02*
G37*
G36*
X01085Y028618D02*
X01075D01*
X010644Y028605D01*
X010546Y028564D01*
X010461Y028499D01*
X010396Y028414D01*
X010355Y028316D01*
X010342Y02821D01*
X010355Y028104D01*
X010396Y028006D01*
X010461Y027921D01*
X010546Y027856D01*
X010644Y027815D01*
X01075Y027802D01*
X01085D01*
X010956Y027815D01*
X011054Y027856D01*
X011139Y027921D01*
X011204Y028006D01*
X011245Y028104D01*
X011258Y02821D01*
X011245Y028316D01*
X011204Y028414D01*
X011139Y028499D01*
X011054Y028564D01*
X010956Y028605D01*
X01085Y028618D01*
D02*
G37*
G36*
X01885Y028578D02*
X01875D01*
X018644Y028565D01*
X018546Y028524D01*
X018461Y028459D01*
X018396Y028374D01*
X018355Y028276D01*
X018341Y02817D01*
X018355Y028064D01*
X018396Y027966D01*
X018461Y027881D01*
X018546Y027816D01*
X018644Y027775D01*
X01875Y027762D01*
X01885D01*
X018956Y027775D01*
X019054Y027816D01*
X019139Y027881D01*
X019204Y027966D01*
X019245Y028064D01*
X019259Y02817D01*
X019245Y028276D01*
X019204Y028374D01*
X019139Y028459D01*
X019054Y028524D01*
X018956Y028565D01*
X01885Y028578D01*
D02*
G37*
G36*
X02037Y028538D02*
X02027D01*
X020164Y028525D01*
X020066Y028484D01*
X019981Y028419D01*
X019916Y028334D01*
X019875Y028236D01*
X019862Y02813D01*
X019875Y028024D01*
X019916Y027926D01*
X019981Y027841D01*
X020066Y027776D01*
X020164Y027735D01*
X02027Y027722D01*
X02037D01*
X020476Y027735D01*
X020574Y027776D01*
X020659Y027841D01*
X020724Y027926D01*
X020765Y028024D01*
X020778Y02813D01*
X020765Y028236D01*
X020724Y028334D01*
X020659Y028419D01*
X020574Y028484D01*
X020476Y028525D01*
X02037Y028538D01*
D02*
G37*
G36*
X017735Y027565D02*
X016825D01*
Y026755D01*
X017735D01*
Y027565D01*
D02*
G37*
G36*
X02104Y028082D02*
X020947Y028064D01*
X020869Y028011D01*
X020816Y027933D01*
X020802Y027862D01*
X020465Y027525D01*
X019865D01*
Y026715D01*
X020775D01*
Y027315D01*
X021062Y027602D01*
X021133Y027616D01*
X021211Y027669D01*
X021264Y027747D01*
X021282Y02784D01*
X021264Y027933D01*
X021211Y028011D01*
X021133Y028064D01*
X02104Y028082D01*
D02*
G37*
G36*
X033536Y026072D02*
X032549D01*
Y025085D01*
X033536D01*
Y026072D01*
D02*
G37*
G36*
X026883D02*
X025897D01*
Y025085D01*
X026883D01*
Y026072D01*
D02*
G37*
G36*
X036042Y026076D02*
X035913Y026059D01*
X035793Y02601D01*
X03569Y02593D01*
X035611Y025827D01*
X035561Y025707D01*
X035545Y025579D01*
X035561Y02545D01*
X035611Y02533D01*
X03569Y025227D01*
X035793Y025148D01*
X035913Y025098D01*
X036042Y025081D01*
X036171Y025098D01*
X036291Y025148D01*
X036394Y025227D01*
X036473Y02533D01*
X036523Y02545D01*
X03654Y025579D01*
X036523Y025707D01*
X036473Y025827D01*
X036394Y02593D01*
X036291Y02601D01*
X036171Y026059D01*
X036042Y026076D01*
D02*
G37*
G36*
X034542D02*
X034413Y026059D01*
X034293Y02601D01*
X03419Y02593D01*
X034111Y025827D01*
X034061Y025707D01*
X034045Y025579D01*
X034061Y02545D01*
X034111Y02533D01*
X03419Y025227D01*
X034293Y025148D01*
X034413Y025098D01*
X034542Y025081D01*
X034671Y025098D01*
X034791Y025148D01*
X034894Y025227D01*
X034973Y02533D01*
X035023Y02545D01*
X03504Y025579D01*
X035023Y025707D01*
X034973Y025827D01*
X034894Y02593D01*
X034791Y02601D01*
X034671Y026059D01*
X034542Y026076D01*
D02*
G37*
G36*
X02939D02*
X029261Y026059D01*
X029141Y02601D01*
X029038Y02593D01*
X028959Y025827D01*
X028909Y025707D01*
X028892Y025579D01*
X028909Y02545D01*
X028959Y02533D01*
X029038Y025227D01*
X029141Y025148D01*
X029261Y025098D01*
X02939Y025081D01*
X029519Y025098D01*
X029639Y025148D01*
X029742Y025227D01*
X029821Y02533D01*
X029871Y02545D01*
X029888Y025579D01*
X029871Y025707D01*
X029821Y025827D01*
X029742Y02593D01*
X029639Y02601D01*
X029519Y026059D01*
X02939Y026076D01*
D02*
G37*
G36*
X02425D02*
X024121Y026059D01*
X024001Y02601D01*
X023898Y02593D01*
X023819Y025827D01*
X023769Y025707D01*
X023752Y025579D01*
X023769Y02545D01*
X023819Y02533D01*
X023898Y025227D01*
X024001Y025148D01*
X024121Y025098D01*
X02425Y025081D01*
X024379Y025098D01*
X024499Y025148D01*
X024602Y025227D01*
X024681Y02533D01*
X024731Y02545D01*
X024748Y025579D01*
X024731Y025707D01*
X024681Y025827D01*
X024602Y02593D01*
X024499Y02601D01*
X024379Y026059D01*
X02425Y026076D01*
D02*
G37*
G36*
X02275D02*
X022621Y026059D01*
X022501Y02601D01*
X022398Y02593D01*
X022319Y025827D01*
X022269Y025707D01*
X022252Y025579D01*
X022269Y02545D01*
X022319Y02533D01*
X022398Y025227D01*
X022501Y025148D01*
X022621Y025098D01*
X02275Y025081D01*
X022879Y025098D01*
X022999Y025148D01*
X023102Y025227D01*
X023181Y02533D01*
X023231Y02545D01*
X023248Y025579D01*
X023231Y025707D01*
X023181Y025827D01*
X023102Y02593D01*
X022999Y02601D01*
X022879Y026059D01*
X02275Y026076D01*
D02*
G37*
G36*
X01733Y028578D02*
X01723D01*
X017124Y028565D01*
X017026Y028524D01*
X016941Y028459D01*
X016876Y028374D01*
X016835Y028276D01*
X016822Y02817D01*
X016835Y028064D01*
X016876Y027966D01*
X016941Y027881D01*
X017026Y027816D01*
X017124Y027775D01*
X01723Y027762D01*
X01733D01*
X017436Y027775D01*
X017534Y027816D01*
X017619Y027881D01*
X017634Y0279D01*
X017683Y027904D01*
X017878Y027709D01*
Y02656D01*
X017887Y026513D01*
X017913Y026473D01*
X018233Y026153D01*
X018273Y026127D01*
X01832Y026118D01*
X019246D01*
X019257Y026072D01*
X019257Y026068D01*
Y025085D01*
X020243D01*
Y026068D01*
X020243Y026072D01*
X020254Y026118D01*
X020909D01*
X020976Y026051D01*
X02097Y025986D01*
X020898Y02593D01*
X020819Y025827D01*
X020769Y025707D01*
X020752Y025579D01*
X020769Y02545D01*
X020819Y02533D01*
X020898Y025227D01*
X021001Y025148D01*
X021121Y025098D01*
X02125Y025081D01*
X021379Y025098D01*
X021499Y025148D01*
X021602Y025227D01*
X021681Y02533D01*
X021731Y02545D01*
X021748Y025579D01*
X021731Y025707D01*
X021681Y025827D01*
X021602Y02593D01*
X021499Y02601D01*
X021379Y026059D01*
X021304Y026069D01*
X021047Y026327D01*
X021007Y026353D01*
X02096Y026362D01*
X018371D01*
X018122Y026611D01*
Y02776D01*
X018113Y027807D01*
X018087Y027847D01*
X017735Y028198D01*
X017725Y028276D01*
X017684Y028374D01*
X017619Y028459D01*
X017534Y028524D01*
X017436Y028565D01*
X01733Y028578D01*
D02*
G37*
G36*
X01753Y026076D02*
X017401Y026059D01*
X017281Y02601D01*
X017178Y02593D01*
X017099Y025827D01*
X017049Y025707D01*
X017032Y025579D01*
X017049Y02545D01*
X017099Y02533D01*
X017178Y025227D01*
X017281Y025148D01*
X017401Y025098D01*
X01753Y025081D01*
X017659Y025098D01*
X017779Y025148D01*
X017882Y025227D01*
X017961Y02533D01*
X018011Y02545D01*
X018028Y025579D01*
X018011Y025707D01*
X017961Y025827D01*
X017882Y02593D01*
X017779Y02601D01*
X017659Y026059D01*
X01753Y026076D01*
D02*
G37*
G36*
X039975Y024435D02*
X039065D01*
Y023625D01*
X039975D01*
Y024435D01*
D02*
G37*
G36*
X047001Y024108D02*
X046895Y024095D01*
X046797Y024054D01*
X046712Y023989D01*
X046647Y023904D01*
X046607Y023806D01*
X046593Y0237D01*
Y0235D01*
X046607Y023394D01*
X046647Y023296D01*
X046712Y023211D01*
X046797Y023146D01*
X046895Y023105D01*
X047001Y023092D01*
X047107Y023105D01*
X047205Y023146D01*
X04729Y023211D01*
X047355Y023296D01*
X047396Y023394D01*
X04741Y0235D01*
Y0237D01*
X047396Y023806D01*
X047355Y023904D01*
X04729Y023989D01*
X047205Y024054D01*
X047107Y024095D01*
X047001Y024108D01*
D02*
G37*
G36*
X042851D02*
X042745Y024095D01*
X042647Y024054D01*
X042562Y023989D01*
X042497Y023904D01*
X042457Y023806D01*
X042443Y0237D01*
Y0235D01*
X042457Y023394D01*
X042497Y023296D01*
X042562Y023211D01*
X042647Y023146D01*
X042745Y023105D01*
X042851Y023092D01*
X042957Y023105D01*
X043055Y023146D01*
X04314Y023211D01*
X043205Y023296D01*
X043246Y023394D01*
X04326Y0235D01*
Y0237D01*
X043246Y023806D01*
X043205Y023904D01*
X04314Y023989D01*
X043055Y024054D01*
X042957Y024095D01*
X042851Y024108D01*
D02*
G37*
G36*
X041801D02*
X041695Y024095D01*
X041597Y024054D01*
X041512Y023989D01*
X041447Y023904D01*
X041407Y023806D01*
X041393Y0237D01*
Y0235D01*
X041407Y023394D01*
X041447Y023296D01*
X041512Y023211D01*
X041597Y023146D01*
X041695Y023105D01*
X041801Y023092D01*
X041907Y023105D01*
X042005Y023146D01*
X04209Y023211D01*
X042155Y023296D01*
X042196Y023394D01*
X04221Y0235D01*
Y0237D01*
X042196Y023806D01*
X042155Y023904D01*
X04209Y023989D01*
X042005Y024054D01*
X041907Y024095D01*
X041801Y024108D01*
D02*
G37*
G36*
X01112Y024294D02*
X010969Y024279D01*
X010824Y024235D01*
X01069Y024163D01*
X010573Y024067D01*
X010477Y02395D01*
X010405Y023816D01*
X010361Y023671D01*
X010346Y02352D01*
X010361Y023369D01*
X010405Y023224D01*
X010477Y02309D01*
X010573Y022973D01*
X01069Y022877D01*
X010824Y022805D01*
X010969Y022761D01*
X01112Y022746D01*
X011271Y022761D01*
X011416Y022805D01*
X01155Y022877D01*
X011667Y022973D01*
X011763Y02309D01*
X011835Y023224D01*
X011879Y023369D01*
X011894Y02352D01*
X011879Y023671D01*
X011835Y023816D01*
X011763Y02395D01*
X011667Y024067D01*
X01155Y024163D01*
X011416Y024235D01*
X011271Y024279D01*
X01112Y024294D01*
D02*
G37*
G36*
X03936Y035878D02*
X03926D01*
X039154Y035865D01*
X039056Y035824D01*
X038971Y035759D01*
X038906Y035674D01*
X038865Y035576D01*
X038852Y03547D01*
X038865Y035364D01*
X038906Y035266D01*
X038971Y035181D01*
X039056Y035116D01*
X039154Y035075D01*
X03926Y035062D01*
X03936D01*
X039466Y035075D01*
X039564Y035116D01*
X039649Y035181D01*
X039714Y035266D01*
X039755Y035364D01*
X039768Y03547D01*
X039755Y035576D01*
X039714Y035674D01*
X039649Y035759D01*
X039564Y035824D01*
X039466Y035865D01*
X03936Y035878D01*
D02*
G37*
G36*
X04468Y035548D02*
X044574Y035535D01*
X044476Y035494D01*
X044391Y035429D01*
X044326Y035344D01*
X044285Y035246D01*
X044271Y03514D01*
Y03494D01*
X044285Y034834D01*
X044326Y034736D01*
X044391Y034651D01*
X044476Y034586D01*
X044574Y034545D01*
X04468Y034532D01*
X044786Y034545D01*
X044884Y034586D01*
X044969Y034651D01*
X045034Y034736D01*
X045075Y034834D01*
X045089Y03494D01*
Y03514D01*
X045075Y035246D01*
X045034Y035344D01*
X044969Y035429D01*
X044884Y035494D01*
X044786Y035535D01*
X04468Y035548D01*
D02*
G37*
G36*
X04368D02*
X043574Y035535D01*
X043476Y035494D01*
X043391Y035429D01*
X043326Y035344D01*
X043285Y035246D01*
X043271Y03514D01*
Y03494D01*
X043285Y034834D01*
X043326Y034736D01*
X043391Y034651D01*
X043476Y034586D01*
X043574Y034545D01*
X04368Y034532D01*
X043786Y034545D01*
X043884Y034586D01*
X043969Y034651D01*
X044034Y034736D01*
X044075Y034834D01*
X044089Y03494D01*
Y03514D01*
X044075Y035246D01*
X044034Y035344D01*
X043969Y035429D01*
X043884Y035494D01*
X043786Y035535D01*
X04368Y035548D01*
D02*
G37*
G36*
X01453Y026076D02*
X014401Y026059D01*
X014281Y02601D01*
X014178Y02593D01*
X014099Y025827D01*
X014049Y025707D01*
X014032Y025579D01*
X014049Y02545D01*
X014099Y02533D01*
X014178Y025227D01*
X014281Y025148D01*
X014401Y025098D01*
X01453Y025081D01*
X014659Y025098D01*
X014779Y025148D01*
X014882Y025227D01*
X014961Y02533D01*
X015011Y02545D01*
X015028Y025579D01*
X015011Y025707D01*
X014961Y025827D01*
X014882Y02593D01*
X014779Y02601D01*
X014659Y026059D01*
X01453Y026076D01*
D02*
G37*
%LPD*%
D10*
X014905Y04582D02*
Y04841D01*
Y04582D02*
X01517Y045555D01*
X013985Y04802D02*
X014375Y04841D01*
X013985Y045076D02*
Y04802D01*
X013339Y04443D02*
X013985Y045076D01*
X013339Y04291D02*
Y04443D01*
X014375Y04841D02*
X014905D01*
X022459Y033556D02*
Y03451D01*
X018085Y03392D02*
Y034554D01*
X017394Y035245D02*
X018085Y034554D01*
X01358Y035245D02*
X017394D01*
X018085Y032985D02*
Y03392D01*
Y032985D02*
X01877Y0323D01*
X020522D01*
X02142Y031402D01*
X022459Y033556D02*
X02289Y033125D01*
X027197D01*
X01928Y03816D02*
Y03862D01*
X018795Y039105D02*
X01928Y03862D01*
X014015Y039105D02*
X018795D01*
X01359Y0383D02*
Y03868D01*
X014015Y039105D01*
X01322Y0383D02*
X01359D01*
X01264Y03888D02*
X01322Y0383D01*
X027197Y033125D02*
X028372Y03195D01*
X02935D01*
X029898Y031402D01*
X02998D01*
X01813Y0383D02*
X01827Y03816D01*
X0146Y0383D02*
X01813D01*
X01264Y03888D02*
Y042211D01*
X013339Y04291D01*
X02062Y03054D02*
X02163D01*
X01792Y03008D02*
X01842Y03058D01*
X0156Y03008D02*
X01792D01*
X014942Y029422D02*
X0156Y03008D01*
X01842Y03058D02*
Y031402D01*
X01942Y03046D02*
Y031402D01*
X01872Y02976D02*
X01942Y03046D01*
X01682Y02976D02*
X01872D01*
X014942Y027942D02*
Y029422D01*
X01632Y02926D02*
X01682Y02976D01*
X01632Y02784D02*
Y02926D01*
X02498Y03054D02*
X02598Y03154D01*
Y031402D02*
Y03154D01*
X02298Y03054D02*
X02498D01*
X01952Y02944D02*
X02062Y03054D01*
X011579Y029739D02*
X0124Y03056D01*
X0168D01*
X02598Y03126D02*
Y031402D01*
X01952Y02776D02*
Y02944D01*
X01892Y02716D02*
X01952Y02776D01*
X0188Y02716D02*
X01892D01*
X011579Y028939D02*
Y029739D01*
Y027579D02*
Y02816D01*
X0112Y0272D02*
X011579Y027579D01*
X0108Y0272D02*
X0112D01*
X022492Y027373D02*
Y028341D01*
X02216Y02704D02*
X022492Y027373D01*
X02184Y02704D02*
X02216D01*
X02032Y02712D02*
X02104Y02784D01*
X01312Y02746D02*
Y027942D01*
X01278Y02712D02*
X01312Y02746D01*
X0125Y02712D02*
X01278D01*
X0156D02*
X01632Y02784D01*
X01416Y02716D02*
X014942Y027942D01*
D12*
X04864Y042505D02*
Y043625D01*
X048518Y042383D02*
X04864Y042505D01*
X048518Y037514D02*
Y042383D01*
X048678Y03758D02*
X048893Y037364D01*
Y025537D02*
Y037364D01*
X048838Y037836D02*
X049089Y037585D01*
X048518Y037514D02*
X048733Y037298D01*
X048838Y037836D02*
Y042195D01*
X048678Y03758D02*
Y042261D01*
X04816Y044105D02*
X04864Y043625D01*
X048599Y04408D02*
X0488Y043879D01*
Y042384D02*
Y043879D01*
X048678Y042261D02*
X0488Y042384D01*
X048528Y044544D02*
X04896Y044112D01*
Y042317D02*
Y044112D01*
X048838Y042195D02*
X04896Y042317D01*
X04912Y042085D02*
Y044172D01*
X049115Y04208D02*
X04912Y042085D01*
Y044172D02*
X04913Y044182D01*
X049078Y037585D02*
X049089D01*
X048785Y044527D02*
X04913Y044182D01*
X031485Y03848D02*
X033043D01*
X048733Y025604D02*
Y037298D01*
X01469Y0424D02*
X0147D01*
X04768Y03616D02*
X048255Y035585D01*
Y03354D02*
Y035585D01*
X04543Y047114D02*
Y047311D01*
X04724Y03752D02*
X04752Y03724D01*
Y036978D02*
Y03724D01*
X01886Y039734D02*
X018865Y03974D01*
X012725Y0336D02*
X01512D01*
X01499Y033605D02*
X015115D01*
X01512Y0336D01*
X02329Y047241D02*
Y048049D01*
X023001Y047241D02*
X02329D01*
X022709Y034891D02*
X024789D01*
X02192Y03568D02*
X022709Y034891D01*
X02192Y03568D02*
Y03696D01*
X022643Y034731D02*
X024722D01*
X02142Y035953D02*
X022643Y034731D01*
X02142Y035953D02*
Y036402D01*
X024722Y034731D02*
X026093Y03336D01*
X02129Y03759D02*
X02192Y03696D01*
X024789Y034891D02*
X025444Y034235D01*
X01464Y02392D02*
X037009D01*
X03792Y02424D02*
X0383Y02462D01*
Y026425D01*
X036365D02*
Y02646D01*
Y026425D02*
X036695D01*
X03688Y02624D01*
X031793Y033949D02*
X031806Y033936D01*
X029412Y036785D02*
X029955Y037328D01*
X029692Y034202D02*
X031625D01*
X02969Y0342D02*
X029692Y034202D01*
X031625D02*
X032413Y03499D01*
X030365Y033925D02*
X03177D01*
X031793Y033949D01*
X031806Y033936D02*
X03181Y03394D01*
X028485Y034235D02*
X028525D01*
X025444D02*
X028485D01*
X028311Y03326D02*
X032625D01*
X027761Y03381D02*
X028311Y03326D01*
X034645Y035748D02*
X03526D01*
X028268Y032765D02*
X03261D01*
X027328Y033705D02*
X028268Y032765D01*
X026975Y033705D02*
X027328D01*
X02129Y04089D02*
Y041515D01*
X03863Y032209D02*
X039634Y031204D01*
X03863Y032209D02*
Y034715D01*
X046302Y02496D02*
X048316D01*
X045951Y024609D02*
X046302Y02496D01*
X045283Y02512D02*
X04825D01*
X044931Y024768D02*
X045283Y02512D01*
X044931Y0236D02*
Y024768D01*
X045951Y0236D02*
Y024609D01*
X034854Y036032D02*
X034942Y035945D01*
X03273Y036025D02*
X032737Y036032D01*
X034854D01*
X033825Y03517D02*
X033895Y0351D01*
X030539Y036142D02*
X03194D01*
X029998Y0356D02*
X030539Y036142D01*
X034289Y034109D02*
Y03458D01*
Y034109D02*
X034416Y033982D01*
X036245Y036535D02*
X03635Y03664D01*
X03526Y036535D02*
X036245D01*
X02937Y038035D02*
X0304D01*
X02928Y037945D02*
X02937Y038035D01*
X030608Y037668D02*
X030792Y037852D01*
X028343Y037668D02*
X030608D01*
X028331Y03768D02*
X028343Y037668D01*
X028117Y038763D02*
X02944D01*
X0316Y039413D02*
X032065Y038947D01*
X0335D01*
X032809Y03832D02*
X032911Y038218D01*
X031955Y03832D02*
X032809D01*
X031818Y038183D02*
X031955Y03832D01*
X034683Y0379D02*
Y038448D01*
X03432Y03712D02*
Y03715D01*
X03419Y036843D02*
X034703D01*
X033502Y037531D02*
X03419Y036843D01*
X034703D02*
X03472Y03686D01*
X031552Y037488D02*
X031717Y037323D01*
X029009Y037488D02*
X031552D01*
X031717Y037323D02*
X03194D01*
X0335Y038947D02*
X034092Y038356D01*
X03224Y039275D02*
X032245D01*
X03241Y03911D01*
X032714Y033909D02*
Y03458D01*
Y033909D02*
X03278Y033843D01*
X032911Y03417D02*
X033086Y033995D01*
X032911Y03417D02*
Y03458D01*
X033108Y0342D02*
Y03458D01*
Y0342D02*
X033152Y034155D01*
X033154D01*
X033422Y033886D01*
X033305Y034233D02*
X033593Y033945D01*
X033305Y034233D02*
Y03458D01*
X033502Y034262D02*
X03387Y033894D01*
X033502Y034262D02*
Y03458D01*
X033422Y032818D02*
Y033886D01*
X033187Y032543D02*
Y033895D01*
X033087Y033995D02*
X033187Y033895D01*
X034592Y033268D02*
Y034032D01*
Y033268D02*
X03481Y03305D01*
X034416Y032796D02*
Y033982D01*
X03397Y03314D02*
X03399Y03316D01*
X03387Y033775D02*
Y033894D01*
X033955Y03314D02*
X03397D01*
X033593Y033502D02*
X033955Y03314D01*
X033422Y032818D02*
X033465Y032775D01*
X033187Y032543D02*
X033449Y032281D01*
X036321D01*
X033606Y03499D02*
X033698Y034898D01*
Y03458D02*
Y034898D01*
X032677Y036364D02*
X033915D01*
X032453Y03614D02*
X032677Y036364D01*
X032453Y036139D02*
Y03614D01*
X032258Y035945D02*
X032453Y036139D01*
X03194Y035945D02*
X032258D01*
X034942D02*
X03526D01*
X032457Y036452D02*
X03263Y036625D01*
X032454Y036452D02*
X032457D01*
X032341Y036338D02*
X032454Y036452D01*
X03194Y036338D02*
X032341D01*
X033593Y033502D02*
Y033945D01*
X033086Y033995D02*
X033087D01*
X034486Y034139D02*
X034592Y034032D01*
X034795Y034085D02*
X03487D01*
X034683Y034197D02*
X034795Y034085D01*
X034486Y034139D02*
Y03458D01*
X02512Y04688D02*
X025659Y046341D01*
X03531Y040605D02*
X037966D01*
X035295Y04062D02*
X03531Y040605D01*
X038198Y040603D02*
X0382Y040605D01*
X037968Y040603D02*
X038198D01*
X037966Y040605D02*
X037968Y040603D01*
X0382Y040605D02*
X039165D01*
X039505Y040265D01*
X029635Y04448D02*
X030865Y04325D01*
X035255D01*
X046962Y045598D02*
X047795Y044765D01*
X045212Y045598D02*
X046962D01*
X046899Y045435D02*
X04779Y044544D01*
X044805Y045435D02*
X046899D01*
X046804Y045255D02*
X04784Y044219D01*
X044759Y045255D02*
X046804D01*
X046671Y045073D02*
X0472Y044544D01*
X044587Y045073D02*
X046671D01*
X045106Y045704D02*
X045212Y045598D01*
X045106Y045704D02*
Y045805D01*
X044515Y045499D02*
X044759Y045255D01*
X044712Y045528D02*
X044805Y045435D01*
X044318Y045342D02*
X044587Y045073D01*
X04154Y036545D02*
X047887D01*
X04832Y036978D01*
X04088Y03666D02*
Y0372D01*
X04086Y03664D02*
X04088Y03666D01*
X039757Y037717D02*
X046687D01*
X039725Y037685D02*
X039757Y037717D01*
X04784Y037458D02*
Y044219D01*
X046687Y037717D02*
X04696Y03799D01*
X044813Y03744D02*
X046768D01*
X04696Y03799D02*
Y038046D01*
X033895Y03458D02*
Y0351D01*
X032413Y03499D02*
X033606D01*
X03263Y036625D02*
Y03676D01*
X033108Y03745D02*
Y0379D01*
X032868Y03721D02*
X033108Y03745D01*
X032535Y03721D02*
X032868D01*
X03526Y036929D02*
X035658D01*
X035935Y037206D01*
X039532D01*
X024122Y032445D02*
X02685D01*
X024113Y032454D02*
X024122Y032445D01*
X024113Y035483D02*
X026737D01*
X02698Y035725D01*
X02848Y035742D02*
X02898Y036242D01*
X02685Y032445D02*
X027458Y031837D01*
X027241Y03277D02*
X028425Y031586D01*
X024562Y03277D02*
X027241D01*
X024572Y0352D02*
X027723D01*
X039634Y031204D02*
X040605D01*
X041003Y029882D02*
X041304Y02958D01*
X041003Y029882D02*
Y03185D01*
X041015Y031863D01*
X039417D02*
X041015D01*
X0388Y03248D02*
X039417Y031863D01*
X04128Y030465D02*
X041295Y03048D01*
X042D01*
X041304Y02958D02*
X042D01*
X048165Y04724D02*
Y047825D01*
X047941Y047015D02*
X048165Y04724D01*
X04768Y047015D02*
X047941D01*
X04755Y04844D02*
X048165Y047825D01*
X046207Y04458D02*
X046227Y04456D01*
X03526Y036142D02*
X035578D01*
X035694Y036025D01*
X036135D01*
X03526Y035157D02*
X037348D01*
X03949Y038605D02*
X039505Y03862D01*
Y040265D01*
X037247Y036338D02*
X0388Y034785D01*
X03526Y036338D02*
X037247D01*
X035687Y036732D02*
X035884Y036929D01*
X03526Y036732D02*
X035687D01*
X035884Y036929D02*
X03769D01*
X039532Y037206D02*
X03992Y036818D01*
X03218Y04432D02*
X034947D01*
X036106Y045479D01*
Y045489D01*
X030135Y03218D02*
X03252D01*
X032554Y031846D02*
X033231Y031169D01*
X029765Y031846D02*
X032554D01*
X029441Y03217D02*
X029765Y031846D01*
X028463Y03217D02*
X029441D01*
X027273Y03336D02*
X028463Y03217D01*
X026093Y03336D02*
X027273D01*
X028425Y030615D02*
Y031586D01*
X022467Y043177D02*
X023035Y043745D01*
X02208Y043177D02*
X022467D01*
X023035Y043745D02*
X02328D01*
Y044555D01*
X024585D01*
X02266Y0469D02*
X023001Y047241D01*
X03616Y0424D02*
X0364Y04264D01*
X026665Y0484D02*
Y04904D01*
X026253Y047988D02*
X026665Y0484D01*
X02564Y047988D02*
X026253D01*
X034486Y0379D02*
Y038418D01*
X025383Y047988D02*
X02564D01*
X02512Y047725D02*
X025383Y047988D01*
X02512Y04688D02*
Y047725D01*
X034683Y034197D02*
Y03458D01*
X027458Y030427D02*
Y031837D01*
Y030427D02*
X027978Y029907D01*
Y029648D02*
Y029907D01*
X0352Y04416D02*
X03608Y04504D01*
X0288Y03904D02*
Y0411D01*
X02944Y038763D02*
Y0388D01*
X028638Y037118D02*
X029009Y037488D01*
X029955Y037328D02*
X031384D01*
X03089Y037038D02*
X031195Y036732D01*
X027723Y0352D02*
X02798Y035457D01*
X02698Y035725D02*
Y036402D01*
X02898Y036242D02*
Y036402D01*
X02848Y035742D02*
Y03576D01*
X02552D02*
X02632D01*
X02798Y035457D02*
Y036402D01*
X033305Y037335D02*
X03352Y03712D01*
X033698Y037582D02*
X034106Y037175D01*
X03216Y027949D02*
Y03144D01*
Y027949D02*
X032168Y027942D01*
X030672Y03552D02*
X0309Y035748D01*
X030637Y03552D02*
X030672D01*
X031413Y036455D02*
X031415D01*
X031495Y036535D02*
X03194D01*
X031415Y036455D02*
X031495Y036535D01*
X031195Y036732D02*
X03194D01*
X031302Y037018D02*
X031391Y036929D01*
X031384Y037328D02*
X031587Y037126D01*
X030658Y035065D02*
X031143Y035551D01*
X03024Y035065D02*
X030658D01*
X031143Y035551D02*
X03194D01*
X0309Y035748D02*
X03194D01*
X02928Y0356D02*
X029998D01*
X0336Y03953D02*
Y03984D01*
Y03953D02*
X034683Y038448D01*
X043226Y037472D02*
X04352Y037178D01*
Y036978D02*
Y037178D01*
X042052Y037472D02*
X043226D01*
X04178Y0372D02*
X042052Y037472D01*
X04568Y03504D02*
Y035527D01*
X045367Y03584D02*
X04568Y035527D01*
X040357Y03584D02*
X045367D01*
X044653Y04456D02*
X04468Y044533D01*
X040123Y036383D02*
Y037356D01*
X040143Y037377D01*
X040635Y03616D02*
X04768D01*
X04784Y037458D02*
X04832Y036978D01*
X04779Y044544D02*
X048528D01*
X047795Y044765D02*
X048547D01*
X048785Y044527D02*
Y044527D01*
X048547Y044765D02*
X048785Y044527D01*
X03696Y044999D02*
X03872Y046759D01*
X03696Y04208D02*
Y044999D01*
X03656Y04216D02*
Y04512D01*
X0364Y04264D02*
Y04665D01*
X04008Y035551D02*
X042D01*
X040506Y036D02*
X04572D01*
X036794Y035354D02*
X03688Y03544D01*
X03526Y035354D02*
X036794D01*
X037628Y035717D02*
X03863Y034715D01*
X035778Y035717D02*
X037628D01*
X035612Y035551D02*
X035778Y035717D01*
X03526Y035551D02*
X035612D01*
X0388Y03248D02*
Y034785D01*
X03992Y036277D02*
Y036818D01*
Y036277D02*
X040357Y03584D01*
X040123Y036383D02*
X040506Y036D01*
X0404Y036395D02*
X040635Y03616D01*
X0404Y036395D02*
Y036498D01*
X031587Y037126D02*
X03194D01*
X031391Y036929D02*
X03194D01*
X03089Y037038D02*
Y037051D01*
X027883Y037118D02*
X028638D01*
X027321Y03768D02*
X027883Y037118D01*
X037708Y026292D02*
X03809Y02591D01*
X03317Y03927D02*
X033634D01*
X0326Y03984D02*
X03317Y03927D01*
X033283Y038237D02*
Y03824D01*
X033043Y03848D02*
X033283Y03824D01*
X034092Y0379D02*
Y038356D01*
X033634Y03927D02*
X034486Y038418D01*
X033564Y03911D02*
X034289Y038385D01*
Y0379D02*
Y038385D01*
X03241Y03911D02*
X033564D01*
X033502Y037531D02*
Y0379D01*
X033305Y037335D02*
Y0379D01*
X034295Y037175D02*
X03432Y03715D01*
X034106Y037175D02*
X034295D01*
X033283Y038237D02*
X033305Y038215D01*
Y0379D02*
Y038215D01*
X033698Y037582D02*
Y0379D01*
X0316Y039413D02*
Y03984D01*
X03656Y04512D02*
X03774Y0463D01*
X0472Y041948D02*
X047388Y04176D01*
X04672Y043282D02*
X04704Y042962D01*
Y041997D02*
Y042962D01*
X04632Y041277D02*
X04704Y041997D01*
X04816Y044105D02*
Y044257D01*
X0472Y041948D02*
Y044544D01*
X044318Y045342D02*
Y045805D01*
X0448Y03744D02*
X044813D01*
X046768D02*
X04722Y037893D01*
X047426D01*
X044515Y045499D02*
Y045805D01*
X04632Y038046D02*
Y041277D01*
X04572Y036D02*
X04668Y03504D01*
X044712Y045528D02*
Y045805D01*
X048316Y02496D02*
X048893Y025537D01*
X04825Y02512D02*
X048733Y025604D01*
X036321Y032281D02*
X03676Y03272D01*
X03004Y02963D02*
X030127Y029717D01*
X03774Y0463D02*
Y0476D01*
X03872Y04757D02*
X03875Y0476D01*
X03872Y046759D02*
Y04757D01*
X02984Y04584D02*
Y04678D01*
Y04584D02*
X03152Y04416D01*
X03072Y04578D02*
Y04678D01*
Y04578D02*
X03218Y04432D01*
X03152Y04416D02*
X0352D01*
X027786Y039094D02*
X028117Y038763D01*
X0172Y02424D02*
X03792D01*
X01664Y0248D02*
X0172Y02424D01*
X0188Y02915D02*
X01952Y02987D01*
Y03D01*
X01664Y0248D02*
Y02851D01*
X01827Y02456D02*
X01835Y02448D01*
X03809Y02481D02*
Y02591D01*
X03776Y02448D02*
X03809Y02481D01*
X01835Y02448D02*
X03776D01*
X01664Y02851D02*
X01728Y02915D01*
X018Y02656D02*
Y02776D01*
X01759Y02817D02*
X018Y02776D01*
X01728Y02817D02*
X01759D01*
X02125Y025579D02*
Y02595D01*
X02096Y02624D02*
X02125Y02595D01*
X01832Y02624D02*
X02096D01*
X018Y02656D02*
X01832Y02624D01*
X022Y03032D02*
X02269Y02963D01*
X022Y03032D02*
Y031803D01*
X02216Y03056D02*
X022714Y030006D01*
X02216Y03056D02*
Y031869D01*
X02232Y030626D02*
X02278Y030166D01*
X02232Y030626D02*
Y031935D01*
X01842Y035383D02*
X022Y031803D01*
X01942Y034609D02*
X02216Y031869D01*
X02042Y033835D02*
X02232Y031935D01*
X02278Y030166D02*
X025523D01*
X022714Y030006D02*
X024264D01*
X025523Y030166D02*
X02564Y030048D01*
X024264Y030006D02*
X02464Y02963D01*
X02269D02*
X02364D01*
X01147Y028661D02*
X012Y028131D01*
X011464Y028661D02*
X01147D01*
X011301Y028824D02*
X011464Y028661D01*
X011301Y028824D02*
Y02883D01*
X010941Y02919D02*
X011301Y02883D01*
X0277Y0412D02*
X027786Y041114D01*
Y039094D02*
Y041114D01*
X02944Y03872D02*
Y038763D01*
X0287Y0412D02*
X0288Y0411D01*
X032911Y0379D02*
Y038218D01*
X022916Y048423D02*
X02329Y048049D01*
X02208Y048423D02*
X022916D01*
X02565Y046341D02*
X025659D01*
X024503D02*
X02565D01*
X02447Y046374D02*
X024503Y046341D01*
X01304Y0236D02*
X03672D01*
X02564Y02963D02*
Y030048D01*
X03688Y024968D02*
Y02624D01*
X036572Y02466D02*
X03688Y024968D01*
X028082Y02466D02*
X036572D01*
X013563Y024997D02*
X01464Y02392D01*
X012Y02464D02*
X01304Y0236D01*
X033746Y02752D02*
X03872D01*
X033231Y028035D02*
X033746Y02752D01*
X03176Y027243D02*
X039189D01*
X039227Y02728D01*
X033231Y028035D02*
Y031169D01*
X02789Y024852D02*
X028082Y02466D01*
X02789Y024852D02*
Y025579D01*
X02904Y02963D02*
Y03D01*
X028425Y030615D02*
X02904Y03D01*
X04524Y02632D02*
Y02876D01*
X044413Y029587D02*
X04524Y02876D01*
X0431Y029587D02*
X044413D01*
X042Y02958D02*
X042007Y029587D01*
X0431D01*
X02042Y033835D02*
Y036402D01*
X01942Y034609D02*
Y036402D01*
X01842Y035383D02*
Y036402D01*
X012Y02464D02*
Y028131D01*
X0108Y02919D02*
X010941D01*
X013563Y024997D02*
Y028047D01*
X0125Y02911D02*
X013563Y028047D01*
X028331Y03753D02*
X028341Y03752D01*
X02898Y0298D02*
X029004D01*
D18*
X04824Y04197D02*
X048275D01*
X0241Y039958D02*
Y040565D01*
X048275Y04197D02*
X04832Y042015D01*
Y043282D01*
X044858Y04937D02*
X04571D01*
X044032Y048139D02*
Y04937D01*
Y048139D02*
X044318Y047852D01*
X021168Y038428D02*
X02566D01*
X019802Y037061D02*
X021168Y038428D01*
X014421Y037061D02*
X019802D01*
X023422Y03928D02*
X0241Y039958D01*
X02566Y038428D02*
X025672Y038415D01*
X02671D02*
X029775D01*
X02992Y03856D01*
X02368Y038715D02*
X024835D01*
X02368D02*
X023684Y038719D01*
X023422Y038981D02*
X023684Y038719D01*
X03012Y03876D02*
X033367D01*
X033895Y038232D01*
X02992Y03856D02*
X03012Y03876D01*
X035255Y04502D02*
Y045297D01*
X0357Y045742D01*
X034452Y049301D02*
X03522Y048533D01*
Y04616D02*
Y048533D01*
X03552Y046D02*
Y048869D01*
X0357Y045742D02*
Y048944D01*
X0292Y04216D02*
Y046486D01*
X028906Y04678D02*
X0292Y046486D01*
X023422Y038981D02*
Y03928D01*
X02624Y045189D02*
Y047677D01*
X02564Y044589D02*
X02624Y045189D01*
X011811Y034451D02*
X014421Y037061D01*
X011811Y034252D02*
Y034451D01*
X044318Y047635D02*
Y047852D01*
X033895Y0379D02*
Y038232D01*
X0448Y037453D02*
X044813Y03744D01*
X04512Y037133D01*
X044733Y03752D02*
X0448Y037453D01*
Y03744D02*
Y037453D01*
X04512Y036978D02*
Y037133D01*
X043937Y037361D02*
X04432Y036978D01*
X043937Y037361D02*
Y03744D01*
X04712Y046922D02*
Y046963D01*
X047057Y0469D02*
X04712Y046963D01*
X0352Y04568D02*
X03552Y046D01*
X034742Y049648D02*
X03552Y048869D01*
X047656Y046527D02*
X04768Y046503D01*
X047081Y046527D02*
X047656D01*
X04712Y04624D02*
X047672D01*
X046888Y04672D02*
X047081Y046527D01*
X04543Y04672D02*
X046888D01*
X04704Y046917D02*
X047057Y0469D01*
X04543Y046917D02*
X04704D01*
X047672Y04624D02*
X04768Y046248D01*
X032125Y04488D02*
X0337D01*
X0312Y045805D02*
X032125Y04488D01*
X0312Y045805D02*
Y048806D01*
X03168Y049286D01*
X02984Y04768D02*
Y048459D01*
X03072Y04768D02*
Y048467D01*
X03168Y04618D02*
X0317Y04616D01*
X03168Y047717D02*
Y048459D01*
X03252Y047717D02*
Y048474D01*
X0335Y047717D02*
Y048474D01*
X034452Y047717D02*
Y048474D01*
X03282Y049828D02*
X034816D01*
X03252Y049528D02*
X03282Y049828D01*
X034816D02*
X0357Y048944D01*
X033847Y049648D02*
X034742D01*
X0335Y049301D02*
X033847Y049648D01*
X03252Y049301D02*
Y049528D01*
X028362Y04584D02*
X02888D01*
X02714Y045945D02*
X027595Y04549D01*
X02856D01*
X02714Y045945D02*
Y04682D01*
X02798Y046222D02*
X028362Y04584D01*
X02798Y046222D02*
Y046817D01*
Y047717D02*
Y048448D01*
X028906Y047677D02*
Y048448D01*
X02714Y04772D02*
Y048451D01*
X037438Y043682D02*
Y04504D01*
X02562Y04378D02*
X02564Y0438D01*
X02562Y04378D02*
X02564D01*
X025076D02*
X02562D01*
X02447Y043174D02*
X025076Y04378D01*
X02266Y03928D02*
X023422D01*
X02564Y0438D02*
Y044589D01*
X02564D01*
X04136Y03256D02*
X042827D01*
X04104Y03288D02*
X04136Y03256D01*
X04104Y03288D02*
Y03336D01*
X0431Y03195D02*
Y032287D01*
X042827Y03256D02*
X0431Y032287D01*
X04824Y02632D02*
Y03112D01*
X04741Y03195D02*
X04824Y03112D01*
X0431Y03195D02*
X04741D01*
X04101Y03339D02*
X04104Y03336D01*
X03928Y03339D02*
X04101D01*
X0444Y0304D02*
X04544D01*
X0431Y030375D02*
X043125Y0304D01*
X0444D01*
X04616Y0312D02*
X04724Y03012D01*
X04504Y0312D02*
X04616D01*
X0431Y031162D02*
X043138Y0312D01*
X04504D01*
X04724Y02632D02*
Y03012D01*
X042Y02882D02*
X04202Y0288D01*
X0431D01*
X04624Y02632D02*
Y0296D01*
X04544Y0304D02*
X04624Y0296D01*
X04424Y02632D02*
Y028363D01*
X043803Y0288D02*
X04424Y028363D01*
X0431Y0288D02*
X043803D01*
X03776Y04336D02*
X03848D01*
X037438Y043682D02*
X03776Y04336D01*
D21*
X04768Y045992D02*
D03*
Y046248D02*
D03*
Y046503D02*
D03*
Y046759D02*
D03*
Y047015D02*
D03*
D22*
X048733Y04611D02*
D03*
Y046897D02*
D03*
D23*
X035566Y039035D02*
D03*
Y038135D02*
D03*
X036375Y039035D02*
D03*
Y038135D02*
D03*
X0291Y03478D02*
D03*
Y03388D02*
D03*
X041715Y04638D02*
D03*
Y04728D02*
D03*
X042535Y04727D02*
D03*
Y04637D02*
D03*
X03252Y047717D02*
D03*
Y046817D02*
D03*
X03168Y047717D02*
D03*
Y046817D02*
D03*
X042Y02882D02*
D03*
Y02792D02*
D03*
Y02958D02*
D03*
Y03048D02*
D03*
X02565Y046341D02*
D03*
Y047241D02*
D03*
X02564Y048888D02*
D03*
Y047988D02*
D03*
X0233Y04284D02*
D03*
Y04374D02*
D03*
X02328Y045455D02*
D03*
Y044555D02*
D03*
X02326Y047245D02*
D03*
Y046345D02*
D03*
X02564Y044589D02*
D03*
Y045489D02*
D03*
Y04378D02*
D03*
Y04288D02*
D03*
X024928Y040335D02*
D03*
Y041235D02*
D03*
X018865Y03974D02*
D03*
Y04064D02*
D03*
X02798Y047717D02*
D03*
Y046817D02*
D03*
X02714Y04772D02*
D03*
Y04682D02*
D03*
X03072Y04678D02*
D03*
Y04768D02*
D03*
X02329Y048948D02*
D03*
Y048049D02*
D03*
X02984Y04768D02*
D03*
Y04678D02*
D03*
X0335Y047717D02*
D03*
Y046817D02*
D03*
X034452Y047717D02*
D03*
Y046817D02*
D03*
X04249Y04801D02*
D03*
Y04891D02*
D03*
X041705Y04802D02*
D03*
Y04892D02*
D03*
X02754Y04378D02*
D03*
Y04288D02*
D03*
X028906Y04678D02*
D03*
Y04768D02*
D03*
D24*
X01583Y04633D02*
D03*
X01493D02*
D03*
X04088Y0372D02*
D03*
X04178D02*
D03*
X03735Y03323D02*
D03*
X03825D02*
D03*
X04194Y03336D02*
D03*
X04104D02*
D03*
X024322Y03928D02*
D03*
X023422D02*
D03*
X02266D02*
D03*
X02176D02*
D03*
X0156Y0424D02*
D03*
X0147D02*
D03*
X04661Y04935D02*
D03*
X04571D02*
D03*
D25*
X04832Y043282D02*
D03*
X04352D02*
D03*
X04432D02*
D03*
X04752D02*
D03*
X04672D02*
D03*
X04592D02*
D03*
X04512D02*
D03*
X04272D02*
D03*
Y037052D02*
D03*
X04352Y036978D02*
D03*
X04432D02*
D03*
X04512D02*
D03*
X04592D02*
D03*
X04672D02*
D03*
X04752D02*
D03*
X04832D02*
D03*
D26*
X04212Y042182D02*
D03*
Y041382D02*
D03*
Y040582D02*
D03*
Y039782D02*
D03*
Y038982D02*
D03*
Y038182D02*
D03*
D27*
X0431Y028013D02*
D03*
Y0288D02*
D03*
Y029587D02*
D03*
Y030375D02*
D03*
Y031162D02*
D03*
D28*
Y03195D02*
D03*
D29*
X024325Y03384D02*
D03*
X022395D02*
D03*
X016835Y04841D02*
D03*
X014905D02*
D03*
X018085Y03392D02*
D03*
X016155D02*
D03*
D30*
X017547Y039734D02*
D03*
Y04064D02*
D03*
Y041546D02*
D03*
D31*
X015263Y04064D02*
D03*
D32*
X03168Y048459D02*
D03*
Y049286D02*
D03*
X02798Y048459D02*
D03*
Y049286D02*
D03*
X02714Y048462D02*
D03*
Y049288D02*
D03*
X028906Y049286D02*
D03*
Y048459D02*
D03*
X03252Y048474D02*
D03*
Y049301D02*
D03*
X0335Y048474D02*
D03*
Y049301D02*
D03*
X034452Y048474D02*
D03*
Y049301D02*
D03*
X02984Y049286D02*
D03*
Y048459D02*
D03*
X03072Y048467D02*
D03*
Y049293D02*
D03*
D33*
X044047Y04941D02*
D03*
X044873D02*
D03*
D34*
X04543Y046129D02*
D03*
Y046326D02*
D03*
Y046523D02*
D03*
Y04672D02*
D03*
Y046917D02*
D03*
Y047114D02*
D03*
Y047311D02*
D03*
X0436D02*
D03*
Y047114D02*
D03*
Y046917D02*
D03*
Y04672D02*
D03*
Y046523D02*
D03*
Y046326D02*
D03*
Y046129D02*
D03*
D35*
X045106Y047635D02*
D03*
X044909D02*
D03*
X044712D02*
D03*
X044515D02*
D03*
X044318D02*
D03*
X044121D02*
D03*
X043924D02*
D03*
Y045805D02*
D03*
X044121D02*
D03*
X044318D02*
D03*
X044515D02*
D03*
X044712D02*
D03*
X044909D02*
D03*
X045106D02*
D03*
D36*
X046227Y04456D02*
D03*
X044653D02*
D03*
D37*
X04215Y044675D02*
D03*
X04345D02*
D03*
D38*
X032517Y03458D02*
D03*
X032714D02*
D03*
X032911D02*
D03*
X033108D02*
D03*
X033305D02*
D03*
X033502D02*
D03*
X033698D02*
D03*
X033895D02*
D03*
X034092D02*
D03*
X034289D02*
D03*
X034486D02*
D03*
X034683D02*
D03*
Y0379D02*
D03*
X034486D02*
D03*
X034289D02*
D03*
X034092D02*
D03*
X033895D02*
D03*
X033698D02*
D03*
X033502D02*
D03*
X033305D02*
D03*
X033108D02*
D03*
X032911D02*
D03*
X032714D02*
D03*
X032517D02*
D03*
D39*
X03526Y035157D02*
D03*
Y035354D02*
D03*
Y035551D02*
D03*
Y035748D02*
D03*
Y035945D02*
D03*
Y036142D02*
D03*
Y036338D02*
D03*
Y036535D02*
D03*
Y036732D02*
D03*
Y036929D02*
D03*
Y037126D02*
D03*
Y037323D02*
D03*
X03194D02*
D03*
Y037126D02*
D03*
Y036929D02*
D03*
Y036732D02*
D03*
Y036535D02*
D03*
Y036338D02*
D03*
Y036142D02*
D03*
Y035945D02*
D03*
Y035748D02*
D03*
Y035551D02*
D03*
Y035354D02*
D03*
Y035157D02*
D03*
D40*
X024093Y040565D02*
D03*
X021967D02*
D03*
D41*
X02447Y0453D02*
D03*
Y043174D02*
D03*
X02208Y045303D02*
D03*
Y043177D02*
D03*
X02447Y0485D02*
D03*
Y046374D02*
D03*
X02208Y046297D02*
D03*
Y048423D02*
D03*
D42*
X01517Y043476D02*
D03*
Y045555D02*
D03*
D43*
X018665Y044516D02*
D03*
D57*
X044515Y04672D02*
D03*
D64*
X048733Y045125D02*
D03*
Y047881D02*
D03*
D88*
X041175Y04982D02*
X041705Y04929D01*
X036018Y04982D02*
X041175D01*
X035708Y04951D02*
X036018Y04982D01*
X04214Y04467D02*
Y04513D01*
X04159Y04728D02*
X041715D01*
X040425Y046115D02*
X04159Y04728D01*
X039428Y046115D02*
X040425D01*
X041135D01*
X01469Y0424D02*
Y042996D01*
X014075Y0424D02*
X01469D01*
Y042996D02*
X01517Y043476D01*
X0209Y04792D02*
Y04894D01*
Y04792D02*
X02132Y0475D01*
X02088Y04896D02*
X0209Y04894D01*
X02564Y04288D02*
X028134D01*
X041553Y045678D02*
X041592D01*
X04214Y04513D01*
X04155Y045254D02*
Y04572D01*
X041155Y046115D02*
X04155Y04572D01*
Y045254D02*
X04156Y038237D01*
X04215Y043852D02*
X04272Y043282D01*
X04214Y04467D02*
X04215Y043852D01*
X041715Y04728D02*
X042525D01*
X017547Y039734D02*
X01886D01*
X020705Y04209D02*
X02817D01*
X019255Y04064D02*
X020705Y04209D01*
X018865Y04064D02*
X019255D01*
X012235Y048486D02*
X013259Y04951D01*
X012235Y048486D02*
X012248Y048474D01*
Y040293D02*
Y048474D01*
X013414Y040311D02*
X014649Y041546D01*
X013414Y040293D02*
Y040311D01*
X017547Y04064D02*
X018865D01*
X015263D02*
X017547D01*
X014649Y041546D02*
X017547D01*
X04479Y048882D02*
X045106Y048566D01*
Y047635D02*
Y048566D01*
X045614Y047311D02*
X04577Y047467D01*
X04543Y047311D02*
X045614D01*
X04577Y047467D02*
Y047955D01*
X04576Y047965D02*
X04577Y047955D01*
X04306Y04727D02*
X043075Y047255D01*
X042535Y04727D02*
X04306D01*
X042525Y04728D02*
X042535Y04727D01*
X041705Y04892D02*
Y04929D01*
X04249Y04891D02*
X043005D01*
X04301Y048905D01*
X04248Y04892D02*
X04249Y04891D01*
X041705Y04892D02*
X04248D01*
X03888Y02568D02*
Y026516D01*
X038596Y0268D02*
X03888Y026516D01*
X035864Y0268D02*
X038596D01*
X035859Y026795D02*
X035864Y0268D01*
X035775Y026795D02*
X035859D01*
X035015Y03812D02*
X036375D01*
X037292D01*
X02646Y02962D02*
Y03194D01*
X024355Y04121D02*
X02569D01*
X0257Y0412D01*
X02321Y04121D02*
X024355D01*
X0232Y0412D02*
X02321Y04121D01*
X021967Y040565D02*
Y041078D01*
Y04056D02*
Y040565D01*
Y041078D02*
X022729Y04184D01*
X02196Y040553D02*
X021967Y04056D01*
X021147Y040553D02*
X02196D01*
X02072Y04098D02*
X021147Y040553D01*
X035591Y037336D02*
X036375Y03812D01*
X035Y038135D02*
X035015Y03812D01*
X035605Y04294D02*
Y044145D01*
X03515Y042485D02*
X035605Y04294D01*
X0298Y042485D02*
X03515D01*
X029795Y04248D02*
X0298Y042485D01*
X04578Y045875D02*
X047404D01*
X04533Y04458D02*
X046207D01*
X047404Y045875D02*
X04752Y045992D01*
X04768D01*
X02508Y04232D02*
X02564Y04288D01*
X02382Y04232D02*
X02508D01*
X0233Y04284D02*
X02382Y04232D01*
X02132Y04276D02*
X02172Y04236D01*
X022729Y04184D02*
X03546D01*
X02282Y04236D02*
X0233Y04284D01*
X02172Y04236D02*
X02282D01*
X04072Y038274D02*
Y040185D01*
X039745Y04116D02*
X04072Y040185D01*
X03864Y04116D02*
X039745D01*
X03546Y04184D02*
X03642Y04088D01*
X038083D01*
X03146Y034753D02*
X031587Y03488D01*
X02592Y0348D02*
X025967Y034753D01*
X03146D01*
X02624Y03216D02*
X02646Y03194D01*
Y02962D02*
X02647Y02963D01*
X02073Y04099D02*
Y04152D01*
X02072Y04098D02*
X02073Y04099D01*
X028134Y04288D02*
X028824Y043571D01*
Y044136D01*
X02817Y04209D02*
X02824Y04216D01*
X02132Y04276D02*
Y0475D01*
X02272Y048948D02*
X02329D01*
X025197Y04933D02*
X02564Y048888D01*
X023495Y04933D02*
X025197D01*
X02329Y048948D02*
Y049125D01*
X023495Y04933D01*
X01642Y036402D02*
X01742D01*
X028906Y049286D02*
Y049394D01*
X02862Y04968D02*
X028906Y049394D01*
X026432Y04968D02*
X02862D01*
X02564Y048888D02*
X026432Y04968D01*
X04468Y04384D02*
Y044533D01*
X03862Y03812D02*
X03864Y03814D01*
X037292Y03812D02*
X03862D01*
X03888Y02568D02*
X03952Y02504D01*
X04672Y04224D02*
Y04232D01*
X045759Y041279D02*
X04672Y04224D01*
X045759Y03888D02*
Y041279D01*
X04576Y03808D02*
Y038879D01*
X03777Y0316D02*
X03832Y03215D01*
X0348Y0316D02*
X03777D01*
X03832Y03215D02*
Y03392D01*
X045759Y03888D02*
X04576Y038879D01*
X03168Y04618D02*
Y046817D01*
X03252D01*
X0335D01*
X034452D01*
D89*
X035251Y037331D02*
X03526Y03734D01*
X031732Y035157D02*
X03194D01*
X031587Y035012D02*
X031732Y035157D01*
X031587Y03488D02*
Y035012D01*
X032325Y035157D02*
X032636Y035467D01*
X03194Y035157D02*
X032325D01*
X034122Y034956D02*
Y035293D01*
X034094Y034928D02*
X034122Y034956D01*
X034094Y034582D02*
Y034928D01*
X034092Y03458D02*
X034094Y034582D01*
X033948Y035467D02*
X034122Y035293D01*
X032636Y035467D02*
X033948D01*
D90*
X03526Y037336D02*
X035591D01*
X032077Y03787D02*
X032482D01*
D91*
X04767Y045519D02*
D03*
Y047488D02*
D03*
D92*
X048598Y045125D02*
D03*
X048868D02*
D03*
X048598Y047881D02*
D03*
X048868D02*
D03*
D93*
X03952Y02403D02*
D03*
X02184Y02704D02*
D03*
X040545Y047265D02*
D03*
X03864Y04013D02*
D03*
X03931Y03648D02*
D03*
Y03339D02*
D03*
X013259Y0485D02*
D03*
X037292Y03812D02*
D03*
X0188Y02716D02*
D03*
X0125Y02712D02*
D03*
X0108Y0272D02*
D03*
X0156Y02712D02*
D03*
X01416Y02716D02*
D03*
X01728D02*
D03*
X02032Y02712D02*
D03*
D94*
X03952Y02504D02*
D03*
Y02602D02*
D03*
X02184Y02805D02*
D03*
Y02903D02*
D03*
X040545Y048275D02*
D03*
Y049255D02*
D03*
X03864Y03912D02*
D03*
Y03814D02*
D03*
X03931Y03547D02*
D03*
Y0344D02*
D03*
X013259Y04951D02*
D03*
X037292Y03913D02*
D03*
Y04011D02*
D03*
X0188Y02915D02*
D03*
Y02817D02*
D03*
X0125Y02911D02*
D03*
Y02813D02*
D03*
X0108Y02919D02*
D03*
Y02821D02*
D03*
X0156Y02911D02*
D03*
Y02813D02*
D03*
X01416Y02915D02*
D03*
Y02817D02*
D03*
X01728Y02915D02*
D03*
Y02817D02*
D03*
X02032Y02911D02*
D03*
Y02813D02*
D03*
D95*
X02804Y02663D02*
D03*
X02904D02*
D03*
X03004D02*
D03*
Y02963D02*
D03*
X02904D02*
D03*
X02804D02*
D03*
X02364D02*
D03*
X02464D02*
D03*
X02564D02*
D03*
Y02663D02*
D03*
X02464D02*
D03*
X02364D02*
D03*
D96*
X0327Y0412D02*
D03*
X0307D02*
D03*
X0287D02*
D03*
X0277D02*
D03*
X0267D02*
D03*
X0297D02*
D03*
X0317D02*
D03*
X0337D02*
D03*
X0347D02*
D03*
X0316Y03984D02*
D03*
X0326D02*
D03*
X0336D02*
D03*
X0306D02*
D03*
D97*
X0257Y0412D02*
D03*
X0346Y03984D02*
D03*
D98*
X04848Y04888D02*
D03*
Y02352D02*
D03*
X01112Y04888D02*
D03*
Y02352D02*
D03*
D99*
X02298Y031402D02*
D03*
X02398D02*
D03*
X02498D02*
D03*
X02598D02*
D03*
X02998D02*
D03*
X02898D02*
D03*
X02798D02*
D03*
X02898Y036402D02*
D03*
X02798D02*
D03*
X02298D02*
D03*
X02398D02*
D03*
X02498D02*
D03*
X02598D02*
D03*
X02698Y031402D02*
D03*
Y036402D02*
D03*
X01842Y036402D02*
D03*
Y031402D02*
D03*
X01742Y036402D02*
D03*
X01642D02*
D03*
X01542D02*
D03*
X01442D02*
D03*
X01942D02*
D03*
X02042D02*
D03*
X01942Y031402D02*
D03*
X02042D02*
D03*
X02142D02*
D03*
X01742D02*
D03*
X01642D02*
D03*
X01542D02*
D03*
X01442D02*
D03*
D100*
X02998Y036402D02*
D03*
X02142Y036402D02*
D03*
D101*
X026331Y0397D02*
D03*
X027341D02*
D03*
X028321D02*
D03*
X029331D02*
D03*
X027321Y03768D02*
D03*
X026341D02*
D03*
X0146Y0383D02*
D03*
X01827Y03816D02*
D03*
X02353Y037663D02*
D03*
X02451D02*
D03*
X03774Y0476D02*
D03*
X03676D02*
D03*
X036375Y04904D02*
D03*
X037385D02*
D03*
X038365D02*
D03*
X039375D02*
D03*
X01987Y04896D02*
D03*
D102*
X04268Y03504D02*
D03*
X04368D02*
D03*
X04468D02*
D03*
X04568D02*
D03*
X04668D02*
D03*
X04768D02*
D03*
X04824Y02632D02*
D03*
X04624D02*
D03*
X04524D02*
D03*
X04424D02*
D03*
X04724D02*
D03*
X047001Y0236D02*
D03*
X045951D02*
D03*
X044931D02*
D03*
X043901D02*
D03*
X042851D02*
D03*
X041801D02*
D03*
D103*
X04324Y02632D02*
D03*
D104*
X028331Y03768D02*
D03*
X01359Y0383D02*
D03*
X01928Y03816D02*
D03*
X02252Y037663D02*
D03*
X03875Y0476D02*
D03*
X02088Y04896D02*
D03*
D105*
X03808Y041773D02*
D03*
D106*
Y04456D02*
D03*
D107*
X0338Y0286D02*
D03*
Y0296D02*
D03*
Y0306D02*
D03*
Y0316D02*
D03*
X0348D02*
D03*
Y0306D02*
D03*
Y0296D02*
D03*
Y0286D02*
D03*
D108*
X011811Y034252D02*
D03*
Y03622D02*
D03*
D109*
Y032283D02*
D03*
D110*
X013339Y04291D02*
D03*
X013259Y04699D02*
D03*
D111*
X013339Y04141D02*
D03*
X013259Y04549D02*
D03*
X034542Y025579D02*
D03*
X036042D02*
D03*
X037542D02*
D03*
X02789D02*
D03*
X02939D02*
D03*
X03089D02*
D03*
X02125D02*
D03*
X02275D02*
D03*
X02425D02*
D03*
X01453D02*
D03*
X01603D02*
D03*
X01753D02*
D03*
D112*
X033042D02*
D03*
X02639D02*
D03*
X01975D02*
D03*
X01303D02*
D03*
D113*
X04824Y04197D02*
D03*
X049115Y04208D02*
D03*
X049078Y037585D02*
D03*
X014075Y0424D02*
D03*
X048255Y03354D02*
D03*
X039428Y046115D02*
D03*
X04156Y038237D02*
D03*
X012248Y040293D02*
D03*
X013414D02*
D03*
X04479Y048882D02*
D03*
X04576Y047965D02*
D03*
X043075Y047255D02*
D03*
X04301Y048905D02*
D03*
X01358Y035245D02*
D03*
X01499Y033605D02*
D03*
X012725Y0336D02*
D03*
X02129Y03759D02*
D03*
X022459Y03451D02*
D03*
X037009Y02392D02*
D03*
X0383Y026425D02*
D03*
X036365D02*
D03*
X035775Y026795D02*
D03*
X02969Y0342D02*
D03*
X030365Y033925D02*
D03*
X028485Y034235D02*
D03*
X027761Y03381D02*
D03*
X026975Y033705D02*
D03*
X03181Y03394D02*
D03*
X024355Y04121D02*
D03*
X02129Y04089D02*
D03*
Y041515D02*
D03*
X033825Y03517D02*
D03*
X035Y038135D02*
D03*
X044515Y04672D02*
D03*
X02928Y037945D02*
D03*
X025672Y038415D02*
D03*
X02671D02*
D03*
X024835Y038715D02*
D03*
X02992Y03856D02*
D03*
X03207Y03787D02*
D03*
X031818Y038183D02*
D03*
X031485Y03846D02*
D03*
X03432Y03712D02*
D03*
X030792Y037852D02*
D03*
X0304Y038035D02*
D03*
X03224Y039275D02*
D03*
X03278Y033843D02*
D03*
X032625Y03326D02*
D03*
X03399Y03316D02*
D03*
X03387Y033775D02*
D03*
X034416Y032796D02*
D03*
X03481Y03305D02*
D03*
X033465Y032775D02*
D03*
X03273Y036025D02*
D03*
X034645Y03574D02*
D03*
X03487Y034085D02*
D03*
X035295Y04062D02*
D03*
X035255Y04325D02*
D03*
X035605Y044145D02*
D03*
X04578Y045875D02*
D03*
X04533Y04458D02*
D03*
X026253Y044505D02*
D03*
X040015Y040235D02*
D03*
X04154Y036545D02*
D03*
X04086Y03664D02*
D03*
X039725Y037685D02*
D03*
X03263Y03676D02*
D03*
X032535Y03721D02*
D03*
X033915Y036364D02*
D03*
X025135Y03367D02*
D03*
X024113Y032454D02*
D03*
Y035483D02*
D03*
X024562Y03277D02*
D03*
X024572Y0352D02*
D03*
X040605Y031204D02*
D03*
X041015Y031863D02*
D03*
X04128Y030465D02*
D03*
X04755Y04844D02*
D03*
X037348Y035157D02*
D03*
X036135Y036025D02*
D03*
X03949Y038605D02*
D03*
X03635Y03664D02*
D03*
X03769Y036929D02*
D03*
X035255Y04502D02*
D03*
X03522Y04616D02*
D03*
X03261Y032765D02*
D03*
X030135Y03218D02*
D03*
X03252D02*
D03*
X024585Y044555D02*
D03*
X03616Y0424D02*
D03*
X026665Y04904D02*
D03*
X029635Y04448D02*
D03*
X031587Y03488D02*
D03*
X02592Y0348D02*
D03*
X02624Y03216D02*
D03*
X02647Y02963D02*
D03*
X02073Y04152D02*
D03*
X029795Y04248D02*
D03*
X028824Y044136D02*
D03*
X02824Y04216D02*
D03*
X0292D02*
D03*
X03608Y04504D02*
D03*
X03864Y04116D02*
D03*
X0288Y03904D02*
D03*
X02944Y0388D02*
D03*
X02624Y047677D02*
D03*
X02848Y03576D02*
D03*
X02632D02*
D03*
X02552D02*
D03*
X02266Y0469D02*
D03*
X02272Y048948D02*
D03*
X0232Y0412D02*
D03*
X03352Y03712D02*
D03*
X032168Y027942D02*
D03*
X03216Y03144D02*
D03*
X030637Y03552D02*
D03*
X031413Y036455D02*
D03*
X031302Y037018D02*
D03*
X03024Y035065D02*
D03*
X035708Y04951D02*
D03*
X04468Y04384D02*
D03*
X040143Y037377D02*
D03*
X048599Y04408D02*
D03*
X038083Y04088D02*
D03*
X03696Y04208D02*
D03*
X03656Y04216D02*
D03*
X042Y035551D02*
D03*
X03688Y03544D02*
D03*
X04008Y035551D02*
D03*
X04072Y038274D02*
D03*
X0404Y036498D02*
D03*
X029418Y03678D02*
D03*
X02928Y0356D02*
D03*
X03089Y037051D02*
D03*
X03176Y027243D02*
D03*
X037708Y026292D02*
D03*
X03472Y03686D02*
D03*
X04672Y04232D02*
D03*
X04816Y044257D02*
D03*
X047388Y04176D02*
D03*
X047426Y037893D02*
D03*
X04724Y03752D02*
D03*
X04696Y038046D02*
D03*
X04632D02*
D03*
X04576Y03808D02*
D03*
X0448Y03744D02*
D03*
X03832Y03392D02*
D03*
X043937Y03744D02*
D03*
X04712Y046922D02*
D03*
Y04624D02*
D03*
X03676Y03272D02*
D03*
X0337Y04488D02*
D03*
X0317Y04616D02*
D03*
X0352Y04568D02*
D03*
X02888Y04584D02*
D03*
X02856Y04549D02*
D03*
X0364Y04665D02*
D03*
X037438Y04504D02*
D03*
X036106Y045489D02*
D03*
X01952Y03D02*
D03*
X02163Y03054D02*
D03*
X01827Y02456D02*
D03*
X02298Y03054D02*
D03*
X0168Y03056D02*
D03*
X011579Y028939D02*
D03*
X03672Y0236D02*
D03*
X03872Y02752D02*
D03*
X039227Y02728D02*
D03*
X0444Y0304D02*
D03*
X04504Y0312D02*
D03*
X022492Y028341D02*
D03*
X02104Y02784D02*
D03*
X01312Y027942D02*
D03*
X011579Y02816D02*
D03*
X03848Y04336D02*
D03*
D114*
X048598Y045125D02*
X048868D01*
X048598Y047881D02*
X048868D01*
M02*
