G04*
G04 #@! TF.GenerationSoftware,Altium Limited,Altium Designer,18.1.6 (161)*
G04*
G04 Layer_Color=32768*
%FSTAX24Y24*%
%MOIN*%
G70*
G01*
G75*
%ADD129C,0.0039*%
%ADD130C,0.0020*%
D129*
X01592Y047963D02*
Y048357D01*
X015723Y04816D02*
X016117D01*
X014207Y049577D02*
X017633D01*
X014207Y046743D02*
X017633D01*
Y049577D01*
X014207Y046743D02*
Y049577D01*
X018118Y039223D02*
Y042057D01*
X014692Y039223D02*
Y042057D01*
Y039223D02*
X018118D01*
X014692Y042057D02*
X018118D01*
X016208Y04064D02*
X016602D01*
X016405Y040443D02*
Y040837D01*
X014527Y039243D02*
Y042077D01*
X017953Y039243D02*
Y042077D01*
X014527Y039243D02*
X017953D01*
X014527Y042077D02*
X017953D01*
X016043Y04066D02*
X016437D01*
X01624Y040463D02*
Y040857D01*
X014287Y043088D02*
Y045923D01*
X017713Y043088D02*
Y045923D01*
X014287Y043088D02*
X017713D01*
X014287Y045923D02*
X017713D01*
X015803Y044505D02*
X016197D01*
X016Y044308D02*
Y044702D01*
D130*
X02904Y027933D02*
Y028327D01*
X028843Y02813D02*
X029237D01*
X027166Y026083D02*
Y030177D01*
Y026083D02*
X030914D01*
Y030177D01*
X027166D02*
X030914D01*
X022766D02*
X026514D01*
Y026083D02*
Y030177D01*
X022766Y026083D02*
X026514D01*
X022766D02*
Y030177D01*
X024443Y02813D02*
X024837D01*
X02464Y027933D02*
Y028327D01*
X031336Y049581D02*
X032024D01*
X031336Y048164D02*
Y049581D01*
Y048164D02*
X032024D01*
Y049581D01*
X031483Y048872D02*
X031877D01*
X03168Y048675D02*
Y049069D01*
X027636Y049581D02*
X028324D01*
X027636Y048164D02*
Y049581D01*
Y048164D02*
X028324D01*
Y049581D01*
X027783Y048872D02*
X028177D01*
X02798Y048675D02*
Y049069D01*
X026796Y049584D02*
X027484D01*
X026796Y048166D02*
Y049584D01*
Y048166D02*
X027484D01*
Y049584D01*
X026943Y048875D02*
X027337D01*
X02714Y048678D02*
Y049072D01*
X028561Y048164D02*
X02925D01*
Y049581D01*
X028561D02*
X02925D01*
X028561Y048164D02*
Y049581D01*
X028709Y048872D02*
X029103D01*
X028906Y048675D02*
Y049069D01*
X032176Y049596D02*
X032864D01*
X032176Y048179D02*
Y049596D01*
Y048179D02*
X032864D01*
Y049596D01*
X032323Y048888D02*
X032717D01*
X03252Y048691D02*
Y049085D01*
X033156Y049596D02*
X033844D01*
X033156Y048179D02*
Y049596D01*
Y048179D02*
X033844D01*
Y049596D01*
X033303Y048888D02*
X033697D01*
X0335Y048691D02*
Y049085D01*
X034107Y049596D02*
X034796D01*
X034107Y048179D02*
Y049596D01*
Y048179D02*
X034796D01*
Y049596D01*
X034255Y048888D02*
X034648D01*
X034452Y048691D02*
Y049085D01*
X02984Y048675D02*
Y049069D01*
X029643Y048872D02*
X030037D01*
X030184Y048164D02*
Y049581D01*
X029496Y048164D02*
X030184D01*
X029496D02*
Y049581D01*
X030184D01*
X030376Y049589D02*
X031064D01*
X030376Y048171D02*
Y049589D01*
Y048171D02*
X031064D01*
Y049589D01*
X030523Y04888D02*
X030917D01*
X03072Y048683D02*
Y049077D01*
X045169Y049066D02*
Y049754D01*
X043751D02*
X045169D01*
X043751Y049066D02*
Y049754D01*
Y049066D02*
X045169D01*
X04446Y049213D02*
Y049607D01*
X044263Y04941D02*
X044657D01*
X022833Y040565D02*
X023227D01*
X02303Y040368D02*
Y040762D01*
X021495Y041333D02*
X024565D01*
Y039797D02*
Y041333D01*
X021495Y039797D02*
X024565D01*
X021495D02*
Y041333D01*
X02447Y04404D02*
Y044434D01*
X024273Y044237D02*
X024667D01*
X023702Y042702D02*
Y045772D01*
X025238D01*
Y042702D02*
Y045772D01*
X023702Y042702D02*
X025238D01*
X02208Y044043D02*
Y044437D01*
X021883Y04424D02*
X022277D01*
X021312Y042705D02*
Y045775D01*
X022848D01*
Y042705D02*
Y045775D01*
X021312Y042705D02*
X022848D01*
X02447Y04724D02*
Y047634D01*
X024273Y047437D02*
X024667D01*
X023702Y045902D02*
Y048972D01*
X025238D01*
Y045902D02*
Y048972D01*
X023702Y045902D02*
X025238D01*
X02208Y047163D02*
Y047557D01*
X021883Y04736D02*
X022277D01*
X022848Y045825D02*
Y048895D01*
X021312Y045825D02*
X022848D01*
X021312D02*
Y048895D01*
X022848D01*
X011614Y034252D02*
X012008D01*
X011811Y034055D02*
Y034449D01*
X010157Y030984D02*
X013465D01*
Y03752D01*
X010157D02*
X013465D01*
X010157Y030984D02*
Y03752D01*
X011803Y04216D02*
X012197D01*
X012Y041963D02*
Y042357D01*
X01389Y040347D02*
Y043973D01*
X01011Y040347D02*
X01389D01*
X01011D02*
Y043973D01*
X01389D01*
X011723Y04624D02*
X012117D01*
X01192Y046043D02*
Y046437D01*
X01381Y044427D02*
Y048053D01*
X01003Y044427D02*
X01381D01*
X01003D02*
Y048053D01*
X01381D01*
X031979Y02235D02*
Y02613D01*
Y02235D02*
X038605D01*
Y02613D01*
X031979D02*
X038605D01*
X035095Y02424D02*
X035489D01*
X035292Y024043D02*
Y024437D01*
X025327Y02235D02*
Y02613D01*
Y02235D02*
X031953D01*
Y02613D01*
X025327D02*
X031953D01*
X028443Y02424D02*
X028837D01*
X02864Y024043D02*
Y024437D01*
X018687Y02235D02*
Y02613D01*
Y02235D02*
X025313D01*
Y02613D01*
X018687D02*
X025313D01*
X021803Y02424D02*
X022197D01*
X022Y024043D02*
Y024437D01*
X011967Y02235D02*
Y02613D01*
Y02235D02*
X018593D01*
Y02613D01*
X011967D02*
X018593D01*
X015083Y02424D02*
X015477D01*
X01528Y024043D02*
Y024437D01*
M02*
