G04*
G04 #@! TF.GenerationSoftware,Altium Limited,Altium Designer,18.1.6 (161)*
G04*
G04 Layer_Color=16711935*
%FSTAX24Y24*%
%MOIN*%
G70*
G01*
G75*
%ADD13C,0.0050*%
%ADD18C,0.0060*%
%ADD20C,0.0030*%
%ADD127C,0.0000*%
%ADD128C,0.0010*%
%ADD129C,0.0039*%
G36*
X02714Y048967D02*
X027002Y048757D01*
X027278D01*
X02714Y048967D01*
D02*
G37*
G36*
X02798Y048964D02*
X027842Y048754D01*
X028118D01*
X02798Y048964D01*
D02*
G37*
G36*
X028906Y04878D02*
X029043Y04899D01*
X028768D01*
X028906Y04878D01*
D02*
G37*
G36*
X02984Y048964D02*
X029702Y048754D01*
X029978D01*
X02984Y048964D01*
D02*
G37*
G36*
X03072Y048972D02*
X030582Y048762D01*
X030858D01*
X03072Y048972D01*
D02*
G37*
G36*
X03168Y048964D02*
X031542Y048754D01*
X031818D01*
X03168Y048964D01*
D02*
G37*
G36*
X03252Y048979D02*
X032382Y04877D01*
X032658D01*
X03252Y048979D01*
D02*
G37*
G36*
X0335D02*
X033362Y04877D01*
X033638D01*
X0335Y048979D01*
D02*
G37*
G36*
X034452D02*
X034314Y04877D01*
X034589D01*
X034452Y048979D01*
D02*
G37*
G36*
X044552Y04941D02*
X044342Y049548D01*
Y049272D01*
X044552Y04941D01*
D02*
G37*
D13*
X02248Y036902D02*
X03048D01*
X02248Y030902D02*
Y036902D01*
Y030902D02*
X03048D01*
Y036902D01*
X02192Y030902D02*
Y036902D01*
X01392Y030902D02*
X02192D01*
X01392D02*
Y036902D01*
X02192D01*
D18*
X029932Y027428D02*
X030142D01*
X030028Y027275D01*
X030085D01*
X030123Y027256D01*
X030142Y027237D01*
X030161Y02718D01*
Y027142D01*
X030142Y027085D01*
X030104Y027047D01*
X030047Y027028D01*
X02999D01*
X029932Y027047D01*
X029913Y027066D01*
X029894Y027104D01*
X027949Y027351D02*
X027988Y02737D01*
X028045Y027428D01*
Y027028D01*
X027839Y029239D02*
X027801Y02922D01*
X027763Y029181D01*
X027744Y029143D01*
X027725Y029086D01*
Y028991D01*
X027744Y028934D01*
X027763Y028896D01*
X027801Y028858D01*
X027839Y028839D01*
X027915D01*
X027954Y028858D01*
X027992Y028896D01*
X028011Y028934D01*
X02803Y028991D01*
Y029086D01*
X028011Y029143D01*
X027992Y029181D01*
X027954Y02922D01*
X027915Y029239D01*
X027839D01*
X028123D02*
Y028839D01*
Y029239D02*
X02839Y028839D01*
Y029239D02*
Y028839D01*
X028913Y027332D02*
Y027351D01*
X028932Y027389D01*
X028951Y027409D01*
X02899Y027428D01*
X029066D01*
X029104Y027409D01*
X029123Y027389D01*
X029142Y027351D01*
Y027313D01*
X029123Y027275D01*
X029085Y027218D01*
X028894Y027028D01*
X029161D01*
X024513Y027332D02*
Y027351D01*
X024532Y027389D01*
X024551Y027409D01*
X02459Y027428D01*
X024666D01*
X024704Y027409D01*
X024723Y027389D01*
X024742Y027351D01*
Y027313D01*
X024723Y027275D01*
X024685Y027218D01*
X024494Y027028D01*
X024761D01*
X023439Y029239D02*
X023401Y02922D01*
X023363Y029181D01*
X023344Y029143D01*
X023325Y029086D01*
Y028991D01*
X023344Y028934D01*
X023363Y028896D01*
X023401Y028858D01*
X023439Y028839D01*
X023515D01*
X023554Y028858D01*
X023592Y028896D01*
X023611Y028934D01*
X02363Y028991D01*
Y029086D01*
X023611Y029143D01*
X023592Y029181D01*
X023554Y02922D01*
X023515Y029239D01*
X023439D01*
X023723D02*
Y028839D01*
Y029239D02*
X02399Y028839D01*
Y029239D02*
Y028839D01*
X023549Y027351D02*
X023588Y02737D01*
X023645Y027428D01*
Y027028D01*
X025532Y027428D02*
X025742D01*
X025628Y027275D01*
X025685D01*
X025723Y027256D01*
X025742Y027237D01*
X025761Y02718D01*
Y027142D01*
X025742Y027085D01*
X025704Y027047D01*
X025647Y027028D01*
X02559D01*
X025532Y027047D01*
X025513Y027066D01*
X025494Y027104D01*
D20*
X026167Y034671D02*
X0265Y034338D01*
Y034671D02*
X026167Y034338D01*
X026334Y034671D02*
Y034338D01*
X0265Y034505D02*
X026167D01*
X035553Y03147D02*
X035887Y031137D01*
Y03147D02*
X035553Y031137D01*
X03572Y03147D02*
Y031137D01*
X035887Y031303D02*
X035553D01*
X045365Y045864D02*
X045032Y046198D01*
X045365D02*
X045032Y045864D01*
X045365Y046031D02*
X045032D01*
X045198Y046198D02*
Y045864D01*
X032252Y034845D02*
X032586Y035178D01*
Y034845D02*
X032252Y035178D01*
X032419Y034845D02*
Y035178D01*
X032586Y035012D02*
X032252D01*
X016817Y04568D02*
X016483Y045347D01*
Y04568D02*
X016817Y045347D01*
X01665Y04568D02*
Y045347D01*
X016483Y045513D02*
X016817D01*
D127*
X026054Y033791D02*
G03*
X026054Y034031I0J00012D01*
G01*
X03544Y02988D02*
G03*
X03544Y03012I0J00012D01*
G01*
D128*
X026054Y034696D02*
X029494D01*
X026054Y033126D02*
Y034696D01*
Y033126D02*
X029494D01*
Y034696D01*
X026179Y032691D02*
Y033126D01*
Y032691D02*
X026369D01*
Y033126D01*
X026179D02*
X026369D01*
X026679Y032691D02*
Y033126D01*
Y032691D02*
X026869D01*
Y033126D01*
X026679D02*
X026869D01*
X027179Y032691D02*
Y033126D01*
Y032691D02*
X027369D01*
Y033126D01*
X027179D02*
X027369D01*
X027679Y032691D02*
Y033126D01*
Y032691D02*
X027869D01*
Y033126D01*
X027679D02*
X027869D01*
X028179Y032691D02*
Y033126D01*
Y032691D02*
X028369D01*
Y033126D01*
X028179D02*
X028369D01*
X028679Y032691D02*
Y033126D01*
Y032691D02*
X028869D01*
Y033126D01*
X028679D02*
X028869D01*
X029179Y032691D02*
Y033126D01*
Y032691D02*
X029369D01*
Y033126D01*
X029179D02*
X029369D01*
Y034696D02*
Y035131D01*
X029179D02*
X029369D01*
X029179Y034696D02*
Y035131D01*
Y034696D02*
X029369D01*
X028869D02*
Y035131D01*
X028679D02*
X028869D01*
X028679Y034696D02*
Y035131D01*
Y034696D02*
X028869D01*
X028369D02*
Y035131D01*
X028179D02*
X028369D01*
X028179Y034696D02*
Y035131D01*
Y034696D02*
X028369D01*
X027869D02*
Y035131D01*
X027679D02*
X027869D01*
X027679Y034696D02*
Y035131D01*
Y034696D02*
X027869D01*
X027369D02*
Y035131D01*
X027179D02*
X027369D01*
X027179Y034696D02*
Y035131D01*
Y034696D02*
X027369D01*
X026869D02*
Y035131D01*
X026679D02*
X026869D01*
X026679Y034696D02*
Y035131D01*
Y034696D02*
X026869D01*
X026369D02*
Y035131D01*
X026179D02*
X026369D01*
X026179Y034696D02*
Y035131D01*
Y034696D02*
X026369D01*
X035655Y031495D02*
X035845D01*
X035655D02*
Y032095D01*
X035845D01*
Y031495D02*
Y032095D01*
X036155Y031495D02*
X036345D01*
X036155D02*
Y032095D01*
X036345D01*
Y031495D02*
Y032095D01*
X036655Y031495D02*
X036845D01*
X036655D02*
Y032095D01*
X036845D01*
Y031495D02*
Y032095D01*
X037155Y031495D02*
X037345D01*
X037155D02*
Y032095D01*
X037345D01*
Y031495D02*
Y032095D01*
X037655Y031495D02*
X037845D01*
X037655D02*
Y032095D01*
X037845D01*
Y031495D02*
Y032095D01*
X038155Y031495D02*
X038345D01*
X038155D02*
Y032095D01*
X038345D01*
Y031495D02*
Y032095D01*
X038655Y031495D02*
X038845D01*
X038655D02*
Y032095D01*
X038845D01*
Y031495D02*
Y032095D01*
X039155Y031495D02*
X039345D01*
X039155D02*
Y032095D01*
X039345D01*
Y031495D02*
Y032095D01*
X039655Y031495D02*
X039845D01*
X039655D02*
Y032095D01*
X039845D01*
Y031495D02*
Y032095D01*
X040155Y031495D02*
X040345D01*
X040155D02*
Y032095D01*
X040345D01*
Y031495D02*
Y032095D01*
X040155Y028505D02*
X040345D01*
Y027905D02*
Y028505D01*
X040155Y027905D02*
X040345D01*
X040155D02*
Y028505D01*
X039655D02*
X039845D01*
Y027905D02*
Y028505D01*
X039655Y027905D02*
X039845D01*
X039655D02*
Y028505D01*
X039155D02*
X039345D01*
Y027905D02*
Y028505D01*
X039155Y027905D02*
X039345D01*
X039155D02*
Y028505D01*
X038655D02*
X038845D01*
Y027905D02*
Y028505D01*
X038655Y027905D02*
X038845D01*
X038655D02*
Y028505D01*
X038155D02*
X038345D01*
Y027905D02*
Y028505D01*
X038155Y027905D02*
X038345D01*
X038155D02*
Y028505D01*
X037655D02*
X037845D01*
Y027905D02*
Y028505D01*
X037655Y027905D02*
X037845D01*
X037655D02*
Y028505D01*
X037155D02*
X037345D01*
Y027905D02*
Y028505D01*
X037155Y027905D02*
X037345D01*
X037155D02*
Y028505D01*
X036655D02*
X036845D01*
Y027905D02*
Y028505D01*
X036655Y027905D02*
X036845D01*
X036655D02*
Y028505D01*
X036155D02*
X036345D01*
Y027905D02*
Y028505D01*
X036155Y027905D02*
X036345D01*
X036155D02*
Y028505D01*
X035655D02*
X035845D01*
Y027905D02*
Y028505D01*
X035655Y027905D02*
X035845D01*
X035655D02*
Y028505D01*
X04056D02*
Y031495D01*
X03544Y028505D02*
X04056D01*
X03544D02*
Y031495D01*
X04056D01*
X045Y045735D02*
X0455Y046235D01*
X043864Y045735D02*
X043984D01*
X043864D02*
X043984D01*
X044061D02*
X044181D01*
X044061D02*
X044181D01*
X044258D02*
X044378D01*
X044258D02*
X044378D01*
X044455D02*
X044575D01*
X044455D02*
X044575D01*
X044652D02*
X044772D01*
X044652D02*
X044772D01*
X044849D02*
X044969D01*
X044849D02*
X044969D01*
X045046D02*
X045166D01*
X045046D02*
X045166D01*
X0455Y046069D02*
Y046189D01*
Y046069D02*
Y046189D01*
Y046266D02*
Y046386D01*
Y046266D02*
Y046386D01*
Y046463D02*
Y046583D01*
Y046463D02*
Y046583D01*
Y04666D02*
Y04678D01*
Y04666D02*
Y04678D01*
Y046857D02*
Y046977D01*
Y046857D02*
Y046977D01*
Y047054D02*
Y047174D01*
Y047054D02*
Y047174D01*
Y047251D02*
Y047371D01*
Y047251D02*
Y047371D01*
X045046Y047705D02*
X045166D01*
X045046D02*
X045166D01*
X044849D02*
X044969D01*
X044849D02*
X044969D01*
X044652D02*
X044772D01*
X044652D02*
X044772D01*
X044455D02*
X044575D01*
X044455D02*
X044575D01*
X044258D02*
X044378D01*
X044258D02*
X044378D01*
X044061D02*
X044181D01*
X044061D02*
X044181D01*
X043864D02*
X043984D01*
X043864D02*
X043984D01*
X04353Y047251D02*
Y047371D01*
Y047251D02*
Y047371D01*
Y047054D02*
Y047174D01*
Y047054D02*
Y047174D01*
Y046857D02*
Y046977D01*
Y046857D02*
Y046977D01*
Y04666D02*
Y04678D01*
Y04666D02*
Y04678D01*
Y046463D02*
Y046583D01*
Y046463D02*
Y046583D01*
Y046266D02*
Y046386D01*
Y046266D02*
Y046386D01*
Y046069D02*
Y046189D01*
Y046069D02*
Y046189D01*
Y047705D02*
X0455D01*
X04353Y045735D02*
Y047705D01*
Y045735D02*
X0455D01*
Y047705D01*
X03218Y037268D02*
Y037378D01*
X03179D02*
X03218D01*
X03179Y037268D02*
Y037378D01*
Y037268D02*
X03218D01*
Y037071D02*
Y037181D01*
X03179D02*
X03218D01*
X03179Y037071D02*
Y037181D01*
Y037071D02*
X03218D01*
Y036874D02*
Y036984D01*
X03179D02*
X03218D01*
X03179Y036874D02*
Y036984D01*
Y036874D02*
X03218D01*
Y036677D02*
Y036787D01*
X03179D02*
X03218D01*
X03179Y036677D02*
Y036787D01*
Y036677D02*
X03218D01*
Y03648D02*
Y03659D01*
X03179D02*
X03218D01*
X03179Y03648D02*
Y03659D01*
Y03648D02*
X03218D01*
Y036283D02*
Y036393D01*
X03179D02*
X03218D01*
X03179Y036283D02*
Y036393D01*
Y036283D02*
X03218D01*
Y036087D02*
Y036197D01*
X03179D02*
X03218D01*
X03179Y036087D02*
Y036197D01*
Y036087D02*
X03218D01*
Y03589D02*
Y036D01*
X03179D02*
X03218D01*
X03179Y03589D02*
Y036D01*
Y03589D02*
X03218D01*
Y035693D02*
Y035803D01*
X03179D02*
X03218D01*
X03179Y035693D02*
Y035803D01*
Y035693D02*
X03218D01*
Y035496D02*
Y035606D01*
X03179D02*
X03218D01*
X03179Y035496D02*
Y035606D01*
Y035496D02*
X03218D01*
Y035299D02*
Y035409D01*
X03179D02*
X03218D01*
X03179Y035299D02*
Y035409D01*
Y035299D02*
X03218D01*
Y035102D02*
Y035212D01*
X03179D02*
X03218D01*
X03179Y035102D02*
Y035212D01*
Y035102D02*
X03218D01*
X032462Y03482D02*
X032572D01*
X032462Y03443D02*
Y03482D01*
Y03443D02*
X032572D01*
Y03482D01*
X032659D02*
X032769D01*
X032659Y03443D02*
Y03482D01*
Y03443D02*
X032769D01*
Y03482D01*
X032856D02*
X032966D01*
X032856Y03443D02*
Y03482D01*
Y03443D02*
X032966D01*
Y03482D01*
X033053D02*
X033163D01*
X033053Y03443D02*
Y03482D01*
Y03443D02*
X033163D01*
Y03482D01*
X03325D02*
X03336D01*
X03325Y03443D02*
Y03482D01*
Y03443D02*
X03336D01*
Y03482D01*
X033447D02*
X033557D01*
X033447Y03443D02*
Y03482D01*
Y03443D02*
X033557D01*
Y03482D01*
X033643D02*
X033753D01*
X033643Y03443D02*
Y03482D01*
Y03443D02*
X033753D01*
Y03482D01*
X03384D02*
X03395D01*
X03384Y03443D02*
Y03482D01*
Y03443D02*
X03395D01*
Y03482D01*
X034037D02*
X034147D01*
X034037Y03443D02*
Y03482D01*
Y03443D02*
X034147D01*
Y03482D01*
X034234D02*
X034344D01*
X034234Y03443D02*
Y03482D01*
Y03443D02*
X034344D01*
Y03482D01*
X034431D02*
X034541D01*
X034431Y03443D02*
Y03482D01*
Y03443D02*
X034541D01*
Y03482D01*
X034628D02*
X034738D01*
X034628Y03443D02*
Y03482D01*
Y03443D02*
X034738D01*
Y03482D01*
X03502Y035102D02*
Y035212D01*
Y035102D02*
X03541D01*
Y035212D01*
X03502D02*
X03541D01*
X03502Y035299D02*
Y035409D01*
Y035299D02*
X03541D01*
Y035409D01*
X03502D02*
X03541D01*
X03502Y035496D02*
Y035606D01*
Y035496D02*
X03541D01*
Y035606D01*
X03502D02*
X03541D01*
X03502Y035693D02*
Y035803D01*
Y035693D02*
X03541D01*
Y035803D01*
X03502D02*
X03541D01*
X03502Y03589D02*
Y036D01*
Y03589D02*
X03541D01*
Y036D01*
X03502D02*
X03541D01*
X03502Y036087D02*
Y036197D01*
Y036087D02*
X03541D01*
Y036197D01*
X03502D02*
X03541D01*
X03502Y036283D02*
Y036393D01*
Y036283D02*
X03541D01*
Y036393D01*
X03502D02*
X03541D01*
X03502Y03648D02*
Y03659D01*
Y03648D02*
X03541D01*
Y03659D01*
X03502D02*
X03541D01*
X03502Y036677D02*
Y036787D01*
Y036677D02*
X03541D01*
Y036787D01*
X03502D02*
X03541D01*
X03502Y036874D02*
Y036984D01*
Y036874D02*
X03541D01*
Y036984D01*
X03502D02*
X03541D01*
X03502Y037071D02*
Y037181D01*
Y037071D02*
X03541D01*
Y037181D01*
X03502D02*
X03541D01*
X03502Y037268D02*
Y037378D01*
Y037268D02*
X03541D01*
Y037378D01*
X03502D02*
X03541D01*
X034628Y03766D02*
X034738D01*
Y03805D01*
X034628D02*
X034738D01*
X034628Y03766D02*
Y03805D01*
X034431Y03766D02*
X034541D01*
Y03805D01*
X034431D02*
X034541D01*
X034431Y03766D02*
Y03805D01*
X034234Y03766D02*
X034344D01*
Y03805D01*
X034234D02*
X034344D01*
X034234Y03766D02*
Y03805D01*
X034037Y03766D02*
X034147D01*
Y03805D01*
X034037D02*
X034147D01*
X034037Y03766D02*
Y03805D01*
X03384Y03766D02*
X03395D01*
Y03805D01*
X03384D02*
X03395D01*
X03384Y03766D02*
Y03805D01*
X033643Y03766D02*
X033753D01*
Y03805D01*
X033643D02*
X033753D01*
X033643Y03766D02*
Y03805D01*
X033447Y03766D02*
X033557D01*
Y03805D01*
X033447D02*
X033557D01*
X033447Y03766D02*
Y03805D01*
X03325Y03766D02*
X03336D01*
Y03805D01*
X03325D02*
X03336D01*
X03325Y03766D02*
Y03805D01*
X033053Y03766D02*
X033163D01*
Y03805D01*
X033053D02*
X033163D01*
X033053Y03766D02*
Y03805D01*
X032856Y03766D02*
X032966D01*
Y03805D01*
X032856D02*
X032966D01*
X032856Y03766D02*
Y03805D01*
X032659Y03766D02*
X032769D01*
Y03805D01*
X032659D02*
X032769D01*
X032659Y03766D02*
Y03805D01*
X032462Y03766D02*
X032572D01*
Y03805D01*
X032462D02*
X032572D01*
X032462Y03766D02*
Y03805D01*
X03218Y03532D02*
X03268Y03482D01*
X03502D02*
Y03766D01*
X03218D02*
X03502D01*
X03218Y03482D02*
Y03766D01*
Y03482D02*
X03502D01*
X01655Y046561D02*
X02078D01*
Y042471D02*
Y046561D01*
X01655Y042471D02*
X02078D01*
X01655D02*
Y046561D01*
X01586Y044241D02*
X01655D01*
X01586D02*
Y044791D01*
X01655D01*
X01454Y043291D02*
X01655D01*
X01454D02*
Y043661D01*
X01655D01*
Y043291D02*
Y043661D01*
X01454Y04537D02*
X01655D01*
X01454D02*
Y04574D01*
X01655D01*
Y04537D02*
Y04574D01*
D129*
X027284Y026181D02*
Y030079D01*
Y026181D02*
X030796D01*
Y030079D01*
X027284D02*
X030796D01*
X022884D02*
X026396D01*
X026396Y026181D02*
Y030079D01*
X022884Y026181D02*
X026396D01*
X022884D02*
Y030079D01*
X031926Y048479D02*
Y049266D01*
X031434D02*
X031926D01*
X031434Y048479D02*
Y049266D01*
Y048479D02*
X031926D01*
X028226Y048479D02*
Y049266D01*
X027734D02*
X028226D01*
X027734Y048479D02*
Y049266D01*
Y048479D02*
X028226D01*
X027386Y048481D02*
Y049269D01*
X026894D02*
X027386D01*
X026894Y048481D02*
Y049269D01*
Y048481D02*
X027386D01*
X02866Y048479D02*
Y049266D01*
Y048479D02*
X029152D01*
Y049266D01*
X02866D02*
X029152D01*
X032766Y048494D02*
Y049281D01*
X032274D02*
X032766D01*
X032274Y048494D02*
Y049281D01*
Y048494D02*
X032766D01*
X033746D02*
Y049281D01*
X033254D02*
X033746D01*
X033254Y048494D02*
Y049281D01*
Y048494D02*
X033746D01*
X034698D02*
Y049281D01*
X034206D02*
X034698D01*
X034206Y048494D02*
Y049281D01*
Y048494D02*
X034698D01*
X029594Y048479D02*
X030086D01*
X029594D02*
Y049266D01*
X030086D01*
Y048479D02*
Y049266D01*
X030966Y048486D02*
Y049274D01*
X030474D02*
X030966D01*
X030474Y048486D02*
Y049274D01*
Y048486D02*
X030966D01*
X044066Y049164D02*
X044854D01*
Y049656D01*
X044066D02*
X044854D01*
X044066Y049164D02*
Y049656D01*
X021849Y039876D02*
Y041254D01*
Y039876D02*
X024211D01*
Y041254D01*
X021849D02*
X024211D01*
X023781Y043056D02*
X025159D01*
Y045418D01*
X023781D02*
X025159D01*
X023781Y043056D02*
Y045418D01*
X021391Y043059D02*
X022769D01*
Y045421D01*
X021391D02*
X022769D01*
X021391Y043059D02*
Y045421D01*
X023781Y046256D02*
X025159D01*
Y048618D01*
X023781D02*
X025159D01*
X023781Y046256D02*
Y048618D01*
X021391Y048541D02*
X022769D01*
X021391Y046179D02*
Y048541D01*
Y046179D02*
X022769D01*
Y048541D01*
X011535Y032165D02*
Y032402D01*
Y032165D02*
X011929D01*
X011535Y032402D02*
X011929D01*
X011933Y032166D02*
X013386Y032067D01*
X011933Y032401D02*
X013386Y0325D01*
X011933Y034369D02*
X013386Y034469D01*
X011933Y034135D02*
X013386Y034035D01*
X011535Y03437D02*
X011929D01*
X011535Y034134D02*
X011929D01*
X011535D02*
Y03437D01*
X010289Y031063D02*
X010683D01*
X010289D02*
X010378Y031299D01*
X010594D02*
X010683Y031063D01*
X010236Y031299D02*
Y037205D01*
X013386Y031299D02*
Y037205D01*
X010236Y031299D02*
X010378D01*
X010594D02*
X013386D01*
X010236Y037205D02*
X012539D01*
X012756D02*
X013386D01*
X012756D02*
X012844Y037441D01*
X012451D02*
X012539Y037205D01*
X012451Y037441D02*
X012844D01*
X011933Y036338D02*
X013386Y036437D01*
X011933Y036103D02*
X013386Y036004D01*
X011535Y036339D02*
X011929D01*
X011535Y036102D02*
X011929D01*
X011535D02*
Y036339D01*
X013811Y040426D02*
Y043894D01*
X010189Y040426D02*
X013811D01*
X010189D02*
Y043894D01*
X013811D01*
X013731Y044506D02*
Y047974D01*
X010109Y044506D02*
X013731D01*
X010109D02*
Y047974D01*
X013731D01*
X032058Y022429D02*
Y026051D01*
Y022429D02*
X038526D01*
Y026051D01*
X032058D02*
X038526D01*
X025406Y022429D02*
Y026051D01*
Y022429D02*
X031874D01*
Y026051D01*
X025406D02*
X031874D01*
X018766Y022429D02*
Y026051D01*
Y022429D02*
X025234D01*
Y026051D01*
X018766D02*
X025234D01*
X012046Y022429D02*
Y026051D01*
Y022429D02*
X018514D01*
Y026051D01*
X012046D02*
X018514D01*
M02*
