G04*
G04 #@! TF.GenerationSoftware,Altium Limited,Altium Designer,18.1.6 (161)*
G04*
G04 Layer_Color=2752767*
%FSTAX24Y24*%
%MOIN*%
G70*
G01*
G75*
%ADD131C,0.0020*%
%ADD132C,0.0027*%
%ADD133C,0.0013*%
D131*
X03944Y02395D02*
Y02411D01*
X0396D01*
Y02395D01*
X03944D01*
Y02496D02*
Y02512D01*
X0396D01*
Y02496D01*
X03944D01*
Y02594D02*
Y0261D01*
X0396D01*
Y02594D01*
X03944D01*
X02176Y02696D02*
Y02712D01*
X02192D01*
Y02696D01*
X02176D01*
Y02797D02*
Y02813D01*
X02192D01*
Y02797D01*
X02176D01*
Y02895D02*
Y02911D01*
X02192D01*
Y02895D01*
X02176D01*
X0327Y04112D02*
X03262Y04128D01*
X03278D01*
X0327Y04112D01*
X0307D02*
X03062Y04128D01*
X03078D01*
X0307Y04112D01*
X0287D02*
X02862Y04128D01*
X02878D01*
X0287Y04112D01*
X0277D02*
X02762Y04128D01*
X02778D01*
X0277Y04112D01*
X0267D02*
X02662Y04128D01*
X02678D01*
X0267Y04112D01*
X0257D02*
X02562Y04128D01*
X02578D01*
X0257Y04112D01*
X0297D02*
X02962Y04128D01*
X02978D01*
X0297Y04112D01*
X0317D02*
X03162Y04128D01*
X03178D01*
X0317Y04112D01*
X0337D02*
X03362Y04128D01*
X03378D01*
X0337Y04112D01*
X0347D02*
X03462Y04128D01*
X03478D01*
X0347Y04112D01*
X04848Y0488D02*
X04852Y04884D01*
X04856D01*
X04852Y04888D01*
X04856Y04892D01*
X04852D01*
X04848Y04896D01*
X04844Y04892D01*
X0484D01*
X04844Y04888D01*
X0484Y04884D01*
X04844D01*
X04848Y0488D01*
Y02344D02*
X04852Y02348D01*
X04856D01*
X04852Y02352D01*
X04856Y02356D01*
X04852D01*
X04848Y0236D01*
X04844Y02356D01*
X0484D01*
X04844Y02352D01*
X0484Y02348D01*
X04844D01*
X04848Y02344D01*
X01112Y0488D02*
X01116Y04884D01*
X0112D01*
X01116Y04888D01*
X0112Y04892D01*
X01116D01*
X01112Y04896D01*
X01108Y04892D01*
X01104D01*
X01108Y04888D01*
X01104Y04884D01*
X01108D01*
X01112Y0488D01*
Y02344D02*
X01116Y02348D01*
X0112D01*
X01116Y02352D01*
X0112Y02356D01*
X01116D01*
X01112Y0236D01*
X01108Y02356D01*
X01104D01*
X01108Y02352D01*
X01104Y02348D01*
X01108D01*
X01112Y02344D01*
X0229Y031322D02*
X02294Y031402D01*
X0229Y031482D01*
X02298Y031442D01*
X02306Y031482D01*
X02302Y031402D01*
X02306Y031322D01*
X02298Y031362D01*
X0229Y031322D01*
X0239D02*
X02394Y031402D01*
X0239Y031482D01*
X02398Y031442D01*
X02406Y031482D01*
X02402Y031402D01*
X02406Y031322D01*
X02398Y031362D01*
X0239Y031322D01*
X0249D02*
X02494Y031402D01*
X0249Y031482D01*
X02498Y031442D01*
X02506Y031482D01*
X02502Y031402D01*
X02506Y031322D01*
X02498Y031362D01*
X0249Y031322D01*
X0259D02*
X02594Y031402D01*
X0259Y031482D01*
X02598Y031442D01*
X02606Y031482D01*
X02602Y031402D01*
X02606Y031322D01*
X02598Y031362D01*
X0259Y031322D01*
X0299D02*
X02994Y031402D01*
X0299Y031482D01*
X02998Y031442D01*
X03006Y031482D01*
X03002Y031402D01*
X03006Y031322D01*
X02998Y031362D01*
X0299Y031322D01*
X0289D02*
X02894Y031402D01*
X0289Y031482D01*
X02898Y031442D01*
X02906Y031482D01*
X02902Y031402D01*
X02906Y031322D01*
X02898Y031362D01*
X0289Y031322D01*
X0279D02*
X02794Y031402D01*
X0279Y031482D01*
X02798Y031442D01*
X02806Y031482D01*
X02802Y031402D01*
X02806Y031322D01*
X02798Y031362D01*
X0279Y031322D01*
X0299Y036322D02*
X02994Y036402D01*
X0299Y036482D01*
X02998Y036442D01*
X03006Y036482D01*
X03002Y036402D01*
X03006Y036322D01*
X02998Y036362D01*
X0299Y036322D01*
X0289D02*
X02894Y036402D01*
X0289Y036482D01*
X02898Y036442D01*
X02906Y036482D01*
X02902Y036402D01*
X02906Y036322D01*
X02898Y036362D01*
X0289Y036322D01*
X0279D02*
X02794Y036402D01*
X0279Y036482D01*
X02798Y036442D01*
X02806Y036482D01*
X02802Y036402D01*
X02806Y036322D01*
X02798Y036362D01*
X0279Y036322D01*
X0229D02*
X02294Y036402D01*
X0229Y036482D01*
X02298Y036442D01*
X02306Y036482D01*
X02302Y036402D01*
X02306Y036322D01*
X02298Y036362D01*
X0229Y036322D01*
X0239D02*
X02394Y036402D01*
X0239Y036482D01*
X02398Y036442D01*
X02406Y036482D01*
X02402Y036402D01*
X02406Y036322D01*
X02398Y036362D01*
X0239Y036322D01*
X0249D02*
X02494Y036402D01*
X0249Y036482D01*
X02498Y036442D01*
X02506Y036482D01*
X02502Y036402D01*
X02506Y036322D01*
X02498Y036362D01*
X0249Y036322D01*
X0259D02*
X02594Y036402D01*
X0259Y036482D01*
X02598Y036442D01*
X02606Y036482D01*
X02602Y036402D01*
X02606Y036322D01*
X02598Y036362D01*
X0259Y036322D01*
X0269Y031322D02*
X02694Y031402D01*
X0269Y031482D01*
X02698Y031442D01*
X02706Y031482D01*
X02702Y031402D01*
X02706Y031322D01*
X02698Y031362D01*
X0269Y031322D01*
Y036322D02*
X02694Y036402D01*
X0269Y036482D01*
X02698Y036442D01*
X02706Y036482D01*
X02702Y036402D01*
X02706Y036322D01*
X02698Y036362D01*
X0269Y036322D01*
X01834Y036322D02*
X01838Y036402D01*
X01834Y036482D01*
X01842Y036442D01*
X0185Y036482D01*
X01846Y036402D01*
X0185Y036322D01*
X01842Y036362D01*
X01834Y036322D01*
Y031322D02*
X01838Y031402D01*
X01834Y031482D01*
X01842Y031442D01*
X0185Y031482D01*
X01846Y031402D01*
X0185Y031322D01*
X01842Y031362D01*
X01834Y031322D01*
X01734Y036322D02*
X01738Y036402D01*
X01734Y036482D01*
X01742Y036442D01*
X0175Y036482D01*
X01746Y036402D01*
X0175Y036322D01*
X01742Y036362D01*
X01734Y036322D01*
X01634D02*
X01638Y036402D01*
X01634Y036482D01*
X01642Y036442D01*
X0165Y036482D01*
X01646Y036402D01*
X0165Y036322D01*
X01642Y036362D01*
X01634Y036322D01*
X01534D02*
X01538Y036402D01*
X01534Y036482D01*
X01542Y036442D01*
X0155Y036482D01*
X01546Y036402D01*
X0155Y036322D01*
X01542Y036362D01*
X01534Y036322D01*
X01434D02*
X01438Y036402D01*
X01434Y036482D01*
X01442Y036442D01*
X0145Y036482D01*
X01446Y036402D01*
X0145Y036322D01*
X01442Y036362D01*
X01434Y036322D01*
X01934D02*
X01938Y036402D01*
X01934Y036482D01*
X01942Y036442D01*
X0195Y036482D01*
X01946Y036402D01*
X0195Y036322D01*
X01942Y036362D01*
X01934Y036322D01*
X02034D02*
X02038Y036402D01*
X02034Y036482D01*
X02042Y036442D01*
X0205Y036482D01*
X02046Y036402D01*
X0205Y036322D01*
X02042Y036362D01*
X02034Y036322D01*
X02134D02*
X02138Y036402D01*
X02134Y036482D01*
X02142Y036442D01*
X0215Y036482D01*
X02146Y036402D01*
X0215Y036322D01*
X02142Y036362D01*
X02134Y036322D01*
X01934Y031322D02*
X01938Y031402D01*
X01934Y031482D01*
X01942Y031442D01*
X0195Y031482D01*
X01946Y031402D01*
X0195Y031322D01*
X01942Y031362D01*
X01934Y031322D01*
X02034D02*
X02038Y031402D01*
X02034Y031482D01*
X02042Y031442D01*
X0205Y031482D01*
X02046Y031402D01*
X0205Y031322D01*
X02042Y031362D01*
X02034Y031322D01*
X02134D02*
X02138Y031402D01*
X02134Y031482D01*
X02142Y031442D01*
X0215Y031482D01*
X02146Y031402D01*
X0215Y031322D01*
X02142Y031362D01*
X02134Y031322D01*
X01734D02*
X01738Y031402D01*
X01734Y031482D01*
X01742Y031442D01*
X0175Y031482D01*
X01746Y031402D01*
X0175Y031322D01*
X01742Y031362D01*
X01734Y031322D01*
X01634D02*
X01638Y031402D01*
X01634Y031482D01*
X01642Y031442D01*
X0165Y031482D01*
X01646Y031402D01*
X0165Y031322D01*
X01642Y031362D01*
X01634Y031322D01*
X01534D02*
X01538Y031402D01*
X01534Y031482D01*
X01542Y031442D01*
X0155Y031482D01*
X01546Y031402D01*
X0155Y031322D01*
X01542Y031362D01*
X01534Y031322D01*
X01434D02*
X01438Y031402D01*
X01434Y031482D01*
X01442Y031442D01*
X0145Y031482D01*
X01446Y031402D01*
X0145Y031322D01*
X01442Y031362D01*
X01434Y031322D01*
X026251Y03962D02*
Y03978D01*
X026411D01*
Y03962D01*
X026251D01*
X027261D02*
Y03978D01*
X027421D01*
Y03962D01*
X027261D01*
X028241D02*
Y03978D01*
X028401D01*
Y03962D01*
X028241D01*
X029251D02*
Y03978D01*
X029411D01*
Y03962D01*
X029251D01*
X0426Y03496D02*
Y03512D01*
X04276D01*
Y03496D01*
X0426D01*
X0436D02*
Y03512D01*
X04376D01*
Y03496D01*
X0436D01*
X0446D02*
Y03512D01*
X04476D01*
Y03496D01*
X0446D01*
X0456D02*
Y03512D01*
X04576D01*
Y03496D01*
X0456D01*
X0466D02*
Y03512D01*
X04676D01*
Y03496D01*
X0466D01*
X0476D02*
Y03512D01*
X04776D01*
Y03496D01*
X0476D01*
X04816Y02624D02*
Y0264D01*
X04832D01*
Y02624D01*
X04816D01*
X04616D02*
Y0264D01*
X04632D01*
Y02624D01*
X04616D01*
X04516D02*
Y0264D01*
X04532D01*
Y02624D01*
X04516D01*
X04416D02*
Y0264D01*
X04432D01*
Y02624D01*
X04416D01*
X04316D02*
Y0264D01*
X04332D01*
Y02624D01*
X04316D01*
X04716D02*
Y0264D01*
X04732D01*
Y02624D01*
X04716D01*
X03152Y03976D02*
Y03992D01*
X03168D01*
Y03976D01*
X03152D01*
X03252D02*
Y03992D01*
X03268D01*
Y03976D01*
X03252D01*
X03352D02*
Y03992D01*
X03368D01*
Y03976D01*
X03352D01*
X03452D02*
Y03992D01*
X03468D01*
Y03976D01*
X03452D01*
X03052D02*
Y03992D01*
X03068D01*
Y03976D01*
X03052D01*
X028251Y0376D02*
Y03776D01*
X028411D01*
Y0376D01*
X028251D01*
X027241D02*
Y03776D01*
X027401D01*
Y0376D01*
X027241D01*
X026261D02*
Y03776D01*
X026421D01*
Y0376D01*
X026261D01*
X040465Y047185D02*
Y047345D01*
X040625D01*
Y047185D01*
X040465D01*
Y048195D02*
Y048355D01*
X040625D01*
Y048195D01*
X040465D01*
Y049175D02*
Y049335D01*
X040625D01*
Y049175D01*
X040465D01*
X01351Y03822D02*
Y03838D01*
X01367D01*
Y03822D01*
X01351D01*
X01452D02*
Y03838D01*
X01468D01*
Y03822D01*
X01452D01*
X0192Y03808D02*
Y03824D01*
X01936D01*
Y03808D01*
X0192D01*
X01819D02*
Y03824D01*
X01835D01*
Y03808D01*
X01819D01*
X038Y041693D02*
Y041853D01*
X03816D01*
Y041693D01*
X038D01*
Y04448D02*
Y04464D01*
X03816D01*
Y04448D01*
X038D01*
X02244Y037583D02*
Y037743D01*
X0226D01*
Y037583D01*
X02244D01*
X02345D02*
Y037743D01*
X02361D01*
Y037583D01*
X02345D01*
X02443D02*
Y037743D01*
X02459D01*
Y037583D01*
X02443D01*
X03867Y04752D02*
Y04768D01*
X03883D01*
Y04752D01*
X03867D01*
X03766D02*
Y04768D01*
X03782D01*
Y04752D01*
X03766D01*
X03668D02*
Y04768D01*
X03684D01*
Y04752D01*
X03668D01*
X036295Y04896D02*
Y04912D01*
X036455D01*
Y04896D01*
X036295D01*
X037305D02*
Y04912D01*
X037465D01*
Y04896D01*
X037305D01*
X038285D02*
Y04912D01*
X038445D01*
Y04896D01*
X038285D01*
X039295D02*
Y04912D01*
X039455D01*
Y04896D01*
X039295D01*
X048693Y047841D02*
Y047801D01*
X048773D01*
Y047841D01*
X048813D01*
Y047921D01*
X048773D01*
Y047961D01*
X048693D01*
Y047921D01*
X048653D01*
Y047841D01*
X048693D01*
X048788Y047801D02*
X048828D01*
X048868Y047841D01*
X048908Y047801D01*
X048948D01*
Y047841D01*
X048908Y047881D01*
X048948Y047921D01*
Y047961D01*
X048908D01*
X048868Y047921D01*
X048828Y047961D01*
X048788D01*
Y047921D01*
X048828Y047881D01*
X048788Y047841D01*
Y047801D01*
X048518D02*
X048558D01*
X048598Y047841D01*
X048638Y047801D01*
X048678D01*
Y047841D01*
X048638Y047881D01*
X048678Y047921D01*
Y047961D01*
X048638D01*
X048598Y047921D01*
X048558Y047961D01*
X048518D01*
Y047921D01*
X048558Y047881D01*
X048518Y047841D01*
Y047801D01*
X048693Y045085D02*
Y045045D01*
X048773D01*
Y045085D01*
X048813D01*
Y045165D01*
X048773D01*
Y045205D01*
X048693D01*
Y045165D01*
X048653D01*
Y045085D01*
X048693D01*
X048788Y045045D02*
X048828D01*
X048868Y045085D01*
X048908Y045045D01*
X048948D01*
Y045085D01*
X048908Y045125D01*
X048948Y045165D01*
Y045205D01*
X048908D01*
X048868Y045165D01*
X048828Y045205D01*
X048788D01*
Y045165D01*
X048828Y045125D01*
X048788Y045085D01*
Y045045D01*
X048518D02*
X048558D01*
X048598Y045085D01*
X048638Y045045D01*
X048678D01*
Y045085D01*
X048638Y045125D01*
X048678Y045165D01*
Y045205D01*
X048638D01*
X048598Y045165D01*
X048558Y045205D01*
X048518D01*
Y045165D01*
X048558Y045125D01*
X048518Y045085D01*
Y045045D01*
X04759Y047488D02*
X04767Y047568D01*
X04775Y047488D01*
X04767Y047408D01*
X04759Y047488D01*
Y045519D02*
X04767Y045599D01*
X04775Y045519D01*
X04767Y045439D01*
X04759Y045519D01*
X03856Y04005D02*
Y04021D01*
X03872D01*
Y04005D01*
X03856D01*
Y03904D02*
Y0392D01*
X03872D01*
Y03904D01*
X03856D01*
Y03806D02*
Y03822D01*
X03872D01*
Y03806D01*
X03856D01*
X03923Y0364D02*
Y03656D01*
X03939D01*
Y0364D01*
X03923D01*
Y03539D02*
Y03555D01*
X03939D01*
Y03539D01*
X03923D01*
Y03331D02*
Y03347D01*
X03939D01*
Y03331D01*
X03923D01*
Y03432D02*
Y03448D01*
X03939D01*
Y03432D01*
X03923D01*
X03372Y02852D02*
Y02868D01*
X03388D01*
Y02852D01*
X03372D01*
Y02952D02*
Y02968D01*
X03388D01*
Y02952D01*
X03372D01*
Y03052D02*
Y03068D01*
X03388D01*
Y03052D01*
X03372D01*
Y03152D02*
Y03168D01*
X03388D01*
Y03152D01*
X03372D01*
X03472D02*
Y03168D01*
X03488D01*
Y03152D01*
X03472D01*
Y03052D02*
Y03068D01*
X03488D01*
Y03052D01*
X03472D01*
Y02952D02*
Y02968D01*
X03488D01*
Y02952D01*
X03472D01*
Y02852D02*
Y02868D01*
X03488D01*
Y02852D01*
X03472D01*
X0208Y04888D02*
Y04904D01*
X02096D01*
Y04888D01*
X0208D01*
X01979D02*
Y04904D01*
X01995D01*
Y04888D01*
X01979D01*
X013179Y04842D02*
Y04858D01*
X013339D01*
Y04842D01*
X013179D01*
Y04943D02*
Y04959D01*
X013339D01*
Y04943D01*
X013179D01*
X011731Y034172D02*
Y034332D01*
X011891D01*
Y034172D01*
X011731D01*
X011771Y034212D02*
Y034292D01*
X011851D01*
Y034212D01*
X011771D01*
X011731Y032203D02*
Y032363D01*
X011891D01*
Y032203D01*
X011731D01*
X011771Y032243D02*
Y032323D01*
X011851D01*
Y032243D01*
X011771D01*
X011731Y03614D02*
Y0363D01*
X011891D01*
Y03614D01*
X011731D01*
X011771Y03618D02*
Y03626D01*
X011851D01*
Y03618D01*
X011771D01*
X037212Y03804D02*
Y0382D01*
X037372D01*
Y03804D01*
X037212D01*
Y03905D02*
Y03921D01*
X037372D01*
Y03905D01*
X037212D01*
Y04003D02*
Y04019D01*
X037372D01*
Y04003D01*
X037212D01*
X046921Y02352D02*
Y02368D01*
X047081D01*
Y02352D01*
X046921D01*
X045871D02*
Y02368D01*
X046031D01*
Y02352D01*
X045871D01*
X044851D02*
Y02368D01*
X045011D01*
Y02352D01*
X044851D01*
X043821D02*
Y02368D01*
X043981D01*
Y02352D01*
X043821D01*
X042771D02*
Y02368D01*
X042931D01*
Y02352D01*
X042771D01*
X041721D02*
Y02368D01*
X041881D01*
Y02352D01*
X041721D01*
X01872Y02907D02*
Y02923D01*
X01888D01*
Y02907D01*
X01872D01*
Y02809D02*
Y02825D01*
X01888D01*
Y02809D01*
X01872D01*
Y02708D02*
Y02724D01*
X01888D01*
Y02708D01*
X01872D01*
X01242Y02903D02*
Y02919D01*
X01258D01*
Y02903D01*
X01242D01*
Y02805D02*
Y02821D01*
X01258D01*
Y02805D01*
X01242D01*
Y02704D02*
Y0272D01*
X01258D01*
Y02704D01*
X01242D01*
X01072Y02911D02*
Y02927D01*
X01088D01*
Y02911D01*
X01072D01*
Y02813D02*
Y02829D01*
X01088D01*
Y02813D01*
X01072D01*
Y02712D02*
Y02728D01*
X01088D01*
Y02712D01*
X01072D01*
X01552Y02903D02*
Y02919D01*
X01568D01*
Y02903D01*
X01552D01*
Y02805D02*
Y02821D01*
X01568D01*
Y02805D01*
X01552D01*
Y02704D02*
Y0272D01*
X01568D01*
Y02704D01*
X01552D01*
X01408Y02907D02*
Y02923D01*
X01424D01*
Y02907D01*
X01408D01*
Y02809D02*
Y02825D01*
X01424D01*
Y02809D01*
X01408D01*
Y02708D02*
Y02724D01*
X01424D01*
Y02708D01*
X01408D01*
X0172Y02907D02*
Y02923D01*
X01736D01*
Y02907D01*
X0172D01*
Y02809D02*
Y02825D01*
X01736D01*
Y02809D01*
X0172D01*
Y02708D02*
Y02724D01*
X01736D01*
Y02708D01*
X0172D01*
X02024Y02903D02*
Y02919D01*
X0204D01*
Y02903D01*
X02024D01*
Y02805D02*
Y02821D01*
X0204D01*
Y02805D01*
X02024D01*
Y02704D02*
Y0272D01*
X0204D01*
Y02704D01*
X02024D01*
X04824Y04189D02*
X04816Y04205D01*
X04832D01*
X04824Y04189D01*
Y04193D02*
X0482Y04201D01*
X04828D01*
X04824Y04193D01*
X049115Y042D02*
X049035Y04216D01*
X049195D01*
X049115Y042D01*
Y04204D02*
X049075Y04212D01*
X049155D01*
X049115Y04204D01*
X049078Y037505D02*
X048998Y037665D01*
X049158D01*
X049078Y037505D01*
Y037545D02*
X049038Y037625D01*
X049118D01*
X049078Y037545D01*
X014075Y04232D02*
X013995Y04248D01*
X014155D01*
X014075Y04232D01*
Y04236D02*
X014035Y04244D01*
X014115D01*
X014075Y04236D01*
X048255Y03346D02*
X048175Y03362D01*
X048335D01*
X048255Y03346D01*
Y0335D02*
X048215Y03358D01*
X048295D01*
X048255Y0335D01*
X039428Y046035D02*
X039348Y046195D01*
X039508D01*
X039428Y046035D01*
Y046075D02*
X039388Y046155D01*
X039468D01*
X039428Y046075D01*
X04156Y038157D02*
X04148Y038317D01*
X04164D01*
X04156Y038157D01*
Y038197D02*
X04152Y038277D01*
X0416D01*
X04156Y038197D01*
X012248Y040213D02*
X012168Y040373D01*
X012328D01*
X012248Y040213D01*
Y040253D02*
X012208Y040333D01*
X012288D01*
X012248Y040253D01*
X013414Y040213D02*
X013334Y040373D01*
X013494D01*
X013414Y040213D01*
Y040253D02*
X013374Y040333D01*
X013454D01*
X013414Y040253D01*
X04479Y048802D02*
X04471Y048962D01*
X04487D01*
X04479Y048802D01*
Y048842D02*
X04475Y048922D01*
X04483D01*
X04479Y048842D01*
X04576Y047885D02*
X04568Y048045D01*
X04584D01*
X04576Y047885D01*
Y047925D02*
X04572Y048005D01*
X0458D01*
X04576Y047925D01*
X043075Y047175D02*
X042995Y047335D01*
X043155D01*
X043075Y047175D01*
Y047215D02*
X043035Y047295D01*
X043115D01*
X043075Y047215D01*
X04301Y048825D02*
X04293Y048985D01*
X04309D01*
X04301Y048825D01*
Y048865D02*
X04297Y048945D01*
X04305D01*
X04301Y048865D01*
X01358Y035165D02*
X0135Y035325D01*
X01366D01*
X01358Y035165D01*
Y035205D02*
X01354Y035285D01*
X01362D01*
X01358Y035205D01*
X01499Y033525D02*
X01491Y033685D01*
X01507D01*
X01499Y033525D01*
Y033565D02*
X01495Y033645D01*
X01503D01*
X01499Y033565D01*
X012725Y03352D02*
X012645Y03368D01*
X012805D01*
X012725Y03352D01*
Y03356D02*
X012685Y03364D01*
X012765D01*
X012725Y03356D01*
X02129Y03751D02*
X02121Y03767D01*
X02137D01*
X02129Y03751D01*
Y03755D02*
X02125Y03763D01*
X02133D01*
X02129Y03755D01*
X022459Y03443D02*
X022379Y03459D01*
X022539D01*
X022459Y03443D01*
Y03447D02*
X022419Y03455D01*
X022499D01*
X022459Y03447D01*
X037009Y02384D02*
X036929Y024D01*
X037089D01*
X037009Y02384D01*
Y02388D02*
X036969Y02396D01*
X037049D01*
X037009Y02388D01*
X0383Y026345D02*
X03822Y026505D01*
X03838D01*
X0383Y026345D01*
Y026385D02*
X03826Y026465D01*
X03834D01*
X0383Y026385D01*
X036365Y026345D02*
X036285Y026505D01*
X036445D01*
X036365Y026345D01*
Y026385D02*
X036325Y026465D01*
X036405D01*
X036365Y026385D01*
X035775Y026715D02*
X035695Y026875D01*
X035855D01*
X035775Y026715D01*
Y026755D02*
X035735Y026835D01*
X035815D01*
X035775Y026755D01*
X02969Y03412D02*
X02961Y03428D01*
X02977D01*
X02969Y03412D01*
Y03416D02*
X02965Y03424D01*
X02973D01*
X02969Y03416D01*
X030365Y033845D02*
X030285Y034005D01*
X030445D01*
X030365Y033845D01*
Y033885D02*
X030325Y033965D01*
X030405D01*
X030365Y033885D01*
X028485Y034155D02*
X028405Y034315D01*
X028565D01*
X028485Y034155D01*
Y034195D02*
X028445Y034275D01*
X028525D01*
X028485Y034195D01*
X027761Y03373D02*
X027681Y03389D01*
X027841D01*
X027761Y03373D01*
Y03377D02*
X027721Y03385D01*
X027801D01*
X027761Y03377D01*
X026975Y033625D02*
X026895Y033785D01*
X027055D01*
X026975Y033625D01*
Y033665D02*
X026935Y033745D01*
X027015D01*
X026975Y033665D01*
X03181Y03386D02*
X03173Y03402D01*
X03189D01*
X03181Y03386D01*
Y0339D02*
X03177Y03398D01*
X03185D01*
X03181Y0339D01*
X024355Y04113D02*
X024275Y04129D01*
X024435D01*
X024355Y04113D01*
Y04117D02*
X024315Y04125D01*
X024395D01*
X024355Y04117D01*
X02129Y04081D02*
X02121Y04097D01*
X02137D01*
X02129Y04081D01*
Y04085D02*
X02125Y04093D01*
X02133D01*
X02129Y04085D01*
Y041435D02*
X02121Y041595D01*
X02137D01*
X02129Y041435D01*
Y041475D02*
X02125Y041555D01*
X02133D01*
X02129Y041475D01*
X033825Y03509D02*
X033745Y03525D01*
X033905D01*
X033825Y03509D01*
Y03513D02*
X033785Y03521D01*
X033865D01*
X033825Y03513D01*
X035Y038055D02*
X03492Y038215D01*
X03508D01*
X035Y038055D01*
Y038095D02*
X03496Y038175D01*
X03504D01*
X035Y038095D01*
X044515Y04664D02*
X044435Y0468D01*
X044595D01*
X044515Y04664D01*
Y04668D02*
X044475Y04676D01*
X044555D01*
X044515Y04668D01*
X02928Y037865D02*
X0292Y038025D01*
X02936D01*
X02928Y037865D01*
Y037905D02*
X02924Y037985D01*
X02932D01*
X02928Y037905D01*
X025672Y038335D02*
X025592Y038495D01*
X025752D01*
X025672Y038335D01*
Y038375D02*
X025632Y038455D01*
X025712D01*
X025672Y038375D01*
X02671Y038335D02*
X02663Y038495D01*
X02679D01*
X02671Y038335D01*
Y038375D02*
X02667Y038455D01*
X02675D01*
X02671Y038375D01*
X024835Y038635D02*
X024755Y038795D01*
X024915D01*
X024835Y038635D01*
Y038675D02*
X024795Y038755D01*
X024875D01*
X024835Y038675D01*
X02992Y03848D02*
X02984Y03864D01*
X03D01*
X02992Y03848D01*
Y03852D02*
X02988Y0386D01*
X02996D01*
X02992Y03852D01*
X03207Y03779D02*
X03199Y03795D01*
X03215D01*
X03207Y03779D01*
Y03783D02*
X03203Y03791D01*
X03211D01*
X03207Y03783D01*
X031818Y038103D02*
X031738Y038263D01*
X031898D01*
X031818Y038103D01*
Y038143D02*
X031778Y038223D01*
X031858D01*
X031818Y038143D01*
X031485Y03838D02*
X031405Y03854D01*
X031565D01*
X031485Y03838D01*
Y03842D02*
X031445Y0385D01*
X031525D01*
X031485Y03842D01*
X03432Y03704D02*
X03424Y0372D01*
X0344D01*
X03432Y03704D01*
Y03708D02*
X03428Y03716D01*
X03436D01*
X03432Y03708D01*
X030792Y037772D02*
X030712Y037932D01*
X030872D01*
X030792Y037772D01*
Y037812D02*
X030752Y037892D01*
X030832D01*
X030792Y037812D01*
X0304Y037955D02*
X03032Y038115D01*
X03048D01*
X0304Y037955D01*
Y037995D02*
X03036Y038075D01*
X03044D01*
X0304Y037995D01*
X03224Y039195D02*
X03216Y039355D01*
X03232D01*
X03224Y039195D01*
Y039235D02*
X0322Y039315D01*
X03228D01*
X03224Y039235D01*
X03278Y033763D02*
X0327Y033923D01*
X03286D01*
X03278Y033763D01*
Y033803D02*
X03274Y033883D01*
X03282D01*
X03278Y033803D01*
X032625Y03318D02*
X032545Y03334D01*
X032705D01*
X032625Y03318D01*
Y03322D02*
X032585Y0333D01*
X032665D01*
X032625Y03322D01*
X03399Y03308D02*
X03391Y03324D01*
X03407D01*
X03399Y03308D01*
Y03312D02*
X03395Y0332D01*
X03403D01*
X03399Y03312D01*
X03387Y033695D02*
X03379Y033855D01*
X03395D01*
X03387Y033695D01*
Y033735D02*
X03383Y033815D01*
X03391D01*
X03387Y033735D01*
X034416Y032716D02*
X034336Y032876D01*
X034496D01*
X034416Y032716D01*
Y032756D02*
X034376Y032836D01*
X034456D01*
X034416Y032756D01*
X03481Y03297D02*
X03473Y03313D01*
X03489D01*
X03481Y03297D01*
Y03301D02*
X03477Y03309D01*
X03485D01*
X03481Y03301D01*
X033465Y032695D02*
X033385Y032855D01*
X033545D01*
X033465Y032695D01*
Y032735D02*
X033425Y032815D01*
X033505D01*
X033465Y032735D01*
X03273Y035945D02*
X03265Y036105D01*
X03281D01*
X03273Y035945D01*
Y035985D02*
X03269Y036065D01*
X03277D01*
X03273Y035985D01*
X034645Y03566D02*
X034565Y03582D01*
X034725D01*
X034645Y03566D01*
Y0357D02*
X034605Y03578D01*
X034685D01*
X034645Y0357D01*
X03487Y034005D02*
X03479Y034165D01*
X03495D01*
X03487Y034005D01*
Y034045D02*
X03483Y034125D01*
X03491D01*
X03487Y034045D01*
X035295Y04054D02*
X035215Y0407D01*
X035375D01*
X035295Y04054D01*
Y04058D02*
X035255Y04066D01*
X035335D01*
X035295Y04058D01*
X035255Y04317D02*
X035175Y04333D01*
X035335D01*
X035255Y04317D01*
Y04321D02*
X035215Y04329D01*
X035295D01*
X035255Y04321D01*
X035605Y044065D02*
X035525Y044225D01*
X035685D01*
X035605Y044065D01*
Y044105D02*
X035565Y044185D01*
X035645D01*
X035605Y044105D01*
X04578Y045795D02*
X0457Y045955D01*
X04586D01*
X04578Y045795D01*
Y045835D02*
X04574Y045915D01*
X04582D01*
X04578Y045835D01*
X04533Y0445D02*
X04525Y04466D01*
X04541D01*
X04533Y0445D01*
Y04454D02*
X04529Y04462D01*
X04537D01*
X04533Y04454D01*
X026253Y044425D02*
X026173Y044585D01*
X026333D01*
X026253Y044425D01*
Y044465D02*
X026213Y044545D01*
X026293D01*
X026253Y044465D01*
X040015Y040155D02*
X039935Y040315D01*
X040095D01*
X040015Y040155D01*
Y040195D02*
X039975Y040275D01*
X040055D01*
X040015Y040195D01*
X04154Y036465D02*
X04146Y036625D01*
X04162D01*
X04154Y036465D01*
Y036505D02*
X0415Y036585D01*
X04158D01*
X04154Y036505D01*
X04086Y03656D02*
X04078Y03672D01*
X04094D01*
X04086Y03656D01*
Y0366D02*
X04082Y03668D01*
X0409D01*
X04086Y0366D01*
X039725Y037605D02*
X039645Y037765D01*
X039805D01*
X039725Y037605D01*
Y037645D02*
X039685Y037725D01*
X039765D01*
X039725Y037645D01*
X03263Y03668D02*
X03255Y03684D01*
X03271D01*
X03263Y03668D01*
Y03672D02*
X03259Y0368D01*
X03267D01*
X03263Y03672D01*
X032535Y03713D02*
X032455Y03729D01*
X032615D01*
X032535Y03713D01*
Y03717D02*
X032495Y03725D01*
X032575D01*
X032535Y03717D01*
X033915Y036284D02*
X033835Y036444D01*
X033995D01*
X033915Y036284D01*
Y036324D02*
X033875Y036404D01*
X033955D01*
X033915Y036324D01*
X025135Y03359D02*
X025055Y03375D01*
X025215D01*
X025135Y03359D01*
Y03363D02*
X025095Y03371D01*
X025175D01*
X025135Y03363D01*
X024113Y032374D02*
X024033Y032534D01*
X024193D01*
X024113Y032374D01*
Y032414D02*
X024073Y032494D01*
X024153D01*
X024113Y032414D01*
Y035403D02*
X024033Y035563D01*
X024193D01*
X024113Y035403D01*
Y035443D02*
X024073Y035523D01*
X024153D01*
X024113Y035443D01*
X024562Y03269D02*
X024482Y03285D01*
X024642D01*
X024562Y03269D01*
Y03273D02*
X024522Y03281D01*
X024602D01*
X024562Y03273D01*
X024572Y03512D02*
X024492Y03528D01*
X024652D01*
X024572Y03512D01*
Y03516D02*
X024532Y03524D01*
X024612D01*
X024572Y03516D01*
X040605Y031124D02*
X040525Y031284D01*
X040685D01*
X040605Y031124D01*
Y031164D02*
X040565Y031244D01*
X040645D01*
X040605Y031164D01*
X041015Y031783D02*
X040935Y031943D01*
X041095D01*
X041015Y031783D01*
Y031823D02*
X040975Y031903D01*
X041055D01*
X041015Y031823D01*
X04128Y030385D02*
X0412Y030545D01*
X04136D01*
X04128Y030385D01*
Y030425D02*
X04124Y030505D01*
X04132D01*
X04128Y030425D01*
X04755Y04836D02*
X04747Y04852D01*
X04763D01*
X04755Y04836D01*
Y0484D02*
X04751Y04848D01*
X04759D01*
X04755Y0484D01*
X037348Y035077D02*
X037268Y035237D01*
X037428D01*
X037348Y035077D01*
Y035117D02*
X037308Y035197D01*
X037388D01*
X037348Y035117D01*
X036135Y035945D02*
X036055Y036105D01*
X036215D01*
X036135Y035945D01*
Y035985D02*
X036095Y036065D01*
X036175D01*
X036135Y035985D01*
X03949Y038525D02*
X03941Y038685D01*
X03957D01*
X03949Y038525D01*
Y038565D02*
X03945Y038645D01*
X03953D01*
X03949Y038565D01*
X03635Y03656D02*
X03627Y03672D01*
X03643D01*
X03635Y03656D01*
Y0366D02*
X03631Y03668D01*
X03639D01*
X03635Y0366D01*
X03769Y036849D02*
X03761Y037009D01*
X03777D01*
X03769Y036849D01*
Y036889D02*
X03765Y036969D01*
X03773D01*
X03769Y036889D01*
X035255Y04494D02*
X035175Y0451D01*
X035335D01*
X035255Y04494D01*
Y04498D02*
X035215Y04506D01*
X035295D01*
X035255Y04498D01*
X03522Y04608D02*
X03514Y04624D01*
X0353D01*
X03522Y04608D01*
Y04612D02*
X03518Y0462D01*
X03526D01*
X03522Y04612D01*
X03261Y032685D02*
X03253Y032845D01*
X03269D01*
X03261Y032685D01*
Y032725D02*
X03257Y032805D01*
X03265D01*
X03261Y032725D01*
X030135Y0321D02*
X030055Y03226D01*
X030215D01*
X030135Y0321D01*
Y03214D02*
X030095Y03222D01*
X030175D01*
X030135Y03214D01*
X03252Y0321D02*
X03244Y03226D01*
X0326D01*
X03252Y0321D01*
Y03214D02*
X03248Y03222D01*
X03256D01*
X03252Y03214D01*
X024585Y044475D02*
X024505Y044635D01*
X024665D01*
X024585Y044475D01*
Y044515D02*
X024545Y044595D01*
X024625D01*
X024585Y044515D01*
X03616Y04232D02*
X03608Y04248D01*
X03624D01*
X03616Y04232D01*
Y04236D02*
X03612Y04244D01*
X0362D01*
X03616Y04236D01*
X026665Y04896D02*
X026585Y04912D01*
X026745D01*
X026665Y04896D01*
Y049D02*
X026625Y04908D01*
X026705D01*
X026665Y049D01*
X029635Y0444D02*
X029555Y04456D01*
X029715D01*
X029635Y0444D01*
Y04444D02*
X029595Y04452D01*
X029675D01*
X029635Y04444D01*
X031587Y0348D02*
X031507Y03496D01*
X031667D01*
X031587Y0348D01*
Y03484D02*
X031547Y03492D01*
X031627D01*
X031587Y03484D01*
X02592Y03472D02*
X02584Y03488D01*
X026D01*
X02592Y03472D01*
Y03476D02*
X02588Y03484D01*
X02596D01*
X02592Y03476D01*
X02624Y03208D02*
X02616Y03224D01*
X02632D01*
X02624Y03208D01*
Y03212D02*
X0262Y0322D01*
X02628D01*
X02624Y03212D01*
X02647Y02955D02*
X02639Y02971D01*
X02655D01*
X02647Y02955D01*
Y02959D02*
X02643Y02967D01*
X02651D01*
X02647Y02959D01*
X02073Y04144D02*
X02065Y0416D01*
X02081D01*
X02073Y04144D01*
Y04148D02*
X02069Y04156D01*
X02077D01*
X02073Y04148D01*
X029795Y0424D02*
X029715Y04256D01*
X029875D01*
X029795Y0424D01*
Y04244D02*
X029755Y04252D01*
X029835D01*
X029795Y04244D01*
X028824Y044056D02*
X028744Y044216D01*
X028904D01*
X028824Y044056D01*
Y044096D02*
X028784Y044176D01*
X028864D01*
X028824Y044096D01*
X02824Y04208D02*
X02816Y04224D01*
X02832D01*
X02824Y04208D01*
Y04212D02*
X0282Y0422D01*
X02828D01*
X02824Y04212D01*
X0292Y04208D02*
X02912Y04224D01*
X02928D01*
X0292Y04208D01*
Y04212D02*
X02916Y0422D01*
X02924D01*
X0292Y04212D01*
X03608Y04496D02*
X036Y04512D01*
X03616D01*
X03608Y04496D01*
Y045D02*
X03604Y04508D01*
X03612D01*
X03608Y045D01*
X03864Y04108D02*
X03856Y04124D01*
X03872D01*
X03864Y04108D01*
Y04112D02*
X0386Y0412D01*
X03868D01*
X03864Y04112D01*
X0288Y03896D02*
X02872Y03912D01*
X02888D01*
X0288Y03896D01*
Y039D02*
X02876Y03908D01*
X02884D01*
X0288Y039D01*
X02944Y03872D02*
X02936Y03888D01*
X02952D01*
X02944Y03872D01*
Y03876D02*
X0294Y03884D01*
X02948D01*
X02944Y03876D01*
X02624Y047597D02*
X02616Y047757D01*
X02632D01*
X02624Y047597D01*
Y047637D02*
X0262Y047717D01*
X02628D01*
X02624Y047637D01*
X02848Y03568D02*
X0284Y03584D01*
X02856D01*
X02848Y03568D01*
Y03572D02*
X02844Y0358D01*
X02852D01*
X02848Y03572D01*
X02632Y03568D02*
X02624Y03584D01*
X0264D01*
X02632Y03568D01*
Y03572D02*
X02628Y0358D01*
X02636D01*
X02632Y03572D01*
X02552Y03568D02*
X02544Y03584D01*
X0256D01*
X02552Y03568D01*
Y03572D02*
X02548Y0358D01*
X02556D01*
X02552Y03572D01*
X02266Y04682D02*
X02258Y04698D01*
X02274D01*
X02266Y04682D01*
Y04686D02*
X02262Y04694D01*
X0227D01*
X02266Y04686D01*
X02272Y048868D02*
X02264Y049029D01*
X0228D01*
X02272Y048868D01*
Y048909D02*
X02268Y048988D01*
X02276D01*
X02272Y048909D01*
X0232Y04112D02*
X02312Y04128D01*
X02328D01*
X0232Y04112D01*
Y04116D02*
X02316Y04124D01*
X02324D01*
X0232Y04116D01*
X03352Y03704D02*
X03344Y0372D01*
X0336D01*
X03352Y03704D01*
Y03708D02*
X03348Y03716D01*
X03356D01*
X03352Y03708D01*
X032168Y027862D02*
X032088Y028022D01*
X032248D01*
X032168Y027862D01*
Y027902D02*
X032128Y027982D01*
X032208D01*
X032168Y027902D01*
X03216Y03136D02*
X03208Y03152D01*
X03224D01*
X03216Y03136D01*
Y0314D02*
X03212Y03148D01*
X0322D01*
X03216Y0314D01*
X030637Y03544D02*
X030557Y0356D01*
X030717D01*
X030637Y03544D01*
Y03548D02*
X030597Y03556D01*
X030677D01*
X030637Y03548D01*
X031413Y036375D02*
X031333Y036535D01*
X031493D01*
X031413Y036375D01*
Y036415D02*
X031373Y036495D01*
X031453D01*
X031413Y036415D01*
X031302Y036938D02*
X031222Y037098D01*
X031382D01*
X031302Y036938D01*
Y036978D02*
X031262Y037058D01*
X031342D01*
X031302Y036978D01*
X03024Y034985D02*
X03016Y035145D01*
X03032D01*
X03024Y034985D01*
Y035025D02*
X0302Y035105D01*
X03028D01*
X03024Y035025D01*
X035708Y04943D02*
X035628Y04959D01*
X035788D01*
X035708Y04943D01*
Y04947D02*
X035668Y04955D01*
X035748D01*
X035708Y04947D01*
X04468Y04376D02*
X0446Y04392D01*
X04476D01*
X04468Y04376D01*
Y0438D02*
X04464Y04388D01*
X04472D01*
X04468Y0438D01*
X040143Y037297D02*
X040063Y037457D01*
X040223D01*
X040143Y037297D01*
Y037337D02*
X040103Y037417D01*
X040183D01*
X040143Y037337D01*
X048599Y044D02*
X048519Y04416D01*
X048679D01*
X048599Y044D01*
Y04404D02*
X048559Y04412D01*
X048639D01*
X048599Y04404D01*
X038083Y0408D02*
X038003Y04096D01*
X038163D01*
X038083Y0408D01*
Y04084D02*
X038043Y04092D01*
X038123D01*
X038083Y04084D01*
X03696Y042D02*
X03688Y04216D01*
X03704D01*
X03696Y042D01*
Y04204D02*
X03692Y04212D01*
X037D01*
X03696Y04204D01*
X03656Y04208D02*
X03648Y04224D01*
X03664D01*
X03656Y04208D01*
Y04212D02*
X03652Y0422D01*
X0366D01*
X03656Y04212D01*
X042Y035471D02*
X04192Y035631D01*
X04208D01*
X042Y035471D01*
Y035511D02*
X04196Y035591D01*
X04204D01*
X042Y035511D01*
X03688Y03536D02*
X0368Y03552D01*
X03696D01*
X03688Y03536D01*
Y0354D02*
X03684Y03548D01*
X03692D01*
X03688Y0354D01*
X04008Y035471D02*
X04Y035631D01*
X04016D01*
X04008Y035471D01*
Y035511D02*
X04004Y035591D01*
X04012D01*
X04008Y035511D01*
X04072Y038194D02*
X04064Y038354D01*
X0408D01*
X04072Y038194D01*
Y038234D02*
X04068Y038314D01*
X04076D01*
X04072Y038234D01*
X0404Y036418D02*
X04032Y036578D01*
X04048D01*
X0404Y036418D01*
Y036458D02*
X04036Y036538D01*
X04044D01*
X0404Y036458D01*
X029418Y0367D02*
X029338Y03686D01*
X029498D01*
X029418Y0367D01*
Y03674D02*
X029378Y03682D01*
X029458D01*
X029418Y03674D01*
X02928Y03552D02*
X0292Y03568D01*
X02936D01*
X02928Y03552D01*
Y03556D02*
X02924Y03564D01*
X02932D01*
X02928Y03556D01*
X03089Y036971D02*
X03081Y037131D01*
X03097D01*
X03089Y036971D01*
Y037011D02*
X03085Y037091D01*
X03093D01*
X03089Y037011D01*
X03176Y027163D02*
X03168Y027323D01*
X03184D01*
X03176Y027163D01*
Y027203D02*
X03172Y027283D01*
X0318D01*
X03176Y027203D01*
X037708Y026212D02*
X037628Y026372D01*
X037788D01*
X037708Y026212D01*
Y026252D02*
X037668Y026332D01*
X037748D01*
X037708Y026252D01*
X03472Y03678D02*
X03464Y03694D01*
X0348D01*
X03472Y03678D01*
Y03682D02*
X03468Y0369D01*
X03476D01*
X03472Y03682D01*
X04672Y04224D02*
X04664Y0424D01*
X0468D01*
X04672Y04224D01*
Y04228D02*
X04668Y04236D01*
X04676D01*
X04672Y04228D01*
X04816Y044177D02*
X04808Y044337D01*
X04824D01*
X04816Y044177D01*
Y044217D02*
X04812Y044297D01*
X0482D01*
X04816Y044217D01*
X047388Y04168D02*
X047308Y04184D01*
X047468D01*
X047388Y04168D01*
Y04172D02*
X047348Y0418D01*
X047428D01*
X047388Y04172D01*
X047426Y037813D02*
X047346Y037973D01*
X047506D01*
X047426Y037813D01*
Y037853D02*
X047386Y037933D01*
X047466D01*
X047426Y037853D01*
X04724Y03744D02*
X04716Y0376D01*
X04732D01*
X04724Y03744D01*
Y03748D02*
X0472Y03756D01*
X04728D01*
X04724Y03748D01*
X04696Y037966D02*
X04688Y038126D01*
X04704D01*
X04696Y037966D01*
Y038006D02*
X04692Y038086D01*
X047D01*
X04696Y038006D01*
X04632Y037966D02*
X04624Y038126D01*
X0464D01*
X04632Y037966D01*
Y038006D02*
X04628Y038086D01*
X04636D01*
X04632Y038006D01*
X04576Y038D02*
X04568Y03816D01*
X04584D01*
X04576Y038D01*
Y03804D02*
X04572Y03812D01*
X0458D01*
X04576Y03804D01*
X0448Y03736D02*
X04472Y03752D01*
X04488D01*
X0448Y03736D01*
Y0374D02*
X04476Y03748D01*
X04484D01*
X0448Y0374D01*
X03832Y03384D02*
X03824Y034D01*
X0384D01*
X03832Y03384D01*
Y03388D02*
X03828Y03396D01*
X03836D01*
X03832Y03388D01*
X043937Y03736D02*
X043857Y03752D01*
X044017D01*
X043937Y03736D01*
Y0374D02*
X043897Y03748D01*
X043977D01*
X043937Y0374D01*
X04712Y046842D02*
X04704Y047002D01*
X0472D01*
X04712Y046842D01*
Y046882D02*
X04708Y046962D01*
X04716D01*
X04712Y046882D01*
Y04616D02*
X04704Y04632D01*
X0472D01*
X04712Y04616D01*
Y0462D02*
X04708Y04628D01*
X04716D01*
X04712Y0462D01*
X03676Y03264D02*
X03668Y0328D01*
X03684D01*
X03676Y03264D01*
Y03268D02*
X03672Y03276D01*
X0368D01*
X03676Y03268D01*
X0337Y0448D02*
X03362Y04496D01*
X03378D01*
X0337Y0448D01*
Y04484D02*
X03366Y04492D01*
X03374D01*
X0337Y04484D01*
X0317Y04608D02*
X03162Y04624D01*
X03178D01*
X0317Y04608D01*
Y04612D02*
X03166Y0462D01*
X03174D01*
X0317Y04612D01*
X0352Y0456D02*
X03512Y04576D01*
X03528D01*
X0352Y0456D01*
Y04564D02*
X03516Y04572D01*
X03524D01*
X0352Y04564D01*
X02888Y04576D02*
X0288Y04592D01*
X02896D01*
X02888Y04576D01*
Y0458D02*
X02884Y04588D01*
X02892D01*
X02888Y0458D01*
X02856Y04541D02*
X02848Y04557D01*
X02864D01*
X02856Y04541D01*
Y04545D02*
X02852Y04553D01*
X0286D01*
X02856Y04545D01*
X0364Y04657D02*
X03632Y04673D01*
X03648D01*
X0364Y04657D01*
Y04661D02*
X03636Y04669D01*
X03644D01*
X0364Y04661D01*
X037438Y04496D02*
X037358Y04512D01*
X037518D01*
X037438Y04496D01*
Y045D02*
X037398Y04508D01*
X037478D01*
X037438Y045D01*
X036106Y045409D02*
X036026Y045569D01*
X036186D01*
X036106Y045409D01*
Y045449D02*
X036066Y045529D01*
X036146D01*
X036106Y045449D01*
X01952Y02992D02*
X01944Y03008D01*
X0196D01*
X01952Y02992D01*
Y02996D02*
X01948Y03004D01*
X01956D01*
X01952Y02996D01*
X02163Y03046D02*
X02155Y03062D01*
X02171D01*
X02163Y03046D01*
Y0305D02*
X02159Y03058D01*
X02167D01*
X02163Y0305D01*
X01827Y02448D02*
X01819Y02464D01*
X01835D01*
X01827Y02448D01*
Y02452D02*
X01823Y0246D01*
X01831D01*
X01827Y02452D01*
X02298Y03046D02*
X0229Y03062D01*
X02306D01*
X02298Y03046D01*
Y0305D02*
X02294Y03058D01*
X02302D01*
X02298Y0305D01*
X0168Y03048D02*
X01672Y03064D01*
X01688D01*
X0168Y03048D01*
Y03052D02*
X01676Y0306D01*
X01684D01*
X0168Y03052D01*
X011579Y028859D02*
X011499Y029019D01*
X011659D01*
X011579Y028859D01*
Y028899D02*
X011539Y028979D01*
X011619D01*
X011579Y028899D01*
X03672Y02352D02*
X03664Y02368D01*
X0368D01*
X03672Y02352D01*
Y02356D02*
X03668Y02364D01*
X03676D01*
X03672Y02356D01*
X03872Y02744D02*
X03864Y0276D01*
X0388D01*
X03872Y02744D01*
Y02748D02*
X03868Y02756D01*
X03876D01*
X03872Y02748D01*
X039227Y0272D02*
X039147Y02736D01*
X039307D01*
X039227Y0272D01*
Y02724D02*
X039187Y02732D01*
X039267D01*
X039227Y02724D01*
X0444Y03032D02*
X04432Y03048D01*
X04448D01*
X0444Y03032D01*
Y03036D02*
X04436Y03044D01*
X04444D01*
X0444Y03036D01*
X04504Y03112D02*
X04496Y03128D01*
X04512D01*
X04504Y03112D01*
Y03116D02*
X045Y03124D01*
X04508D01*
X04504Y03116D01*
X022492Y028261D02*
X022413Y028421D01*
X022573D01*
X022492Y028261D01*
Y028301D02*
X022452Y028381D01*
X022532D01*
X022492Y028301D01*
X02104Y02776D02*
X02096Y02792D01*
X02112D01*
X02104Y02776D01*
Y0278D02*
X021Y02788D01*
X02108D01*
X02104Y0278D01*
X01312Y027862D02*
X01304Y028022D01*
X0132D01*
X01312Y027862D01*
Y027902D02*
X01308Y027982D01*
X01316D01*
X01312Y027902D01*
X011579Y02808D02*
X011499Y02824D01*
X011659D01*
X011579Y02808D01*
Y02812D02*
X011539Y0282D01*
X011619D01*
X011579Y02812D01*
X03848Y04328D02*
X0384Y04344D01*
X03856D01*
X03848Y04328D01*
Y04332D02*
X03844Y0434D01*
X03852D01*
X03848Y04332D01*
D132*
X02812Y02663D02*
G03*
X02812Y02663I-00008J0D01*
G01*
X02912D02*
G03*
X02912Y02663I-00008J0D01*
G01*
X03012D02*
G03*
X03012Y02663I-00008J0D01*
G01*
Y02963D02*
G03*
X03012Y02963I-00008J0D01*
G01*
X02912D02*
G03*
X02912Y02963I-00008J0D01*
G01*
X02812D02*
G03*
X02812Y02963I-00008J0D01*
G01*
X02372D02*
G03*
X02372Y02963I-00008J0D01*
G01*
X02472D02*
G03*
X02472Y02963I-00008J0D01*
G01*
X02572D02*
G03*
X02572Y02963I-00008J0D01*
G01*
Y02663D02*
G03*
X02572Y02663I-00008J0D01*
G01*
X02472D02*
G03*
X02472Y02663I-00008J0D01*
G01*
X02372D02*
G03*
X02372Y02663I-00008J0D01*
G01*
X013419Y04291D02*
G03*
X013419Y04291I-00008J0D01*
G01*
Y04141D02*
G03*
X013419Y04141I-00008J0D01*
G01*
X013339Y04699D02*
G03*
X013339Y04699I-00008J0D01*
G01*
Y04549D02*
G03*
X013339Y04549I-00008J0D01*
G01*
X033122Y025579D02*
G03*
X033122Y025579I-00008J0D01*
G01*
X034622D02*
G03*
X034622Y025579I-00008J0D01*
G01*
X036122D02*
G03*
X036122Y025579I-00008J0D01*
G01*
X037622D02*
G03*
X037622Y025579I-00008J0D01*
G01*
X02647D02*
G03*
X02647Y025579I-00008J0D01*
G01*
X02797D02*
G03*
X02797Y025579I-00008J0D01*
G01*
X02947D02*
G03*
X02947Y025579I-00008J0D01*
G01*
X03097D02*
G03*
X03097Y025579I-00008J0D01*
G01*
X01983D02*
G03*
X01983Y025579I-00008J0D01*
G01*
X02133D02*
G03*
X02133Y025579I-00008J0D01*
G01*
X02283D02*
G03*
X02283Y025579I-00008J0D01*
G01*
X02433D02*
G03*
X02433Y025579I-00008J0D01*
G01*
X01311D02*
G03*
X01311Y025579I-00008J0D01*
G01*
X01461D02*
G03*
X01461Y025579I-00008J0D01*
G01*
X01611D02*
G03*
X01611Y025579I-00008J0D01*
G01*
X01761D02*
G03*
X01761Y025579I-00008J0D01*
G01*
D133*
X013379Y04291D02*
G03*
X013379Y04291I-00004J0D01*
G01*
Y04141D02*
G03*
X013379Y04141I-00004J0D01*
G01*
X013299Y04699D02*
G03*
X013299Y04699I-00004J0D01*
G01*
Y04549D02*
G03*
X013299Y04549I-00004J0D01*
G01*
X033082Y025579D02*
G03*
X033082Y025579I-00004J0D01*
G01*
X034582D02*
G03*
X034582Y025579I-00004J0D01*
G01*
X036082D02*
G03*
X036082Y025579I-00004J0D01*
G01*
X037582D02*
G03*
X037582Y025579I-00004J0D01*
G01*
X02643D02*
G03*
X02643Y025579I-00004J0D01*
G01*
X02793D02*
G03*
X02793Y025579I-00004J0D01*
G01*
X02943D02*
G03*
X02943Y025579I-00004J0D01*
G01*
X03093D02*
G03*
X03093Y025579I-00004J0D01*
G01*
X01979D02*
G03*
X01979Y025579I-00004J0D01*
G01*
X02129D02*
G03*
X02129Y025579I-00004J0D01*
G01*
X02279D02*
G03*
X02279Y025579I-00004J0D01*
G01*
X02429D02*
G03*
X02429Y025579I-00004J0D01*
G01*
X01307D02*
G03*
X01307Y025579I-00004J0D01*
G01*
X01457D02*
G03*
X01457Y025579I-00004J0D01*
G01*
X01607D02*
G03*
X01607Y025579I-00004J0D01*
G01*
X01757D02*
G03*
X01757Y025579I-00004J0D01*
G01*
M02*
