G04*
G04 #@! TF.GenerationSoftware,Altium Limited,Altium Designer,18.1.6 (161)*
G04*
G04 Layer_Color=65535*
%FSTAX24Y24*%
%MOIN*%
G70*
G01*
G75*
%ADD10C,0.0098*%
%ADD11C,0.0080*%
%ADD12C,0.0200*%
%ADD13C,0.0050*%
%ADD14C,0.0040*%
%ADD15C,0.0079*%
%ADD16C,0.0070*%
%ADD17C,0.0100*%
%ADD18C,0.0060*%
%ADD19C,0.0250*%
%ADD20C,0.0030*%
G36*
X01136Y0272D02*
X01161Y02695D01*
Y02745D01*
X01136Y0272D01*
D02*
G37*
G36*
X01306Y02712D02*
X01331Y02687D01*
Y02737D01*
X01306Y02712D01*
D02*
G37*
G36*
X01472Y02716D02*
X01497Y02691D01*
Y02741D01*
X01472Y02716D01*
D02*
G37*
G36*
X01616Y02712D02*
X01641Y02687D01*
Y02737D01*
X01616Y02712D01*
D02*
G37*
G36*
X01784Y02716D02*
X01809Y02691D01*
Y02741D01*
X01784Y02716D01*
D02*
G37*
G36*
X01936D02*
X01961Y02691D01*
Y02741D01*
X01936Y02716D01*
D02*
G37*
G36*
X02088Y02712D02*
X02113Y02687D01*
Y02737D01*
X02088Y02712D01*
D02*
G37*
G36*
X0224Y02704D02*
X02265Y02679D01*
Y02729D01*
X0224Y02704D01*
D02*
G37*
G36*
X01359Y03774D02*
X01334Y03749D01*
X01384D01*
X01359Y03774D01*
D02*
G37*
G36*
X01928Y03872D02*
X01953Y03897D01*
X01903D01*
X01928Y03872D01*
D02*
G37*
G36*
X013819Y0485D02*
X014069Y04825D01*
Y04875D01*
X013819Y0485D01*
D02*
G37*
G36*
X02088Y04952D02*
X02113Y04977D01*
X02063D01*
X02088Y04952D01*
D02*
G37*
G36*
X02252Y037103D02*
X02227Y036853D01*
X02277D01*
X02252Y037103D01*
D02*
G37*
G36*
X0257Y04045D02*
X02545Y0402D01*
X02595D01*
X0257Y04045D01*
D02*
G37*
G36*
X028331Y03824D02*
X028581Y03849D01*
X028081D01*
X028331Y03824D01*
D02*
G37*
G36*
X029331Y04026D02*
X029581Y04051D01*
X029081D01*
X029331Y04026D01*
D02*
G37*
G36*
X039375Y0496D02*
X039125Y04985D01*
X039625D01*
X039375Y0496D01*
D02*
G37*
G36*
X03875Y04816D02*
X0385Y04841D01*
X039D01*
X03875Y04816D01*
D02*
G37*
G36*
X044787Y047925D02*
X044637D01*
Y048025D01*
X044787D01*
Y047925D01*
D02*
G37*
G36*
X041355Y047015D02*
X041105Y047265D01*
X041355Y047515D01*
Y047015D01*
D02*
G37*
G36*
X04331Y046251D02*
X04321D01*
Y046401D01*
X04331D01*
Y046251D01*
D02*
G37*
G36*
X0346Y0406D02*
X03435Y04085D01*
X03485D01*
X0346Y0406D01*
D02*
G37*
G36*
X03808Y04013D02*
X03783Y03988D01*
Y04038D01*
X03808Y04013D01*
D02*
G37*
G36*
X033773Y03829D02*
X033623D01*
Y03839D01*
X033773D01*
Y03829D01*
D02*
G37*
G36*
X038102Y03787D02*
X037852Y03812D01*
X038102Y03837D01*
Y03787D01*
D02*
G37*
G36*
X03155Y036657D02*
X03145D01*
Y036807D01*
X03155D01*
Y036657D01*
D02*
G37*
G36*
X03575Y03646D02*
X03565D01*
Y03661D01*
X03575D01*
Y03646D01*
D02*
G37*
G36*
X03875Y03648D02*
X0385Y03623D01*
Y03673D01*
X03875Y03648D01*
D02*
G37*
G36*
X034364Y03409D02*
X034214D01*
Y03419D01*
X034364D01*
Y03409D01*
D02*
G37*
G36*
X04012Y03314D02*
X03987Y03339D01*
X04012Y03364D01*
Y03314D01*
D02*
G37*
G36*
X0435Y02533D02*
X043D01*
X04325Y02558D01*
X0435Y02533D01*
D02*
G37*
G36*
X04033Y02378D02*
X04008Y02403D01*
X04033Y02428D01*
Y02378D01*
D02*
G37*
D10*
X021903Y034352D02*
G03*
X021903Y034352I-000049J0D01*
G01*
X017596Y039321D02*
G03*
X017596Y039321I-000049J0D01*
G01*
X043939Y04509D02*
G03*
X043939Y04509I-000049J0D01*
G01*
X014413Y048922D02*
G03*
X014413Y048922I-000049J0D01*
G01*
X018675Y033408D02*
G03*
X018675Y033408I-000049J0D01*
G01*
D11*
X040654Y043023D02*
G03*
X040654Y043023I-002574J0D01*
G01*
D12*
X04783Y044178D02*
G03*
X04783Y044178I-00015J0D01*
G01*
D13*
X01615Y046D02*
Y04667D01*
X01462Y046D02*
X01615D01*
X01462D02*
Y04667D01*
X01615D01*
X03898Y02372D02*
X03917Y02353D01*
X03898Y02372D02*
Y02434D01*
X03912Y02448D01*
Y02458D01*
X03897Y02473D02*
X03912Y02458D01*
X03897Y02473D02*
Y02533D01*
X03912Y02548D01*
Y02558D01*
X03897Y02573D02*
X03912Y02558D01*
X03897Y02573D02*
Y02633D01*
X03916Y02652D01*
X03988D01*
X04007Y02633D01*
Y02578D02*
Y02633D01*
X03992Y02563D02*
X04007Y02578D01*
X03992Y02553D02*
Y02563D01*
Y02458D02*
X04007Y02473D01*
X03992Y02448D02*
Y02458D01*
Y02448D02*
X04007Y02433D01*
Y02373D02*
Y02433D01*
X03987Y02353D02*
X04007Y02373D01*
X03917Y02353D02*
X03987D01*
X03992Y02553D02*
X04007Y02538D01*
Y02473D02*
Y02538D01*
X0213Y02673D02*
X02149Y02654D01*
X0213Y02673D02*
Y02735D01*
X02144Y02749D01*
Y02759D01*
X02129Y02774D02*
X02144Y02759D01*
X02129Y02774D02*
Y02834D01*
X02144Y02849D01*
Y02859D01*
X02129Y02874D02*
X02144Y02859D01*
X02129Y02874D02*
Y02934D01*
X02148Y02953D01*
X0222D01*
X02239Y02934D01*
Y02879D02*
Y02934D01*
X02224Y02864D02*
X02239Y02879D01*
X02224Y02854D02*
Y02864D01*
Y02759D02*
X02239Y02774D01*
X02224Y02749D02*
Y02759D01*
Y02749D02*
X02239Y02734D01*
Y02674D02*
Y02734D01*
X02219Y02654D02*
X02239Y02674D01*
X02149Y02654D02*
X02219D01*
X02224Y02854D02*
X02239Y02839D01*
Y02774D02*
Y02839D01*
X04057Y03686D02*
Y03754D01*
X04209D01*
Y03686D02*
Y03754D01*
X04057Y03686D02*
X04209D01*
X03703Y03289D02*
Y03356D01*
X03856D01*
Y03289D02*
Y03356D01*
X03703Y03289D02*
X03856D01*
X02876Y0351D02*
X02943D01*
Y03357D02*
Y0351D01*
X02876Y03357D02*
X02943D01*
X02876D02*
Y0351D01*
X041385Y04606D02*
X042055D01*
X041385D02*
Y04759D01*
X042055D01*
Y04606D02*
Y04759D01*
X042195D02*
X042865D01*
Y04606D02*
Y04759D01*
X042195Y04606D02*
X042865D01*
X042195D02*
Y04759D01*
X03218Y048027D02*
X03286D01*
Y046507D02*
Y048027D01*
X03218Y046507D02*
X03286D01*
X03218D02*
Y048027D01*
X03134D02*
X03202D01*
Y046507D02*
Y048027D01*
X03134Y046507D02*
X03202D01*
X03134D02*
Y048027D01*
X04226Y03303D02*
Y0337D01*
X04073Y03303D02*
X04226D01*
X04073D02*
Y0337D01*
X04226D01*
X04166Y02913D02*
X04234D01*
Y02761D02*
Y02913D01*
X04166Y02761D02*
X04234D01*
X04166D02*
Y02913D01*
Y02927D02*
X04234D01*
X04166D02*
Y03079D01*
X04234D01*
Y02927D02*
Y03079D01*
X02531Y046031D02*
Y047561D01*
Y046031D02*
X02598D01*
Y047561D01*
X02531D02*
X02598D01*
Y047678D02*
Y049198D01*
X0253D02*
X02598D01*
X0253Y047678D02*
Y049198D01*
Y047678D02*
X02598D01*
X036035Y037825D02*
Y039355D01*
Y037825D02*
X036705D01*
Y039355D01*
X036035D02*
X036705D01*
X035226Y037825D02*
Y039355D01*
Y037825D02*
X035896D01*
Y039355D01*
X035226D02*
X035896D01*
X024642Y03895D02*
Y03962D01*
X023112Y03895D02*
X024642D01*
X023112D02*
Y03962D01*
X024642D01*
X02248Y030902D02*
Y036902D01*
Y030902D02*
X03048D01*
X02248Y036902D02*
X03048D01*
Y030902D02*
Y036902D01*
X02192Y030902D02*
Y036902D01*
X01392D02*
X02192D01*
X01392Y030902D02*
X02192D01*
X01392D02*
Y036902D01*
X02296Y04253D02*
Y04405D01*
Y04253D02*
X02364D01*
Y04405D01*
X02296D02*
X02364D01*
X02362Y044235D02*
Y045765D01*
X02295D02*
X02362D01*
X02295Y044235D02*
Y045765D01*
Y044235D02*
X02362D01*
X0236Y046025D02*
Y047555D01*
X02293D02*
X0236D01*
X02293Y046025D02*
Y047555D01*
Y046025D02*
X0236D01*
X02531Y044269D02*
X02598D01*
X02531D02*
Y045799D01*
X02598D01*
Y044269D02*
Y045799D01*
X0253Y04409D02*
X02598D01*
Y04257D02*
Y04409D01*
X0253Y04257D02*
X02598D01*
X0253D02*
Y04409D01*
X02145Y03894D02*
X02297D01*
Y03962D01*
X02145D02*
X02297D01*
X02145Y03894D02*
Y03962D01*
X04168Y03374D02*
Y03604D01*
Y03614D02*
X04868D01*
Y03364D02*
Y03614D01*
X04168Y03364D02*
X04868D01*
X04168D02*
Y03374D01*
Y03604D02*
Y03614D01*
X024598Y040015D02*
X025268D01*
X024598D02*
Y041545D01*
X025268D01*
Y040015D02*
Y041545D01*
X028641Y03714D02*
X028831Y03733D01*
X028021Y03714D02*
X028641D01*
X027881Y03728D02*
X028021Y03714D01*
X027781Y03728D02*
X027881D01*
X027631Y03713D02*
X027781Y03728D01*
X027031Y03713D02*
X027631D01*
X026881Y03728D02*
X027031Y03713D01*
X026781Y03728D02*
X026881D01*
X026631Y03713D02*
X026781Y03728D01*
X026031Y03713D02*
X026631D01*
X025841Y03732D02*
X026031Y03713D01*
X025841Y03732D02*
Y03804D01*
X026031Y03823D01*
X026581D01*
X026731Y03808D01*
X026831D01*
X027631Y03823D02*
X027781Y03808D01*
X027881D01*
X028031Y03823D01*
X028631D01*
X028831Y03803D01*
Y03733D02*
Y03803D01*
X026831Y03808D02*
X026981Y03823D01*
X027631D01*
X040005Y046955D02*
X040195Y046765D01*
X040005Y046955D02*
Y047575D01*
X040145Y047715D01*
Y047815D01*
X039995Y047965D02*
X040145Y047815D01*
X039995Y047965D02*
Y048565D01*
X040145Y048715D01*
Y048815D01*
X039995Y048965D02*
X040145Y048815D01*
X039995Y048965D02*
Y049565D01*
X040185Y049755D01*
X040905D01*
X041095Y049565D01*
Y049015D02*
Y049565D01*
X040945Y048865D02*
X041095Y049015D01*
X040945Y048765D02*
Y048865D01*
Y047815D02*
X041095Y047965D01*
X040945Y047715D02*
Y047815D01*
Y047715D02*
X041095Y047565D01*
Y046965D02*
Y047565D01*
X040895Y046765D02*
X041095Y046965D01*
X040195Y046765D02*
X040895D01*
X040945Y048765D02*
X041095Y048615D01*
Y047965D02*
Y048615D01*
X0131Y03865D02*
X01323Y03878D01*
X0139D01*
X01436D02*
X0149D01*
X01507Y03861D01*
Y03798D02*
Y03861D01*
X01489Y0378D02*
X01507Y03798D01*
X01435Y0378D02*
X01489D01*
X0131Y03796D02*
X01325Y03781D01*
X0131Y03796D02*
Y03865D01*
X0139Y03878D02*
X01401Y03867D01*
X01425D01*
X01436Y03878D01*
X01389Y03781D02*
X01392D01*
X01401Y0379D02*
X01425D01*
X01435Y0378D01*
X01325Y03781D02*
X01392D01*
X01401Y0379D01*
X01964Y03768D02*
X01977Y03781D01*
X01897Y03768D02*
X01964D01*
X01797D02*
X01851D01*
X0178Y03785D02*
X01797Y03768D01*
X0178Y03785D02*
Y03848D01*
X01798Y03866D01*
X01852D01*
X01962Y03865D02*
X01977Y0385D01*
Y03781D02*
Y0385D01*
X01886Y03779D02*
X01897Y03768D01*
X01862Y03779D02*
X01886D01*
X01851Y03768D02*
X01862Y03779D01*
X01895Y03865D02*
X01898D01*
X01862Y03856D02*
X01886D01*
X01852Y03866D02*
X01862Y03856D01*
X01895Y03865D02*
X01962D01*
X01886Y03856D02*
X01895Y03865D01*
X01592Y04207D02*
Y04274D01*
X01439Y04207D02*
X01592D01*
X01439D02*
Y04274D01*
X01592D01*
X018535Y03942D02*
X019205D01*
X018535D02*
Y04095D01*
X019205D01*
Y03942D02*
Y04095D01*
X02764Y048027D02*
X02832D01*
Y046507D02*
Y048027D01*
X02764Y046507D02*
X02832D01*
X02764D02*
Y048027D01*
X0268Y04803D02*
X02748D01*
Y04651D02*
Y04803D01*
X0268Y04651D02*
X02748D01*
X0268D02*
Y04803D01*
X03038Y04647D02*
X03106D01*
X03038D02*
Y04799D01*
X03106D01*
Y04647D02*
Y04799D01*
X02363Y047738D02*
Y049258D01*
X02295D02*
X02363D01*
X02295Y047738D02*
Y049258D01*
Y047738D02*
X02363D01*
X03018Y04647D02*
Y04799D01*
X0295D02*
X03018D01*
X0295Y04647D02*
Y04799D01*
Y04647D02*
X03018D01*
X03316Y048027D02*
X03384D01*
Y046507D02*
Y048027D01*
X03316Y046507D02*
X03384D01*
X03316D02*
Y048027D01*
X034112D02*
X034792D01*
Y046507D02*
Y048027D01*
X034112Y046507D02*
X034792D01*
X034112D02*
Y048027D01*
X02202Y038013D02*
X02221Y038203D01*
X02283D01*
X02297Y038063D01*
X02307D01*
X02322Y038213D01*
X02382D01*
X02397Y038063D01*
X02407D01*
X02422Y038213D01*
X02482D01*
X02501Y038023D01*
Y037303D02*
Y038023D01*
X02482Y037113D02*
X02501Y037303D01*
X02427Y037113D02*
X02482D01*
X02412Y037263D02*
X02427Y037113D01*
X02402Y037263D02*
X02412D01*
X02307D02*
X02322Y037113D01*
X02297Y037263D02*
X02307D01*
X02282Y037113D02*
X02297Y037263D01*
X02222Y037113D02*
X02282D01*
X02202Y037313D02*
X02222Y037113D01*
X02202Y037313D02*
Y038013D01*
X02387Y037113D02*
X02402Y037263D01*
X02322Y037113D02*
X02387D01*
X03906Y04706D02*
X03925Y04725D01*
X03844Y04706D02*
X03906D01*
X0383Y0472D02*
X03844Y04706D01*
X0382Y0472D02*
X0383D01*
X03805Y04705D02*
X0382Y0472D01*
X03745Y04705D02*
X03805D01*
X0373Y0472D02*
X03745Y04705D01*
X0372Y0472D02*
X0373D01*
X03705Y04705D02*
X0372Y0472D01*
X03645Y04705D02*
X03705D01*
X03626Y04724D02*
X03645Y04705D01*
X03626Y04724D02*
Y04796D01*
X03645Y04815D01*
X037D01*
X03715Y048D01*
X03725D01*
X03805Y04815D02*
X0382Y048D01*
X0383D01*
X03845Y04815D01*
X03905D01*
X03925Y04795D01*
Y04725D02*
Y04795D01*
X03725Y048D02*
X0374Y04815D01*
X03805D01*
X04216Y04769D02*
X04283D01*
X04216D02*
Y04922D01*
X04283D01*
Y04769D02*
Y04922D01*
X041375Y0477D02*
X042045D01*
X041375D02*
Y04923D01*
X042045D01*
Y0477D02*
Y04923D01*
X04692Y04901D02*
Y04969D01*
X0454Y04901D02*
X04692D01*
X0454D02*
Y04969D01*
X04692D01*
X03899Y04063D02*
X03918Y04044D01*
Y03982D02*
Y04044D01*
X03904Y03968D02*
X03918Y03982D01*
X03904Y03958D02*
Y03968D01*
Y03958D02*
X03919Y03943D01*
Y03883D02*
Y03943D01*
X03904Y03868D02*
X03919Y03883D01*
X03904Y03858D02*
Y03868D01*
Y03858D02*
X03919Y03843D01*
Y03783D02*
Y03843D01*
X039Y03764D02*
X03919Y03783D01*
X03828Y03764D02*
X039D01*
X03809Y03783D02*
X03828Y03764D01*
X03809Y03783D02*
Y03838D01*
X03824Y03853D01*
Y03863D01*
X03809Y03943D02*
X03824Y03958D01*
Y03968D01*
X03809Y03983D02*
X03824Y03968D01*
X03809Y03983D02*
Y04043D01*
X03829Y04063D01*
X03899D01*
X03809Y03878D02*
X03824Y03863D01*
X03809Y03878D02*
Y03943D01*
X03966Y03697D02*
X03979Y03684D01*
Y03617D02*
Y03684D01*
Y03517D02*
Y03571D01*
X03962Y035D02*
X03979Y03517D01*
X03899Y035D02*
X03962D01*
X03881Y03518D02*
X03899Y035D01*
X03881Y03518D02*
Y03572D01*
X03882Y03682D02*
X03897Y03697D01*
X03966D01*
X03968Y03606D02*
X03979Y03617D01*
X03968Y03582D02*
Y03606D01*
Y03582D02*
X03979Y03571D01*
X03882Y03615D02*
Y03618D01*
X03891Y03582D02*
Y03606D01*
X03881Y03572D02*
X03891Y03582D01*
X03882Y03615D02*
Y03682D01*
Y03615D02*
X03891Y03606D01*
X03883Y03303D02*
X03896Y0329D01*
X03883Y03303D02*
Y0337D01*
Y03416D02*
Y0347D01*
X039Y03487D01*
X03963D01*
X03981Y03469D01*
Y03415D02*
Y03469D01*
X03965Y0329D02*
X0398Y03305D01*
X03896Y0329D02*
X03965D01*
X03883Y0337D02*
X03894Y03381D01*
Y03405D01*
X03883Y03416D02*
X03894Y03405D01*
X0398Y03369D02*
Y03372D01*
X03971Y03381D02*
Y03405D01*
X03981Y03415D01*
X0398Y03305D02*
Y03372D01*
X03971Y03381D02*
X0398Y03372D01*
X06203Y02702D02*
X06213D01*
Y03322D01*
X03283D02*
X06213D01*
X03283Y02702D02*
Y03322D01*
Y02702D02*
X06203D01*
X0272Y0441D02*
X02787D01*
Y04257D02*
Y0441D01*
X0272Y04257D02*
X02787D01*
X0272D02*
Y0441D01*
X02124Y04848D02*
X02137Y04861D01*
X02057Y04848D02*
X02124D01*
X01957D02*
X02011D01*
X0194Y04865D02*
X01957Y04848D01*
X0194Y04865D02*
Y04928D01*
X01958Y04946D01*
X02012D01*
X02122Y04945D02*
X02137Y0493D01*
Y04861D02*
Y0493D01*
X02046Y04859D02*
X02057Y04848D01*
X02022Y04859D02*
X02046D01*
X02011Y04848D02*
X02022Y04859D01*
X02055Y04945D02*
X02058D01*
X02022Y04936D02*
X02046D01*
X02012Y04946D02*
X02022Y04936D01*
X02055Y04945D02*
X02122D01*
X02046Y04936D02*
X02055Y04945D01*
X012779Y04814D02*
X012909Y04801D01*
X012779Y04814D02*
Y04881D01*
Y04927D02*
Y04981D01*
X012949Y04998D01*
X013579D01*
X013759Y0498D01*
Y04926D02*
Y0498D01*
X013599Y04801D02*
X013749Y04816D01*
X012909Y04801D02*
X013599D01*
X012779Y04881D02*
X012889Y04892D01*
Y04916D01*
X012779Y04927D02*
X012889Y04916D01*
X013749Y0488D02*
Y04883D01*
X013659Y04892D02*
Y04916D01*
X013759Y04926D01*
X013749Y04816D02*
Y04883D01*
X013659Y04892D02*
X013749Y04883D01*
X036752Y03781D02*
X036942Y03762D01*
X036752Y03781D02*
Y03843D01*
X036892Y03857D01*
Y03867D01*
X036742Y03882D02*
X036892Y03867D01*
X036742Y03882D02*
Y03942D01*
X036892Y03957D01*
Y03967D01*
X036742Y03982D02*
X036892Y03967D01*
X036742Y03982D02*
Y04042D01*
X036932Y04061D01*
X037652D01*
X037842Y04042D01*
Y03987D02*
Y04042D01*
X037692Y03972D02*
X037842Y03987D01*
X037692Y03962D02*
Y03972D01*
Y03867D02*
X037842Y03882D01*
X037692Y03857D02*
Y03867D01*
Y03857D02*
X037842Y03842D01*
Y03782D02*
Y03842D01*
X037642Y03762D02*
X037842Y03782D01*
X036942Y03762D02*
X037642D01*
X037692Y03962D02*
X037842Y03947D01*
Y03882D02*
Y03947D01*
X028566Y04647D02*
X029246D01*
X028566D02*
Y04799D01*
X029246D01*
Y04647D02*
Y04799D01*
X01935Y02786D02*
Y02851D01*
X0192Y02866D02*
X01935Y02851D01*
X01845Y02666D02*
X01915D01*
X01935Y02686D01*
Y02746D01*
X0192Y02761D02*
X01935Y02746D01*
X0192Y02761D02*
Y02771D01*
X01935Y02786D01*
X0192Y02866D02*
Y02876D01*
X01935Y02891D01*
Y02946D01*
X01916Y02965D02*
X01935Y02946D01*
X01844Y02965D02*
X01916D01*
X01825Y02946D02*
X01844Y02965D01*
X01825Y02886D02*
Y02946D01*
Y02886D02*
X0184Y02871D01*
Y02861D02*
Y02871D01*
X01825Y02846D02*
X0184Y02861D01*
X01825Y02786D02*
Y02846D01*
Y02786D02*
X0184Y02771D01*
Y02761D02*
Y02771D01*
X01826Y02747D02*
X0184Y02761D01*
X01826Y02685D02*
Y02747D01*
Y02685D02*
X01845Y02666D01*
X01305Y02782D02*
Y02847D01*
X0129Y02862D02*
X01305Y02847D01*
X01215Y02662D02*
X01285D01*
X01305Y02682D01*
Y02742D01*
X0129Y02757D02*
X01305Y02742D01*
X0129Y02757D02*
Y02767D01*
X01305Y02782D01*
X0129Y02862D02*
Y02872D01*
X01305Y02887D01*
Y02942D01*
X01286Y02961D02*
X01305Y02942D01*
X01214Y02961D02*
X01286D01*
X01195Y02942D02*
X01214Y02961D01*
X01195Y02882D02*
Y02942D01*
Y02882D02*
X0121Y02867D01*
Y02857D02*
Y02867D01*
X01195Y02842D02*
X0121Y02857D01*
X01195Y02782D02*
Y02842D01*
Y02782D02*
X0121Y02767D01*
Y02757D02*
Y02767D01*
X01196Y02743D02*
X0121Y02757D01*
X01196Y02681D02*
Y02743D01*
Y02681D02*
X01215Y02662D01*
X01135Y0279D02*
Y02855D01*
X0112Y0287D02*
X01135Y02855D01*
X01045Y0267D02*
X01115D01*
X01135Y0269D01*
Y0275D01*
X0112Y02765D02*
X01135Y0275D01*
X0112Y02765D02*
Y02775D01*
X01135Y0279D01*
X0112Y0287D02*
Y0288D01*
X01135Y02895D01*
Y0295D01*
X01116Y02969D02*
X01135Y0295D01*
X01044Y02969D02*
X01116D01*
X01025Y0295D02*
X01044Y02969D01*
X01025Y0289D02*
Y0295D01*
Y0289D02*
X0104Y02875D01*
Y02865D02*
Y02875D01*
X01025Y0285D02*
X0104Y02865D01*
X01025Y0279D02*
Y0285D01*
Y0279D02*
X0104Y02775D01*
Y02765D02*
Y02775D01*
X01026Y02751D02*
X0104Y02765D01*
X01026Y02689D02*
Y02751D01*
Y02689D02*
X01045Y0267D01*
X01615Y02782D02*
Y02847D01*
X016Y02862D02*
X01615Y02847D01*
X01525Y02662D02*
X01595D01*
X01615Y02682D01*
Y02742D01*
X016Y02757D02*
X01615Y02742D01*
X016Y02757D02*
Y02767D01*
X01615Y02782D01*
X016Y02862D02*
Y02872D01*
X01615Y02887D01*
Y02942D01*
X01596Y02961D02*
X01615Y02942D01*
X01524Y02961D02*
X01596D01*
X01505Y02942D02*
X01524Y02961D01*
X01505Y02882D02*
Y02942D01*
Y02882D02*
X0152Y02867D01*
Y02857D02*
Y02867D01*
X01505Y02842D02*
X0152Y02857D01*
X01505Y02782D02*
Y02842D01*
Y02782D02*
X0152Y02767D01*
Y02757D02*
Y02767D01*
X01506Y02743D02*
X0152Y02757D01*
X01506Y02681D02*
Y02743D01*
Y02681D02*
X01525Y02662D01*
X01471Y02786D02*
Y02851D01*
X01456Y02866D02*
X01471Y02851D01*
X01381Y02666D02*
X01451D01*
X01471Y02686D01*
Y02746D01*
X01456Y02761D02*
X01471Y02746D01*
X01456Y02761D02*
Y02771D01*
X01471Y02786D01*
X01456Y02866D02*
Y02876D01*
X01471Y02891D01*
Y02946D01*
X01452Y02965D02*
X01471Y02946D01*
X0138Y02965D02*
X01452D01*
X01361Y02946D02*
X0138Y02965D01*
X01361Y02886D02*
Y02946D01*
Y02886D02*
X01376Y02871D01*
Y02861D02*
Y02871D01*
X01361Y02846D02*
X01376Y02861D01*
X01361Y02786D02*
Y02846D01*
Y02786D02*
X01376Y02771D01*
Y02761D02*
Y02771D01*
X01362Y02747D02*
X01376Y02761D01*
X01362Y02685D02*
Y02747D01*
Y02685D02*
X01381Y02666D01*
X01783Y02786D02*
Y02851D01*
X01768Y02866D02*
X01783Y02851D01*
X01693Y02666D02*
X01763D01*
X01783Y02686D01*
Y02746D01*
X01768Y02761D02*
X01783Y02746D01*
X01768Y02761D02*
Y02771D01*
X01783Y02786D01*
X01768Y02866D02*
Y02876D01*
X01783Y02891D01*
Y02946D01*
X01764Y02965D02*
X01783Y02946D01*
X01692Y02965D02*
X01764D01*
X01673Y02946D02*
X01692Y02965D01*
X01673Y02886D02*
Y02946D01*
Y02886D02*
X01688Y02871D01*
Y02861D02*
Y02871D01*
X01673Y02846D02*
X01688Y02861D01*
X01673Y02786D02*
Y02846D01*
Y02786D02*
X01688Y02771D01*
Y02761D02*
Y02771D01*
X01674Y02747D02*
X01688Y02761D01*
X01674Y02685D02*
Y02747D01*
Y02685D02*
X01693Y02666D01*
X02087Y02782D02*
Y02847D01*
X02072Y02862D02*
X02087Y02847D01*
X01997Y02662D02*
X02067D01*
X02087Y02682D01*
Y02742D01*
X02072Y02757D02*
X02087Y02742D01*
X02072Y02757D02*
Y02767D01*
X02087Y02782D01*
X02072Y02862D02*
Y02872D01*
X02087Y02887D01*
Y02942D01*
X02068Y02961D02*
X02087Y02942D01*
X01996Y02961D02*
X02068D01*
X01977Y02942D02*
X01996Y02961D01*
X01977Y02882D02*
Y02942D01*
Y02882D02*
X01992Y02867D01*
Y02857D02*
Y02867D01*
X01977Y02842D02*
X01992Y02857D01*
X01977Y02782D02*
Y02842D01*
Y02782D02*
X01992Y02767D01*
Y02757D02*
Y02767D01*
X01978Y02743D02*
X01992Y02757D01*
X01978Y02681D02*
Y02743D01*
Y02681D02*
X01997Y02662D01*
X032089Y048548D02*
Y048291D01*
X03196Y048419D02*
X032217D01*
X028389Y048507D02*
Y04825D01*
X02826Y048379D02*
X028517D01*
X027549Y048507D02*
Y04825D01*
X02742Y048379D02*
X027677D01*
X029337Y049158D02*
Y049415D01*
X029466Y049287D02*
X029209D01*
X032978Y048525D02*
Y048268D01*
X032849Y048396D02*
X033106D01*
X033949Y048548D02*
Y048291D01*
X03382Y048419D02*
X034077D01*
X03489Y048548D02*
Y048291D01*
X034761Y048419D02*
X035018D01*
X030209Y048532D02*
Y048275D01*
X03008Y048404D02*
X030337D01*
X031129Y04854D02*
Y048283D01*
X031Y048412D02*
X031257D01*
X043713Y049551D02*
X043456D01*
X043585Y04968D02*
Y049423D01*
D14*
X01521Y04658D02*
X01555D01*
X01521Y04608D02*
X01555D01*
X04123Y03693D02*
X04143D01*
X04123Y03748D02*
X04143D01*
X03763Y03298D02*
X03797D01*
X03763Y03348D02*
X03797D01*
X02885Y03416D02*
Y0345D01*
X02935Y03416D02*
Y0345D01*
X041965Y04666D02*
Y047D01*
X041465Y04666D02*
Y047D01*
X042285Y04665D02*
Y04699D01*
X042785Y04665D02*
Y04699D01*
X03225Y047167D02*
Y047367D01*
X0328Y047167D02*
Y047367D01*
X03141Y047167D02*
Y047367D01*
X03196Y047167D02*
Y047367D01*
X04132Y03361D02*
X04166D01*
X04132Y03311D02*
X04166D01*
X04173Y02827D02*
Y02847D01*
X04228Y02827D02*
Y02847D01*
X04227Y02993D02*
Y03013D01*
X04172Y02993D02*
Y03013D01*
X0259Y046621D02*
Y046961D01*
X0254Y046621D02*
Y046961D01*
X02536Y048338D02*
Y048538D01*
X02591Y048338D02*
Y048538D01*
X036625Y038415D02*
Y038755D01*
X036125Y038415D02*
Y038755D01*
X035816Y038415D02*
Y038755D01*
X035316Y038415D02*
Y038755D01*
X023702Y03953D02*
X024042D01*
X023702Y03903D02*
X024042D01*
X02358Y04319D02*
Y04339D01*
X02303Y04319D02*
Y04339D01*
Y044835D02*
Y045175D01*
X02353Y044835D02*
Y045175D01*
X02301Y046625D02*
Y046965D01*
X02351Y046625D02*
Y046965D01*
X02589Y044869D02*
Y045209D01*
X02539Y044869D02*
Y045209D01*
X02537Y04323D02*
Y04343D01*
X02592Y04323D02*
Y04343D01*
X02211Y03956D02*
X02231D01*
X02211Y03901D02*
X02231D01*
X025178Y040615D02*
Y040955D01*
X024678Y040615D02*
Y040955D01*
X01498Y04265D02*
X01532D01*
X01498Y04215D02*
X01532D01*
X019115Y04002D02*
Y04036D01*
X018615Y04002D02*
Y04036D01*
X02771Y047167D02*
Y047367D01*
X02826Y047167D02*
Y047367D01*
X02687Y04717D02*
Y04737D01*
X02742Y04717D02*
Y04737D01*
X03099Y04713D02*
Y04733D01*
X03044Y04713D02*
Y04733D01*
X02301Y048398D02*
Y048598D01*
X02356Y048398D02*
Y048598D01*
X02956Y04713D02*
Y04733D01*
X03011Y04713D02*
Y04733D01*
X03323Y047167D02*
Y047367D01*
X03378Y047167D02*
Y047367D01*
X034182Y047167D02*
Y047367D01*
X034732Y047167D02*
Y047367D01*
X04274Y04829D02*
Y04863D01*
X04224Y04829D02*
Y04863D01*
X041955Y0483D02*
Y04864D01*
X041455Y0483D02*
Y04864D01*
X04606Y04962D02*
X04626D01*
X04606Y04907D02*
X04626D01*
X02729Y04316D02*
Y0435D01*
X02779Y04316D02*
Y0435D01*
X029176Y04713D02*
Y04733D01*
X028626Y04713D02*
Y04733D01*
D15*
X030835Y026161D02*
Y030099D01*
X027245Y026161D02*
X030835D01*
X027245D02*
Y030099D01*
X030835D01*
X022845D02*
X026435D01*
X022845Y026161D02*
Y030099D01*
Y026161D02*
X026435D01*
Y030099D01*
X022061Y033131D02*
Y033387D01*
Y034293D02*
Y034549D01*
X022651Y032541D02*
X024659D01*
X022651Y035139D02*
X024659D01*
Y032541D02*
Y033387D01*
Y034332D02*
Y035139D01*
X022061Y034549D02*
X022651Y035139D01*
X022061Y033131D02*
X022651Y032541D01*
X016956Y039321D02*
Y041959D01*
X015854Y039321D02*
Y041959D01*
Y039321D02*
X016956D01*
X015854Y041959D02*
X016956D01*
X04671Y04474D02*
Y04504D01*
X04417Y04473D02*
Y04505D01*
Y04408D02*
X0467D01*
X04417Y04505D02*
X04671D01*
X0467Y04408D02*
Y044309D01*
X04417Y04408D02*
Y044309D01*
X021849Y041254D02*
X024211D01*
X021849Y040978D02*
Y041254D01*
X024211Y040978D02*
Y041254D01*
Y039876D02*
Y040152D01*
X021849Y039876D02*
Y040152D01*
Y039876D02*
X024211D01*
X023781Y043056D02*
Y045418D01*
Y043056D02*
X024057D01*
X023781Y045418D02*
X024057D01*
X024883D02*
X025159D01*
X024883Y043056D02*
X025159D01*
Y045418D01*
X021391Y043059D02*
Y045421D01*
Y043059D02*
X021667D01*
X021391Y045421D02*
X021667D01*
X022493D02*
X022769D01*
X022493Y043059D02*
X022769D01*
Y045421D01*
X023781Y046256D02*
Y048618D01*
Y046256D02*
X024057D01*
X023781Y048618D02*
X024057D01*
X024883D02*
X025159D01*
X024883Y046256D02*
X025159D01*
Y048618D01*
X022769Y046179D02*
Y048541D01*
X022493D02*
X022769D01*
X022493Y046179D02*
X022769D01*
X021391D02*
X021667D01*
X021391Y048541D02*
X021667D01*
X021391Y046179D02*
Y048541D01*
X014571Y047701D02*
Y047957D01*
Y048863D02*
Y049119D01*
X015161Y047111D02*
X017169D01*
X015161Y049709D02*
X017169D01*
Y047111D02*
Y047957D01*
Y048902D02*
Y049709D01*
X014571Y049119D02*
X015161Y049709D01*
X014571Y047701D02*
X015161Y047111D01*
X010594Y031299D02*
X013386D01*
X010236D02*
X010378D01*
X013386D02*
Y037205D01*
X010236Y031299D02*
Y037205D01*
X010594Y031299D02*
X010683Y031063D01*
X010289D02*
X010378Y031299D01*
X010289Y031063D02*
X010683D01*
X012451Y037441D02*
X012844D01*
X012451D02*
X012539Y037205D01*
X012756D02*
X012844Y037441D01*
X012756Y037205D02*
X013386D01*
X010236D02*
X012539D01*
X013811Y041642D02*
Y042378D01*
X010189Y043894D02*
X013811D01*
X010189Y040426D02*
Y043894D01*
Y040426D02*
X013811D01*
Y043441D02*
Y043894D01*
Y040426D02*
Y041178D01*
X013731Y045722D02*
Y046458D01*
X010109Y047974D02*
X013731D01*
X010109Y044506D02*
Y047974D01*
Y044506D02*
X013731D01*
Y047521D02*
Y047974D01*
Y044506D02*
Y045258D01*
X037774Y026051D02*
X038526D01*
X032058D02*
X032511D01*
X038526Y022429D02*
Y026051D01*
X032058Y022429D02*
X038526D01*
X032058D02*
Y026051D01*
X033574D02*
X03431D01*
X034774D02*
X03581D01*
X036274D02*
X03731D01*
X031122D02*
X031874D01*
X025406D02*
X025859D01*
X031874Y022429D02*
Y026051D01*
X025406Y022429D02*
X031874D01*
X025406D02*
Y026051D01*
X026922D02*
X027658D01*
X028122D02*
X029158D01*
X029622D02*
X030658D01*
X024482D02*
X025234D01*
X018766D02*
X019219D01*
X025234Y022429D02*
Y026051D01*
X018766Y022429D02*
X025234D01*
X018766D02*
Y026051D01*
X020282D02*
X021018D01*
X021482D02*
X022518D01*
X022982D02*
X024018D01*
X017762D02*
X018514D01*
X012046D02*
X012499D01*
X018514Y022429D02*
Y026051D01*
X012046Y022429D02*
X018514D01*
X012046D02*
Y026051D01*
X013562D02*
X014298D01*
X014762D02*
X015798D01*
X016262D02*
X017298D01*
X017829Y035219D02*
X018419Y034629D01*
X017829Y032621D02*
X018419Y033211D01*
X015821Y032621D02*
Y033428D01*
Y034373D02*
Y035219D01*
Y032621D02*
X017829D01*
X015821Y035219D02*
X017829D01*
X018419Y033211D02*
Y033467D01*
Y034373D02*
Y034629D01*
D16*
X02514Y0406D02*
Y04177D01*
X03515Y0406D02*
Y04177D01*
X02514D02*
X03515D01*
X02514Y0406D02*
X03515D01*
X02621D02*
Y04176D01*
X025831Y0402D02*
X029831D01*
Y0392D02*
Y0402D01*
X025831Y0392D02*
X029831D01*
X025831D02*
Y0402D01*
X028881Y03921D02*
Y0402D01*
X0488Y02575D02*
Y0269D01*
X04274Y02575D02*
Y0269D01*
Y02575D02*
X0488D01*
X04274Y0269D02*
X0488D01*
X04375Y02575D02*
Y02688D01*
X03411Y03926D02*
Y04044D01*
X02999Y03924D02*
Y04046D01*
X03517Y03924D02*
Y04046D01*
X02999D02*
X03517D01*
X02999Y03924D02*
X03517D01*
X035875Y04954D02*
X039875D01*
Y04854D02*
Y04954D01*
X035875Y04854D02*
X039875D01*
X035875D02*
Y04954D01*
X038925Y04855D02*
Y04954D01*
D17*
X05172Y036282D02*
Y043782D01*
X04122Y036282D02*
X05172D01*
X04122D02*
Y043782D01*
X05172D01*
X0426Y02695D02*
X052273D01*
X0426D02*
Y03295D01*
X0525D01*
Y02695D02*
Y03295D01*
X052273Y02695D02*
X0525D01*
X029286Y03735D02*
X0291D01*
Y03705D01*
X029286D01*
X0291Y037207D02*
X029214D01*
X029336Y03735D02*
Y03705D01*
Y03735D02*
X029536Y03705D01*
Y03735D02*
Y03705D01*
X029847D02*
X029733Y03735D01*
X029618Y03705D01*
X029661Y03715D02*
X029804D01*
X029917Y03735D02*
Y03705D01*
Y03735D02*
X030046D01*
X030088Y037336D01*
X030103Y037321D01*
X030117Y037293D01*
Y037264D01*
X030103Y037236D01*
X030088Y037221D01*
X030046Y037207D01*
X029917D02*
X030046D01*
X030088Y037193D01*
X030103Y037179D01*
X030117Y03715D01*
Y037107D01*
X030103Y037079D01*
X030088Y037064D01*
X030046Y03705D01*
X029917D01*
X030184Y03735D02*
Y03705D01*
X030355D01*
X030574Y03735D02*
X030388D01*
Y03705D01*
X030574D01*
X030388Y037207D02*
X030503D01*
X03008Y030502D02*
X02978Y030387D01*
X03008Y030273D02*
X02978Y030387D01*
X03008Y030234D02*
X02978D01*
X03008D02*
X02978Y03012D01*
X03008Y030006D02*
X02978Y03012D01*
X03008Y030006D02*
X02978D01*
X03008Y029835D02*
X030066Y029863D01*
X030037Y029892D01*
X030009Y029906D01*
X029966Y02992D01*
X029894D01*
X029851Y029906D01*
X029823Y029892D01*
X029794Y029863D01*
X02978Y029835D01*
Y029777D01*
X029794Y029749D01*
X029823Y02972D01*
X029851Y029706D01*
X029894Y029692D01*
X029966D01*
X030009Y029706D01*
X030037Y02972D01*
X030066Y029749D01*
X03008Y029777D01*
Y029835D01*
Y029522D02*
X02978D01*
X03008Y029622D02*
Y029422D01*
X021505Y030705D02*
X021205Y030591D01*
X021505Y030476D02*
X021205Y030591D01*
X021505Y030438D02*
X021205D01*
X021505D02*
X021205Y030324D01*
X021505Y030209D02*
X021205Y030324D01*
X021505Y030209D02*
X021205D01*
X021505Y030038D02*
X021491Y030067D01*
X021462Y030095D01*
X021434Y030109D01*
X021391Y030124D01*
X021319D01*
X021276Y030109D01*
X021248Y030095D01*
X021219Y030067D01*
X021205Y030038D01*
Y029981D01*
X021219Y029952D01*
X021248Y029924D01*
X021276Y029909D01*
X021319Y029895D01*
X021391D01*
X021434Y029909D01*
X021462Y029924D01*
X021491Y029952D01*
X021505Y029981D01*
Y030038D01*
Y029725D02*
X021205D01*
X021505Y029825D02*
Y029625D01*
X020496Y03734D02*
X02031D01*
Y03704D01*
X020496D01*
X02031Y037197D02*
X020424D01*
X020546Y03734D02*
Y03704D01*
Y03734D02*
X020746Y03704D01*
Y03734D02*
Y03704D01*
X021057D02*
X020943Y03734D01*
X020828Y03704D01*
X020871Y03714D02*
X021014D01*
X021127Y03734D02*
Y03704D01*
Y03734D02*
X021256D01*
X021298Y037326D01*
X021313Y037311D01*
X021327Y037283D01*
Y037254D01*
X021313Y037226D01*
X021298Y037211D01*
X021256Y037197D01*
X021127D02*
X021256D01*
X021298Y037183D01*
X021313Y037169D01*
X021327Y03714D01*
Y037097D01*
X021313Y037069D01*
X021298Y037054D01*
X021256Y03704D01*
X021127D01*
X021394Y03734D02*
Y03704D01*
X021565D01*
X021784Y03734D02*
X021598D01*
Y03704D01*
X021784D01*
X021598Y037197D02*
X021713D01*
X04062Y0304D02*
Y0307D01*
X04077D01*
X04082Y03065D01*
Y03055D01*
X04077Y0305D01*
X04062D01*
X04072D02*
X04082Y0304D01*
X04112D02*
X04092D01*
X04112Y0306D01*
Y03065D01*
X04107Y0307D01*
X04097D01*
X04092Y03065D01*
X04122Y0307D02*
X04142D01*
Y03065D01*
X04122Y03045D01*
Y0304D01*
X04062Y02874D02*
Y02904D01*
X04077D01*
X04082Y02899D01*
Y02889D01*
X04077Y02884D01*
X04062D01*
X04072D02*
X04082Y02874D01*
X04112D02*
X04092D01*
X04112Y02894D01*
Y02899D01*
X04107Y02904D01*
X04097D01*
X04092Y02899D01*
X04142Y02904D02*
X04132Y02899D01*
X04122Y02889D01*
Y02879D01*
X04127Y02874D01*
X04137D01*
X04142Y02879D01*
Y02884D01*
X04137Y02889D01*
X04122D01*
X023312Y03873D02*
X023262Y03878D01*
X023162D01*
X023112Y03873D01*
Y03853D01*
X023162Y03848D01*
X023262D01*
X023312Y03853D01*
X023611Y03848D02*
X023411D01*
X023611Y03868D01*
Y03873D01*
X023561Y03878D01*
X023461D01*
X023411Y03873D01*
X023911Y03848D02*
X023711D01*
X023911Y03868D01*
Y03873D01*
X023861Y03878D01*
X023761D01*
X023711Y03873D01*
X02328Y03074D02*
X02318Y03084D01*
X02298D01*
X02288Y03074D01*
Y03064D01*
X02298Y03054D01*
X02318D01*
X02328Y03044D01*
Y03034D01*
X02318Y03024D01*
X02298D01*
X02288Y03034D01*
X02348Y03074D02*
X02358Y03084D01*
X02378D01*
X02388Y03074D01*
Y03064D01*
X02378Y03054D01*
X02368D01*
X02378D01*
X02388Y03044D01*
Y03034D01*
X02378Y03024D01*
X02358D01*
X02348Y03034D01*
X039355Y039635D02*
Y039935D01*
X039505D01*
X039555Y039885D01*
Y039785D01*
X039505Y039735D01*
X039355D01*
X039655Y039885D02*
X039705Y039935D01*
X039805D01*
X039855Y039885D01*
Y039835D01*
X039805Y039785D01*
X039755D01*
X039805D01*
X039855Y039735D01*
Y039685D01*
X039805Y039635D01*
X039705D01*
X039655Y039685D01*
X027645Y03074D02*
X027545Y03084D01*
X027345D01*
X027245Y03074D01*
Y03064D01*
X027345Y03054D01*
X027545D01*
X027645Y03044D01*
Y03034D01*
X027545Y03024D01*
X027345D01*
X027245Y03034D01*
X028144Y03024D02*
Y03084D01*
X027845Y03054D01*
X028244D01*
X04584Y046779D02*
Y046529D01*
X04589Y046479D01*
X04599D01*
X04604Y046529D01*
Y046779D01*
X04634D02*
X04624Y046729D01*
X04614Y046629D01*
Y046529D01*
X04619Y046479D01*
X04629D01*
X04634Y046529D01*
Y046579D01*
X04629Y046629D01*
X04614D01*
X024805Y042695D02*
X024755Y042745D01*
X024655D01*
X024605Y042695D01*
Y042645D01*
X024655Y042595D01*
X024755D01*
X024805Y042545D01*
Y042495D01*
X024755Y042445D01*
X024655D01*
X024605Y042495D01*
X024905Y042745D02*
X025105D01*
Y042695D01*
X024905Y042495D01*
Y042445D01*
X02126Y04278D02*
X02121Y04283D01*
X02111D01*
X02106Y04278D01*
Y04273D01*
X02111Y04268D01*
X02121D01*
X02126Y04263D01*
Y04258D01*
X02121Y04253D01*
X02111D01*
X02106Y04258D01*
X02156Y04283D02*
X02146Y04278D01*
X02136Y04268D01*
Y04258D01*
X02141Y04253D01*
X02151D01*
X02156Y04258D01*
Y04263D01*
X02151Y04268D01*
X02136D01*
X021893Y041774D02*
X021843Y041824D01*
X021743D01*
X021693Y041774D01*
Y041724D01*
X021743Y041674D01*
X021843D01*
X021893Y041624D01*
Y041574D01*
X021843Y041524D01*
X021743D01*
X021693Y041574D01*
X022193Y041824D02*
X021993D01*
Y041674D01*
X022093Y041724D01*
X022143D01*
X022193Y041674D01*
Y041574D01*
X022143Y041524D01*
X022043D01*
X021993Y041574D01*
X0276Y046058D02*
Y046358D01*
X02775D01*
X0278Y046308D01*
Y046208D01*
X02775Y046158D01*
X0276D01*
X0277D02*
X0278Y046058D01*
X0281D02*
X0279D01*
X0281Y046258D01*
Y046308D01*
X02805Y046358D01*
X02795D01*
X0279Y046308D01*
X0284Y046358D02*
X0282D01*
Y046208D01*
X0283Y046258D01*
X02835D01*
X0284Y046208D01*
Y046108D01*
X02835Y046058D01*
X02825D01*
X0282Y046108D01*
X02648Y046071D02*
Y046371D01*
X02663D01*
X02668Y046321D01*
Y046221D01*
X02663Y046171D01*
X02648D01*
X02658D02*
X02668Y046071D01*
X02698D02*
X02678D01*
X02698Y046271D01*
Y046321D01*
X02693Y046371D01*
X02683D01*
X02678Y046321D01*
X02723Y046071D02*
Y046371D01*
X02708Y046221D01*
X02728D01*
X02616Y0437D02*
Y044D01*
X02631D01*
X02636Y04395D01*
Y04385D01*
X02631Y0438D01*
X02616D01*
X02626D02*
X02636Y0437D01*
X02666D02*
X02646D01*
X02666Y0439D01*
Y04395D01*
X02661Y044D01*
X02651D01*
X02646Y04395D01*
X02676D02*
X02681Y044D01*
X02691D01*
X02696Y04395D01*
Y0439D01*
X02691Y04385D01*
X02686D01*
X02691D01*
X02696Y0438D01*
Y04375D01*
X02691Y0437D01*
X02681D01*
X02676Y04375D01*
X02296Y04204D02*
Y04234D01*
X02311D01*
X02316Y04229D01*
Y04219D01*
X02311Y04214D01*
X02296D01*
X02306D02*
X02316Y04204D01*
X02346D02*
X02326D01*
X02346Y04224D01*
Y04229D01*
X02341Y04234D01*
X02331D01*
X02326Y04229D01*
X02376Y04204D02*
X02356D01*
X02376Y04224D01*
Y04229D01*
X02371Y04234D01*
X02361D01*
X02356Y04229D01*
X03134Y045999D02*
Y046299D01*
X03149D01*
X03154Y046249D01*
Y046149D01*
X03149Y046099D01*
X03134D01*
X03144D02*
X03154Y045999D01*
X03184D02*
X03164D01*
X03184Y046199D01*
Y046249D01*
X03179Y046299D01*
X03169D01*
X03164Y046249D01*
X03194Y045999D02*
X03204D01*
X03199D01*
Y046299D01*
X03194Y046249D01*
X03224Y045999D02*
Y046299D01*
X03239D01*
X03244Y046249D01*
Y046149D01*
X03239Y046099D01*
X03224D01*
X03234D02*
X03244Y045999D01*
X03274D02*
X03254D01*
X03274Y046199D01*
Y046249D01*
X03269Y046299D01*
X03259D01*
X03254Y046249D01*
X03284D02*
X03289Y046299D01*
X03299D01*
X03304Y046249D01*
Y046049D01*
X03299Y045999D01*
X03289D01*
X03284Y046049D01*
Y046249D01*
X03326Y046031D02*
Y046331D01*
X03341D01*
X03346Y046281D01*
Y046181D01*
X03341Y046131D01*
X03326D01*
X03336D02*
X03346Y046031D01*
X03356D02*
X03366D01*
X03361D01*
Y046331D01*
X03356Y046281D01*
X03381Y046081D02*
X03386Y046031D01*
X03396D01*
X03401Y046081D01*
Y046281D01*
X03396Y046331D01*
X03386D01*
X03381Y046281D01*
Y046231D01*
X03386Y046181D01*
X03401D01*
X03424Y046031D02*
Y046331D01*
X03439D01*
X03444Y046281D01*
Y046181D01*
X03439Y046131D01*
X03424D01*
X03434D02*
X03444Y046031D01*
X03454D02*
X03464D01*
X03459D01*
Y046331D01*
X03454Y046281D01*
X03479D02*
X03484Y046331D01*
X03494D01*
X03499Y046281D01*
Y046231D01*
X03494Y046181D01*
X03499Y046131D01*
Y046081D01*
X03494Y046031D01*
X03484D01*
X03479Y046081D01*
Y046131D01*
X03484Y046181D01*
X03479Y046231D01*
Y046281D01*
X03484Y046181D02*
X03494D01*
X04619Y04842D02*
Y04872D01*
X04634D01*
X04639Y04867D01*
Y04857D01*
X04634Y04852D01*
X04619D01*
X04629D02*
X04639Y04842D01*
X04649Y04867D02*
X04654Y04872D01*
X04664D01*
X04669Y04867D01*
Y04862D01*
X04664Y04857D01*
X04659D01*
X04664D01*
X04669Y04852D01*
Y04847D01*
X04664Y04842D01*
X04654D01*
X04649Y04847D01*
X04699Y04872D02*
X04689Y04867D01*
X04679Y04857D01*
Y04847D01*
X04684Y04842D01*
X04694D01*
X04699Y04847D01*
Y04852D01*
X04694Y04857D01*
X04679D01*
X040145Y037685D02*
Y037985D01*
X040295D01*
X040345Y037935D01*
Y037835D01*
X040295Y037785D01*
X040145D01*
X040245D02*
X040345Y037685D01*
X040445Y037935D02*
X040495Y037985D01*
X040595D01*
X040645Y037935D01*
Y037885D01*
X040595Y037835D01*
X040545D01*
X040595D01*
X040645Y037785D01*
Y037735D01*
X040595Y037685D01*
X040495D01*
X040445Y037735D01*
X040945Y037985D02*
X040745D01*
Y037835D01*
X040845Y037885D01*
X040895D01*
X040945Y037835D01*
Y037735D01*
X040895Y037685D01*
X040795D01*
X040745Y037735D01*
X0209Y03962D02*
X0212D01*
Y03947D01*
X02115Y03942D01*
X02105D01*
X021Y03947D01*
Y03962D01*
Y03952D02*
X0209Y03942D01*
Y03932D02*
Y03922D01*
Y03927D01*
X0212D01*
X02115Y03932D01*
X0212Y03887D02*
X02115Y03897D01*
X02105Y03907D01*
X02095D01*
X0209Y03902D01*
Y03892D01*
X02095Y03887D01*
X021D01*
X02105Y03892D01*
Y03907D01*
X02944Y046003D02*
Y046303D01*
X02959D01*
X02964Y046253D01*
Y046153D01*
X02959Y046103D01*
X02944D01*
X02954D02*
X02964Y046003D01*
X02974D02*
X02984D01*
X02979D01*
Y046303D01*
X02974Y046253D01*
X02999Y046303D02*
X03019D01*
Y046253D01*
X02999Y046053D01*
Y046003D01*
X030353Y045962D02*
Y046262D01*
X030503D01*
X030553Y046212D01*
Y046112D01*
X030503Y046062D01*
X030353D01*
X030453D02*
X030553Y045962D01*
X030653D02*
X030753D01*
X030703D01*
Y046262D01*
X030653Y046212D01*
X031102Y046262D02*
X030903D01*
Y046112D01*
X031003Y046162D01*
X031053D01*
X031102Y046112D01*
Y046012D01*
X031053Y045962D01*
X030953D01*
X030903Y046012D01*
X025875Y03872D02*
Y03902D01*
X026025D01*
X026075Y03897D01*
Y03887D01*
X026025Y03882D01*
X025875D01*
X026375Y03872D02*
X026175D01*
X026375Y03892D01*
Y03897D01*
X026325Y03902D01*
X026225D01*
X026175Y03897D01*
X026475D02*
X026525Y03902D01*
X026625D01*
X026675Y03897D01*
Y03892D01*
X026625Y03887D01*
X026675Y03882D01*
Y03877D01*
X026625Y03872D01*
X026525D01*
X026475Y03877D01*
Y03882D01*
X026525Y03887D01*
X026475Y03892D01*
Y03897D01*
X026525Y03887D02*
X026625D01*
X02526Y0381D02*
X02556D01*
Y03795D01*
X02551Y0379D01*
X02541D01*
X02536Y03795D01*
Y0381D01*
X02526Y0376D02*
Y0378D01*
X02546Y0376D01*
X02551D01*
X02556Y03765D01*
Y03775D01*
X02551Y0378D01*
X02556Y0375D02*
Y0373D01*
X02551D01*
X02531Y0375D01*
X02526D01*
X01941Y049645D02*
Y049945D01*
X01956D01*
X01961Y049895D01*
Y049795D01*
X01956Y049745D01*
X01941D01*
X01991Y049645D02*
X01971D01*
X01991Y049845D01*
Y049895D01*
X01986Y049945D01*
X01976D01*
X01971Y049895D01*
X02021Y049945D02*
X02011Y049895D01*
X02001Y049795D01*
Y049695D01*
X02006Y049645D01*
X02016D01*
X02021Y049695D01*
Y049745D01*
X02016Y049795D01*
X02001D01*
X034214Y03878D02*
Y03908D01*
X034364D01*
X034414Y03903D01*
Y03893D01*
X034364Y03888D01*
X034214D01*
X034714Y03878D02*
X034514D01*
X034714Y03898D01*
Y03903D01*
X034664Y03908D01*
X034564D01*
X034514Y03903D01*
X035014Y03908D02*
X034814D01*
Y03893D01*
X034914Y03898D01*
X034964D01*
X035014Y03893D01*
Y03883D01*
X034964Y03878D01*
X034864D01*
X034814Y03883D01*
X035965Y0496D02*
Y0499D01*
X036115D01*
X036165Y04985D01*
Y04975D01*
X036115Y0497D01*
X035965D01*
X036465Y0496D02*
X036265D01*
X036465Y0498D01*
Y04985D01*
X036415Y0499D01*
X036315D01*
X036265Y04985D01*
X036715Y0496D02*
Y0499D01*
X036565Y04975D01*
X036765D01*
X0389Y037155D02*
Y037455D01*
X03905D01*
X0391Y037405D01*
Y037305D01*
X03905Y037255D01*
X0389D01*
X0392Y037405D02*
X03925Y037455D01*
X03935D01*
X0394Y037405D01*
Y037355D01*
X03935Y037305D01*
X0393D01*
X03935D01*
X0394Y037255D01*
Y037205D01*
X03935Y037155D01*
X03925D01*
X0392Y037205D01*
X0395Y037155D02*
X0396D01*
X03955D01*
Y037455D01*
X0395Y037405D01*
X04002Y03459D02*
Y03489D01*
X04017D01*
X04022Y03484D01*
Y03474D01*
X04017Y03469D01*
X04002D01*
X04032Y03484D02*
X04037Y03489D01*
X04047D01*
X04052Y03484D01*
Y03479D01*
X04047Y03474D01*
X04042D01*
X04047D01*
X04052Y03469D01*
Y03464D01*
X04047Y03459D01*
X04037D01*
X04032Y03464D01*
X04062Y03484D02*
X04067Y03489D01*
X04077D01*
X04082Y03484D01*
Y03464D01*
X04077Y03459D01*
X04067D01*
X04062Y03464D01*
Y03484D01*
X04216Y02672D02*
X04246D01*
Y02657D01*
X04241Y02652D01*
X04231D01*
X04226Y02657D01*
Y02672D01*
X04216Y02622D02*
Y02642D01*
X04236Y02622D01*
X04241D01*
X04246Y02627D01*
Y02637D01*
X04241Y02642D01*
X04221Y02612D02*
X04216Y02607D01*
Y02597D01*
X04221Y02592D01*
X04241D01*
X04246Y02597D01*
Y02607D01*
X04241Y02612D01*
X04236D01*
X04231Y02607D01*
Y02592D01*
X03942Y048022D02*
X03972D01*
Y047872D01*
X03967Y047822D01*
X03957D01*
X03952Y047872D01*
Y048022D01*
X03942Y047522D02*
Y047722D01*
X03962Y047522D01*
X03967D01*
X03972Y047572D01*
Y047672D01*
X03967Y047722D01*
Y047422D02*
X03972Y047372D01*
Y047272D01*
X03967Y047222D01*
X03962D01*
X03957Y047272D01*
Y047322D01*
Y047272D01*
X03952Y047222D01*
X03947D01*
X03942Y047272D01*
Y047372D01*
X03947Y047422D01*
X040195Y046345D02*
Y046645D01*
X040345D01*
X040395Y046595D01*
Y046495D01*
X040345Y046445D01*
X040195D01*
X040695Y046345D02*
X040495D01*
X040695Y046545D01*
Y046595D01*
X040645Y046645D01*
X040545D01*
X040495Y046595D01*
X040995Y046345D02*
X040795D01*
X040995Y046545D01*
Y046595D01*
X040945Y046645D01*
X040845D01*
X040795Y046595D01*
X040805Y043985D02*
Y044285D01*
X040905Y044185D01*
X041005Y044285D01*
Y043985D01*
X041105Y044035D02*
X041155Y043985D01*
X041255D01*
X041305Y044035D01*
Y044235D01*
X041255Y044285D01*
X041155D01*
X041105Y044235D01*
Y044185D01*
X041155Y044135D01*
X041305D01*
X04104Y03544D02*
Y03574D01*
X04114Y03564D01*
X04124Y03574D01*
Y03544D01*
X04134Y03569D02*
X04139Y03574D01*
X04149D01*
X04154Y03569D01*
Y03564D01*
X04149Y03559D01*
X04154Y03554D01*
Y03549D01*
X04149Y03544D01*
X04139D01*
X04134Y03549D01*
Y03554D01*
X04139Y03559D01*
X04134Y03564D01*
Y03569D01*
X04139Y03559D02*
X04149D01*
X04176Y03256D02*
Y03286D01*
X04186Y03276D01*
X04196Y03286D01*
Y03256D01*
X04226Y03286D02*
X04216Y03281D01*
X04206Y03271D01*
Y03261D01*
X04211Y03256D01*
X04221D01*
X04226Y03261D01*
Y03266D01*
X04221Y03271D01*
X04206D01*
X03178Y03281D02*
Y03311D01*
X03188Y03301D01*
X03198Y03311D01*
Y03281D01*
X03228Y03311D02*
X03208D01*
Y03296D01*
X03218Y03301D01*
X03223D01*
X03228Y03296D01*
Y03286D01*
X03223Y03281D01*
X03213D01*
X03208Y03286D01*
X041341Y02436D02*
Y02466D01*
X041441Y02456D01*
X041541Y02466D01*
Y02436D01*
X041641Y02461D02*
X041691Y02466D01*
X041791D01*
X041841Y02461D01*
Y02456D01*
X041791Y02451D01*
X041741D01*
X041791D01*
X041841Y02446D01*
Y02441D01*
X041791Y02436D01*
X041691D01*
X041641Y02441D01*
X049Y0447D02*
X0489D01*
X04895D01*
Y04445D01*
X0489Y0444D01*
X04885D01*
X0488Y04445D01*
X0493Y0444D02*
X0491D01*
X0493Y0446D01*
Y04465D01*
X04925Y0447D01*
X04915D01*
X0491Y04465D01*
X02772Y04991D02*
Y049611D01*
X02787D01*
X02792Y049661D01*
Y049861D01*
X02787Y04991D01*
X02772D01*
X02802Y049661D02*
X02807Y049611D01*
X02817D01*
X02822Y049661D01*
Y049861D01*
X02817Y04991D01*
X02807D01*
X02802Y049861D01*
Y049811D01*
X02807Y049761D01*
X02822D01*
X02684Y049913D02*
Y049613D01*
X02699D01*
X02704Y049663D01*
Y049863D01*
X02699Y049913D01*
X02684D01*
X02714Y049863D02*
X02719Y049913D01*
X02729D01*
X02734Y049863D01*
Y049813D01*
X02729Y049763D01*
X02734Y049713D01*
Y049663D01*
X02729Y049613D01*
X02719D01*
X02714Y049663D01*
Y049713D01*
X02719Y049763D01*
X02714Y049813D01*
Y049863D01*
X02719Y049763D02*
X02729D01*
X03141Y049941D02*
Y049641D01*
X03156D01*
X03161Y049691D01*
Y049891D01*
X03156Y049941D01*
X03141D01*
X03171D02*
X03191D01*
Y049891D01*
X03171Y049691D01*
Y049641D01*
X03224Y049951D02*
Y049651D01*
X03239D01*
X03244Y049701D01*
Y049901D01*
X03239Y049951D01*
X03224D01*
X03274D02*
X03264Y049901D01*
X03254Y049801D01*
Y049701D01*
X03259Y049651D01*
X03269D01*
X03274Y049701D01*
Y049751D01*
X03269Y049801D01*
X03254D01*
X03326Y049931D02*
Y049631D01*
X03341D01*
X03346Y049681D01*
Y049881D01*
X03341Y049931D01*
X03326D01*
X03376D02*
X03356D01*
Y049781D01*
X03366Y049831D01*
X03371D01*
X03376Y049781D01*
Y049681D01*
X03371Y049631D01*
X03361D01*
X03356Y049681D01*
X034201Y049941D02*
Y049641D01*
X034351D01*
X034401Y049691D01*
Y049891D01*
X034351Y049941D01*
X034201D01*
X034651Y049641D02*
Y049941D01*
X034501Y049791D01*
X034701D01*
X04608Y045555D02*
Y045255D01*
X04623D01*
X04628Y045305D01*
Y045505D01*
X04623Y045555D01*
X04608D01*
X04638Y045255D02*
X04648D01*
X04643D01*
Y045555D01*
X04638Y045505D01*
X04663Y045255D02*
X04673D01*
X04668D01*
Y045555D01*
X04663Y045505D01*
X04339Y048485D02*
X04369D01*
Y048635D01*
X04364Y048685D01*
X04344D01*
X04339Y048635D01*
Y048485D01*
X04369Y048785D02*
Y048885D01*
Y048835D01*
X04339D01*
X04344Y048785D01*
Y049035D02*
X04339Y049085D01*
Y049185D01*
X04344Y049235D01*
X04364D01*
X04369Y049185D01*
Y049085D01*
X04364Y049035D01*
X04344D01*
X0296Y049935D02*
Y049635D01*
X02975D01*
X0298Y049685D01*
Y049885D01*
X02975Y049935D01*
X0296D01*
X0299Y049885D02*
X02995Y049935D01*
X03005D01*
X0301Y049885D01*
Y049835D01*
X03005Y049785D01*
X03D01*
X03005D01*
X0301Y049735D01*
Y049685D01*
X03005Y049635D01*
X02995D01*
X0299Y049685D01*
X03044Y049923D02*
Y049623D01*
X03059D01*
X03064Y049673D01*
Y049873D01*
X03059Y049923D01*
X03044D01*
X03094Y049623D02*
X03074D01*
X03094Y049823D01*
Y049873D01*
X03089Y049923D01*
X03079D01*
X03074Y049873D01*
X0264Y045719D02*
X02635Y045769D01*
X02625D01*
X0262Y045719D01*
Y045519D01*
X02625Y045469D01*
X02635D01*
X0264Y045519D01*
X0267Y045469D02*
X0265D01*
X0267Y045669D01*
Y045719D01*
X02665Y045769D01*
X02655D01*
X0265Y045719D01*
X027Y045769D02*
X0268D01*
Y045619D01*
X0269Y045669D01*
X02695D01*
X027Y045619D01*
Y045519D01*
X02695Y045469D01*
X02685D01*
X0268Y045519D01*
X024105Y04593D02*
X024055Y04598D01*
X023955D01*
X023905Y04593D01*
Y04573D01*
X023955Y04568D01*
X024055D01*
X024105Y04573D01*
X024405Y04568D02*
X024205D01*
X024405Y04588D01*
Y04593D01*
X024355Y04598D01*
X024255D01*
X024205Y04593D01*
X024655Y04568D02*
Y04598D01*
X024505Y04583D01*
X024705D01*
X02734Y044539D02*
X02729Y044589D01*
X02719D01*
X02714Y044539D01*
Y044339D01*
X02719Y044289D01*
X02729D01*
X02734Y044339D01*
X02764Y044289D02*
X02744D01*
X02764Y044489D01*
Y044539D01*
X02759Y044589D01*
X02749D01*
X02744Y044539D01*
X02774D02*
X02779Y044589D01*
X02789D01*
X02794Y044539D01*
Y044489D01*
X02789Y044439D01*
X02784D01*
X02789D01*
X02794Y044389D01*
Y044339D01*
X02789Y044289D01*
X02779D01*
X02774Y044339D01*
X042445Y04589D02*
X042395Y04594D01*
X042295D01*
X042245Y04589D01*
Y04569D01*
X042295Y04564D01*
X042395D01*
X042445Y04569D01*
X042545Y04589D02*
X042595Y04594D01*
X042695D01*
X042745Y04589D01*
Y04584D01*
X042695Y04579D01*
X042645D01*
X042695D01*
X042745Y04574D01*
Y04569D01*
X042695Y04564D01*
X042595D01*
X042545Y04569D01*
X043045Y04594D02*
X042845D01*
Y04579D01*
X042945Y04584D01*
X042995D01*
X043045Y04579D01*
Y04569D01*
X042995Y04564D01*
X042895D01*
X042845Y04569D01*
X04153Y04966D02*
X04148Y04971D01*
X04138D01*
X04133Y04966D01*
Y04946D01*
X04138Y04941D01*
X04148D01*
X04153Y04946D01*
X04163Y04966D02*
X04168Y04971D01*
X04178D01*
X04183Y04966D01*
Y04961D01*
X04178Y04956D01*
X04173D01*
X04178D01*
X04183Y04951D01*
Y04946D01*
X04178Y04941D01*
X04168D01*
X04163Y04946D01*
X04208Y04941D02*
Y04971D01*
X04193Y04956D01*
X04213D01*
X04139Y045865D02*
X04134Y045915D01*
X04124D01*
X04119Y045865D01*
Y045665D01*
X04124Y045615D01*
X04134D01*
X04139Y045665D01*
X04149Y045865D02*
X04154Y045915D01*
X04164D01*
X04169Y045865D01*
Y045815D01*
X04164Y045765D01*
X04159D01*
X04164D01*
X04169Y045715D01*
Y045665D01*
X04164Y045615D01*
X04154D01*
X04149Y045665D01*
X04179Y045865D02*
X04184Y045915D01*
X04194D01*
X04199Y045865D01*
Y045815D01*
X04194Y045765D01*
X04189D01*
X04194D01*
X04199Y045715D01*
Y045665D01*
X04194Y045615D01*
X04184D01*
X04179Y045665D01*
X042595Y049675D02*
X042545Y049725D01*
X042445D01*
X042395Y049675D01*
Y049475D01*
X042445Y049425D01*
X042545D01*
X042595Y049475D01*
X042695Y049675D02*
X042745Y049725D01*
X042845D01*
X042895Y049675D01*
Y049625D01*
X042845Y049575D01*
X042795D01*
X042845D01*
X042895Y049525D01*
Y049475D01*
X042845Y049425D01*
X042745D01*
X042695Y049475D01*
X043195Y049425D02*
X042995D01*
X043195Y049625D01*
Y049675D01*
X043145Y049725D01*
X043045D01*
X042995Y049675D01*
X040735Y0449D02*
X040685Y04495D01*
X040585D01*
X040535Y0449D01*
Y0447D01*
X040585Y04465D01*
X040685D01*
X040735Y0447D01*
X040835Y0449D02*
X040885Y04495D01*
X040985D01*
X041035Y0449D01*
Y04485D01*
X040985Y0448D01*
X040935D01*
X040985D01*
X041035Y04475D01*
Y0447D01*
X040985Y04465D01*
X040885D01*
X040835Y0447D01*
X041135Y0449D02*
X041185Y04495D01*
X041285D01*
X041335Y0449D01*
Y0447D01*
X041285Y04465D01*
X041185D01*
X041135Y0447D01*
Y0449D01*
X041Y034165D02*
X04095Y034215D01*
X04085D01*
X0408Y034165D01*
Y033965D01*
X04085Y033915D01*
X04095D01*
X041Y033965D01*
X0413Y033915D02*
X0411D01*
X0413Y034115D01*
Y034165D01*
X04125Y034215D01*
X04115D01*
X0411Y034165D01*
X0414Y034215D02*
X0416D01*
Y034165D01*
X0414Y033965D01*
Y033915D01*
X03714Y03407D02*
X03709Y03412D01*
X03699D01*
X03694Y03407D01*
Y03387D01*
X03699Y03382D01*
X03709D01*
X03714Y03387D01*
X03744Y03382D02*
X03724D01*
X03744Y03402D01*
Y03407D01*
X03739Y03412D01*
X03729D01*
X03724Y03407D01*
X03774Y03412D02*
X03764Y03407D01*
X03754Y03397D01*
Y03387D01*
X03759Y03382D01*
X03769D01*
X03774Y03387D01*
Y03392D01*
X03769Y03397D01*
X03754D01*
X021915Y02972D02*
Y03002D01*
X022065D01*
X022115Y02997D01*
Y02987D01*
X022065Y02982D01*
X021915D01*
X022415Y02972D02*
X022215D01*
X022415Y02992D01*
Y02997D01*
X022365Y03002D01*
X022265D01*
X022215Y02997D01*
X022515Y02972D02*
X022615D01*
X022565D01*
Y03002D01*
X022515Y02997D01*
X01984Y02994D02*
Y03024D01*
X01999D01*
X02004Y03019D01*
Y03009D01*
X01999Y03004D01*
X01984D01*
X02034Y02994D02*
X02014D01*
X02034Y03014D01*
Y03019D01*
X02029Y03024D01*
X02019D01*
X02014Y03019D01*
X02044D02*
X02049Y03024D01*
X02059D01*
X02064Y03019D01*
Y02999D01*
X02059Y02994D01*
X02049D01*
X02044Y02999D01*
Y03019D01*
X0168Y02998D02*
Y03028D01*
X01695D01*
X017Y03023D01*
Y03013D01*
X01695Y03008D01*
X0168D01*
X0171Y02998D02*
X0172D01*
X01715D01*
Y03028D01*
X0171Y03023D01*
X01735Y03003D02*
X0174Y02998D01*
X0175D01*
X01755Y03003D01*
Y03023D01*
X0175Y03028D01*
X0174D01*
X01735Y03023D01*
Y03018D01*
X0174Y03013D01*
X01755D01*
X01832Y02998D02*
Y03028D01*
X01847D01*
X01852Y03023D01*
Y03013D01*
X01847Y03008D01*
X01832D01*
X01862Y02998D02*
X01872D01*
X01867D01*
Y03028D01*
X01862Y03023D01*
X01887D02*
X01892Y03028D01*
X01902D01*
X01907Y03023D01*
Y03018D01*
X01902Y03013D01*
X01907Y03008D01*
Y03003D01*
X01902Y02998D01*
X01892D01*
X01887Y03003D01*
Y03008D01*
X01892Y03013D01*
X01887Y03018D01*
Y03023D01*
X01892Y03013D02*
X01902D01*
X01512Y02994D02*
Y03024D01*
X01527D01*
X01532Y03019D01*
Y03009D01*
X01527Y03004D01*
X01512D01*
X01542Y02994D02*
X01552D01*
X01547D01*
Y03024D01*
X01542Y03019D01*
X01567Y03024D02*
X01587D01*
Y03019D01*
X01567Y02999D01*
Y02994D01*
X01368Y02998D02*
Y03028D01*
X01383D01*
X01388Y03023D01*
Y03013D01*
X01383Y03008D01*
X01368D01*
X01398Y02998D02*
X01408D01*
X01403D01*
Y03028D01*
X01398Y03023D01*
X01443Y03028D02*
X01433Y03023D01*
X01423Y03013D01*
Y03003D01*
X01428Y02998D01*
X01438D01*
X01443Y03003D01*
Y03008D01*
X01438Y03013D01*
X01423D01*
X01202Y02994D02*
Y03024D01*
X01217D01*
X01222Y03019D01*
Y03009D01*
X01217Y03004D01*
X01202D01*
X01232Y02994D02*
X01242D01*
X01237D01*
Y03024D01*
X01232Y03019D01*
X01277Y03024D02*
X01257D01*
Y03009D01*
X01267Y03014D01*
X01272D01*
X01277Y03009D01*
Y02999D01*
X01272Y02994D01*
X01262D01*
X01257Y02999D01*
X01032Y03002D02*
Y03032D01*
X01047D01*
X01052Y03027D01*
Y03017D01*
X01047Y03012D01*
X01032D01*
X01062Y03002D02*
X01072D01*
X01067D01*
Y03032D01*
X01062Y03027D01*
X01102Y03002D02*
Y03032D01*
X01087Y03017D01*
X01107D01*
X01912Y02616D02*
Y02646D01*
X01927D01*
X01932Y02641D01*
Y02631D01*
X01927Y02626D01*
X01912D01*
X01942Y02616D02*
X01952D01*
X01947D01*
Y02646D01*
X01942Y02641D01*
X01967D02*
X01972Y02646D01*
X01982D01*
X01987Y02641D01*
Y02636D01*
X01982Y02631D01*
X01977D01*
X01982D01*
X01987Y02626D01*
Y02621D01*
X01982Y02616D01*
X01972D01*
X01967Y02621D01*
X04017Y026455D02*
Y026755D01*
X04032D01*
X04037Y026705D01*
Y026605D01*
X04032Y026555D01*
X04017D01*
X04047Y026455D02*
X04057D01*
X04052D01*
Y026755D01*
X04047Y026705D01*
X04072Y026455D02*
X04082D01*
X04077D01*
Y026755D01*
X04072Y026705D01*
X01784Y038852D02*
Y039151D01*
X01799D01*
X01804Y039101D01*
Y039002D01*
X01799Y038952D01*
X01784D01*
X01814Y038852D02*
X01824D01*
X01819D01*
Y039151D01*
X01814Y039101D01*
X01839D02*
X01844Y039151D01*
X01854D01*
X01859Y039101D01*
Y038902D01*
X01854Y038852D01*
X01844D01*
X01839Y038902D01*
Y039101D01*
X01312Y03896D02*
Y03926D01*
X01327D01*
X01332Y03921D01*
Y03911D01*
X01327Y03906D01*
X01312D01*
X01342Y03901D02*
X01347Y03896D01*
X01357D01*
X01362Y03901D01*
Y03921D01*
X01357Y03926D01*
X01347D01*
X01342Y03921D01*
Y03916D01*
X01347Y03911D01*
X01362D01*
X028825Y03823D02*
Y03853D01*
X028975D01*
X029025Y03848D01*
Y03838D01*
X028975Y03833D01*
X028825D01*
X029125Y03823D02*
X029225D01*
X029175D01*
Y03853D01*
X029125Y03848D01*
X023175Y03559D02*
X023125Y03564D01*
X023025D01*
X022975Y03559D01*
Y03539D01*
X023025Y03534D01*
X023125D01*
X023175Y03539D01*
X023475Y03534D02*
X023275D01*
X023475Y03554D01*
Y03559D01*
X023425Y03564D01*
X023325D01*
X023275Y03559D01*
X023575D02*
X023625Y03564D01*
X023725D01*
X023775Y03559D01*
Y03539D01*
X023725Y03534D01*
X023625D01*
X023575Y03539D01*
Y03559D01*
X0158Y03581D02*
X01575Y03586D01*
X01565D01*
X0156Y03581D01*
Y03561D01*
X01565Y03556D01*
X01575D01*
X0158Y03561D01*
X0159Y03556D02*
X016D01*
X01595D01*
Y03586D01*
X0159Y03581D01*
X01615Y03561D02*
X0162Y03556D01*
X0163D01*
X01635Y03561D01*
Y03581D01*
X0163Y03586D01*
X0162D01*
X01615Y03581D01*
Y03576D01*
X0162Y03571D01*
X01635D01*
X012079Y04944D02*
Y04974D01*
X012229D01*
X012279Y04969D01*
Y04959D01*
X012229Y04954D01*
X012079D01*
X012578Y04974D02*
X012478Y04969D01*
X012378Y04959D01*
Y04949D01*
X012428Y04944D01*
X012528D01*
X012578Y04949D01*
Y04954D01*
X012528Y04959D01*
X012378D01*
X010289Y039765D02*
Y040065D01*
X010439D01*
X010489Y040015D01*
Y039915D01*
X010439Y039865D01*
X010289D01*
X010789Y040065D02*
X010589D01*
Y039915D01*
X010689Y039965D01*
X010739D01*
X010789Y039915D01*
Y039815D01*
X010739Y039765D01*
X010639D01*
X010589Y039815D01*
X010289Y044095D02*
Y044395D01*
X010439D01*
X010489Y044345D01*
Y044245D01*
X010439Y044195D01*
X010289D01*
X010739Y044095D02*
Y044395D01*
X010589Y044245D01*
X010789D01*
X030835Y03104D02*
Y03164D01*
X031035Y03144D01*
X031235Y03164D01*
Y03104D01*
X031835D02*
X031435D01*
X031835Y03144D01*
Y03154D01*
X031735Y03164D01*
X031535D01*
X031435Y03154D01*
X0144Y037103D02*
Y037702D01*
X0146Y037503D01*
X0148Y037702D01*
Y037103D01*
X015D02*
X0152D01*
X0151D01*
Y037702D01*
X015Y037603D01*
X03159Y03465D02*
Y0344D01*
X03164Y03435D01*
X03174D01*
X03179Y0344D01*
Y03465D01*
X03189Y03435D02*
X03199D01*
X03194D01*
Y03465D01*
X03189Y0346D01*
X02479Y04905D02*
X02474Y0491D01*
X02464D01*
X02459Y04905D01*
Y049D01*
X02464Y04895D01*
X02474D01*
X02479Y0489D01*
Y04885D01*
X02474Y0488D01*
X02464D01*
X02459Y04885D01*
X02509Y0488D02*
X02489D01*
X02509Y049D01*
Y04905D01*
X02504Y0491D01*
X02494D01*
X02489Y04905D01*
X02121Y046D02*
X02116Y04605D01*
X02106D01*
X02101Y046D01*
Y04595D01*
X02106Y0459D01*
X02116D01*
X02121Y04585D01*
Y0458D01*
X02116Y04575D01*
X02106D01*
X02101Y0458D01*
X02131Y04575D02*
X02141D01*
X02136D01*
Y04605D01*
X02131Y046D01*
X028691Y046003D02*
Y046303D01*
X028841D01*
X028891Y046253D01*
Y046153D01*
X028841Y046103D01*
X028691D01*
X028791D02*
X028891Y046003D01*
X029191Y046303D02*
X029091Y046253D01*
X028991Y046153D01*
Y046053D01*
X029041Y046003D01*
X029141D01*
X029191Y046053D01*
Y046103D01*
X029141Y046153D01*
X028991D01*
X0262Y04888D02*
Y04918D01*
X02635D01*
X0264Y04913D01*
Y04903D01*
X02635Y04898D01*
X0262D01*
X0263D02*
X0264Y04888D01*
X0267D02*
X0265D01*
X0267Y04908D01*
Y04913D01*
X02665Y04918D01*
X02655D01*
X0265Y04913D01*
X022285Y04894D02*
Y04924D01*
X022435D01*
X022485Y04919D01*
Y04909D01*
X022435Y04904D01*
X022285D01*
X022385D02*
X022485Y04894D01*
X022585D02*
X022685D01*
X022635D01*
Y04924D01*
X022585Y04919D01*
X020025Y046756D02*
Y047056D01*
X020175D01*
X020225Y047006D01*
Y046906D01*
X020175Y046856D01*
X020025D01*
X020325Y047056D02*
X020425D01*
X020375D01*
Y046756D01*
X020325D01*
X020425D01*
X020575D02*
X020675D01*
X020625D01*
Y047056D01*
X020575Y047006D01*
X01221Y02624D02*
Y02654D01*
X01236D01*
X01241Y02649D01*
Y02639D01*
X01236Y02634D01*
X01221D01*
X01251Y02624D02*
X01261D01*
X01256D01*
Y02654D01*
X01251Y02649D01*
X01296Y02624D02*
X01276D01*
X01296Y02644D01*
Y02649D01*
X01291Y02654D01*
X01281D01*
X01276Y02649D01*
X02659Y026235D02*
Y026535D01*
X02674D01*
X02679Y026485D01*
Y026385D01*
X02674Y026335D01*
X02659D01*
X02689Y026485D02*
X02694Y026535D01*
X02704D01*
X02709Y026485D01*
Y026435D01*
X02704Y026385D01*
X02709Y026335D01*
Y026285D01*
X02704Y026235D01*
X02694D01*
X02689Y026285D01*
Y026335D01*
X02694Y026385D01*
X02689Y026435D01*
Y026485D01*
X02694Y026385D02*
X02704D01*
X03213Y02624D02*
Y02654D01*
X03228D01*
X03233Y02649D01*
Y02639D01*
X03228Y02634D01*
X03213D01*
X03243Y02654D02*
X03263D01*
Y02649D01*
X03243Y02629D01*
Y02624D01*
X036172Y04024D02*
Y04054D01*
X036322D01*
X036372Y04049D01*
Y04039D01*
X036322Y04034D01*
X036172D01*
X036672Y04024D02*
X036472D01*
X036672Y04044D01*
Y04049D01*
X036622Y04054D01*
X036522D01*
X036472Y04049D01*
X01044Y0379D02*
X01034D01*
X01039D01*
Y03765D01*
X01034Y0376D01*
X01029D01*
X01024Y03765D01*
X01054Y0376D02*
X01064D01*
X01059D01*
Y0379D01*
X01054Y03785D01*
X01624Y03912D02*
X01634D01*
X01629D01*
Y03882D01*
X01624D01*
X01634D01*
X01669Y03907D02*
X01664Y03912D01*
X01654D01*
X01649Y03907D01*
Y03887D01*
X01654Y03882D01*
X01664D01*
X01669Y03887D01*
X01679Y03882D02*
X01689D01*
X01684D01*
Y03912D01*
X01679Y03907D01*
X028691Y049915D02*
Y049615D01*
X028841D01*
X028891Y049665D01*
Y049865D01*
X028841Y049915D01*
X028691D01*
X028991Y049615D02*
X029091D01*
X029041D01*
Y049915D01*
X028991Y049865D01*
X024989Y039815D02*
X024939Y039865D01*
X024839D01*
X024789Y039815D01*
Y039615D01*
X024839Y039565D01*
X024939D01*
X024989Y039615D01*
X025089Y039565D02*
X025189D01*
X025139D01*
Y039865D01*
X025089Y039815D01*
X025339Y039865D02*
X025539D01*
Y039815D01*
X025339Y039615D01*
Y039565D01*
X01889Y041415D02*
X01884Y041465D01*
X01874D01*
X01869Y041415D01*
Y041215D01*
X01874Y041165D01*
X01884D01*
X01889Y041215D01*
X01899D02*
X01904Y041165D01*
X01914D01*
X01919Y041215D01*
Y041415D01*
X01914Y041465D01*
X01904D01*
X01899Y041415D01*
Y041365D01*
X01904Y041315D01*
X01919D01*
X0142Y04191D02*
X01415Y04196D01*
X01405D01*
X014Y04191D01*
Y04171D01*
X01405Y04166D01*
X01415D01*
X0142Y04171D01*
X0143Y04191D02*
X01435Y04196D01*
X01445D01*
X0145Y04191D01*
Y04186D01*
X01445Y04181D01*
X0145Y04176D01*
Y04171D01*
X01445Y04166D01*
X01435D01*
X0143Y04171D01*
Y04176D01*
X01435Y04181D01*
X0143Y04186D01*
Y04191D01*
X01435Y04181D02*
X01445D01*
X014245Y04628D02*
X014195Y04623D01*
Y04613D01*
X014245Y04608D01*
X014445D01*
X014495Y04613D01*
Y04623D01*
X014445Y04628D01*
X014195Y04638D02*
Y04658D01*
X014245D01*
X014445Y04638D01*
X014495D01*
X017655Y04921D02*
X017605Y04926D01*
X017505D01*
X017455Y04921D01*
Y04901D01*
X017505Y04896D01*
X017605D01*
X017655Y04901D01*
X017955Y04926D02*
X017855Y04921D01*
X017755Y04911D01*
Y04901D01*
X017805Y04896D01*
X017905D01*
X017955Y04901D01*
Y04906D01*
X017905Y04911D01*
X017755D01*
X035498Y039925D02*
X035448Y039975D01*
X035348D01*
X035298Y039925D01*
Y039725D01*
X035348Y039675D01*
X035448D01*
X035498Y039725D01*
X035798Y039975D02*
X035598D01*
Y039825D01*
X035698Y039875D01*
X035748D01*
X035798Y039825D01*
Y039725D01*
X035748Y039675D01*
X035648D01*
X035598Y039725D01*
X029035Y033305D02*
X028985Y033355D01*
X028885D01*
X028835Y033305D01*
Y033105D01*
X028885Y033055D01*
X028985D01*
X029035Y033105D01*
X029285Y033055D02*
Y033355D01*
X029135Y033205D01*
X029335D01*
X036305Y039925D02*
X036255Y039975D01*
X036155D01*
X036105Y039925D01*
Y039725D01*
X036155Y039675D01*
X036255D01*
X036305Y039725D01*
X036405Y039925D02*
X036455Y039975D01*
X036555D01*
X036605Y039925D01*
Y039875D01*
X036555Y039825D01*
X036505D01*
X036555D01*
X036605Y039775D01*
Y039725D01*
X036555Y039675D01*
X036455D01*
X036405Y039725D01*
X0264Y04753D02*
X02635Y04758D01*
X02625D01*
X0262Y04753D01*
Y04733D01*
X02625Y04728D01*
X02635D01*
X0264Y04733D01*
X0267Y04728D02*
X0265D01*
X0267Y04748D01*
Y04753D01*
X02665Y04758D01*
X02655D01*
X0265Y04753D01*
X022585Y045935D02*
X022535Y045985D01*
X022435D01*
X022385Y045935D01*
Y045735D01*
X022435Y045685D01*
X022535D01*
X022585Y045735D01*
X022685Y045685D02*
X022785D01*
X022735D01*
Y045985D01*
X022685Y045935D01*
X033985Y042905D02*
Y042305D01*
X034285D01*
X034385Y042405D01*
Y042505D01*
X034285Y042605D01*
X033985D01*
X034285D01*
X034385Y042705D01*
Y042805D01*
X034285Y042905D01*
X033985D01*
X034985Y042305D02*
X034585D01*
X034985Y042705D01*
Y042805D01*
X034885Y042905D01*
X034685D01*
X034585Y042805D01*
X03648Y04622D02*
Y04592D01*
X03663D01*
X03668Y04597D01*
Y04602D01*
X03663Y04607D01*
X03648D01*
X03663D01*
X03668Y04612D01*
Y04617D01*
X03663Y04622D01*
X03648D01*
X03678Y04592D02*
X03688D01*
X03683D01*
Y04622D01*
X03678Y04617D01*
D18*
X045277Y045685D02*
X04555D01*
X045277Y047755D02*
X04555D01*
X04348Y047482D02*
Y047755D01*
Y045685D02*
X043753D01*
X04555D02*
Y045958D01*
Y047482D02*
Y047755D01*
X04348D02*
X043753D01*
X04348Y045685D02*
Y045958D01*
X04358Y045239D02*
Y045315D01*
X04202Y044035D02*
X04358D01*
Y044111D01*
X04202Y045315D02*
X04358D01*
X04202Y045239D02*
Y045315D01*
Y044035D02*
Y044111D01*
X04763Y048128D02*
X04834D01*
X049126Y044878D02*
X04997D01*
X04763D02*
Y045105D01*
Y044878D02*
X04834D01*
X04763Y047902D02*
Y048128D01*
X049126D02*
X04997D01*
Y044878D02*
Y048128D01*
X03507Y03477D02*
Y034971D01*
X034869Y03771D02*
X03507D01*
X03213Y037509D02*
Y03771D01*
Y03477D02*
X032331D01*
X034869D02*
X03507D01*
Y037509D02*
Y03771D01*
X03213D02*
X032331D01*
X03213Y03477D02*
Y034971D01*
X01608Y043291D02*
X016279D01*
X01608Y04537D02*
X016279D01*
X01608Y043661D02*
X016279D01*
X01608Y04574D02*
X016279D01*
X029932Y027428D02*
X030142D01*
X030028Y027275D01*
X030085D01*
X030123Y027256D01*
X030142Y027237D01*
X030161Y02718D01*
Y027142D01*
X030142Y027085D01*
X030104Y027047D01*
X030047Y027028D01*
X02999D01*
X029932Y027047D01*
X029913Y027066D01*
X029894Y027104D01*
X027839Y029239D02*
X027801Y02922D01*
X027763Y029181D01*
X027744Y029143D01*
X027725Y029086D01*
Y028991D01*
X027744Y028934D01*
X027763Y028896D01*
X027801Y028858D01*
X027839Y028839D01*
X027915D01*
X027954Y028858D01*
X027992Y028896D01*
X028011Y028934D01*
X02803Y028991D01*
Y029086D01*
X028011Y029143D01*
X027992Y029181D01*
X027954Y02922D01*
X027915Y029239D01*
X027839D01*
X028123D02*
Y028839D01*
Y029239D02*
X02839Y028839D01*
Y029239D02*
Y028839D01*
X027949Y027351D02*
X027988Y02737D01*
X028045Y027428D01*
Y027028D01*
X028913Y027332D02*
Y027351D01*
X028932Y027389D01*
X028951Y027409D01*
X02899Y027428D01*
X029066D01*
X029104Y027409D01*
X029123Y027389D01*
X029142Y027351D01*
Y027313D01*
X029123Y027275D01*
X029085Y027218D01*
X028894Y027028D01*
X029161D01*
X024513Y027332D02*
Y027351D01*
X024532Y027389D01*
X024551Y027409D01*
X02459Y027428D01*
X024666D01*
X024704Y027409D01*
X024723Y027389D01*
X024742Y027351D01*
Y027313D01*
X024723Y027275D01*
X024685Y027218D01*
X024494Y027028D01*
X024761D01*
X023549Y027351D02*
X023588Y02737D01*
X023645Y027428D01*
Y027028D01*
X023439Y029239D02*
X023401Y02922D01*
X023363Y029181D01*
X023344Y029143D01*
X023325Y029086D01*
Y028991D01*
X023344Y028934D01*
X023363Y028896D01*
X023401Y028858D01*
X023439Y028839D01*
X023515D01*
X023554Y028858D01*
X023592Y028896D01*
X023611Y028934D01*
X02363Y028991D01*
Y029086D01*
X023611Y029143D01*
X023592Y029181D01*
X023554Y02922D01*
X023515Y029239D01*
X023439D01*
X023723D02*
Y028839D01*
Y029239D02*
X02399Y028839D01*
Y029239D02*
Y028839D01*
X025532Y027428D02*
X025742D01*
X025628Y027275D01*
X025685D01*
X025723Y027256D01*
X025742Y027237D01*
X025761Y02718D01*
Y027142D01*
X025742Y027085D01*
X025704Y027047D01*
X025647Y027028D01*
X02559D01*
X025532Y027047D01*
X025513Y027066D01*
X025494Y027104D01*
D19*
X037642Y046773D02*
Y046023D01*
X038017Y046398D02*
X037267D01*
D20*
X045995Y045864D02*
X045662Y046198D01*
X045995D02*
X045662Y045864D01*
X045995Y046031D02*
X045662D01*
X045828Y046198D02*
Y045864D01*
X032102Y033915D02*
X032436Y034248D01*
Y033915D02*
X032102Y034248D01*
X032269Y033915D02*
Y034248D01*
X032436Y034082D02*
X032102D01*
X014627Y047425D02*
X014293Y047092D01*
Y047425D02*
X014627Y047092D01*
X01446Y047425D02*
Y047092D01*
X014293Y047258D02*
X014627D01*
M02*
