G04*
G04 #@! TF.GenerationSoftware,Altium Limited,Altium Designer,18.1.6 (161)*
G04*
G04 Layer_Color=128*
%FSTAX24Y24*%
%MOIN*%
G70*
G01*
G75*
%ADD131C,0.0020*%
D131*
X047505Y045519D02*
X047835D01*
X04767Y045354D02*
Y045684D01*
X047505Y047488D02*
X047835D01*
X04767Y047323D02*
Y047653D01*
X048478Y045125D02*
X048718D01*
X048598Y045005D02*
Y045245D01*
X048748Y045125D02*
X048988D01*
X048868Y045005D02*
Y045245D01*
X048478Y047881D02*
X048718D01*
X048598Y047761D02*
Y048001D01*
X048748Y047881D02*
X048988D01*
X048868Y047761D02*
Y048001D01*
X03934Y02403D02*
X0397D01*
X03952Y02385D02*
Y02421D01*
X03934Y02504D02*
X0397D01*
X03952Y02486D02*
Y02522D01*
X03934Y02602D02*
X0397D01*
X03952Y02584D02*
Y0262D01*
X02166Y02704D02*
X02202D01*
X02184Y02686D02*
Y02722D01*
X02166Y02805D02*
X02202D01*
X02184Y02787D02*
Y02823D01*
X02166Y02903D02*
X02202D01*
X02184Y02885D02*
Y02921D01*
X027883Y02663D02*
X028197D01*
X02804Y026473D02*
Y026787D01*
X028883Y02663D02*
X029197D01*
X02904Y026473D02*
Y026787D01*
X029883Y02663D02*
X030197D01*
X03004Y026473D02*
Y026787D01*
X029883Y02963D02*
X030197D01*
X03004Y029473D02*
Y029787D01*
X028883Y02963D02*
X029197D01*
X02904Y029473D02*
Y029787D01*
X027883Y02963D02*
X028197D01*
X02804Y029473D02*
Y029787D01*
X023483Y02963D02*
X023797D01*
X02364Y029473D02*
Y029787D01*
X024483Y02963D02*
X024797D01*
X02464Y029473D02*
Y029787D01*
X025483Y02963D02*
X025797D01*
X02564Y029473D02*
Y029787D01*
X025483Y02663D02*
X025797D01*
X02564Y026473D02*
Y026787D01*
X024483Y02663D02*
X024797D01*
X02464Y026473D02*
Y026787D01*
X023483Y02663D02*
X023797D01*
X02364Y026473D02*
Y026787D01*
X03249Y0412D02*
X03291D01*
X0327Y04099D02*
Y04141D01*
X03049Y0412D02*
X03091D01*
X0307Y04099D02*
Y04141D01*
X02849Y0412D02*
X02891D01*
X0287Y04099D02*
Y04141D01*
X02749Y0412D02*
X02791D01*
X0277Y04099D02*
Y04141D01*
X02649Y0412D02*
X02691D01*
X0267Y04099D02*
Y04141D01*
X02549Y0412D02*
X02591D01*
X0257Y04099D02*
Y04141D01*
X02949Y0412D02*
X02991D01*
X0297Y04099D02*
Y04141D01*
X03149Y0412D02*
X03191D01*
X0317Y04099D02*
Y04141D01*
X03349Y0412D02*
X03391D01*
X0337Y04099D02*
Y04141D01*
X03449Y0412D02*
X03491D01*
X0347Y04099D02*
Y04141D01*
X047889Y04888D02*
X049071D01*
X04848Y048289D02*
Y049471D01*
X047889Y02352D02*
X049071D01*
X04848Y022929D02*
Y024111D01*
X01053Y04888D02*
X01171D01*
X01112Y048289D02*
Y049471D01*
X01053Y02352D02*
X01171D01*
X01112Y022929D02*
Y024111D01*
X022763Y031402D02*
X023197D01*
X02298Y031185D02*
Y031618D01*
X023763Y031402D02*
X024197D01*
X02398Y031185D02*
Y031618D01*
X024763Y031402D02*
X025197D01*
X02498Y031185D02*
Y031618D01*
X025763Y031402D02*
X026197D01*
X02598Y031185D02*
Y031618D01*
X029763Y031402D02*
X030197D01*
X02998Y031185D02*
Y031618D01*
X028763Y031402D02*
X029197D01*
X02898Y031185D02*
Y031618D01*
X027763Y031402D02*
X028197D01*
X02798Y031185D02*
Y031618D01*
X029763Y036402D02*
X030197D01*
X02998Y036185D02*
Y036618D01*
X028763Y036402D02*
X029197D01*
X02898Y036185D02*
Y036618D01*
X027763Y036402D02*
X028197D01*
X02798Y036185D02*
Y036618D01*
X022763Y036402D02*
X023197D01*
X02298Y036185D02*
Y036618D01*
X023763Y036402D02*
X024197D01*
X02398Y036185D02*
Y036618D01*
X024763Y036402D02*
X025197D01*
X02498Y036185D02*
Y036618D01*
X025763Y036402D02*
X026197D01*
X02598Y036185D02*
Y036618D01*
X026763Y031402D02*
X027197D01*
X02698Y031185D02*
Y031618D01*
X026763Y036402D02*
X027197D01*
X02698Y036185D02*
Y036618D01*
X018203Y036402D02*
X018637D01*
X01842Y036185D02*
Y036618D01*
X018203Y031402D02*
X018637D01*
X01842Y031185D02*
Y031618D01*
X017203Y036402D02*
X017637D01*
X01742Y036185D02*
Y036618D01*
X016203Y036402D02*
X016637D01*
X01642Y036185D02*
Y036618D01*
X015203Y036402D02*
X015637D01*
X01542Y036185D02*
Y036618D01*
X014203Y036402D02*
X014637D01*
X01442Y036185D02*
Y036618D01*
X019203Y036402D02*
X019637D01*
X01942Y036185D02*
Y036618D01*
X020203Y036402D02*
X020637D01*
X02042Y036185D02*
Y036618D01*
X021203Y036402D02*
X021637D01*
X02142Y036185D02*
Y036618D01*
X019203Y031402D02*
X019637D01*
X01942Y031185D02*
Y031618D01*
X020203Y031402D02*
X020637D01*
X02042Y031185D02*
Y031618D01*
X021203Y031402D02*
X021637D01*
X02142Y031185D02*
Y031618D01*
X017203Y031402D02*
X017637D01*
X01742Y031185D02*
Y031618D01*
X016203Y031402D02*
X016637D01*
X01642Y031185D02*
Y031618D01*
X015203Y031402D02*
X015637D01*
X01542Y031185D02*
Y031618D01*
X014203Y031402D02*
X014637D01*
X01442Y031185D02*
Y031618D01*
X026151Y0397D02*
X026511D01*
X026331Y03952D02*
Y03988D01*
X027161Y0397D02*
X027521D01*
X027341Y03952D02*
Y03988D01*
X028141Y0397D02*
X028501D01*
X028321Y03952D02*
Y03988D01*
X029151Y0397D02*
X029511D01*
X029331Y03952D02*
Y03988D01*
X0425Y03504D02*
X04286D01*
X04268Y03486D02*
Y03522D01*
X0435Y03504D02*
X04386D01*
X04368Y03486D02*
Y03522D01*
X0445Y03504D02*
X04486D01*
X04468Y03486D02*
Y03522D01*
X0455Y03504D02*
X04586D01*
X04568Y03486D02*
Y03522D01*
X0465Y03504D02*
X04686D01*
X04668Y03486D02*
Y03522D01*
X0475Y03504D02*
X04786D01*
X04768Y03486D02*
Y03522D01*
X04806Y02632D02*
X04842D01*
X04824Y02614D02*
Y0265D01*
X04606Y02632D02*
X04642D01*
X04624Y02614D02*
Y0265D01*
X04506Y02632D02*
X04542D01*
X04524Y02614D02*
Y0265D01*
X04406Y02632D02*
X04442D01*
X04424Y02614D02*
Y0265D01*
X04306Y02632D02*
X04342D01*
X04324Y02614D02*
Y0265D01*
X04706Y02632D02*
X04742D01*
X04724Y02614D02*
Y0265D01*
X03142Y03984D02*
X03178D01*
X0316Y03966D02*
Y04002D01*
X03242Y03984D02*
X03278D01*
X0326Y03966D02*
Y04002D01*
X03342Y03984D02*
X03378D01*
X0336Y03966D02*
Y04002D01*
X03442Y03984D02*
X03478D01*
X0346Y03966D02*
Y04002D01*
X03042Y03984D02*
X03078D01*
X0306Y03966D02*
Y04002D01*
X028151Y03768D02*
X028511D01*
X028331Y0375D02*
Y03786D01*
X027141Y03768D02*
X027501D01*
X027321Y0375D02*
Y03786D01*
X026161Y03768D02*
X026521D01*
X026341Y0375D02*
Y03786D01*
X040365Y047265D02*
X040725D01*
X040545Y047085D02*
Y047445D01*
X040365Y048275D02*
X040725D01*
X040545Y048095D02*
Y048455D01*
X040365Y049255D02*
X040725D01*
X040545Y049075D02*
Y049435D01*
X01341Y0383D02*
X01377D01*
X01359Y03812D02*
Y03848D01*
X01442Y0383D02*
X01478D01*
X0146Y03812D02*
Y03848D01*
X0191Y03816D02*
X01946D01*
X01928Y03798D02*
Y03834D01*
X01809Y03816D02*
X01845D01*
X01827Y03798D02*
Y03834D01*
X0379Y041773D02*
X03826D01*
X03808Y041593D02*
Y041953D01*
X0379Y04456D02*
X03826D01*
X03808Y04438D02*
Y04474D01*
X02234Y037663D02*
X0227D01*
X02252Y037483D02*
Y037843D01*
X02335Y037663D02*
X02371D01*
X02353Y037483D02*
Y037843D01*
X02433Y037663D02*
X02469D01*
X02451Y037483D02*
Y037843D01*
X03857Y0476D02*
X03893D01*
X03875Y04742D02*
Y04778D01*
X03756Y0476D02*
X03792D01*
X03774Y04742D02*
Y04778D01*
X03658Y0476D02*
X03694D01*
X03676Y04742D02*
Y04778D01*
X036195Y04904D02*
X036555D01*
X036375Y04886D02*
Y04922D01*
X037205Y04904D02*
X037565D01*
X037385Y04886D02*
Y04922D01*
X038185Y04904D02*
X038545D01*
X038365Y04886D02*
Y04922D01*
X039195Y04904D02*
X039555D01*
X039375Y04886D02*
Y04922D01*
X03846Y04013D02*
X03882D01*
X03864Y03995D02*
Y04031D01*
X03846Y03912D02*
X03882D01*
X03864Y03894D02*
Y0393D01*
X03846Y03814D02*
X03882D01*
X03864Y03796D02*
Y03832D01*
X03913Y03648D02*
X03949D01*
X03931Y0363D02*
Y03666D01*
X03913Y03547D02*
X03949D01*
X03931Y03529D02*
Y03565D01*
X03913Y03339D02*
X03949D01*
X03931Y03321D02*
Y03357D01*
X03913Y0344D02*
X03949D01*
X03931Y03422D02*
Y03458D01*
X03362Y0286D02*
X03398D01*
X0338Y02842D02*
Y02878D01*
X03362Y0296D02*
X03398D01*
X0338Y02942D02*
Y02978D01*
X03362Y0306D02*
X03398D01*
X0338Y03042D02*
Y03078D01*
X03362Y0316D02*
X03398D01*
X0338Y03142D02*
Y03178D01*
X03462Y0316D02*
X03498D01*
X0348Y03142D02*
Y03178D01*
X03462Y0306D02*
X03498D01*
X0348Y03042D02*
Y03078D01*
X03462Y0296D02*
X03498D01*
X0348Y02942D02*
Y02978D01*
X03462Y0286D02*
X03498D01*
X0348Y02842D02*
Y02878D01*
X0207Y04896D02*
X02106D01*
X02088Y04878D02*
Y04914D01*
X01969Y04896D02*
X02005D01*
X01987Y04878D02*
Y04914D01*
X013079Y0485D02*
X013439D01*
X013259Y04832D02*
Y04868D01*
X013079Y04951D02*
X013439D01*
X013259Y04933D02*
Y04969D01*
X011516Y034252D02*
X012106D01*
X011811Y033957D02*
Y034547D01*
X011516Y032283D02*
X012106D01*
X011811Y031988D02*
Y032579D01*
X011516Y03622D02*
X012106D01*
X011811Y035925D02*
Y036516D01*
X013063Y04291D02*
X013614D01*
X013339Y042634D02*
Y043186D01*
X013063Y04141D02*
X013614D01*
X013339Y041134D02*
Y041686D01*
X012983Y04699D02*
X013534D01*
X013259Y046714D02*
Y047266D01*
X012983Y04549D02*
X013534D01*
X013259Y045214D02*
Y045766D01*
X032767Y025579D02*
X033318D01*
X033042Y025303D02*
Y025854D01*
X034267Y025579D02*
X034818D01*
X034542Y025303D02*
Y025854D01*
X035767Y025579D02*
X036318D01*
X036042Y025303D02*
Y025854D01*
X037267Y025579D02*
X037818D01*
X037542Y025303D02*
Y025854D01*
X026114Y025579D02*
X026666D01*
X02639Y025303D02*
Y025854D01*
X027614Y025579D02*
X028166D01*
X02789Y025303D02*
Y025854D01*
X029114Y025579D02*
X029666D01*
X02939Y025303D02*
Y025854D01*
X030614Y025579D02*
X031166D01*
X03089Y025303D02*
Y025854D01*
X019474Y025579D02*
X020026D01*
X01975Y025303D02*
Y025854D01*
X020974Y025579D02*
X021526D01*
X02125Y025303D02*
Y025854D01*
X022474Y025579D02*
X023026D01*
X02275Y025303D02*
Y025854D01*
X023974Y025579D02*
X024526D01*
X02425Y025303D02*
Y025854D01*
X012754Y025579D02*
X013306D01*
X01303Y025303D02*
Y025854D01*
X014254Y025579D02*
X014806D01*
X01453Y025303D02*
Y025854D01*
X015754Y025579D02*
X016306D01*
X01603Y025303D02*
Y025854D01*
X017254Y025579D02*
X017806D01*
X01753Y025303D02*
Y025854D01*
X037112Y03812D02*
X037472D01*
X037292Y03794D02*
Y0383D01*
X037112Y03913D02*
X037472D01*
X037292Y03895D02*
Y03931D01*
X037112Y04011D02*
X037472D01*
X037292Y03993D02*
Y04029D01*
X046821Y0236D02*
X047181D01*
X047001Y02342D02*
Y02378D01*
X045771Y0236D02*
X046131D01*
X045951Y02342D02*
Y02378D01*
X044751Y0236D02*
X045111D01*
X044931Y02342D02*
Y02378D01*
X043721Y0236D02*
X044081D01*
X043901Y02342D02*
Y02378D01*
X042671Y0236D02*
X043031D01*
X042851Y02342D02*
Y02378D01*
X041621Y0236D02*
X041981D01*
X041801Y02342D02*
Y02378D01*
X01862Y02915D02*
X01898D01*
X0188Y02897D02*
Y02933D01*
X01862Y02817D02*
X01898D01*
X0188Y02799D02*
Y02835D01*
X01862Y02716D02*
X01898D01*
X0188Y02698D02*
Y02734D01*
X01232Y02911D02*
X01268D01*
X0125Y02893D02*
Y02929D01*
X01232Y02813D02*
X01268D01*
X0125Y02795D02*
Y02831D01*
X01232Y02712D02*
X01268D01*
X0125Y02694D02*
Y0273D01*
X01062Y02919D02*
X01098D01*
X0108Y02901D02*
Y02937D01*
X01062Y02821D02*
X01098D01*
X0108Y02803D02*
Y02839D01*
X01062Y0272D02*
X01098D01*
X0108Y02702D02*
Y02738D01*
X01542Y02911D02*
X01578D01*
X0156Y02893D02*
Y02929D01*
X01542Y02813D02*
X01578D01*
X0156Y02795D02*
Y02831D01*
X01542Y02712D02*
X01578D01*
X0156Y02694D02*
Y0273D01*
X01398Y02915D02*
X01434D01*
X01416Y02897D02*
Y02933D01*
X01398Y02817D02*
X01434D01*
X01416Y02799D02*
Y02835D01*
X01398Y02716D02*
X01434D01*
X01416Y02698D02*
Y02734D01*
X0171Y02915D02*
X01746D01*
X01728Y02897D02*
Y02933D01*
X0171Y02817D02*
X01746D01*
X01728Y02799D02*
Y02835D01*
X0171Y02716D02*
X01746D01*
X01728Y02698D02*
Y02734D01*
X02014Y02911D02*
X0205D01*
X02032Y02893D02*
Y02929D01*
X02014Y02813D02*
X0205D01*
X02032Y02795D02*
Y02831D01*
X02014Y02712D02*
X0205D01*
X02032Y02694D02*
Y0273D01*
X048161Y04197D02*
X048319D01*
X04824Y041891D02*
Y042049D01*
X049036Y04208D02*
X049194D01*
X049115Y042001D02*
Y042159D01*
X048999Y037585D02*
X049156D01*
X049078Y037506D02*
Y037664D01*
X013996Y0424D02*
X014154D01*
X014075Y042321D02*
Y042479D01*
X048176Y03354D02*
X048334D01*
X048255Y033461D02*
Y033619D01*
X03935Y046115D02*
X039507D01*
X039428Y046036D02*
Y046194D01*
X041481Y038237D02*
X041639D01*
X04156Y038158D02*
Y038316D01*
X012169Y040293D02*
X012327D01*
X012248Y040214D02*
Y040371D01*
X013336Y040293D02*
X013493D01*
X013414Y040214D02*
Y040371D01*
X044711Y048882D02*
X044869D01*
X04479Y048803D02*
Y048961D01*
X045681Y047965D02*
X045839D01*
X04576Y047886D02*
Y048044D01*
X042996Y047255D02*
X043154D01*
X043075Y047176D02*
Y047334D01*
X042931Y048905D02*
X043089D01*
X04301Y048826D02*
Y048984D01*
X013501Y035245D02*
X013659D01*
X01358Y035166D02*
Y035324D01*
X014911Y033605D02*
X015069D01*
X01499Y033526D02*
Y033684D01*
X012646Y0336D02*
X012804D01*
X012725Y033521D02*
Y033679D01*
X021211Y03759D02*
X021369D01*
X02129Y037511D02*
Y037669D01*
X02238Y03451D02*
X022538D01*
X022459Y034431D02*
Y034589D01*
X03693Y02392D02*
X037088D01*
X037009Y023841D02*
Y023999D01*
X038221Y026425D02*
X038379D01*
X0383Y026346D02*
Y026504D01*
X036286Y026425D02*
X036444D01*
X036365Y026346D02*
Y026504D01*
X035696Y026795D02*
X035854D01*
X035775Y026716D02*
Y026874D01*
X029611Y0342D02*
X029769D01*
X02969Y034121D02*
Y034279D01*
X030286Y033925D02*
X030444D01*
X030365Y033846D02*
Y034004D01*
X028406Y034235D02*
X028564D01*
X028485Y034156D02*
Y034314D01*
X027682Y03381D02*
X02784D01*
X027761Y033731D02*
Y033889D01*
X026896Y033705D02*
X027054D01*
X026975Y033626D02*
Y033784D01*
X031731Y03394D02*
X031889D01*
X03181Y033861D02*
Y034019D01*
X024276Y04121D02*
X024434D01*
X024355Y041131D02*
Y041289D01*
X021211Y04089D02*
X021369D01*
X02129Y040811D02*
Y040969D01*
X021211Y041515D02*
X021369D01*
X02129Y041436D02*
Y041594D01*
X033746Y03517D02*
X033904D01*
X033825Y035091D02*
Y035249D01*
X034921Y038135D02*
X035079D01*
X035Y038056D02*
Y038214D01*
X044436Y04672D02*
X044594D01*
X044515Y046641D02*
Y046799D01*
X029201Y037945D02*
X029359D01*
X02928Y037866D02*
Y038024D01*
X025593Y038415D02*
X025751D01*
X025672Y038336D02*
Y038494D01*
X026631Y038415D02*
X026789D01*
X02671Y038336D02*
Y038494D01*
X024756Y038715D02*
X024914D01*
X024835Y038636D02*
Y038794D01*
X029841Y03856D02*
X029999D01*
X02992Y038481D02*
Y038639D01*
X031991Y03787D02*
X032149D01*
X03207Y037791D02*
Y037949D01*
X031739Y038183D02*
X031896D01*
X031818Y038104D02*
Y038261D01*
X031406Y03846D02*
X031564D01*
X031485Y038381D02*
Y038539D01*
X034241Y03712D02*
X034399D01*
X03432Y037041D02*
Y037199D01*
X030714Y037852D02*
X030871D01*
X030792Y037774D02*
Y037931D01*
X030322Y038035D02*
X030479D01*
X0304Y037956D02*
Y038114D01*
X032161Y039275D02*
X032319D01*
X03224Y039196D02*
Y039354D01*
X032701Y033843D02*
X032859D01*
X03278Y033765D02*
Y033922D01*
X032546Y03326D02*
X032704D01*
X032625Y033181D02*
Y033339D01*
X033911Y03316D02*
X034069D01*
X03399Y033081D02*
Y033239D01*
X033791Y033775D02*
X033949D01*
X03387Y033696D02*
Y033854D01*
X034337Y032796D02*
X034495D01*
X034416Y032717D02*
Y032875D01*
X034731Y03305D02*
X034889D01*
X03481Y032971D02*
Y033129D01*
X033386Y032775D02*
X033544D01*
X033465Y032696D02*
Y032854D01*
X032651Y036025D02*
X032809D01*
X03273Y035946D02*
Y036104D01*
X034566Y03574D02*
X034724D01*
X034645Y035661D02*
Y035819D01*
X034791Y034085D02*
X034949D01*
X03487Y034006D02*
Y034164D01*
X035216Y04062D02*
X035374D01*
X035295Y040541D02*
Y040699D01*
X035176Y04325D02*
X035334D01*
X035255Y043171D02*
Y043329D01*
X035526Y044145D02*
X035684D01*
X035605Y044066D02*
Y044224D01*
X045701Y045875D02*
X045859D01*
X04578Y045796D02*
Y045954D01*
X045251Y04458D02*
X045409D01*
X04533Y044501D02*
Y044659D01*
X026174Y044505D02*
X026331D01*
X026253Y044426D02*
Y044584D01*
X039936Y040235D02*
X040094D01*
X040015Y040156D02*
Y040314D01*
X041461Y036545D02*
X041619D01*
X04154Y036466D02*
Y036624D01*
X040781Y03664D02*
X040939D01*
X04086Y036561D02*
Y036719D01*
X039646Y037685D02*
X039804D01*
X039725Y037606D02*
Y037764D01*
X032551Y03676D02*
X032709D01*
X03263Y036681D02*
Y036839D01*
X032456Y03721D02*
X032614D01*
X032535Y037131D02*
Y037289D01*
X033836Y036364D02*
X033994D01*
X033915Y036285D02*
Y036443D01*
X025056Y03367D02*
X025214D01*
X025135Y033591D02*
Y033749D01*
X024034Y032454D02*
X024191D01*
X024113Y032375D02*
Y032533D01*
X024034Y035483D02*
X024191D01*
X024113Y035404D02*
Y035561D01*
X024483Y03277D02*
X024641D01*
X024562Y032691D02*
Y032849D01*
X024493Y0352D02*
X02465D01*
X024572Y035121D02*
Y035279D01*
X040526Y031204D02*
X040684D01*
X040605Y031126D02*
Y031283D01*
X040936Y031863D02*
X041094D01*
X041015Y031784D02*
Y031941D01*
X041201Y030465D02*
X041359D01*
X04128Y030386D02*
Y030544D01*
X047471Y04844D02*
X047629D01*
X04755Y048361D02*
Y048519D01*
X037269Y035157D02*
X037426D01*
X037348Y035079D02*
Y035236D01*
X036056Y036025D02*
X036214D01*
X036135Y035946D02*
Y036104D01*
X039411Y038605D02*
X039569D01*
X03949Y038526D02*
Y038684D01*
X036271Y03664D02*
X036429D01*
X03635Y036561D02*
Y036719D01*
X037611Y036929D02*
X037769D01*
X03769Y03685D02*
Y037008D01*
X035176Y04502D02*
X035334D01*
X035255Y044941D02*
Y045099D01*
X035141Y04616D02*
X035299D01*
X03522Y046081D02*
Y046239D01*
X032531Y032765D02*
X032689D01*
X03261Y032686D02*
Y032844D01*
X030056Y03218D02*
X030214D01*
X030135Y032101D02*
Y032259D01*
X032441Y03218D02*
X032599D01*
X03252Y032101D02*
Y032259D01*
X024506Y044555D02*
X024664D01*
X024585Y044476D02*
Y044634D01*
X036081Y0424D02*
X036239D01*
X03616Y042321D02*
Y042479D01*
X026586Y04904D02*
X026744D01*
X026665Y048961D02*
Y049119D01*
X029556Y04448D02*
X029714D01*
X029635Y044401D02*
Y044559D01*
X031508Y03488D02*
X031665D01*
X031587Y034801D02*
Y034959D01*
X025841Y0348D02*
X025999D01*
X02592Y034721D02*
Y034879D01*
X026161Y03216D02*
X026319D01*
X02624Y032081D02*
Y032239D01*
X026391Y02963D02*
X026548D01*
X02647Y029551D02*
Y029709D01*
X020651Y04152D02*
X020809D01*
X02073Y041441D02*
Y041599D01*
X029716Y04248D02*
X029874D01*
X029795Y042401D02*
Y042559D01*
X028746Y044136D02*
X028903D01*
X028824Y044057D02*
Y044214D01*
X028161Y04216D02*
X028319D01*
X02824Y042081D02*
Y042239D01*
X029121Y04216D02*
X029279D01*
X0292Y042081D02*
Y042239D01*
X036001Y04504D02*
X036159D01*
X03608Y044961D02*
Y045119D01*
X038561Y04116D02*
X038719D01*
X03864Y041081D02*
Y041238D01*
X028721Y03904D02*
X028879D01*
X0288Y038961D02*
Y039119D01*
X029361Y0388D02*
X029519D01*
X02944Y038721D02*
Y038879D01*
X026161Y047677D02*
X026319D01*
X02624Y047598D02*
Y047756D01*
X028401Y03576D02*
X028559D01*
X02848Y035681D02*
Y035839D01*
X026241Y03576D02*
X026399D01*
X02632Y035681D02*
Y035839D01*
X025441Y03576D02*
X025599D01*
X02552Y035681D02*
Y035839D01*
X022581Y0469D02*
X022739D01*
X02266Y046821D02*
Y046979D01*
X022641Y048948D02*
X022799D01*
X02272Y04887D02*
Y049027D01*
X023121Y0412D02*
X023279D01*
X0232Y041121D02*
Y041279D01*
X033441Y03712D02*
X033599D01*
X03352Y037041D02*
Y037199D01*
X032089Y027942D02*
X032246D01*
X032168Y027863D02*
Y02802D01*
X032081Y03144D02*
X032239D01*
X03216Y031361D02*
Y031519D01*
X030559Y03552D02*
X030716D01*
X030637Y035441D02*
Y035599D01*
X031334Y036455D02*
X031491D01*
X031413Y036376D02*
Y036533D01*
X031223Y037018D02*
X031381D01*
X031302Y036939D02*
Y037097D01*
X030161Y035065D02*
X030319D01*
X03024Y034987D02*
Y035144D01*
X03563Y04951D02*
X035787D01*
X035708Y049431D02*
Y049589D01*
X044601Y04384D02*
X044759D01*
X04468Y043761D02*
Y043919D01*
X040065Y037377D02*
X040222D01*
X040143Y037298D02*
Y037455D01*
X048521Y04408D02*
X048678D01*
X048599Y044001D02*
Y044159D01*
X038004Y04088D02*
X038162D01*
X038083Y040801D02*
Y040959D01*
X036881Y04208D02*
X037039D01*
X03696Y042001D02*
Y042159D01*
X036481Y04216D02*
X036639D01*
X03656Y042081D02*
Y042239D01*
X041921Y035551D02*
X042079D01*
X042Y035472D02*
Y03563D01*
X036801Y03544D02*
X036959D01*
X03688Y035361D02*
Y035519D01*
X040001Y035551D02*
X040159D01*
X04008Y035472D02*
Y03563D01*
X040641Y038274D02*
X040799D01*
X04072Y038195D02*
Y038353D01*
X040321Y036498D02*
X040479D01*
X0404Y03642D02*
Y036577D01*
X029339Y03678D02*
X029496D01*
X029418Y036701D02*
Y036859D01*
X029201Y0356D02*
X029359D01*
X02928Y035521D02*
Y035679D01*
X030811Y037051D02*
X030969D01*
X03089Y036972D02*
Y037129D01*
X031681Y027243D02*
X031839D01*
X03176Y027164D02*
Y027321D01*
X037629Y026292D02*
X037786D01*
X037708Y026214D02*
Y026371D01*
X034641Y03686D02*
X034799D01*
X03472Y036781D02*
Y036939D01*
X046641Y04232D02*
X046799D01*
X04672Y042241D02*
Y042399D01*
X048081Y044257D02*
X048239D01*
X04816Y044178D02*
Y044336D01*
X047309Y04176D02*
X047467D01*
X047388Y041681D02*
Y041839D01*
X047347Y037893D02*
X047505D01*
X047426Y037814D02*
Y037971D01*
X047161Y03752D02*
X047319D01*
X04724Y037441D02*
Y037599D01*
X046881Y038046D02*
X047039D01*
X04696Y037968D02*
Y038125D01*
X046241Y038046D02*
X046399D01*
X04632Y037968D02*
Y038125D01*
X045681Y03808D02*
X045839D01*
X04576Y038001D02*
Y038159D01*
X044721Y03744D02*
X044879D01*
X0448Y037361D02*
Y037519D01*
X038241Y03392D02*
X038399D01*
X03832Y033841D02*
Y033999D01*
X043858Y03744D02*
X044016D01*
X043937Y037361D02*
Y037519D01*
X047041Y046922D02*
X047199D01*
X04712Y046843D02*
Y047D01*
X047041Y04624D02*
X047199D01*
X04712Y046161D02*
Y046319D01*
X036681Y03272D02*
X036839D01*
X03676Y032641D02*
Y032799D01*
X033621Y04488D02*
X033779D01*
X0337Y044801D02*
Y044959D01*
X031621Y04616D02*
X031779D01*
X0317Y046081D02*
Y046239D01*
X035121Y04568D02*
X035279D01*
X0352Y045601D02*
Y045759D01*
X028801Y04584D02*
X028959D01*
X02888Y045761D02*
Y045919D01*
X028481Y04549D02*
X028639D01*
X02856Y045411D02*
Y045569D01*
X036321Y04665D02*
X036479D01*
X0364Y046571D02*
Y046728D01*
X03736Y04504D02*
X037517D01*
X037438Y044961D02*
Y045119D01*
X036028Y045489D02*
X036185D01*
X036106Y045411D02*
Y045568D01*
X019441Y03D02*
X019599D01*
X01952Y029921D02*
Y030079D01*
X021551Y03054D02*
X021709D01*
X02163Y030461D02*
Y030619D01*
X018191Y02456D02*
X018349D01*
X01827Y024481D02*
Y024639D01*
X022901Y03054D02*
X023059D01*
X02298Y030461D02*
Y030619D01*
X016721Y03056D02*
X016879D01*
X0168Y030481D02*
Y030639D01*
X0115Y028939D02*
X011657D01*
X011579Y02886D02*
Y029017D01*
X036641Y0236D02*
X036799D01*
X03672Y023521D02*
Y023679D01*
X038641Y02752D02*
X038799D01*
X03872Y027441D02*
Y027599D01*
X039148Y02728D02*
X039305D01*
X039227Y027201D02*
Y027359D01*
X044321Y0304D02*
X044479D01*
X0444Y030321D02*
Y030479D01*
X044961Y0312D02*
X045119D01*
X04504Y031121D02*
Y031279D01*
X022414Y028341D02*
X022571D01*
X022492Y028263D02*
Y02842D01*
X020961Y02784D02*
X021119D01*
X02104Y027761D02*
Y027919D01*
X013041Y027942D02*
X013199D01*
X01312Y027863D02*
Y02802D01*
X0115Y02816D02*
X011657D01*
X011579Y028081D02*
Y028239D01*
X038401Y04336D02*
X038559D01*
X03848Y043281D02*
Y043439D01*
M02*
