M48
;Layer_Color=9474304
;FILE_FORMAT=2:4
INCH,LZ
;TYPE=PLATED
T1F00S00C0.0010
T2F00S00C0.0157
T3F00S00C0.0240
T4F00S00C0.0315
T5F00S00C0.0330
T6F00S00C0.0360
T7F00S00C0.0420
T8F00S00C0.0433
T9F00S00C0.0551
T10F00S00C0.0591
T11F00S00C0.1181
%
T01
X048733Y045125
Y047881
T02
X03176Y027243
X032168Y027942
X035775Y026795
X036365Y026425
X037708Y026292
X0383Y026425
X03872Y02752
X039227Y02728
X04128Y030465
X040605Y031204
X04504Y0312
X0444Y0304
X037009Y02392
X03672Y0236
X02647Y02963
X02298Y03054
X02163
X01952Y03
X0168Y03056
X02104Y02784
X022492Y028341
X01827Y02456
X01312Y027942
X011579Y02816
Y028939
X012725Y0336
X01499Y033605
X01358Y035245
X013414Y040293
X012248
X014075Y0424
X02073Y04152
X02129Y041515
Y04089
X0232Y0412
X024355Y04121
X024835Y038715
X025672Y038415
X02671
X0288Y03904
X02944Y0388
X02992Y03856
X0304Y038035
X030792Y037852
X03089Y037051
X029418Y03678
X02928Y037945
Y0356
X02848Y03576
X028485Y034235
X027761Y03381
X026975Y033705
X025135Y03367
X024562Y03277
X024113Y032454
X02624Y03216
X02592Y0348
X02632Y03576
X02552
X024572Y0352
X024113Y035483
X022459Y03451
X02129Y03759
X024585Y044555
X026253Y044505
X028824Y044136
X029635Y04448
X02856Y04549
X02888Y04584
X0292Y04216
X029795Y04248
X02824Y04216
X030637Y03552
X03024Y035065
X030365Y033925
X02969Y0342
X030135Y03218
X03252
X03261Y032765
X032625Y03326
X03278Y033843
X03181Y03394
X031587Y03488
X031413Y036455
X031302Y037018
X032535Y03721
X03263Y03676
X03273Y036025
X033915Y036364
X03352Y03712
X03432
X03472Y03686
X034645Y03574
X033825Y03517
X03387Y033775
X03399Y03316
X034416Y032796
X03481Y03305
X03487Y034085
X033465Y032775
X03216Y03144
X03676Y03272
X03832Y03392
X037348Y035157
X03688Y03544
X036135Y036025
X03635Y03664
X03769Y036929
X039725Y037685
X040143Y037377
X0404Y036498
X04086Y03664
X04154Y036545
X042Y035551
X04008
X04072Y038274
X04156Y038237
X03949Y038605
X040015Y040235
X03864Y04116
X038083Y04088
X03696Y04208
X03656Y04216
X03616Y0424
X035255Y04325
X035605Y044145
X035255Y04502
X0352Y04568
X03522Y04616
X036106Y045489
X03608Y04504
X037438
X0364Y04665
X039428Y046115
X03848Y04336
X035295Y04062
X035Y038135
X03207Y03787
X031818Y038183
X031485Y03846
X03224Y039275
X0337Y04488
X0317Y04616
X044515Y04672
X04578Y045875
X04533Y04458
X04468Y04384
X04672Y04232
X04632Y038046
X04576Y03808
X0448Y03744
X043937
X041015Y031863
X048255Y03354
X049154Y03752
X04724
X047426Y037893
X04696Y038046
X047388Y04176
X048275Y04197
X049154Y04208
X048599Y04408
X04816Y044257
X04712Y04624
Y046922
X04755Y04844
X04576Y047965
X04479Y048882
X04301Y048905
X043075Y047255
X035708Y04951
X026665Y04904
X02624Y047677
X02266Y0469
X02272Y048948
T03
X048598Y045125
X048868
Y047881
X048598
T04
X02364Y02663
X02464
X02564
X02804
X02904
X03004
Y02963
X02904
X02804
X02564
X02464
X02364
T05
X04767Y045519
Y047488
T06
X047001Y0236
X04724Y02632
X04824
X04624
X04524
X04424
X04324
X042851Y0236
X043901
X044931
X045951
X041801
X03952Y02403
Y02504
Y02602
X0348Y0286
X0338
Y0296
Y0306
X0348
Y0296
X02184Y02903
Y02805
Y02704
X02032Y02712
Y02813
Y02911
X0188Y02915
Y02817
Y02716
X01728
Y02817
Y02915
X0156Y02911
Y02813
Y02712
X01416Y02716
Y02817
Y02915
X0125Y02911
Y02813
Y02712
X0108Y0272
Y02821
Y02919
X01359Y0383
X0146
X01827Y03816
X01928
X02252Y037663
X02353
X02451
X026341Y03768
X027321
X028331
X028321Y0397
X027341
X026331
X029331
X0306Y03984
X0316
X0326
X0336
X0346
X037292Y04011
Y03913
Y03812
X03864Y03814
Y03912
Y04013
X03808Y041773
Y04456
X03931Y03648
Y03547
Y0344
Y03339
X04268Y03504
X04368
X04468
X04568
X04668
X0348Y0316
X0338
X04768Y03504
X04056Y04732
Y04833
Y04931
X039428Y04904
X038418
X037438
X036428
X03676Y0476
X03774
X03875
X02088Y04896
X01987
X013259Y0485
Y04951
T07
X0257Y0412
X0267
X0277
X0287
X0297
X0307
X0317
X0327
X0337
X0347
T08
X01442Y031402
X01542
Y036402
X01442
X01642
X01742
X01842
X01942
X02042
X02142
X02298Y036402
X02398
X02498
X02598
X02698
X02798
X02898
X02998
Y031402
X02898
X02798
X02698
X02598
X02498
X02398
X02298
X02142Y031402
X02042
X01942
X01842
X01742
X01642
T09
X033042Y025579
X034542
X036042
X037542
X03089
X02939
X02789
X02639
X02425
X02275
X02125
X01975
X01753
X01603
X01453
X01303
X013339Y04141
Y04291
X013259Y04549
Y04699
T10
X011811Y032283
Y034252
Y03622
T11
X04848Y02352
X01112
X04848Y04888
X01112
M30
