G04*
G04 #@! TF.GenerationSoftware,Altium Limited,Altium Designer,18.1.6 (161)*
G04*
G04 Layer_Color=8421504*
%FSTAX24Y24*%
%MOIN*%
G70*
G01*
G75*
%ADD21R,0.0530X0.0160*%
%ADD22R,0.0750X0.0590*%
%ADD23R,0.0550X0.0500*%
%ADD24R,0.0500X0.0550*%
%ADD25O,0.0400X0.0600*%
%ADD26O,0.0600X0.0400*%
%ADD27O,0.0850X0.0650*%
%ADD28R,0.0850X0.0650*%
%ADD29R,0.1240X0.0630*%
%ADD30R,0.0945X0.0394*%
%ADD31R,0.0945X0.1299*%
%ADD32R,0.0472X0.0433*%
%ADD33R,0.0433X0.0472*%
%ADD34R,0.0380X0.0080*%
%ADD35R,0.0080X0.0380*%
%ADD36R,0.0787X0.0787*%
%ADD37R,0.0500X0.0870*%
%ADD38R,0.0110X0.0580*%
%ADD39R,0.0580X0.0110*%
%ADD40R,0.0787X0.0591*%
%ADD41R,0.0591X0.0787*%
%ADD42R,0.1540X0.0390*%
%ADD43R,0.4510X0.4110*%
G36*
X049108Y047421D02*
X048358D01*
Y047881D01*
X049108D01*
Y047421D01*
D02*
G37*
G36*
X045015Y046759D02*
X044554Y046759D01*
Y04722D01*
X045015Y04722D01*
Y046759D01*
D02*
G37*
G36*
X044476Y046759D02*
X044015D01*
X044015Y04722D01*
X044476D01*
X044476Y046759D01*
D02*
G37*
G36*
X045015Y04622D02*
X044554D01*
X044554Y046681D01*
X045015D01*
X045015Y04622D01*
D02*
G37*
G36*
X044476D02*
X044015D01*
X044015Y046681D01*
X044476D01*
X044476Y04622D01*
D02*
G37*
G36*
X049108Y045125D02*
X048358D01*
Y045585D01*
X049108D01*
Y045125D01*
D02*
G37*
D21*
X04768Y045992D02*
D03*
Y046248D02*
D03*
Y046503D02*
D03*
Y046759D02*
D03*
Y047015D02*
D03*
D22*
X048733Y04611D02*
D03*
Y046897D02*
D03*
D23*
X035566Y039035D02*
D03*
Y038135D02*
D03*
X036375Y039035D02*
D03*
Y038135D02*
D03*
X0291Y03478D02*
D03*
Y03388D02*
D03*
X041715Y04638D02*
D03*
Y04728D02*
D03*
X042535Y04727D02*
D03*
Y04637D02*
D03*
X03252Y047717D02*
D03*
Y046817D02*
D03*
X03168Y047717D02*
D03*
Y046817D02*
D03*
X042Y02882D02*
D03*
Y02792D02*
D03*
Y02958D02*
D03*
Y03048D02*
D03*
X02565Y046341D02*
D03*
Y047241D02*
D03*
X02564Y048888D02*
D03*
Y047988D02*
D03*
X0233Y04284D02*
D03*
Y04374D02*
D03*
X02328Y045455D02*
D03*
Y044555D02*
D03*
X02326Y047245D02*
D03*
Y046345D02*
D03*
X02564Y044589D02*
D03*
Y045489D02*
D03*
Y04378D02*
D03*
Y04288D02*
D03*
X024928Y040335D02*
D03*
Y041235D02*
D03*
X018865Y03974D02*
D03*
Y04064D02*
D03*
X02798Y047717D02*
D03*
Y046817D02*
D03*
X02714Y04772D02*
D03*
Y04682D02*
D03*
X03072Y04678D02*
D03*
Y04768D02*
D03*
X02329Y048948D02*
D03*
Y048049D02*
D03*
X02984Y04768D02*
D03*
Y04678D02*
D03*
X0335Y047717D02*
D03*
Y046817D02*
D03*
X034452Y047717D02*
D03*
Y046817D02*
D03*
X04249Y04801D02*
D03*
Y04891D02*
D03*
X041705Y04802D02*
D03*
Y04892D02*
D03*
X02754Y04378D02*
D03*
Y04288D02*
D03*
X028906Y04678D02*
D03*
Y04768D02*
D03*
D24*
X01583Y04633D02*
D03*
X01493D02*
D03*
X04088Y0372D02*
D03*
X04178D02*
D03*
X03735Y03323D02*
D03*
X03825D02*
D03*
X04194Y03336D02*
D03*
X04104D02*
D03*
X024322Y03928D02*
D03*
X023422D02*
D03*
X02266D02*
D03*
X02176D02*
D03*
X0156Y0424D02*
D03*
X0147D02*
D03*
X04661Y04935D02*
D03*
X04571D02*
D03*
D25*
X04832Y043282D02*
D03*
X04352D02*
D03*
X04432D02*
D03*
X04752D02*
D03*
X04672D02*
D03*
X04592D02*
D03*
X04512D02*
D03*
X04272D02*
D03*
Y037052D02*
D03*
X04352Y036978D02*
D03*
X04432D02*
D03*
X04512D02*
D03*
X04592D02*
D03*
X04672D02*
D03*
X04752D02*
D03*
X04832D02*
D03*
D26*
X04212Y042182D02*
D03*
Y041382D02*
D03*
Y040582D02*
D03*
Y039782D02*
D03*
Y038982D02*
D03*
Y038182D02*
D03*
D27*
X0431Y028013D02*
D03*
Y0288D02*
D03*
Y029587D02*
D03*
Y030375D02*
D03*
Y031162D02*
D03*
D28*
Y03195D02*
D03*
D29*
X024325Y03384D02*
D03*
X022395D02*
D03*
X016835Y04841D02*
D03*
X014905D02*
D03*
X018085Y03392D02*
D03*
X016155D02*
D03*
D30*
X017547Y039734D02*
D03*
Y04064D02*
D03*
Y041546D02*
D03*
D31*
X015263Y04064D02*
D03*
D32*
X03168Y048459D02*
D03*
Y049286D02*
D03*
X02798Y048459D02*
D03*
Y049286D02*
D03*
X02714Y048462D02*
D03*
Y049288D02*
D03*
X028906Y049286D02*
D03*
Y048459D02*
D03*
X03252Y048474D02*
D03*
Y049301D02*
D03*
X0335Y048474D02*
D03*
Y049301D02*
D03*
X034452Y048474D02*
D03*
Y049301D02*
D03*
X02984Y049286D02*
D03*
Y048459D02*
D03*
X03072Y048467D02*
D03*
Y049293D02*
D03*
D33*
X044047Y04941D02*
D03*
X044873D02*
D03*
D34*
X04543Y046129D02*
D03*
Y046326D02*
D03*
Y046523D02*
D03*
Y04672D02*
D03*
Y046917D02*
D03*
Y047114D02*
D03*
Y047311D02*
D03*
X0436D02*
D03*
Y047114D02*
D03*
Y046917D02*
D03*
Y04672D02*
D03*
Y046523D02*
D03*
Y046326D02*
D03*
Y046129D02*
D03*
D35*
X045106Y047635D02*
D03*
X044909D02*
D03*
X044712D02*
D03*
X044515D02*
D03*
X044318D02*
D03*
X044121D02*
D03*
X043924D02*
D03*
Y045805D02*
D03*
X044121D02*
D03*
X044318D02*
D03*
X044515D02*
D03*
X044712D02*
D03*
X044909D02*
D03*
X045106D02*
D03*
D36*
X046227Y04456D02*
D03*
X044653D02*
D03*
D37*
X04215Y044675D02*
D03*
X04345D02*
D03*
D38*
X032517Y03458D02*
D03*
X032714D02*
D03*
X032911D02*
D03*
X033108D02*
D03*
X033305D02*
D03*
X033502D02*
D03*
X033698D02*
D03*
X033895D02*
D03*
X034092D02*
D03*
X034289D02*
D03*
X034486D02*
D03*
X034683D02*
D03*
Y0379D02*
D03*
X034486D02*
D03*
X034289D02*
D03*
X034092D02*
D03*
X033895D02*
D03*
X033698D02*
D03*
X033502D02*
D03*
X033305D02*
D03*
X033108D02*
D03*
X032911D02*
D03*
X032714D02*
D03*
X032517D02*
D03*
D39*
X03526Y035157D02*
D03*
Y035354D02*
D03*
Y035551D02*
D03*
Y035748D02*
D03*
Y035945D02*
D03*
Y036142D02*
D03*
Y036338D02*
D03*
Y036535D02*
D03*
Y036732D02*
D03*
Y036929D02*
D03*
Y037126D02*
D03*
Y037323D02*
D03*
X03194D02*
D03*
Y037126D02*
D03*
Y036929D02*
D03*
Y036732D02*
D03*
Y036535D02*
D03*
Y036338D02*
D03*
Y036142D02*
D03*
Y035945D02*
D03*
Y035748D02*
D03*
Y035551D02*
D03*
Y035354D02*
D03*
Y035157D02*
D03*
D40*
X024093Y040565D02*
D03*
X021967D02*
D03*
D41*
X02447Y0453D02*
D03*
Y043174D02*
D03*
X02208Y045303D02*
D03*
Y043177D02*
D03*
X02447Y0485D02*
D03*
Y046374D02*
D03*
X02208Y046297D02*
D03*
Y048423D02*
D03*
D42*
X01517Y043476D02*
D03*
Y045555D02*
D03*
D43*
X018665Y044516D02*
D03*
M02*
