G04*
G04 #@! TF.GenerationSoftware,Altium Limited,Altium Designer,18.1.6 (161)*
G04*
G04 Layer_Color=65535*
%FSTAX24Y24*%
%MOIN*%
G70*
G01*
G75*
%ADD10C,0.0200*%
%ADD11C,0.0098*%
%ADD12C,0.0080*%
%ADD13C,0.0060*%
%ADD14C,0.0050*%
%ADD15C,0.0040*%
%ADD16C,0.0079*%
%ADD17C,0.0070*%
%ADD18C,0.0100*%
%ADD19C,0.0250*%
%ADD20C,0.0030*%
G36*
X01136Y0272D02*
X01161Y02695D01*
Y02745D01*
X01136Y0272D01*
D02*
G37*
G36*
X01306Y02712D02*
X01331Y02687D01*
Y02737D01*
X01306Y02712D01*
D02*
G37*
G36*
X01472Y02716D02*
X01497Y02691D01*
Y02741D01*
X01472Y02716D01*
D02*
G37*
G36*
X01616Y02712D02*
X01641Y02687D01*
Y02737D01*
X01616Y02712D01*
D02*
G37*
G36*
X01784Y02716D02*
X01809Y02691D01*
Y02741D01*
X01784Y02716D01*
D02*
G37*
G36*
X01936D02*
X01961Y02691D01*
Y02741D01*
X01936Y02716D01*
D02*
G37*
G36*
X02088Y02712D02*
X02113Y02687D01*
Y02737D01*
X02088Y02712D01*
D02*
G37*
G36*
X0224Y02704D02*
X02265Y02679D01*
Y02729D01*
X0224Y02704D01*
D02*
G37*
G36*
X01359Y03774D02*
X01334Y03749D01*
X01384D01*
X01359Y03774D01*
D02*
G37*
G36*
X01928Y03872D02*
X01953Y03897D01*
X01903D01*
X01928Y03872D01*
D02*
G37*
G36*
X013819Y0485D02*
X014069Y04825D01*
Y04875D01*
X013819Y0485D01*
D02*
G37*
G36*
X02088Y04952D02*
X02113Y04977D01*
X02063D01*
X02088Y04952D01*
D02*
G37*
G36*
X02252Y037103D02*
X02227Y036853D01*
X02277D01*
X02252Y037103D01*
D02*
G37*
G36*
X0257Y04045D02*
X02545Y0402D01*
X02595D01*
X0257Y04045D01*
D02*
G37*
G36*
X028331Y03824D02*
X028581Y03849D01*
X028081D01*
X028331Y03824D01*
D02*
G37*
G36*
X029331Y04026D02*
X029581Y04051D01*
X029081D01*
X029331Y04026D01*
D02*
G37*
G36*
X039375Y0496D02*
X039125Y04985D01*
X039625D01*
X039375Y0496D01*
D02*
G37*
G36*
X03875Y04816D02*
X0385Y04841D01*
X039D01*
X03875Y04816D01*
D02*
G37*
G36*
X044787Y047925D02*
X044637D01*
Y048025D01*
X044787D01*
Y047925D01*
D02*
G37*
G36*
X041355Y047015D02*
X041105Y047265D01*
X041355Y047515D01*
Y047015D01*
D02*
G37*
G36*
X04331Y046251D02*
X04321D01*
Y046401D01*
X04331D01*
Y046251D01*
D02*
G37*
G36*
X0346Y0406D02*
X03435Y04085D01*
X03485D01*
X0346Y0406D01*
D02*
G37*
G36*
X03808Y04013D02*
X03783Y03988D01*
Y04038D01*
X03808Y04013D01*
D02*
G37*
G36*
X033773Y03829D02*
X033623D01*
Y03839D01*
X033773D01*
Y03829D01*
D02*
G37*
G36*
X038102Y03787D02*
X037852Y03812D01*
X038102Y03837D01*
Y03787D01*
D02*
G37*
G36*
X03155Y036657D02*
X03145D01*
Y036807D01*
X03155D01*
Y036657D01*
D02*
G37*
G36*
X03575Y03646D02*
X03565D01*
Y03661D01*
X03575D01*
Y03646D01*
D02*
G37*
G36*
X03875Y03648D02*
X0385Y03623D01*
Y03673D01*
X03875Y03648D01*
D02*
G37*
G36*
X034364Y03409D02*
X034214D01*
Y03419D01*
X034364D01*
Y03409D01*
D02*
G37*
G36*
X04012Y03314D02*
X03987Y03339D01*
X04012Y03364D01*
Y03314D01*
D02*
G37*
G36*
X0435Y02533D02*
X043D01*
X04325Y02558D01*
X0435Y02533D01*
D02*
G37*
G36*
X04033Y02378D02*
X04008Y02403D01*
X04033Y02428D01*
Y02378D01*
D02*
G37*
D10*
X04783Y044178D02*
G03*
X04783Y044178I-00015J0D01*
G01*
D11*
X021903Y034352D02*
G03*
X021903Y034352I-000049J0D01*
G01*
X017596Y039321D02*
G03*
X017596Y039321I-000049J0D01*
G01*
X043939Y04509D02*
G03*
X043939Y04509I-000049J0D01*
G01*
X014413Y048922D02*
G03*
X014413Y048922I-000049J0D01*
G01*
X018675Y033408D02*
G03*
X018675Y033408I-000049J0D01*
G01*
D12*
X040654Y043023D02*
G03*
X040654Y043023I-002574J0D01*
G01*
D13*
X04997Y044878D02*
Y048128D01*
X049126D02*
X04997D01*
X04763Y047902D02*
Y048128D01*
Y044878D02*
X04834D01*
X04763D02*
Y045105D01*
X049126Y044878D02*
X04997D01*
X04763Y048128D02*
X04834D01*
X045277Y045685D02*
X04555D01*
X045277Y047755D02*
X04555D01*
X04348Y047482D02*
Y047755D01*
Y045685D02*
X043753D01*
X04555D02*
Y045958D01*
Y047482D02*
Y047755D01*
X04348D02*
X043753D01*
X04348Y045685D02*
Y045958D01*
X04358Y045239D02*
Y045315D01*
X04202Y044035D02*
X04358D01*
Y044111D01*
X04202Y045315D02*
X04358D01*
X04202Y045239D02*
Y045315D01*
Y044035D02*
Y044111D01*
X03507Y03477D02*
Y034971D01*
X034869Y03771D02*
X03507D01*
X03213Y037509D02*
Y03771D01*
Y03477D02*
X032331D01*
X034869D02*
X03507D01*
Y037509D02*
Y03771D01*
X03213D02*
X032331D01*
X03213Y03477D02*
Y034971D01*
X01608Y043291D02*
X016279D01*
X01608Y04537D02*
X016279D01*
X01608Y043661D02*
X016279D01*
X01608Y04574D02*
X016279D01*
X029932Y027428D02*
X030142D01*
X030028Y027275D01*
X030085D01*
X030123Y027256D01*
X030142Y027237D01*
X030161Y02718D01*
Y027142D01*
X030142Y027085D01*
X030104Y027047D01*
X030047Y027028D01*
X02999D01*
X029932Y027047D01*
X029913Y027066D01*
X029894Y027104D01*
X027839Y029239D02*
X027801Y02922D01*
X027763Y029181D01*
X027744Y029143D01*
X027725Y029086D01*
Y028991D01*
X027744Y028934D01*
X027763Y028896D01*
X027801Y028858D01*
X027839Y028839D01*
X027915D01*
X027954Y028858D01*
X027992Y028896D01*
X028011Y028934D01*
X02803Y028991D01*
Y029086D01*
X028011Y029143D01*
X027992Y029181D01*
X027954Y02922D01*
X027915Y029239D01*
X027839D01*
X028123D02*
Y028839D01*
Y029239D02*
X02839Y028839D01*
Y029239D02*
Y028839D01*
X027949Y027351D02*
X027988Y02737D01*
X028045Y027428D01*
Y027028D01*
X028913Y027332D02*
Y027351D01*
X028932Y027389D01*
X028951Y027409D01*
X02899Y027428D01*
X029066D01*
X029104Y027409D01*
X029123Y027389D01*
X029142Y027351D01*
Y027313D01*
X029123Y027275D01*
X029085Y027218D01*
X028894Y027028D01*
X029161D01*
X024513Y027332D02*
Y027351D01*
X024532Y027389D01*
X024551Y027409D01*
X02459Y027428D01*
X024666D01*
X024704Y027409D01*
X024723Y027389D01*
X024742Y027351D01*
Y027313D01*
X024723Y027275D01*
X024685Y027218D01*
X024494Y027028D01*
X024761D01*
X023549Y027351D02*
X023588Y02737D01*
X023645Y027428D01*
Y027028D01*
X023439Y029239D02*
X023401Y02922D01*
X023363Y029181D01*
X023344Y029143D01*
X023325Y029086D01*
Y028991D01*
X023344Y028934D01*
X023363Y028896D01*
X023401Y028858D01*
X023439Y028839D01*
X023515D01*
X023554Y028858D01*
X023592Y028896D01*
X023611Y028934D01*
X02363Y028991D01*
Y029086D01*
X023611Y029143D01*
X023592Y029181D01*
X023554Y02922D01*
X023515Y029239D01*
X023439D01*
X023723D02*
Y028839D01*
Y029239D02*
X02399Y028839D01*
Y029239D02*
Y028839D01*
X025532Y027428D02*
X025742D01*
X025628Y027275D01*
X025685D01*
X025723Y027256D01*
X025742Y027237D01*
X025761Y02718D01*
Y027142D01*
X025742Y027085D01*
X025704Y027047D01*
X025647Y027028D01*
X02559D01*
X025532Y027047D01*
X025513Y027066D01*
X025494Y027104D01*
D14*
X035226Y039355D02*
X035896D01*
Y037825D02*
Y039355D01*
X035226Y037825D02*
X035896D01*
X035226D02*
Y039355D01*
X036035D02*
X036705D01*
Y037825D02*
Y039355D01*
X036035Y037825D02*
X036705D01*
X036035D02*
Y039355D01*
X01615Y046D02*
Y04667D01*
X01462Y046D02*
X01615D01*
X01462D02*
Y04667D01*
X01615D01*
X03898Y02372D02*
X03917Y02353D01*
X03898Y02372D02*
Y02434D01*
X03912Y02448D01*
Y02458D01*
X03897Y02473D02*
X03912Y02458D01*
X03897Y02473D02*
Y02533D01*
X03912Y02548D01*
Y02558D01*
X03897Y02573D02*
X03912Y02558D01*
X03897Y02573D02*
Y02633D01*
X03916Y02652D01*
X03988D01*
X04007Y02633D01*
Y02578D02*
Y02633D01*
X03992Y02563D02*
X04007Y02578D01*
X03992Y02553D02*
Y02563D01*
Y02458D02*
X04007Y02473D01*
X03992Y02448D02*
Y02458D01*
Y02448D02*
X04007Y02433D01*
Y02373D02*
Y02433D01*
X03987Y02353D02*
X04007Y02373D01*
X03917Y02353D02*
X03987D01*
X03992Y02553D02*
X04007Y02538D01*
Y02473D02*
Y02538D01*
X0213Y02673D02*
X02149Y02654D01*
X0213Y02673D02*
Y02735D01*
X02144Y02749D01*
Y02759D01*
X02129Y02774D02*
X02144Y02759D01*
X02129Y02774D02*
Y02834D01*
X02144Y02849D01*
Y02859D01*
X02129Y02874D02*
X02144Y02859D01*
X02129Y02874D02*
Y02934D01*
X02148Y02953D01*
X0222D01*
X02239Y02934D01*
Y02879D02*
Y02934D01*
X02224Y02864D02*
X02239Y02879D01*
X02224Y02854D02*
Y02864D01*
Y02759D02*
X02239Y02774D01*
X02224Y02749D02*
Y02759D01*
Y02749D02*
X02239Y02734D01*
Y02674D02*
Y02734D01*
X02219Y02654D02*
X02239Y02674D01*
X02149Y02654D02*
X02219D01*
X02224Y02854D02*
X02239Y02839D01*
Y02774D02*
Y02839D01*
X04057Y03686D02*
Y03754D01*
X04209D01*
Y03686D02*
Y03754D01*
X04057Y03686D02*
X04209D01*
X03703Y03289D02*
Y03356D01*
X03856D01*
Y03289D02*
Y03356D01*
X03703Y03289D02*
X03856D01*
X02876Y0351D02*
X02943D01*
Y03357D02*
Y0351D01*
X02876Y03357D02*
X02943D01*
X02876D02*
Y0351D01*
X041385Y04606D02*
X042055D01*
X041385D02*
Y04759D01*
X042055D01*
Y04606D02*
Y04759D01*
X042195D02*
X042865D01*
Y04606D02*
Y04759D01*
X042195Y04606D02*
X042865D01*
X042195D02*
Y04759D01*
X03218Y048027D02*
X03286D01*
Y046507D02*
Y048027D01*
X03218Y046507D02*
X03286D01*
X03218D02*
Y048027D01*
X03134D02*
X03202D01*
Y046507D02*
Y048027D01*
X03134Y046507D02*
X03202D01*
X03134D02*
Y048027D01*
X04226Y03303D02*
Y0337D01*
X04073Y03303D02*
X04226D01*
X04073D02*
Y0337D01*
X04226D01*
X04166Y02913D02*
X04234D01*
Y02761D02*
Y02913D01*
X04166Y02761D02*
X04234D01*
X04166D02*
Y02913D01*
Y02927D02*
X04234D01*
X04166D02*
Y03079D01*
X04234D01*
Y02927D02*
Y03079D01*
X02531Y046031D02*
Y047561D01*
Y046031D02*
X02598D01*
Y047561D01*
X02531D02*
X02598D01*
Y047678D02*
Y049198D01*
X0253D02*
X02598D01*
X0253Y047678D02*
Y049198D01*
Y047678D02*
X02598D01*
X024642Y03895D02*
Y03962D01*
X023112Y03895D02*
X024642D01*
X023112D02*
Y03962D01*
X024642D01*
X02248Y030902D02*
Y036902D01*
Y030902D02*
X03048D01*
X02248Y036902D02*
X03048D01*
Y030902D02*
Y036902D01*
X02192Y030902D02*
Y036902D01*
X01392D02*
X02192D01*
X01392Y030902D02*
X02192D01*
X01392D02*
Y036902D01*
X02296Y04253D02*
Y04405D01*
Y04253D02*
X02364D01*
Y04405D01*
X02296D02*
X02364D01*
X02362Y044235D02*
Y045765D01*
X02295D02*
X02362D01*
X02295Y044235D02*
Y045765D01*
Y044235D02*
X02362D01*
X0236Y046025D02*
Y047555D01*
X02293D02*
X0236D01*
X02293Y046025D02*
Y047555D01*
Y046025D02*
X0236D01*
X02531Y044269D02*
X02598D01*
X02531D02*
Y045799D01*
X02598D01*
Y044269D02*
Y045799D01*
X0253Y04409D02*
X02598D01*
Y04257D02*
Y04409D01*
X0253Y04257D02*
X02598D01*
X0253D02*
Y04409D01*
X02145Y03894D02*
X02297D01*
Y03962D01*
X02145D02*
X02297D01*
X02145Y03894D02*
Y03962D01*
X04168Y03374D02*
Y03604D01*
Y03614D02*
X04868D01*
Y03364D02*
Y03614D01*
X04168Y03364D02*
X04868D01*
X04168D02*
Y03374D01*
Y03604D02*
Y03614D01*
X024598Y040015D02*
X025268D01*
X024598D02*
Y041545D01*
X025268D01*
Y040015D02*
Y041545D01*
X028641Y03714D02*
X028831Y03733D01*
X028021Y03714D02*
X028641D01*
X027881Y03728D02*
X028021Y03714D01*
X027781Y03728D02*
X027881D01*
X027631Y03713D02*
X027781Y03728D01*
X027031Y03713D02*
X027631D01*
X026881Y03728D02*
X027031Y03713D01*
X026781Y03728D02*
X026881D01*
X026631Y03713D02*
X026781Y03728D01*
X026031Y03713D02*
X026631D01*
X025841Y03732D02*
X026031Y03713D01*
X025841Y03732D02*
Y03804D01*
X026031Y03823D01*
X026581D01*
X026731Y03808D01*
X026831D01*
X027631Y03823D02*
X027781Y03808D01*
X027881D01*
X028031Y03823D01*
X028631D01*
X028831Y03803D01*
Y03733D02*
Y03803D01*
X026831Y03808D02*
X026981Y03823D01*
X027631D01*
X040005Y046955D02*
X040195Y046765D01*
X040005Y046955D02*
Y047575D01*
X040145Y047715D01*
Y047815D01*
X039995Y047965D02*
X040145Y047815D01*
X039995Y047965D02*
Y048565D01*
X040145Y048715D01*
Y048815D01*
X039995Y048965D02*
X040145Y048815D01*
X039995Y048965D02*
Y049565D01*
X040185Y049755D01*
X040905D01*
X041095Y049565D01*
Y049015D02*
Y049565D01*
X040945Y048865D02*
X041095Y049015D01*
X040945Y048765D02*
Y048865D01*
Y047815D02*
X041095Y047965D01*
X040945Y047715D02*
Y047815D01*
Y047715D02*
X041095Y047565D01*
Y046965D02*
Y047565D01*
X040895Y046765D02*
X041095Y046965D01*
X040195Y046765D02*
X040895D01*
X040945Y048765D02*
X041095Y048615D01*
Y047965D02*
Y048615D01*
X0131Y03865D02*
X01323Y03878D01*
X0139D01*
X01436D02*
X0149D01*
X01507Y03861D01*
Y03798D02*
Y03861D01*
X01489Y0378D02*
X01507Y03798D01*
X01435Y0378D02*
X01489D01*
X0131Y03796D02*
X01325Y03781D01*
X0131Y03796D02*
Y03865D01*
X0139Y03878D02*
X01401Y03867D01*
X01425D01*
X01436Y03878D01*
X01389Y03781D02*
X01392D01*
X01401Y0379D02*
X01425D01*
X01435Y0378D01*
X01325Y03781D02*
X01392D01*
X01401Y0379D01*
X01964Y03768D02*
X01977Y03781D01*
X01897Y03768D02*
X01964D01*
X01797D02*
X01851D01*
X0178Y03785D02*
X01797Y03768D01*
X0178Y03785D02*
Y03848D01*
X01798Y03866D01*
X01852D01*
X01962Y03865D02*
X01977Y0385D01*
Y03781D02*
Y0385D01*
X01886Y03779D02*
X01897Y03768D01*
X01862Y03779D02*
X01886D01*
X01851Y03768D02*
X01862Y03779D01*
X01895Y03865D02*
X01898D01*
X01862Y03856D02*
X01886D01*
X01852Y03866D02*
X01862Y03856D01*
X01895Y03865D02*
X01962D01*
X01886Y03856D02*
X01895Y03865D01*
X01592Y04207D02*
Y04274D01*
X01439Y04207D02*
X01592D01*
X01439D02*
Y04274D01*
X01592D01*
X018535Y03942D02*
X019205D01*
X018535D02*
Y04095D01*
X019205D01*
Y03942D02*
Y04095D01*
X02764Y048027D02*
X02832D01*
Y046507D02*
Y048027D01*
X02764Y046507D02*
X02832D01*
X02764D02*
Y048027D01*
X0268Y04803D02*
X02748D01*
Y04651D02*
Y04803D01*
X0268Y04651D02*
X02748D01*
X0268D02*
Y04803D01*
X03038Y04647D02*
X03106D01*
X03038D02*
Y04799D01*
X03106D01*
Y04647D02*
Y04799D01*
X02363Y047738D02*
Y049258D01*
X02295D02*
X02363D01*
X02295Y047738D02*
Y049258D01*
Y047738D02*
X02363D01*
X03018Y04647D02*
Y04799D01*
X0295D02*
X03018D01*
X0295Y04647D02*
Y04799D01*
Y04647D02*
X03018D01*
X03316Y048027D02*
X03384D01*
Y046507D02*
Y048027D01*
X03316Y046507D02*
X03384D01*
X03316D02*
Y048027D01*
X034112D02*
X034792D01*
Y046507D02*
Y048027D01*
X034112Y046507D02*
X034792D01*
X034112D02*
Y048027D01*
X02202Y038013D02*
X02221Y038203D01*
X02283D01*
X02297Y038063D01*
X02307D01*
X02322Y038213D01*
X02382D01*
X02397Y038063D01*
X02407D01*
X02422Y038213D01*
X02482D01*
X02501Y038023D01*
Y037303D02*
Y038023D01*
X02482Y037113D02*
X02501Y037303D01*
X02427Y037113D02*
X02482D01*
X02412Y037263D02*
X02427Y037113D01*
X02402Y037263D02*
X02412D01*
X02307D02*
X02322Y037113D01*
X02297Y037263D02*
X02307D01*
X02282Y037113D02*
X02297Y037263D01*
X02222Y037113D02*
X02282D01*
X02202Y037313D02*
X02222Y037113D01*
X02202Y037313D02*
Y038013D01*
X02387Y037113D02*
X02402Y037263D01*
X02322Y037113D02*
X02387D01*
X03906Y04706D02*
X03925Y04725D01*
X03844Y04706D02*
X03906D01*
X0383Y0472D02*
X03844Y04706D01*
X0382Y0472D02*
X0383D01*
X03805Y04705D02*
X0382Y0472D01*
X03745Y04705D02*
X03805D01*
X0373Y0472D02*
X03745Y04705D01*
X0372Y0472D02*
X0373D01*
X03705Y04705D02*
X0372Y0472D01*
X03645Y04705D02*
X03705D01*
X03626Y04724D02*
X03645Y04705D01*
X03626Y04724D02*
Y04796D01*
X03645Y04815D01*
X037D01*
X03715Y048D01*
X03725D01*
X03805Y04815D02*
X0382Y048D01*
X0383D01*
X03845Y04815D01*
X03905D01*
X03925Y04795D01*
Y04725D02*
Y04795D01*
X03725Y048D02*
X0374Y04815D01*
X03805D01*
X04216Y04769D02*
X04283D01*
X04216D02*
Y04922D01*
X04283D01*
Y04769D02*
Y04922D01*
X041375Y0477D02*
X042045D01*
X041375D02*
Y04923D01*
X042045D01*
Y0477D02*
Y04923D01*
X04692Y04901D02*
Y04969D01*
X0454Y04901D02*
X04692D01*
X0454D02*
Y04969D01*
X04692D01*
X03899Y04063D02*
X03918Y04044D01*
Y03982D02*
Y04044D01*
X03904Y03968D02*
X03918Y03982D01*
X03904Y03958D02*
Y03968D01*
Y03958D02*
X03919Y03943D01*
Y03883D02*
Y03943D01*
X03904Y03868D02*
X03919Y03883D01*
X03904Y03858D02*
Y03868D01*
Y03858D02*
X03919Y03843D01*
Y03783D02*
Y03843D01*
X039Y03764D02*
X03919Y03783D01*
X03828Y03764D02*
X039D01*
X03809Y03783D02*
X03828Y03764D01*
X03809Y03783D02*
Y03838D01*
X03824Y03853D01*
Y03863D01*
X03809Y03943D02*
X03824Y03958D01*
Y03968D01*
X03809Y03983D02*
X03824Y03968D01*
X03809Y03983D02*
Y04043D01*
X03829Y04063D01*
X03899D01*
X03809Y03878D02*
X03824Y03863D01*
X03809Y03878D02*
Y03943D01*
X03966Y03697D02*
X03979Y03684D01*
Y03617D02*
Y03684D01*
Y03517D02*
Y03571D01*
X03962Y035D02*
X03979Y03517D01*
X03899Y035D02*
X03962D01*
X03881Y03518D02*
X03899Y035D01*
X03881Y03518D02*
Y03572D01*
X03882Y03682D02*
X03897Y03697D01*
X03966D01*
X03968Y03606D02*
X03979Y03617D01*
X03968Y03582D02*
Y03606D01*
Y03582D02*
X03979Y03571D01*
X03882Y03615D02*
Y03618D01*
X03891Y03582D02*
Y03606D01*
X03881Y03572D02*
X03891Y03582D01*
X03882Y03615D02*
Y03682D01*
Y03615D02*
X03891Y03606D01*
X03883Y03303D02*
X03896Y0329D01*
X03883Y03303D02*
Y0337D01*
Y03416D02*
Y0347D01*
X039Y03487D01*
X03963D01*
X03981Y03469D01*
Y03415D02*
Y03469D01*
X03965Y0329D02*
X0398Y03305D01*
X03896Y0329D02*
X03965D01*
X03883Y0337D02*
X03894Y03381D01*
Y03405D01*
X03883Y03416D02*
X03894Y03405D01*
X0398Y03369D02*
Y03372D01*
X03971Y03381D02*
Y03405D01*
X03981Y03415D01*
X0398Y03305D02*
Y03372D01*
X03971Y03381D02*
X0398Y03372D01*
X06203Y02702D02*
X06213D01*
Y03322D01*
X03283D02*
X06213D01*
X03283Y02702D02*
Y03322D01*
Y02702D02*
X06203D01*
X0272Y0441D02*
X02787D01*
Y04257D02*
Y0441D01*
X0272Y04257D02*
X02787D01*
X0272D02*
Y0441D01*
X02124Y04848D02*
X02137Y04861D01*
X02057Y04848D02*
X02124D01*
X01957D02*
X02011D01*
X0194Y04865D02*
X01957Y04848D01*
X0194Y04865D02*
Y04928D01*
X01958Y04946D01*
X02012D01*
X02122Y04945D02*
X02137Y0493D01*
Y04861D02*
Y0493D01*
X02046Y04859D02*
X02057Y04848D01*
X02022Y04859D02*
X02046D01*
X02011Y04848D02*
X02022Y04859D01*
X02055Y04945D02*
X02058D01*
X02022Y04936D02*
X02046D01*
X02012Y04946D02*
X02022Y04936D01*
X02055Y04945D02*
X02122D01*
X02046Y04936D02*
X02055Y04945D01*
X012779Y04814D02*
X012909Y04801D01*
X012779Y04814D02*
Y04881D01*
Y04927D02*
Y04981D01*
X012949Y04998D01*
X013579D01*
X013759Y0498D01*
Y04926D02*
Y0498D01*
X013599Y04801D02*
X013749Y04816D01*
X012909Y04801D02*
X013599D01*
X012779Y04881D02*
X012889Y04892D01*
Y04916D01*
X012779Y04927D02*
X012889Y04916D01*
X013749Y0488D02*
Y04883D01*
X013659Y04892D02*
Y04916D01*
X013759Y04926D01*
X013749Y04816D02*
Y04883D01*
X013659Y04892D02*
X013749Y04883D01*
X036752Y03781D02*
X036942Y03762D01*
X036752Y03781D02*
Y03843D01*
X036892Y03857D01*
Y03867D01*
X036742Y03882D02*
X036892Y03867D01*
X036742Y03882D02*
Y03942D01*
X036892Y03957D01*
Y03967D01*
X036742Y03982D02*
X036892Y03967D01*
X036742Y03982D02*
Y04042D01*
X036932Y04061D01*
X037652D01*
X037842Y04042D01*
Y03987D02*
Y04042D01*
X037692Y03972D02*
X037842Y03987D01*
X037692Y03962D02*
Y03972D01*
Y03867D02*
X037842Y03882D01*
X037692Y03857D02*
Y03867D01*
Y03857D02*
X037842Y03842D01*
Y03782D02*
Y03842D01*
X037642Y03762D02*
X037842Y03782D01*
X036942Y03762D02*
X037642D01*
X037692Y03962D02*
X037842Y03947D01*
Y03882D02*
Y03947D01*
X028566Y04647D02*
X029246D01*
X028566D02*
Y04799D01*
X029246D01*
Y04647D02*
Y04799D01*
X01935Y02786D02*
Y02851D01*
X0192Y02866D02*
X01935Y02851D01*
X01845Y02666D02*
X01915D01*
X01935Y02686D01*
Y02746D01*
X0192Y02761D02*
X01935Y02746D01*
X0192Y02761D02*
Y02771D01*
X01935Y02786D01*
X0192Y02866D02*
Y02876D01*
X01935Y02891D01*
Y02946D01*
X01916Y02965D02*
X01935Y02946D01*
X01844Y02965D02*
X01916D01*
X01825Y02946D02*
X01844Y02965D01*
X01825Y02886D02*
Y02946D01*
Y02886D02*
X0184Y02871D01*
Y02861D02*
Y02871D01*
X01825Y02846D02*
X0184Y02861D01*
X01825Y02786D02*
Y02846D01*
Y02786D02*
X0184Y02771D01*
Y02761D02*
Y02771D01*
X01826Y02747D02*
X0184Y02761D01*
X01826Y02685D02*
Y02747D01*
Y02685D02*
X01845Y02666D01*
X01305Y02782D02*
Y02847D01*
X0129Y02862D02*
X01305Y02847D01*
X01215Y02662D02*
X01285D01*
X01305Y02682D01*
Y02742D01*
X0129Y02757D02*
X01305Y02742D01*
X0129Y02757D02*
Y02767D01*
X01305Y02782D01*
X0129Y02862D02*
Y02872D01*
X01305Y02887D01*
Y02942D01*
X01286Y02961D02*
X01305Y02942D01*
X01214Y02961D02*
X01286D01*
X01195Y02942D02*
X01214Y02961D01*
X01195Y02882D02*
Y02942D01*
Y02882D02*
X0121Y02867D01*
Y02857D02*
Y02867D01*
X01195Y02842D02*
X0121Y02857D01*
X01195Y02782D02*
Y02842D01*
Y02782D02*
X0121Y02767D01*
Y02757D02*
Y02767D01*
X01196Y02743D02*
X0121Y02757D01*
X01196Y02681D02*
Y02743D01*
Y02681D02*
X01215Y02662D01*
X01135Y0279D02*
Y02855D01*
X0112Y0287D02*
X01135Y02855D01*
X01045Y0267D02*
X01115D01*
X01135Y0269D01*
Y0275D01*
X0112Y02765D02*
X01135Y0275D01*
X0112Y02765D02*
Y02775D01*
X01135Y0279D01*
X0112Y0287D02*
Y0288D01*
X01135Y02895D01*
Y0295D01*
X01116Y02969D02*
X01135Y0295D01*
X01044Y02969D02*
X01116D01*
X01025Y0295D02*
X01044Y02969D01*
X01025Y0289D02*
Y0295D01*
Y0289D02*
X0104Y02875D01*
Y02865D02*
Y02875D01*
X01025Y0285D02*
X0104Y02865D01*
X01025Y0279D02*
Y0285D01*
Y0279D02*
X0104Y02775D01*
Y02765D02*
Y02775D01*
X01026Y02751D02*
X0104Y02765D01*
X01026Y02689D02*
Y02751D01*
Y02689D02*
X01045Y0267D01*
X01615Y02782D02*
Y02847D01*
X016Y02862D02*
X01615Y02847D01*
X01525Y02662D02*
X01595D01*
X01615Y02682D01*
Y02742D01*
X016Y02757D02*
X01615Y02742D01*
X016Y02757D02*
Y02767D01*
X01615Y02782D01*
X016Y02862D02*
Y02872D01*
X01615Y02887D01*
Y02942D01*
X01596Y02961D02*
X01615Y02942D01*
X01524Y02961D02*
X01596D01*
X01505Y02942D02*
X01524Y02961D01*
X01505Y02882D02*
Y02942D01*
Y02882D02*
X0152Y02867D01*
Y02857D02*
Y02867D01*
X01505Y02842D02*
X0152Y02857D01*
X01505Y02782D02*
Y02842D01*
Y02782D02*
X0152Y02767D01*
Y02757D02*
Y02767D01*
X01506Y02743D02*
X0152Y02757D01*
X01506Y02681D02*
Y02743D01*
Y02681D02*
X01525Y02662D01*
X01471Y02786D02*
Y02851D01*
X01456Y02866D02*
X01471Y02851D01*
X01381Y02666D02*
X01451D01*
X01471Y02686D01*
Y02746D01*
X01456Y02761D02*
X01471Y02746D01*
X01456Y02761D02*
Y02771D01*
X01471Y02786D01*
X01456Y02866D02*
Y02876D01*
X01471Y02891D01*
Y02946D01*
X01452Y02965D02*
X01471Y02946D01*
X0138Y02965D02*
X01452D01*
X01361Y02946D02*
X0138Y02965D01*
X01361Y02886D02*
Y02946D01*
Y02886D02*
X01376Y02871D01*
Y02861D02*
Y02871D01*
X01361Y02846D02*
X01376Y02861D01*
X01361Y02786D02*
Y02846D01*
Y02786D02*
X01376Y02771D01*
Y02761D02*
Y02771D01*
X01362Y02747D02*
X01376Y02761D01*
X01362Y02685D02*
Y02747D01*
Y02685D02*
X01381Y02666D01*
X01783Y02786D02*
Y02851D01*
X01768Y02866D02*
X01783Y02851D01*
X01693Y02666D02*
X01763D01*
X01783Y02686D01*
Y02746D01*
X01768Y02761D02*
X01783Y02746D01*
X01768Y02761D02*
Y02771D01*
X01783Y02786D01*
X01768Y02866D02*
Y02876D01*
X01783Y02891D01*
Y02946D01*
X01764Y02965D02*
X01783Y02946D01*
X01692Y02965D02*
X01764D01*
X01673Y02946D02*
X01692Y02965D01*
X01673Y02886D02*
Y02946D01*
Y02886D02*
X01688Y02871D01*
Y02861D02*
Y02871D01*
X01673Y02846D02*
X01688Y02861D01*
X01673Y02786D02*
Y02846D01*
Y02786D02*
X01688Y02771D01*
Y02761D02*
Y02771D01*
X01674Y02747D02*
X01688Y02761D01*
X01674Y02685D02*
Y02747D01*
Y02685D02*
X01693Y02666D01*
X02087Y02782D02*
Y02847D01*
X02072Y02862D02*
X02087Y02847D01*
X01997Y02662D02*
X02067D01*
X02087Y02682D01*
Y02742D01*
X02072Y02757D02*
X02087Y02742D01*
X02072Y02757D02*
Y02767D01*
X02087Y02782D01*
X02072Y02862D02*
Y02872D01*
X02087Y02887D01*
Y02942D01*
X02068Y02961D02*
X02087Y02942D01*
X01996Y02961D02*
X02068D01*
X01977Y02942D02*
X01996Y02961D01*
X01977Y02882D02*
Y02942D01*
Y02882D02*
X01992Y02867D01*
Y02857D02*
Y02867D01*
X01977Y02842D02*
X01992Y02857D01*
X01977Y02782D02*
Y02842D01*
Y02782D02*
X01992Y02767D01*
Y02757D02*
Y02767D01*
X01978Y02743D02*
X01992Y02757D01*
X01978Y02681D02*
Y02743D01*
Y02681D02*
X01997Y02662D01*
X032089Y048548D02*
Y048291D01*
X03196Y048419D02*
X032217D01*
X028389Y048507D02*
Y04825D01*
X02826Y048379D02*
X028517D01*
X027549Y048507D02*
Y04825D01*
X02742Y048379D02*
X027677D01*
X029337Y049158D02*
Y049415D01*
X029466Y049287D02*
X029209D01*
X032978Y048525D02*
Y048268D01*
X032849Y048396D02*
X033106D01*
X033949Y048548D02*
Y048291D01*
X03382Y048419D02*
X034077D01*
X03489Y048548D02*
Y048291D01*
X034761Y048419D02*
X035018D01*
X030209Y048532D02*
Y048275D01*
X03008Y048404D02*
X030337D01*
X031129Y04854D02*
Y048283D01*
X031Y048412D02*
X031257D01*
X043713Y049551D02*
X043456D01*
X043585Y04968D02*
Y049423D01*
D15*
X035316Y038415D02*
Y038755D01*
X035816Y038415D02*
Y038755D01*
X036125Y038415D02*
Y038755D01*
X036625Y038415D02*
Y038755D01*
X01521Y04658D02*
X01555D01*
X01521Y04608D02*
X01555D01*
X04123Y03693D02*
X04143D01*
X04123Y03748D02*
X04143D01*
X03763Y03298D02*
X03797D01*
X03763Y03348D02*
X03797D01*
X02885Y03416D02*
Y0345D01*
X02935Y03416D02*
Y0345D01*
X041965Y04666D02*
Y047D01*
X041465Y04666D02*
Y047D01*
X042285Y04665D02*
Y04699D01*
X042785Y04665D02*
Y04699D01*
X03225Y047167D02*
Y047367D01*
X0328Y047167D02*
Y047367D01*
X03141Y047167D02*
Y047367D01*
X03196Y047167D02*
Y047367D01*
X04132Y03361D02*
X04166D01*
X04132Y03311D02*
X04166D01*
X04173Y02827D02*
Y02847D01*
X04228Y02827D02*
Y02847D01*
X04227Y02993D02*
Y03013D01*
X04172Y02993D02*
Y03013D01*
X0259Y046621D02*
Y046961D01*
X0254Y046621D02*
Y046961D01*
X02536Y048338D02*
Y048538D01*
X02591Y048338D02*
Y048538D01*
X023702Y03953D02*
X024042D01*
X023702Y03903D02*
X024042D01*
X02358Y04319D02*
Y04339D01*
X02303Y04319D02*
Y04339D01*
Y044835D02*
Y045175D01*
X02353Y044835D02*
Y045175D01*
X02301Y046625D02*
Y046965D01*
X02351Y046625D02*
Y046965D01*
X02589Y044869D02*
Y045209D01*
X02539Y044869D02*
Y045209D01*
X02537Y04323D02*
Y04343D01*
X02592Y04323D02*
Y04343D01*
X02211Y03956D02*
X02231D01*
X02211Y03901D02*
X02231D01*
X025178Y040615D02*
Y040955D01*
X024678Y040615D02*
Y040955D01*
X01498Y04265D02*
X01532D01*
X01498Y04215D02*
X01532D01*
X019115Y04002D02*
Y04036D01*
X018615Y04002D02*
Y04036D01*
X02771Y047167D02*
Y047367D01*
X02826Y047167D02*
Y047367D01*
X02687Y04717D02*
Y04737D01*
X02742Y04717D02*
Y04737D01*
X03099Y04713D02*
Y04733D01*
X03044Y04713D02*
Y04733D01*
X02301Y048398D02*
Y048598D01*
X02356Y048398D02*
Y048598D01*
X02956Y04713D02*
Y04733D01*
X03011Y04713D02*
Y04733D01*
X03323Y047167D02*
Y047367D01*
X03378Y047167D02*
Y047367D01*
X034182Y047167D02*
Y047367D01*
X034732Y047167D02*
Y047367D01*
X04274Y04829D02*
Y04863D01*
X04224Y04829D02*
Y04863D01*
X041955Y0483D02*
Y04864D01*
X041455Y0483D02*
Y04864D01*
X04606Y04962D02*
X04626D01*
X04606Y04907D02*
X04626D01*
X02729Y04316D02*
Y0435D01*
X02779Y04316D02*
Y0435D01*
X029176Y04713D02*
Y04733D01*
X028626Y04713D02*
Y04733D01*
D16*
X030835Y026161D02*
Y030099D01*
X027245Y026161D02*
X030835D01*
X027245D02*
Y030099D01*
X030835D01*
X022845D02*
X026435D01*
X022845Y026161D02*
Y030099D01*
Y026161D02*
X026435D01*
Y030099D01*
X022061Y033131D02*
Y033387D01*
Y034293D02*
Y034549D01*
X022651Y032541D02*
X024659D01*
X022651Y035139D02*
X024659D01*
Y032541D02*
Y033387D01*
Y034332D02*
Y035139D01*
X022061Y034549D02*
X022651Y035139D01*
X022061Y033131D02*
X022651Y032541D01*
X016956Y039321D02*
Y041959D01*
X015854Y039321D02*
Y041959D01*
Y039321D02*
X016956D01*
X015854Y041959D02*
X016956D01*
X04671Y04474D02*
Y04504D01*
X04417Y04473D02*
Y04505D01*
Y04408D02*
X0467D01*
X04417Y04505D02*
X04671D01*
X0467Y04408D02*
Y044309D01*
X04417Y04408D02*
Y044309D01*
X021849Y041254D02*
X024211D01*
X021849Y040978D02*
Y041254D01*
X024211Y040978D02*
Y041254D01*
Y039876D02*
Y040152D01*
X021849Y039876D02*
Y040152D01*
Y039876D02*
X024211D01*
X023781Y043056D02*
Y045418D01*
Y043056D02*
X024057D01*
X023781Y045418D02*
X024057D01*
X024883D02*
X025159D01*
X024883Y043056D02*
X025159D01*
Y045418D01*
X021391Y043059D02*
Y045421D01*
Y043059D02*
X021667D01*
X021391Y045421D02*
X021667D01*
X022493D02*
X022769D01*
X022493Y043059D02*
X022769D01*
Y045421D01*
X023781Y046256D02*
Y048618D01*
Y046256D02*
X024057D01*
X023781Y048618D02*
X024057D01*
X024883D02*
X025159D01*
X024883Y046256D02*
X025159D01*
Y048618D01*
X022769Y046179D02*
Y048541D01*
X022493D02*
X022769D01*
X022493Y046179D02*
X022769D01*
X021391D02*
X021667D01*
X021391Y048541D02*
X021667D01*
X021391Y046179D02*
Y048541D01*
X014571Y047701D02*
Y047957D01*
Y048863D02*
Y049119D01*
X015161Y047111D02*
X017169D01*
X015161Y049709D02*
X017169D01*
Y047111D02*
Y047957D01*
Y048902D02*
Y049709D01*
X014571Y049119D02*
X015161Y049709D01*
X014571Y047701D02*
X015161Y047111D01*
X010594Y031299D02*
X013386D01*
X010236D02*
X010378D01*
X013386D02*
Y037205D01*
X010236Y031299D02*
Y037205D01*
X010594Y031299D02*
X010683Y031063D01*
X010289D02*
X010378Y031299D01*
X010289Y031063D02*
X010683D01*
X012451Y037441D02*
X012844D01*
X012451D02*
X012539Y037205D01*
X012756D02*
X012844Y037441D01*
X012756Y037205D02*
X013386D01*
X010236D02*
X012539D01*
X013811Y041642D02*
Y042378D01*
X010189Y043894D02*
X013811D01*
X010189Y040426D02*
Y043894D01*
Y040426D02*
X013811D01*
Y043441D02*
Y043894D01*
Y040426D02*
Y041178D01*
X013731Y045722D02*
Y046458D01*
X010109Y047974D02*
X013731D01*
X010109Y044506D02*
Y047974D01*
Y044506D02*
X013731D01*
Y047521D02*
Y047974D01*
Y044506D02*
Y045258D01*
X037774Y026051D02*
X038526D01*
X032058D02*
X032511D01*
X038526Y022429D02*
Y026051D01*
X032058Y022429D02*
X038526D01*
X032058D02*
Y026051D01*
X033574D02*
X03431D01*
X034774D02*
X03581D01*
X036274D02*
X03731D01*
X031122D02*
X031874D01*
X025406D02*
X025859D01*
X031874Y022429D02*
Y026051D01*
X025406Y022429D02*
X031874D01*
X025406D02*
Y026051D01*
X026922D02*
X027658D01*
X028122D02*
X029158D01*
X029622D02*
X030658D01*
X024482D02*
X025234D01*
X018766D02*
X019219D01*
X025234Y022429D02*
Y026051D01*
X018766Y022429D02*
X025234D01*
X018766D02*
Y026051D01*
X020282D02*
X021018D01*
X021482D02*
X022518D01*
X022982D02*
X024018D01*
X017762D02*
X018514D01*
X012046D02*
X012499D01*
X018514Y022429D02*
Y026051D01*
X012046Y022429D02*
X018514D01*
X012046D02*
Y026051D01*
X013562D02*
X014298D01*
X014762D02*
X015798D01*
X016262D02*
X017298D01*
X017829Y035219D02*
X018419Y034629D01*
X017829Y032621D02*
X018419Y033211D01*
X015821Y032621D02*
Y033428D01*
Y034373D02*
Y035219D01*
Y032621D02*
X017829D01*
X015821Y035219D02*
X017829D01*
X018419Y033211D02*
Y033467D01*
Y034373D02*
Y034629D01*
D17*
X02514Y0406D02*
Y04177D01*
X03515Y0406D02*
Y04177D01*
X02514D02*
X03515D01*
X02514Y0406D02*
X03515D01*
X02621D02*
Y04176D01*
X025831Y0402D02*
X029831D01*
Y0392D02*
Y0402D01*
X025831Y0392D02*
X029831D01*
X025831D02*
Y0402D01*
X028881Y03921D02*
Y0402D01*
X0488Y02575D02*
Y0269D01*
X04274Y02575D02*
Y0269D01*
Y02575D02*
X0488D01*
X04274Y0269D02*
X0488D01*
X04375Y02575D02*
Y02688D01*
X03411Y03926D02*
Y04044D01*
X02999Y03924D02*
Y04046D01*
X03517Y03924D02*
Y04046D01*
X02999D02*
X03517D01*
X02999Y03924D02*
X03517D01*
X035875Y04954D02*
X039875D01*
Y04854D02*
Y04954D01*
X035875Y04854D02*
X039875D01*
X035875D02*
Y04954D01*
X038925Y04855D02*
Y04954D01*
D18*
X05172Y036282D02*
Y043782D01*
X04122Y036282D02*
X05172D01*
X04122D02*
Y043782D01*
X05172D01*
X0426Y02695D02*
X052273D01*
X0426D02*
Y03295D01*
X0525D01*
Y02695D02*
Y03295D01*
X052273Y02695D02*
X0525D01*
X029286Y03735D02*
X0291D01*
Y03705D01*
X029286D01*
X0291Y037207D02*
X029214D01*
X029336Y03735D02*
Y03705D01*
Y03735D02*
X029536Y03705D01*
Y03735D02*
Y03705D01*
X029847D02*
X029733Y03735D01*
X029618Y03705D01*
X029661Y03715D02*
X029804D01*
X029917Y03735D02*
Y03705D01*
Y03735D02*
X030046D01*
X030088Y037336D01*
X030103Y037321D01*
X030117Y037293D01*
Y037264D01*
X030103Y037236D01*
X030088Y037221D01*
X030046Y037207D01*
X029917D02*
X030046D01*
X030088Y037193D01*
X030103Y037179D01*
X030117Y03715D01*
Y037107D01*
X030103Y037079D01*
X030088Y037064D01*
X030046Y03705D01*
X029917D01*
X030184Y03735D02*
Y03705D01*
X030355D01*
X030574Y03735D02*
X030388D01*
Y03705D01*
X030574D01*
X030388Y037207D02*
X030503D01*
X0301Y030502D02*
X02978Y03038D01*
X0301Y030258D02*
X02978Y03038D01*
X0301Y030217D02*
X02978D01*
X0301D02*
X02978Y030095D01*
X0301Y029973D02*
X02978Y030095D01*
X0301Y029973D02*
X02978D01*
X0301Y02979D02*
X030085Y029821D01*
X030054Y029851D01*
X030024Y029866D01*
X029978Y029882D01*
X029902D01*
X029856Y029866D01*
X029826Y029851D01*
X029795Y029821D01*
X02978Y02979D01*
Y029729D01*
X029795Y029699D01*
X029826Y029668D01*
X029856Y029653D01*
X029902Y029638D01*
X029978D01*
X030024Y029653D01*
X030054Y029668D01*
X030085Y029699D01*
X0301Y029729D01*
Y02979D01*
Y029456D02*
X02978D01*
X0301Y029563D02*
Y02935D01*
X021525Y030705D02*
X021205Y030583D01*
X021525Y030461D02*
X021205Y030583D01*
X021525Y03042D02*
X021205D01*
X021525D02*
X021205Y030298D01*
X021525Y030176D02*
X021205Y030298D01*
X021525Y030176D02*
X021205D01*
X021525Y029994D02*
X02151Y030024D01*
X021479Y030054D01*
X021449Y03007D01*
X021403Y030085D01*
X021327D01*
X021281Y03007D01*
X021251Y030054D01*
X02122Y030024D01*
X021205Y029994D01*
Y029933D01*
X02122Y029902D01*
X021251Y029872D01*
X021281Y029856D01*
X021327Y029841D01*
X021403D01*
X021449Y029856D01*
X021479Y029872D01*
X02151Y029902D01*
X021525Y029933D01*
Y029994D01*
Y02966D02*
X021205D01*
X021525Y029767D02*
Y029553D01*
X020508Y03736D02*
X02031D01*
Y03704D01*
X020508D01*
X02031Y037208D02*
X020432D01*
X020561Y03736D02*
Y03704D01*
Y03736D02*
X020775Y03704D01*
Y03736D02*
Y03704D01*
X021107D02*
X020985Y03736D01*
X020863Y03704D01*
X020909Y037147D02*
X021061D01*
X021181Y03736D02*
Y03704D01*
Y03736D02*
X021319D01*
X021364Y037345D01*
X021379Y037329D01*
X021395Y037299D01*
Y037269D01*
X021379Y037238D01*
X021364Y037223D01*
X021319Y037208D01*
X021181D02*
X021319D01*
X021364Y037192D01*
X021379Y037177D01*
X021395Y037147D01*
Y037101D01*
X021379Y03707D01*
X021364Y037055D01*
X021319Y03704D01*
X021181D01*
X021466Y03736D02*
Y03704D01*
X021649D01*
X021882Y03736D02*
X021684D01*
Y03704D01*
X021882D01*
X021684Y037208D02*
X021806D01*
X04062Y0304D02*
Y03072D01*
X04078D01*
X040833Y030667D01*
Y03056D01*
X04078Y030507D01*
X04062D01*
X040727D02*
X040833Y0304D01*
X041153D02*
X04094D01*
X041153Y030613D01*
Y030667D01*
X0411Y03072D01*
X040993D01*
X04094Y030667D01*
X04126Y03072D02*
X041473D01*
Y030667D01*
X04126Y030453D01*
Y0304D01*
X04062Y02874D02*
Y02906D01*
X04078D01*
X040833Y029007D01*
Y0289D01*
X04078Y028847D01*
X04062D01*
X040727D02*
X040833Y02874D01*
X041153D02*
X04094D01*
X041153Y028953D01*
Y029007D01*
X0411Y02906D01*
X040993D01*
X04094Y029007D01*
X041473Y02906D02*
X041366Y029007D01*
X04126Y0289D01*
Y028793D01*
X041313Y02874D01*
X04142D01*
X041473Y028793D01*
Y028847D01*
X04142Y0289D01*
X04126D01*
X023325Y038747D02*
X023272Y0388D01*
X023165D01*
X023112Y038747D01*
Y038533D01*
X023165Y03848D01*
X023272D01*
X023325Y038533D01*
X023645Y03848D02*
X023431D01*
X023645Y038693D01*
Y038747D01*
X023591Y0388D01*
X023485D01*
X023431Y038747D01*
X023965Y03848D02*
X023751D01*
X023965Y038693D01*
Y038747D01*
X023911Y0388D01*
X023805D01*
X023751Y038747D01*
X023172Y030623D02*
X023105Y03069D01*
X022972D01*
X022905Y030623D01*
Y030557D01*
X022972Y03049D01*
X023105D01*
X023172Y030423D01*
Y030357D01*
X023105Y03029D01*
X022972D01*
X022905Y030357D01*
X023305Y030623D02*
X023372Y03069D01*
X023505D01*
X023571Y030623D01*
Y030557D01*
X023505Y03049D01*
X023438D01*
X023505D01*
X023571Y030423D01*
Y030357D01*
X023505Y03029D01*
X023372D01*
X023305Y030357D01*
X039355Y039635D02*
Y039955D01*
X039515D01*
X039568Y039902D01*
Y039795D01*
X039515Y039742D01*
X039355D01*
X039675Y039902D02*
X039728Y039955D01*
X039835D01*
X039888Y039902D01*
Y039848D01*
X039835Y039795D01*
X039782D01*
X039835D01*
X039888Y039742D01*
Y039688D01*
X039835Y039635D01*
X039728D01*
X039675Y039688D01*
X027522Y030658D02*
X027455Y030725D01*
X027322D01*
X027255Y030658D01*
Y030592D01*
X027322Y030525D01*
X027455D01*
X027522Y030458D01*
Y030392D01*
X027455Y030325D01*
X027322D01*
X027255Y030392D01*
X027855Y030325D02*
Y030725D01*
X027655Y030525D01*
X027921D01*
X04584Y046799D02*
Y046533D01*
X045893Y046479D01*
X046D01*
X046053Y046533D01*
Y046799D01*
X046373D02*
X046267Y046746D01*
X04616Y046639D01*
Y046533D01*
X046213Y046479D01*
X04632D01*
X046373Y046533D01*
Y046586D01*
X04632Y046639D01*
X04616D01*
X024818Y042712D02*
X024765Y042765D01*
X024658D01*
X024605Y042712D01*
Y042658D01*
X024658Y042605D01*
X024765D01*
X024818Y042552D01*
Y042498D01*
X024765Y042445D01*
X024658D01*
X024605Y042498D01*
X024925Y042765D02*
X025138D01*
Y042712D01*
X024925Y042498D01*
Y042445D01*
X021273Y042797D02*
X02122Y04285D01*
X021113D01*
X02106Y042797D01*
Y042743D01*
X021113Y04269D01*
X02122D01*
X021273Y042637D01*
Y042583D01*
X02122Y04253D01*
X021113D01*
X02106Y042583D01*
X021593Y04285D02*
X021487Y042797D01*
X02138Y04269D01*
Y042583D01*
X021433Y04253D01*
X02154D01*
X021593Y042583D01*
Y042637D01*
X02154Y04269D01*
X02138D01*
X021906Y041791D02*
X021853Y041844D01*
X021746D01*
X021693Y041791D01*
Y041738D01*
X021746Y041684D01*
X021853D01*
X021906Y041631D01*
Y041578D01*
X021853Y041524D01*
X021746D01*
X021693Y041578D01*
X022226Y041844D02*
X022013D01*
Y041684D01*
X02212Y041738D01*
X022173D01*
X022226Y041684D01*
Y041578D01*
X022173Y041524D01*
X022066D01*
X022013Y041578D01*
X0276Y046058D02*
Y046378D01*
X02776D01*
X027813Y046324D01*
Y046218D01*
X02776Y046164D01*
X0276D01*
X027707D02*
X027813Y046058D01*
X028133D02*
X02792D01*
X028133Y046271D01*
Y046324D01*
X02808Y046378D01*
X027973D01*
X02792Y046324D01*
X028453Y046378D02*
X02824D01*
Y046218D01*
X028346Y046271D01*
X0284D01*
X028453Y046218D01*
Y046111D01*
X0284Y046058D01*
X028293D01*
X02824Y046111D01*
X02648Y046071D02*
Y046391D01*
X02664D01*
X026693Y046338D01*
Y046231D01*
X02664Y046178D01*
X02648D01*
X026587D02*
X026693Y046071D01*
X027013D02*
X0268D01*
X027013Y046284D01*
Y046338D01*
X02696Y046391D01*
X026853D01*
X0268Y046338D01*
X02728Y046071D02*
Y046391D01*
X02712Y046231D01*
X027333D01*
X02616Y0437D02*
Y04402D01*
X02632D01*
X026373Y043967D01*
Y04386D01*
X02632Y043807D01*
X02616D01*
X026267D02*
X026373Y0437D01*
X026693D02*
X02648D01*
X026693Y043913D01*
Y043967D01*
X02664Y04402D01*
X026533D01*
X02648Y043967D01*
X0268D02*
X026853Y04402D01*
X02696D01*
X027013Y043967D01*
Y043913D01*
X02696Y04386D01*
X026906D01*
X02696D01*
X027013Y043807D01*
Y043753D01*
X02696Y0437D01*
X026853D01*
X0268Y043753D01*
X02296Y04204D02*
Y04236D01*
X02312D01*
X023173Y042307D01*
Y0422D01*
X02312Y042147D01*
X02296D01*
X023067D02*
X023173Y04204D01*
X023493D02*
X02328D01*
X023493Y042253D01*
Y042307D01*
X02344Y04236D01*
X023333D01*
X02328Y042307D01*
X023813Y04204D02*
X0236D01*
X023813Y042253D01*
Y042307D01*
X02376Y04236D01*
X023653D01*
X0236Y042307D01*
X03134Y045999D02*
Y046319D01*
X0315D01*
X031553Y046266D01*
Y046159D01*
X0315Y046106D01*
X03134D01*
X031447D02*
X031553Y045999D01*
X031873D02*
X03166D01*
X031873Y046213D01*
Y046266D01*
X03182Y046319D01*
X031713D01*
X03166Y046266D01*
X03198Y045999D02*
X032086D01*
X032033D01*
Y046319D01*
X03198Y046266D01*
X03224Y045999D02*
Y046319D01*
X0324D01*
X032453Y046266D01*
Y046159D01*
X0324Y046106D01*
X03224D01*
X032347D02*
X032453Y045999D01*
X032773D02*
X03256D01*
X032773Y046213D01*
Y046266D01*
X03272Y046319D01*
X032613D01*
X03256Y046266D01*
X03288D02*
X032933Y046319D01*
X03304D01*
X033093Y046266D01*
Y046053D01*
X03304Y045999D01*
X032933D01*
X03288Y046053D01*
Y046266D01*
X03326Y046031D02*
Y046351D01*
X03342D01*
X033473Y046298D01*
Y046191D01*
X03342Y046138D01*
X03326D01*
X033367D02*
X033473Y046031D01*
X03358D02*
X033687D01*
X033633D01*
Y046351D01*
X03358Y046298D01*
X033846Y046084D02*
X0339Y046031D01*
X034006D01*
X03406Y046084D01*
Y046298D01*
X034006Y046351D01*
X0339D01*
X033846Y046298D01*
Y046244D01*
X0339Y046191D01*
X03406D01*
X03424Y046031D02*
Y046351D01*
X0344D01*
X034453Y046298D01*
Y046191D01*
X0344Y046138D01*
X03424D01*
X034347D02*
X034453Y046031D01*
X03456D02*
X034667D01*
X034613D01*
Y046351D01*
X03456Y046298D01*
X034826D02*
X03488Y046351D01*
X034986D01*
X03504Y046298D01*
Y046244D01*
X034986Y046191D01*
X03504Y046138D01*
Y046084D01*
X034986Y046031D01*
X03488D01*
X034826Y046084D01*
Y046138D01*
X03488Y046191D01*
X034826Y046244D01*
Y046298D01*
X03488Y046191D02*
X034986D01*
X04619Y04842D02*
Y04874D01*
X04635D01*
X046403Y048687D01*
Y04858D01*
X04635Y048527D01*
X04619D01*
X046297D02*
X046403Y04842D01*
X04651Y048687D02*
X046563Y04874D01*
X04667D01*
X046723Y048687D01*
Y048633D01*
X04667Y04858D01*
X046617D01*
X04667D01*
X046723Y048527D01*
Y048473D01*
X04667Y04842D01*
X046563D01*
X04651Y048473D01*
X047043Y04874D02*
X046936Y048687D01*
X04683Y04858D01*
Y048473D01*
X046883Y04842D01*
X04699D01*
X047043Y048473D01*
Y048527D01*
X04699Y04858D01*
X04683D01*
X04012Y03776D02*
Y03808D01*
X04028D01*
X040333Y038027D01*
Y03792D01*
X04028Y037867D01*
X04012D01*
X040227D02*
X040333Y03776D01*
X04044Y038027D02*
X040493Y03808D01*
X0406D01*
X040653Y038027D01*
Y037973D01*
X0406Y03792D01*
X040547D01*
X0406D01*
X040653Y037867D01*
Y037813D01*
X0406Y03776D01*
X040493D01*
X04044Y037813D01*
X040973Y03808D02*
X04076D01*
Y03792D01*
X040866Y037973D01*
X04092D01*
X040973Y03792D01*
Y037813D01*
X04092Y03776D01*
X040813D01*
X04076Y037813D01*
X0209Y03962D02*
X02122D01*
Y03946D01*
X021167Y039407D01*
X02106D01*
X021007Y03946D01*
Y03962D01*
Y039513D02*
X0209Y039407D01*
Y0393D02*
Y039193D01*
Y039247D01*
X02122D01*
X021167Y0393D01*
X02122Y03882D02*
X021167Y038927D01*
X02106Y039034D01*
X020953D01*
X0209Y03898D01*
Y038874D01*
X020953Y03882D01*
X021007D01*
X02106Y038874D01*
Y039034D01*
X02944Y046003D02*
Y046323D01*
X0296D01*
X029653Y04627D01*
Y046163D01*
X0296Y04611D01*
X02944D01*
X029547D02*
X029653Y046003D01*
X02976D02*
X029867D01*
X029813D01*
Y046323D01*
X02976Y04627D01*
X030026Y046323D02*
X03024D01*
Y04627D01*
X030026Y046056D01*
Y046003D01*
X030353Y045962D02*
Y046282D01*
X030513D01*
X030566Y046229D01*
Y046122D01*
X030513Y046069D01*
X030353D01*
X030459D02*
X030566Y045962D01*
X030673D02*
X030779D01*
X030726D01*
Y046282D01*
X030673Y046229D01*
X031152Y046282D02*
X030939D01*
Y046122D01*
X031046Y046176D01*
X031099D01*
X031152Y046122D01*
Y046016D01*
X031099Y045962D01*
X030993D01*
X030939Y046016D01*
X025875Y03872D02*
Y03904D01*
X026035D01*
X026088Y038987D01*
Y03888D01*
X026035Y038827D01*
X025875D01*
X026408Y03872D02*
X026195D01*
X026408Y038933D01*
Y038987D01*
X026355Y03904D01*
X026248D01*
X026195Y038987D01*
X026515D02*
X026568Y03904D01*
X026675D01*
X026728Y038987D01*
Y038933D01*
X026675Y03888D01*
X026728Y038827D01*
Y038773D01*
X026675Y03872D01*
X026568D01*
X026515Y038773D01*
Y038827D01*
X026568Y03888D01*
X026515Y038933D01*
Y038987D01*
X026568Y03888D02*
X026675D01*
X02526Y0381D02*
X02558D01*
Y03794D01*
X025527Y037887D01*
X02542D01*
X025367Y03794D01*
Y0381D01*
X02526Y037567D02*
Y03778D01*
X025473Y037567D01*
X025527D01*
X02558Y03762D01*
Y037727D01*
X025527Y03778D01*
X02558Y03746D02*
Y037247D01*
X025527D01*
X025313Y03746D01*
X02526D01*
X01941Y049645D02*
Y049965D01*
X01957D01*
X019623Y049912D01*
Y049805D01*
X01957Y049752D01*
X01941D01*
X019943Y049645D02*
X01973D01*
X019943Y049858D01*
Y049912D01*
X01989Y049965D01*
X019783D01*
X01973Y049912D01*
X020263Y049965D02*
X020156Y049912D01*
X02005Y049805D01*
Y049698D01*
X020103Y049645D01*
X02021D01*
X020263Y049698D01*
Y049752D01*
X02021Y049805D01*
X02005D01*
X034214Y03878D02*
Y0391D01*
X034374D01*
X034427Y039047D01*
Y03894D01*
X034374Y038887D01*
X034214D01*
X034747Y03878D02*
X034534D01*
X034747Y038993D01*
Y039047D01*
X034694Y0391D01*
X034587D01*
X034534Y039047D01*
X035067Y0391D02*
X034854D01*
Y03894D01*
X03496Y038993D01*
X035014D01*
X035067Y03894D01*
Y038833D01*
X035014Y03878D01*
X034907D01*
X034854Y038833D01*
X035965Y0496D02*
Y04992D01*
X036125D01*
X036178Y049867D01*
Y04976D01*
X036125Y049707D01*
X035965D01*
X036498Y0496D02*
X036285D01*
X036498Y049813D01*
Y049867D01*
X036445Y04992D01*
X036338D01*
X036285Y049867D01*
X036765Y0496D02*
Y04992D01*
X036605Y04976D01*
X036818D01*
X0389Y037145D02*
Y037465D01*
X03906D01*
X039113Y037412D01*
Y037305D01*
X03906Y037252D01*
X0389D01*
X03922Y037412D02*
X039273Y037465D01*
X03938D01*
X039433Y037412D01*
Y037358D01*
X03938Y037305D01*
X039327D01*
X03938D01*
X039433Y037252D01*
Y037198D01*
X03938Y037145D01*
X039273D01*
X03922Y037198D01*
X03954Y037145D02*
X039646D01*
X039593D01*
Y037465D01*
X03954Y037412D01*
X04002Y03459D02*
Y03491D01*
X04018D01*
X040233Y034857D01*
Y03475D01*
X04018Y034697D01*
X04002D01*
X04034Y034857D02*
X040393Y03491D01*
X0405D01*
X040553Y034857D01*
Y034803D01*
X0405Y03475D01*
X040447D01*
X0405D01*
X040553Y034697D01*
Y034643D01*
X0405Y03459D01*
X040393D01*
X04034Y034643D01*
X04066Y034857D02*
X040713Y03491D01*
X04082D01*
X040873Y034857D01*
Y034643D01*
X04082Y03459D01*
X040713D01*
X04066Y034643D01*
Y034857D01*
X04216Y02672D02*
X04248D01*
Y02656D01*
X042427Y026507D01*
X04232D01*
X042267Y02656D01*
Y02672D01*
X04216Y026187D02*
Y0264D01*
X042373Y026187D01*
X042427D01*
X04248Y02624D01*
Y026347D01*
X042427Y0264D01*
X042213Y02608D02*
X04216Y026027D01*
Y02592D01*
X042213Y025867D01*
X042427D01*
X04248Y02592D01*
Y026027D01*
X042427Y02608D01*
X042373D01*
X04232Y026027D01*
Y025867D01*
X03942Y048022D02*
X03974D01*
Y047862D01*
X039687Y047808D01*
X03958D01*
X039527Y047862D01*
Y048022D01*
X03942Y047489D02*
Y047702D01*
X039633Y047489D01*
X039687D01*
X03974Y047542D01*
Y047648D01*
X039687Y047702D01*
Y047382D02*
X03974Y047329D01*
Y047222D01*
X039687Y047169D01*
X039633D01*
X03958Y047222D01*
Y047275D01*
Y047222D01*
X039527Y047169D01*
X039473D01*
X03942Y047222D01*
Y047329D01*
X039473Y047382D01*
X040195Y046345D02*
Y046645D01*
X040345D01*
X040395Y046595D01*
Y046495D01*
X040345Y046445D01*
X040195D01*
X040695Y046345D02*
X040495D01*
X040695Y046545D01*
Y046595D01*
X040645Y046645D01*
X040545D01*
X040495Y046595D01*
X040995Y046345D02*
X040795D01*
X040995Y046545D01*
Y046595D01*
X040945Y046645D01*
X040845D01*
X040795Y046595D01*
X040805Y043985D02*
Y044305D01*
X040912Y044198D01*
X041018Y044305D01*
Y043985D01*
X041125Y044038D02*
X041178Y043985D01*
X041285D01*
X041338Y044038D01*
Y044252D01*
X041285Y044305D01*
X041178D01*
X041125Y044252D01*
Y044198D01*
X041178Y044145D01*
X041338D01*
X040955Y03545D02*
Y03577D01*
X041062Y035663D01*
X041168Y03577D01*
Y03545D01*
X041275Y035717D02*
X041328Y03577D01*
X041435D01*
X041488Y035717D01*
Y035663D01*
X041435Y03561D01*
X041488Y035557D01*
Y035503D01*
X041435Y03545D01*
X041328D01*
X041275Y035503D01*
Y035557D01*
X041328Y03561D01*
X041275Y035663D01*
Y035717D01*
X041328Y03561D02*
X041435D01*
X041775Y03248D02*
Y0328D01*
X041882Y032693D01*
X041988Y0328D01*
Y03248D01*
X042308Y0328D02*
X042202Y032747D01*
X042095Y03264D01*
Y032533D01*
X042148Y03248D01*
X042255D01*
X042308Y032533D01*
Y032587D01*
X042255Y03264D01*
X042095D01*
X03178Y03281D02*
Y03313D01*
X031887Y033023D01*
X031993Y03313D01*
Y03281D01*
X032313Y03313D02*
X0321D01*
Y03297D01*
X032207Y033023D01*
X03226D01*
X032313Y03297D01*
Y032863D01*
X03226Y03281D01*
X032153D01*
X0321Y032863D01*
X04134Y02436D02*
Y02468D01*
X041447Y024573D01*
X041553Y02468D01*
Y02436D01*
X04166Y024627D02*
X041713Y02468D01*
X04182D01*
X041873Y024627D01*
Y024573D01*
X04182Y02452D01*
X041767D01*
X04182D01*
X041873Y024467D01*
Y024413D01*
X04182Y02436D01*
X041713D01*
X04166Y024413D01*
X048998Y04465D02*
X048892D01*
X048945D01*
Y044383D01*
X048892Y04433D01*
X048838D01*
X048785Y044383D01*
X049318Y04433D02*
X049105D01*
X049318Y044543D01*
Y044597D01*
X049265Y04465D01*
X049158D01*
X049105Y044597D01*
X02772Y04993D02*
Y049611D01*
X02788D01*
X027933Y049664D01*
Y049877D01*
X02788Y04993D01*
X02772D01*
X02804Y049664D02*
X028093Y049611D01*
X0282D01*
X028253Y049664D01*
Y049877D01*
X0282Y04993D01*
X028093D01*
X02804Y049877D01*
Y049824D01*
X028093Y049771D01*
X028253D01*
X02684Y049933D02*
Y049613D01*
X027D01*
X027053Y049667D01*
Y04988D01*
X027Y049933D01*
X02684D01*
X02716Y04988D02*
X027213Y049933D01*
X02732D01*
X027373Y04988D01*
Y049827D01*
X02732Y049773D01*
X027373Y04972D01*
Y049667D01*
X02732Y049613D01*
X027213D01*
X02716Y049667D01*
Y04972D01*
X027213Y049773D01*
X02716Y049827D01*
Y04988D01*
X027213Y049773D02*
X02732D01*
X03141Y049961D02*
Y049641D01*
X03157D01*
X031623Y049694D01*
Y049907D01*
X03157Y049961D01*
X03141D01*
X03173D02*
X031943D01*
Y049907D01*
X03173Y049694D01*
Y049641D01*
X03224Y049971D02*
Y049651D01*
X0324D01*
X032453Y049704D01*
Y049917D01*
X0324Y049971D01*
X03224D01*
X032773D02*
X032667Y049917D01*
X03256Y049811D01*
Y049704D01*
X032613Y049651D01*
X03272D01*
X032773Y049704D01*
Y049757D01*
X03272Y049811D01*
X03256D01*
X03326Y049951D02*
Y049631D01*
X03342D01*
X033473Y049684D01*
Y049897D01*
X03342Y049951D01*
X03326D01*
X033793D02*
X03358D01*
Y049791D01*
X033687Y049844D01*
X03374D01*
X033793Y049791D01*
Y049684D01*
X03374Y049631D01*
X033633D01*
X03358Y049684D01*
X034201Y049961D02*
Y049641D01*
X034361D01*
X034414Y049694D01*
Y049907D01*
X034361Y049961D01*
X034201D01*
X034681Y049641D02*
Y049961D01*
X034521Y049801D01*
X034734D01*
X04608Y045575D02*
Y045255D01*
X04624D01*
X046293Y045308D01*
Y045522D01*
X04624Y045575D01*
X04608D01*
X0464Y045255D02*
X046507D01*
X046453D01*
Y045575D01*
X0464Y045522D01*
X046666Y045255D02*
X046773D01*
X04672D01*
Y045575D01*
X046666Y045522D01*
X04337Y048485D02*
X04369D01*
Y048645D01*
X043637Y048698D01*
X043423D01*
X04337Y048645D01*
Y048485D01*
X04369Y048805D02*
Y048912D01*
Y048858D01*
X04337D01*
X043423Y048805D01*
Y049071D02*
X04337Y049125D01*
Y049231D01*
X043423Y049285D01*
X043637D01*
X04369Y049231D01*
Y049125D01*
X043637Y049071D01*
X043423D01*
X0296Y049955D02*
Y049635D01*
X02976D01*
X029813Y049689D01*
Y049902D01*
X02976Y049955D01*
X0296D01*
X02992Y049902D02*
X029973Y049955D01*
X03008D01*
X030133Y049902D01*
Y049848D01*
X03008Y049795D01*
X030027D01*
X03008D01*
X030133Y049742D01*
Y049689D01*
X03008Y049635D01*
X029973D01*
X02992Y049689D01*
X03044Y049943D02*
Y049623D01*
X0306D01*
X030653Y049676D01*
Y04989D01*
X0306Y049943D01*
X03044D01*
X030973Y049623D02*
X03076D01*
X030973Y049836D01*
Y04989D01*
X03092Y049943D01*
X030813D01*
X03076Y04989D01*
X026413Y045736D02*
X02636Y045789D01*
X026253D01*
X0262Y045736D01*
Y045523D01*
X026253Y045469D01*
X02636D01*
X026413Y045523D01*
X026733Y045469D02*
X02652D01*
X026733Y045683D01*
Y045736D01*
X02668Y045789D01*
X026573D01*
X02652Y045736D01*
X027053Y045789D02*
X02684D01*
Y045629D01*
X026946Y045683D01*
X027D01*
X027053Y045629D01*
Y045523D01*
X027Y045469D01*
X026893D01*
X02684Y045523D01*
X024118Y045947D02*
X024065Y046D01*
X023958D01*
X023905Y045947D01*
Y045733D01*
X023958Y04568D01*
X024065D01*
X024118Y045733D01*
X024438Y04568D02*
X024225D01*
X024438Y045893D01*
Y045947D01*
X024385Y046D01*
X024278D01*
X024225Y045947D01*
X024705Y04568D02*
Y046D01*
X024545Y04584D01*
X024758D01*
X027353Y044556D02*
X0273Y044609D01*
X027193D01*
X02714Y044556D01*
Y044342D01*
X027193Y044289D01*
X0273D01*
X027353Y044342D01*
X027673Y044289D02*
X02746D01*
X027673Y044502D01*
Y044556D01*
X02762Y044609D01*
X027513D01*
X02746Y044556D01*
X02778D02*
X027833Y044609D01*
X02794D01*
X027993Y044556D01*
Y044502D01*
X02794Y044449D01*
X027886D01*
X02794D01*
X027993Y044396D01*
Y044342D01*
X02794Y044289D01*
X027833D01*
X02778Y044342D01*
X042468Y045857D02*
X042415Y04591D01*
X042308D01*
X042255Y045857D01*
Y045643D01*
X042308Y04559D01*
X042415D01*
X042468Y045643D01*
X042575Y045857D02*
X042628Y04591D01*
X042735D01*
X042788Y045857D01*
Y045803D01*
X042735Y04575D01*
X042682D01*
X042735D01*
X042788Y045697D01*
Y045643D01*
X042735Y04559D01*
X042628D01*
X042575Y045643D01*
X043108Y04591D02*
X042895D01*
Y04575D01*
X043001Y045803D01*
X043055D01*
X043108Y04575D01*
Y045643D01*
X043055Y04559D01*
X042948D01*
X042895Y045643D01*
X041543Y049677D02*
X04149Y04973D01*
X041383D01*
X04133Y049677D01*
Y049463D01*
X041383Y04941D01*
X04149D01*
X041543Y049463D01*
X04165Y049677D02*
X041703Y04973D01*
X04181D01*
X041863Y049677D01*
Y049623D01*
X04181Y04957D01*
X041757D01*
X04181D01*
X041863Y049517D01*
Y049463D01*
X04181Y04941D01*
X041703D01*
X04165Y049463D01*
X04213Y04941D02*
Y04973D01*
X04197Y04957D01*
X042183D01*
X041398Y045832D02*
X041345Y045885D01*
X041238D01*
X041185Y045832D01*
Y045618D01*
X041238Y045565D01*
X041345D01*
X041398Y045618D01*
X041505Y045832D02*
X041558Y045885D01*
X041665D01*
X041718Y045832D01*
Y045778D01*
X041665Y045725D01*
X041612D01*
X041665D01*
X041718Y045672D01*
Y045618D01*
X041665Y045565D01*
X041558D01*
X041505Y045618D01*
X041825Y045832D02*
X041878Y045885D01*
X041985D01*
X042038Y045832D01*
Y045778D01*
X041985Y045725D01*
X041931D01*
X041985D01*
X042038Y045672D01*
Y045618D01*
X041985Y045565D01*
X041878D01*
X041825Y045618D01*
X042608Y049692D02*
X042555Y049745D01*
X042448D01*
X042395Y049692D01*
Y049478D01*
X042448Y049425D01*
X042555D01*
X042608Y049478D01*
X042715Y049692D02*
X042768Y049745D01*
X042875D01*
X042928Y049692D01*
Y049638D01*
X042875Y049585D01*
X042822D01*
X042875D01*
X042928Y049532D01*
Y049478D01*
X042875Y049425D01*
X042768D01*
X042715Y049478D01*
X043248Y049425D02*
X043035D01*
X043248Y049638D01*
Y049692D01*
X043195Y049745D01*
X043088D01*
X043035Y049692D01*
X040748Y044917D02*
X040695Y04497D01*
X040588D01*
X040535Y044917D01*
Y044703D01*
X040588Y04465D01*
X040695D01*
X040748Y044703D01*
X040855Y044917D02*
X040908Y04497D01*
X041015D01*
X041068Y044917D01*
Y044863D01*
X041015Y04481D01*
X040962D01*
X041015D01*
X041068Y044757D01*
Y044703D01*
X041015Y04465D01*
X040908D01*
X040855Y044703D01*
X041175Y044917D02*
X041228Y04497D01*
X041335D01*
X041388Y044917D01*
Y044703D01*
X041335Y04465D01*
X041228D01*
X041175Y044703D01*
Y044917D01*
X040863Y034207D02*
X04081Y03426D01*
X040703D01*
X04065Y034207D01*
Y033993D01*
X040703Y03394D01*
X04081D01*
X040863Y033993D01*
X041183Y03394D02*
X04097D01*
X041183Y034153D01*
Y034207D01*
X04113Y03426D01*
X041023D01*
X04097Y034207D01*
X04129Y03426D02*
X041503D01*
Y034207D01*
X04129Y033993D01*
Y03394D01*
X037153Y034087D02*
X0371Y03414D01*
X036993D01*
X03694Y034087D01*
Y033873D01*
X036993Y03382D01*
X0371D01*
X037153Y033873D01*
X037473Y03382D02*
X03726D01*
X037473Y034033D01*
Y034087D01*
X03742Y03414D01*
X037313D01*
X03726Y034087D01*
X037793Y03414D02*
X037686Y034087D01*
X03758Y03398D01*
Y033873D01*
X037633Y03382D01*
X03774D01*
X037793Y033873D01*
Y033927D01*
X03774Y03398D01*
X03758D01*
X021915Y02972D02*
Y03004D01*
X022075D01*
X022128Y029987D01*
Y02988D01*
X022075Y029827D01*
X021915D01*
X022448Y02972D02*
X022235D01*
X022448Y029933D01*
Y029987D01*
X022395Y03004D01*
X022288D01*
X022235Y029987D01*
X022555Y02972D02*
X022661D01*
X022608D01*
Y03004D01*
X022555Y029987D01*
X01984Y02994D02*
Y03026D01*
X02D01*
X020053Y030207D01*
Y0301D01*
X02Y030047D01*
X01984D01*
X020373Y02994D02*
X02016D01*
X020373Y030153D01*
Y030207D01*
X02032Y03026D01*
X020213D01*
X02016Y030207D01*
X02048D02*
X020533Y03026D01*
X02064D01*
X020693Y030207D01*
Y029993D01*
X02064Y02994D01*
X020533D01*
X02048Y029993D01*
Y030207D01*
X0168Y02998D02*
Y0303D01*
X01696D01*
X017013Y030247D01*
Y03014D01*
X01696Y030087D01*
X0168D01*
X01712Y02998D02*
X017227D01*
X017173D01*
Y0303D01*
X01712Y030247D01*
X017386Y030033D02*
X01744Y02998D01*
X017546D01*
X0176Y030033D01*
Y030247D01*
X017546Y0303D01*
X01744D01*
X017386Y030247D01*
Y030193D01*
X01744Y03014D01*
X0176D01*
X01832Y02998D02*
Y0303D01*
X01848D01*
X018533Y030247D01*
Y03014D01*
X01848Y030087D01*
X01832D01*
X01864Y02998D02*
X018747D01*
X018693D01*
Y0303D01*
X01864Y030247D01*
X018906D02*
X01896Y0303D01*
X019066D01*
X01912Y030247D01*
Y030193D01*
X019066Y03014D01*
X01912Y030087D01*
Y030033D01*
X019066Y02998D01*
X01896D01*
X018906Y030033D01*
Y030087D01*
X01896Y03014D01*
X018906Y030193D01*
Y030247D01*
X01896Y03014D02*
X019066D01*
X01512Y02994D02*
Y03026D01*
X01528D01*
X015333Y030207D01*
Y0301D01*
X01528Y030047D01*
X01512D01*
X01544Y02994D02*
X015547D01*
X015493D01*
Y03026D01*
X01544Y030207D01*
X015706Y03026D02*
X01592D01*
Y030207D01*
X015706Y029993D01*
Y02994D01*
X01368Y02998D02*
Y0303D01*
X01384D01*
X013893Y030247D01*
Y03014D01*
X01384Y030087D01*
X01368D01*
X014Y02998D02*
X014107D01*
X014053D01*
Y0303D01*
X014Y030247D01*
X01448Y0303D02*
X014373Y030247D01*
X014266Y03014D01*
Y030033D01*
X01432Y02998D01*
X014426D01*
X01448Y030033D01*
Y030087D01*
X014426Y03014D01*
X014266D01*
X01202Y02994D02*
Y03026D01*
X01218D01*
X012233Y030207D01*
Y0301D01*
X01218Y030047D01*
X01202D01*
X01234Y02994D02*
X012447D01*
X012393D01*
Y03026D01*
X01234Y030207D01*
X01282Y03026D02*
X012606D01*
Y0301D01*
X012713Y030153D01*
X012766D01*
X01282Y0301D01*
Y029993D01*
X012766Y02994D01*
X01266D01*
X012606Y029993D01*
X01032Y03002D02*
Y03034D01*
X01048D01*
X010533Y030287D01*
Y03018D01*
X01048Y030127D01*
X01032D01*
X01064Y03002D02*
X010747D01*
X010693D01*
Y03034D01*
X01064Y030287D01*
X011066Y03002D02*
Y03034D01*
X010906Y03018D01*
X01112D01*
X01912Y02616D02*
Y02648D01*
X01928D01*
X019333Y026427D01*
Y02632D01*
X01928Y026267D01*
X01912D01*
X01944Y02616D02*
X019547D01*
X019493D01*
Y02648D01*
X01944Y026427D01*
X019706D02*
X01976Y02648D01*
X019866D01*
X01992Y026427D01*
Y026373D01*
X019866Y02632D01*
X019813D01*
X019866D01*
X01992Y026267D01*
Y026213D01*
X019866Y02616D01*
X01976D01*
X019706Y026213D01*
X040275Y02648D02*
Y0268D01*
X040435D01*
X040488Y026747D01*
Y02664D01*
X040435Y026587D01*
X040275D01*
X040595Y02648D02*
X040702D01*
X040648D01*
Y0268D01*
X040595Y026747D01*
X040861Y02648D02*
X040968D01*
X040915D01*
Y0268D01*
X040861Y026747D01*
X01784Y038852D02*
Y039171D01*
X018D01*
X018053Y039118D01*
Y039012D01*
X018Y038958D01*
X01784D01*
X01816Y038852D02*
X018267D01*
X018213D01*
Y039171D01*
X01816Y039118D01*
X018426D02*
X01848Y039171D01*
X018586D01*
X01864Y039118D01*
Y038905D01*
X018586Y038852D01*
X01848D01*
X018426Y038905D01*
Y039118D01*
X01312Y03896D02*
Y03928D01*
X01328D01*
X013333Y039227D01*
Y03912D01*
X01328Y039067D01*
X01312D01*
X01344Y039013D02*
X013493Y03896D01*
X0136D01*
X013653Y039013D01*
Y039227D01*
X0136Y03928D01*
X013493D01*
X01344Y039227D01*
Y039173D01*
X013493Y03912D01*
X013653D01*
X028825Y03823D02*
Y03855D01*
X028985D01*
X029038Y038497D01*
Y03839D01*
X028985Y038337D01*
X028825D01*
X029145Y03823D02*
X029252D01*
X029198D01*
Y03855D01*
X029145Y038497D01*
X023188Y035607D02*
X023135Y03566D01*
X023028D01*
X022975Y035607D01*
Y035393D01*
X023028Y03534D01*
X023135D01*
X023188Y035393D01*
X023508Y03534D02*
X023295D01*
X023508Y035553D01*
Y035607D01*
X023455Y03566D01*
X023348D01*
X023295Y035607D01*
X023615D02*
X023668Y03566D01*
X023775D01*
X023828Y035607D01*
Y035393D01*
X023775Y03534D01*
X023668D01*
X023615Y035393D01*
Y035607D01*
X015813Y035827D02*
X01576Y03588D01*
X015653D01*
X0156Y035827D01*
Y035613D01*
X015653Y03556D01*
X01576D01*
X015813Y035613D01*
X01592Y03556D02*
X016027D01*
X015973D01*
Y03588D01*
X01592Y035827D01*
X016186Y035613D02*
X01624Y03556D01*
X016346D01*
X0164Y035613D01*
Y035827D01*
X016346Y03588D01*
X01624D01*
X016186Y035827D01*
Y035773D01*
X01624Y03572D01*
X0164D01*
X01201Y049485D02*
Y049805D01*
X01217D01*
X012223Y049752D01*
Y049645D01*
X01217Y049592D01*
X01201D01*
X012543Y049805D02*
X012437Y049752D01*
X01233Y049645D01*
Y049538D01*
X012383Y049485D01*
X01249D01*
X012543Y049538D01*
Y049592D01*
X01249Y049645D01*
X01233D01*
X010289Y039765D02*
Y040085D01*
X010449D01*
X010503Y040032D01*
Y039925D01*
X010449Y039872D01*
X010289D01*
X010822Y040085D02*
X010609D01*
Y039925D01*
X010716Y039978D01*
X010769D01*
X010822Y039925D01*
Y039818D01*
X010769Y039765D01*
X010663D01*
X010609Y039818D01*
X010289Y044095D02*
Y044415D01*
X010449D01*
X010503Y044362D01*
Y044255D01*
X010449Y044202D01*
X010289D01*
X010769Y044095D02*
Y044415D01*
X010609Y044255D01*
X010822D01*
X030835Y03104D02*
Y03164D01*
X031035Y03144D01*
X031235Y03164D01*
Y03104D01*
X031835D02*
X031435D01*
X031835Y03144D01*
Y03154D01*
X031735Y03164D01*
X031535D01*
X031435Y03154D01*
X016035Y037145D02*
Y037745D01*
X016235Y037545D01*
X016435Y037745D01*
Y037145D01*
X016635D02*
X016835D01*
X016735D01*
Y037745D01*
X016635Y037645D01*
X03159Y03467D02*
Y034403D01*
X031643Y03435D01*
X03175D01*
X031803Y034403D01*
Y03467D01*
X03191Y03435D02*
X032017D01*
X031963D01*
Y03467D01*
X03191Y034617D01*
X024803Y049067D02*
X02475Y04912D01*
X024643D01*
X02459Y049067D01*
Y049013D01*
X024643Y04896D01*
X02475D01*
X024803Y048907D01*
Y048853D01*
X02475Y0488D01*
X024643D01*
X02459Y048853D01*
X025123Y0488D02*
X02491D01*
X025123Y049013D01*
Y049067D01*
X02507Y04912D01*
X024963D01*
X02491Y049067D01*
X021223Y046017D02*
X02117Y04607D01*
X021063D01*
X02101Y046017D01*
Y045963D01*
X021063Y04591D01*
X02117D01*
X021223Y045857D01*
Y045803D01*
X02117Y04575D01*
X021063D01*
X02101Y045803D01*
X02133Y04575D02*
X021437D01*
X021383D01*
Y04607D01*
X02133Y046017D01*
X028691Y046003D02*
Y046323D01*
X028851D01*
X028904Y04627D01*
Y046163D01*
X028851Y04611D01*
X028691D01*
X028797D02*
X028904Y046003D01*
X029224Y046323D02*
X029117Y04627D01*
X029011Y046163D01*
Y046056D01*
X029064Y046003D01*
X029171D01*
X029224Y046056D01*
Y04611D01*
X029171Y046163D01*
X029011D01*
X0262Y04888D02*
Y0492D01*
X02636D01*
X026413Y049147D01*
Y04904D01*
X02636Y048987D01*
X0262D01*
X026307D02*
X026413Y04888D01*
X026733D02*
X02652D01*
X026733Y049093D01*
Y049147D01*
X02668Y0492D01*
X026573D01*
X02652Y049147D01*
X022285Y04894D02*
Y04926D01*
X022445D01*
X022498Y049207D01*
Y0491D01*
X022445Y049047D01*
X022285D01*
X022392D02*
X022498Y04894D01*
X022605D02*
X022712D01*
X022658D01*
Y04926D01*
X022605Y049207D01*
X020025Y046756D02*
Y047076D01*
X020185D01*
X020238Y047022D01*
Y046916D01*
X020185Y046862D01*
X020025D01*
X020345Y047076D02*
X020452D01*
X020398D01*
Y046756D01*
X020345D01*
X020452D01*
X020611D02*
X020718D01*
X020665D01*
Y047076D01*
X020611Y047022D01*
X01221Y02624D02*
Y02656D01*
X01237D01*
X012423Y026507D01*
Y0264D01*
X01237Y026347D01*
X01221D01*
X01253Y02624D02*
X012637D01*
X012583D01*
Y02656D01*
X01253Y026507D01*
X01301Y02624D02*
X012796D01*
X01301Y026453D01*
Y026507D01*
X012956Y02656D01*
X01285D01*
X012796Y026507D01*
X02659Y026235D02*
Y026555D01*
X02675D01*
X026803Y026502D01*
Y026395D01*
X02675Y026342D01*
X02659D01*
X02691Y026502D02*
X026963Y026555D01*
X02707D01*
X027123Y026502D01*
Y026448D01*
X02707Y026395D01*
X027123Y026342D01*
Y026288D01*
X02707Y026235D01*
X026963D01*
X02691Y026288D01*
Y026342D01*
X026963Y026395D01*
X02691Y026448D01*
Y026502D01*
X026963Y026395D02*
X02707D01*
X032195Y026295D02*
Y026615D01*
X032355D01*
X032408Y026562D01*
Y026455D01*
X032355Y026402D01*
X032195D01*
X032515Y026615D02*
X032728D01*
Y026562D01*
X032515Y026348D01*
Y026295D01*
X036085Y040325D02*
Y040645D01*
X036245D01*
X036298Y040592D01*
Y040485D01*
X036245Y040432D01*
X036085D01*
X036618Y040325D02*
X036405D01*
X036618Y040538D01*
Y040592D01*
X036565Y040645D01*
X036458D01*
X036405Y040592D01*
X010453Y03792D02*
X010347D01*
X0104D01*
Y037653D01*
X010347Y0376D01*
X010293D01*
X01024Y037653D01*
X01056Y0376D02*
X010667D01*
X010613D01*
Y03792D01*
X01056Y037867D01*
X01624Y03914D02*
X016347D01*
X016293D01*
Y03882D01*
X01624D01*
X016347D01*
X01672Y039087D02*
X016667Y03914D01*
X01656D01*
X016507Y039087D01*
Y038873D01*
X01656Y03882D01*
X016667D01*
X01672Y038873D01*
X016826Y03882D02*
X016933D01*
X01688D01*
Y03914D01*
X016826Y039087D01*
X028691Y049935D02*
Y049615D01*
X028851D01*
X028904Y049669D01*
Y049882D01*
X028851Y049935D01*
X028691D01*
X029011Y049615D02*
X029117D01*
X029064D01*
Y049935D01*
X029011Y049882D01*
X025002Y039832D02*
X024949Y039885D01*
X024843D01*
X024789Y039832D01*
Y039618D01*
X024843Y039565D01*
X024949D01*
X025002Y039618D01*
X025109Y039565D02*
X025216D01*
X025162D01*
Y039885D01*
X025109Y039832D01*
X025376Y039885D02*
X025589D01*
Y039832D01*
X025376Y039618D01*
Y039565D01*
X018903Y041432D02*
X01885Y041485D01*
X018743D01*
X01869Y041432D01*
Y041218D01*
X018743Y041165D01*
X01885D01*
X018903Y041218D01*
X01901D02*
X019063Y041165D01*
X01917D01*
X019223Y041218D01*
Y041432D01*
X01917Y041485D01*
X019063D01*
X01901Y041432D01*
Y041378D01*
X019063Y041325D01*
X019223D01*
X014213Y041927D02*
X01416Y04198D01*
X014053D01*
X014Y041927D01*
Y041713D01*
X014053Y04166D01*
X01416D01*
X014213Y041713D01*
X01432Y041927D02*
X014373Y04198D01*
X01448D01*
X014533Y041927D01*
Y041873D01*
X01448Y04182D01*
X014533Y041767D01*
Y041713D01*
X01448Y04166D01*
X014373D01*
X01432Y041713D01*
Y041767D01*
X014373Y04182D01*
X01432Y041873D01*
Y041927D01*
X014373Y04182D02*
X01448D01*
X014158Y046298D02*
X014105Y046245D01*
Y046138D01*
X014158Y046085D01*
X014372D01*
X014425Y046138D01*
Y046245D01*
X014372Y046298D01*
X014105Y046405D02*
Y046618D01*
X014158D01*
X014372Y046405D01*
X014425D01*
X017668Y049227D02*
X017615Y04928D01*
X017508D01*
X017455Y049227D01*
Y049013D01*
X017508Y04896D01*
X017615D01*
X017668Y049013D01*
X017988Y04928D02*
X017882Y049227D01*
X017775Y04912D01*
Y049013D01*
X017828Y04896D01*
X017935D01*
X017988Y049013D01*
Y049067D01*
X017935Y04912D01*
X017775D01*
X035543Y039957D02*
X03549Y04001D01*
X035383D01*
X03533Y039957D01*
Y039743D01*
X035383Y03969D01*
X03549D01*
X035543Y039743D01*
X035863Y04001D02*
X03565D01*
Y03985D01*
X035757Y039903D01*
X03581D01*
X035863Y03985D01*
Y039743D01*
X03581Y03969D01*
X035703D01*
X03565Y039743D01*
X029035Y033305D02*
X028985Y033355D01*
X028885D01*
X028835Y033305D01*
Y033105D01*
X028885Y033055D01*
X028985D01*
X029035Y033105D01*
X029285Y033055D02*
Y033355D01*
X029135Y033205D01*
X029335D01*
X036303Y039922D02*
X03625Y039975D01*
X036143D01*
X03609Y039922D01*
Y039708D01*
X036143Y039655D01*
X03625D01*
X036303Y039708D01*
X03641Y039922D02*
X036463Y039975D01*
X03657D01*
X036623Y039922D01*
Y039868D01*
X03657Y039815D01*
X036517D01*
X03657D01*
X036623Y039762D01*
Y039708D01*
X03657Y039655D01*
X036463D01*
X03641Y039708D01*
X026413Y047547D02*
X02636Y0476D01*
X026253D01*
X0262Y047547D01*
Y047333D01*
X026253Y04728D01*
X02636D01*
X026413Y047333D01*
X026733Y04728D02*
X02652D01*
X026733Y047493D01*
Y047547D01*
X02668Y0476D01*
X026573D01*
X02652Y047547D01*
X022598Y045952D02*
X022545Y046005D01*
X022438D01*
X022385Y045952D01*
Y045738D01*
X022438Y045685D01*
X022545D01*
X022598Y045738D01*
X022705Y045685D02*
X022812D01*
X022758D01*
Y046005D01*
X022705Y045952D01*
X033985Y042905D02*
Y042305D01*
X034285D01*
X034385Y042405D01*
Y042505D01*
X034285Y042605D01*
X033985D01*
X034285D01*
X034385Y042705D01*
Y042805D01*
X034285Y042905D01*
X033985D01*
X034985Y042305D02*
X034585D01*
X034985Y042705D01*
Y042805D01*
X034885Y042905D01*
X034685D01*
X034585Y042805D01*
X03648Y04624D02*
Y04592D01*
X03664D01*
X036693Y045973D01*
Y046027D01*
X03664Y04608D01*
X03648D01*
X03664D01*
X036693Y046133D01*
Y046187D01*
X03664Y04624D01*
X03648D01*
X0368Y04592D02*
X036907D01*
X036853D01*
Y04624D01*
X0368Y046187D01*
D19*
X037642Y046773D02*
Y046023D01*
X038017Y046398D02*
X037267D01*
D20*
X046035Y045868D02*
X045702Y046202D01*
X046035D02*
X045702Y045868D01*
X046035Y046035D02*
X045702D01*
X045868Y046202D02*
Y045868D01*
X032102Y033915D02*
X032436Y034248D01*
Y033915D02*
X032102Y034248D01*
X032269Y033915D02*
Y034248D01*
X032436Y034082D02*
X032102D01*
X014627Y047425D02*
X014293Y047092D01*
Y047425D02*
X014627Y047092D01*
X01446Y047425D02*
Y047092D01*
X014293Y047258D02*
X014627D01*
M02*
